<?xml version="1.0" standalone="no"?>
<!DOCTYPE svg PUBLIC "-//W3C//DTD SVG 1.1//EN" "http://www.w3.org/Graphics/SVG/1.1/DTD/svg11.dtd" >
<svg xmlns="http://www.w3.org/2000/svg" xmlns:xlink="http://www.w3.org/1999/xlink" version="1.1">
<metadata>
Created by FontForge 20170731 at Wed Dec  3 14:58:26 2008
 By Aleksey,,,
(c) 2008 JOEBOB graphics - www.joebob.nl
</metadata>
<defs>
<font id="PencilPeteFONT" horiz-adv-x="334" >
  <font-face 
    font-family="pencilPete FONT"
    font-weight="400"
    font-stretch="normal"
    units-per-em="1000"
    panose-1="0 0 4 0 0 0 0 0 0 0"
    ascent="800"
    descent="-200"
    x-height="421"
    cap-height="732"
    bbox="-178.36 -463 643 800"
    underline-thickness="20"
    underline-position="-163"
    unicode-range="U+0020-2010"
  />
<missing-glyph horiz-adv-x="500" 
d="M63 0v800h375v-800h-375zM125 63h250v675h-250v-675z" />
    <glyph glyph-name=".notdef" horiz-adv-x="500" 
d="M63 0v800h375v-800h-375zM125 63h250v675h-250v-675z" />
    <glyph glyph-name=".null" horiz-adv-x="0" 
 />
    <glyph glyph-name="nonmarkingreturn" 
 />
    <glyph glyph-name="space" unicode=" " 
 />
    <glyph glyph-name="comma" unicode="," horiz-adv-x="221" 
d="M179 50q0 -10 -8 -37q-12 -38 -12 -40q-2 0 -8 4q-11 -15 -30 -42q-1 0 -9 7q-13 -12 -18 -23q-2 0 -8 5.5t-10 7.5q40 95 40 107q0 2 -1 14.5t-1 25.5v21h30q9 -13 26 -24q9 -5 9 -26z" />
    <glyph glyph-name="period" unicode="." horiz-adv-x="198" 
d="M141 -18h-7v12h7v-12zM138 46q0 -11 -4 -46q-11 -7 -26 -23q-8 9 -18 9t-18.5 15t-8.5 19q0 21 7.5 28t7.5 12t-2 14q8 15 25 15q10 0 20.5 -10.5t14.5 -18.5q-3 -4 -9 -13q0 -7 6 -14q5 4 5 13z" />
    <glyph glyph-name="A" unicode="A" horiz-adv-x="574" 
d="M69 66h-7v11h7v-11zM548 21q3 -10 3 -17q0 -13 -28 -24q-26 8 -37 35q-7 21 -15 43q-5 -7 -17 -7q6 10 1 32q-4 3 -12 11q-3 59 11 64q-2 2 -3 4.5t-3 4.5q-2 -2 -6 -4t-6 -4q-21 31 -29 31q-5 0 -4 -1.5t-4 -1.5t-5 2q1 4 0 5q-1 0 -11 -16q-8 -11 -13 -11t-7 4t-7 4
q-6 0 0 -7q1 0 -13 15l-16 -28q-4 4 -10 4q-5 0 -5 -4t-4 -4q-5 0 -7 6t-7 6q-6 0 -8 -3.5t-3 -3.5q0 13 -2 15q-5 -11 -11 -35q-1 0 -3.5 4t-7.5 4t-5 -8q-10 3 -28 12q-1 -2 -1 -9t-5 -7t-4 2t-4 2q-12 0 -2 -10q-2 2 -6 7t-6 7q-4 -5 2 -11q1 0 -14 15q0 -1 -23 -36
q0 8 -5 24q-5 0 -5 -15h-15q-3 1 -3.5 3.5t-2.5 3.5q-11 -13 -29 -42q-1 -4 0 -13q2 -11 2 -14q0 -11 -10 -19q2 -2 11 -2q0 -8 -8 -25q-11 -22 -25 -22q-6 0 -12 9l-11 15l-10 40q0 6 14.5 32t17.5 29q-8 13 -8 38q0 11 19 28l1 37q-7 0 -10 3q4 14 9 37l5 47q12 4 12 10
q0 2 -5 10v16q4 3 22 11q5 13 3 38q-3 30 -2 41q14 3 10 7l8 -6q6 6 6 10q0 3 -20 23q4 4 10 -2q15 2 15 22q0 12 -5 24q16 0 15 0q0 -2 -11 19q2 0 5 -4t8 -6q10 20 -6 37q4 1 11 6q0 -5 7 -12q2 4 -2 11t-4 10q0 9 16 16q-4 8 -16 20l24 12l-4 13q-3 -4 -15 -11v14
q16 0 17 2l3 6q3 6 0 24q-6 -8 -19 -27q-3 10 10 27q16 23 18 26q1 65 36 64q27 -1 41 -21t10 -20q5 0 6 1h1q0 -14 -7 -17q1 -1 0.5 -5t5.5 -4t5 2q-2 7 -2 5q20 -28 35 -69q25 -64 31 -78q0 -17 -1 -49q2 -3 5 -3q1 6 6 16l2 -36q2 -27 15 -27q5 0 11 -6q-11 0 -15 -4v-11
l10 -10l8 8q10 -23 21 -46q15 -34 15 -44q0 -4 -7.5 -12t-7.5 -13q0 -20 10 -30q2 2 0 10q-2 12 -2 21q13 0 13 8q4 -35 -6 -48l6 -6l9 7q5 -11 9 -36q8 -9 17 -3q-2 -6 0 -26t-2 -30q16 -20 24 -57q11 -50 13 -56q11 -14 34 -43zM331 531v26h-7v-26h7zM354 466l-6 2l-5 -10
l6 -2zM397 328v26h-7v-26h7zM415 234v14q-9 8 -9 23q0 26 1 24q-10 0 -13 -3q-3 2 -1 8l2 7q-1 0 -2.5 -1.5t-6.5 -1.5q-6 0 -8 4.5t-2 5.5q7 6 7 29q-12 -13 -15 -13q2 6 2 11q0 8 -6 19q-9 14 -11 20q0 4 4 8q-2 8 -11 29t-9 25q0 8 4 11q0 2 -8 5t-8 7.5t-4 24t-4 27.5
q-17 24 -17 30q0 3 1 6q-7 -5 -11 -1q8 12 8 31q0 18 -7 21q-20 5 -20 34q-8 23 -17 40q-21 6 -41 -55q-5 -17 -10 -54q-5 -40 -8 -52q-21 -96 -51 -230q0 -3 -5 -13t-5 -14t-3.5 -33.5t-3.5 -45.5q4 2 17 2q4 0 7.5 -2t8.5 -2q4 0 7 4t8 4q4 0 11 -8l9 8q10 -4 23 -12
q-1 19 13 19q5 0 7 -3.5t7 -3.5t17 9.5t16 9.5q8 0 20 -6.5t13 -12.5q3 8 9 23q4 0 13.5 2t13.5 2h11q4 0 27 9.5t30 10.5zM489 143q-9 0 -9 8q-7 -7 4 -19q0 4 5 11zM483 84h-7l-4 -18h6zM205 144l-5 12l-5 -3l5 -9h5z" />
    <glyph glyph-name="B" unicode="B" horiz-adv-x="605" 
d="M399 9h-7v12h7v-12zM287 -9q0 -2 -6 -9.5t-8 -10.5q-3 3 -3 10q-1 7 2 10h15zM255 -16h-7v16h7v-16zM365 441h-7v20h7v-20zM266 472q-1 -2 -13 -18q0 19 3 33q0 -1 5 -6t5 -9zM503 665q-4 -12 -14 -36l-19.5 -6.5t-13.5 -16.5l-13 13q-14 -21 -33 -59q-10 -2 -48.5 -26.5
t-37.5 -24.5q-7 0 -7 -8q-3 0 -11 -5q0 9 -3 13q-8 -8 -24 -25q0 -14 13 -14q5 0 5 2.5t6 2.5t12.5 -6t8.5 -7h10q6 0 8.5 2t3.5 2q0 -1 -10 -21q0 2 -5 9q-11 1 -11 -15q0 6 -9 6q-6 0 -8 -2q2 3 -5 11q-6 0 -7 -17h-19h-18q-6 0 -6 -9q-4 6 -17 17q-1 -1 -3 -9t-8 -8
t-5.5 3.5t-1.5 5.5q-6 -7 -21 -17l-8 8q-2 -1 -1 -7t-5 -6q2 0 -21 2q-15 2 -27 -1q-4 -26 -4 -94q-1 -57 -11 -87l1 -10q1 -8 0 -13q-1 -7 -6 -8v1.5t0 -0.5v-6t5 -9q10 -8 12 -10q-4 -10 -15 -33q3 5 3 15h-10q0 -6 -8.5 -15t-8.5 -14t5 -11q-2 3 -7 0q-3 -4 -3 -7
q2 6 -2.5 18t-4.5 15q0 6 7 16q10 15 10 16q3 2 -6 2q-6 0 -6 -4t-5 -3h-13q19 12 19 31q0 9 -5 22.5t-5 15.5q0 7 5 28.5t5 31.5q0 12 -5 19q-1 5 12 18q-2 2 -3.5 7.5t-3.5 7.5q-2 -2 -4.5 -8.5t-4.5 -8.5q1 9 11 34q9 22 9 28q0 5 -8.5 11.5t-8.5 7.5l2 12q0 -9 11 -9
q4 18 -21 27v16q5 -4 9 -4q3 4 3 8q0 3 -2.5 9t-2.5 9q0 9 18 15q-6 49 -9 99l-11 -8q0 3 3.5 15t3.5 17v49q-8 8 -15 1q7 6 7 15q0 6 -10 22t-11 22q1 3 7 11v-14q4 -2 12 -7q10 5 10 24q9 11 16 -8q10 0 10 13q2 0 10 -8q4 4 4 17q11 -2 30 -13q11 13 19 12q0 -22 6 -29
q3 5 3 25q9 2 21 -1l12 -3q10 0 12 4l3 -8t8 -13q0 2 2.5 9.5t1.5 11.5q28 -9 44 -4q6 -12 23 -30q-18 -4 -32 9q-3 -4 -3 -8q-12 0 -36.5 -2.5t-28.5 -2.5q-5 0 -10 8q-8 12 -10 14q0 -18 -24 -25q-35 -9 -39 -12q14 -55 14 -133q0 -60 -9 -90q2 -3 3.5 -6.5t3.5 -5.5
q1 0 5.5 6.5t10.5 6.5q5 0 4 -2t5 -2q5 0 5 4t5 4q6 0 9 -4.5t5 -4.5q3 15 -1 25l11 10q-6 -9 4 -9q6 0 6 2q-2 7 -2 5q0 -12 9 -28q10 10 14 23q-2 3 -8 1l-9 -2q8 10 20 16q5 -7 5 -12q0 -2 -1 -4v-4q0 -9 13 -22q11 4 10 20q0 23 2 26q2 -6 11 -21q6 4 6 15q0 -7 4 -10
q2 4 1 15q-3 16 -3 22q12 4 16 4q0 -10 -3 -14q3 -5 11 -14h14v18q-6 5 -17 16q8 3 23 -5q-1 6 14 25q0 -13 11 -13q3 7 9 22q0 -5 4 -9q5 9 4 30l9 -9q2 8 8 25l24 23q21 20 21 39q0 15 -18 17q-23 4 -31 15q-8 -8 -16 -8q-5 0 -12.5 6t-13.5 6t-11.5 -1.5t-6.5 -1.5v20
q3 1 8 1q13 0 42 -6.5t32 -6.5t12.5 -11t14.5 -11q6 0 6 9l6 -12q5 -9 12 -9q5 0 4 2t4 2q15 0 16.5 -9.5t2.5 -19t13 -9.5q8 0 16 8zM499 170q-9 0 -16 15q8 5 12 5q0 -2 2 -10t2 -10zM416 60h-6l-5 10l6 3zM110 231q-3 -3 -7 0q-5 3 -7 3q0 -11 5 -18q-3 -2 -12 3t-9 12
q0 6 20 36q1 -10 -7 -27q6 -1 17 -9zM94 192h-6l-5 10l6 2zM122 124q-3 0 -10 8q-4 -3 -4 -7q0 14 10 14q0 -10 4 -15zM73 111h-6l-5 14l6 3zM404 608l-5 14h-7l5 -16zM526 353l-4 4l-15 -14l4 -5zM505 319v15h-7v-15h7zM514 237h-7l-7 -19l6 -2zM111 608l-6 3l-5 -11l6 -3z
M433 115v12h-7v-12h7zM442 101h-7l-5 -20h7zM558 285q-5 6 -16 23q-1 10 5 17q-1 7 -11 48q-11 -11 -11 -1q-4 3 -15 26q0 -13 -7 -13q-5 8 -4 26q-11 -7 -30 -17q2 6 -8 29q-2 7 -88 34q3 -4 9 -18q4 -10 14 -15q13 13 11 13q7 -9 28 -24q44 -31 50 -59t6 -85
q0 -9 -13.5 -49t-20.5 -49q15 -6 15 -21q0 -2 -4 -23q-3 10 -10 26q-18 -12 -60 -54l6 1q5 1 7 0q4 -2 4 -7q0 -3 -11 -12l-10 8q-10 -7 -56 -42q-34 -26 -40 -26q-5 0 -4 2.5t-4 2.5q-1 0 -31 -17t-31 -17q-5 0 -11.5 4t-11.5 4q-25 0 -47 -11q-4 -10 -7 -10q-13 12 -17 12
q-1 4 -5 39q-2 23 -20 24q0 11 8 27q1 -2 12 -30q-8 23 -22 64q0 -4 -7 -13t-7 -15q0 -8 8 -25l-8 -7q-3 -4 -11 -21q-15 35 -30 51q9 -46 9 -42t9 4t6 -3q-2 -6 -2 -19t-2 -20q3 0 6 5.5t4 6.5q6 -12 -2 -19q15 -11 22 -31h117q0 17 6 17v-21q1 0 6.5 4t11.5 4t3.5 -4.5
t3.5 -4.5q5 0 4 2t4 2t5 -4t6 -4t13.5 5t9.5 5q-4 4 7 15q1 0 1.5 -4t6.5 -4q5 0 7 4t7.5 4t7.5 8t3 9l7 -7q0 -2 -2 -7t-2 -7q9 6 15 0q-1 21 16 38q2 -1 4.5 -6.5t5.5 -5.5q2 6 8 16.5t8 16.5q8 -8 14 -8q0 10 7 17l10 -9q15 3 22.5 20.5t9.5 17.5l9 -4q13 0 21 21
q7 -4 15 3q-5 2 -9.5 11.5t-7.5 13.5q3 5 10 15q2 -2 4.5 -6.5t4.5 -6.5v17q13 0 15 2q-9 8 -6 11h22q1 19 3 37t14 23q5 11 3 22q-3 17 -3 15q-2 0 -3 -2t-7 -2q-10 0 -2 6q8 8 8 10q-10 9 -9 11t-3.5 8t-4.5 8l10 12q1 -9 5 -21q5 5 14 5zM319 9l-6 13l-6 -3l6 -10h6z
M111 166v16h-7v-16h7zM73 200l-5 17l-6 -3l5 -14h6zM102 111l-4 5l-19 -19l4 -5zM73 90l-5 12l-6 -2l5 -10h6zM116 26v16h-8v-16h8z" />
    <glyph glyph-name="C" unicode="C" horiz-adv-x="542" 
d="M104 181q-1 0 -2.5 4t-7.5 4t-7.5 -2t-2.5 -2q0 1 -2 9t-2 16q18 -9 24 -29zM160 117q0 -4 -3.5 -12t-1.5 -12q-2 0 -10 -2.5t-10 -2.5q0 6 16 23q-6 6 -10 2q-4 3 -4 11q0 9 4 6q3 3 11 -1.5t8 -11.5zM507 123q0 2 -13 -31.5t-13 -45.5l-16 -4q-10 -5 -9 -21
q-2 -1 -11.5 -7.5t-15.5 -6.5q-5 0 -13 8q-3 -2 -11 -29q-3 0 -8.5 -2t-7.5 -2q1 5 -7 21q-11 -13 -26 -38q1 7 -16 25q-3 -3 -1 -9l2 -8l-19 17q-6 -6 -21 -17q0 5 -8 13q-19 -10 -19 -6q5 3 5 11q1 0 -7 7q-5 -11 -17 -25q-9 6 -21 21q-3 -4 -3 -8h-14q-7 0 -29 22t-36 21
q0 15 3 18q-2 3 -8 1q-7 -3 -8 -3l1 9q0 6 -3 6t-6 -2q-1 4 3 23l-7 7q-10 1 -15 -9q7 13 -5 25q-8 -8 -10 -8q-2 15 -2 44q-9 15 -17.5 31.5t-8.5 28.5q0 10 6 17v16q-6 2 -17 8v49q1 0 7.5 -2t14.5 -2v32q-4 3 -20 16q-8 5 -5 16q8 -3 14.5 -10.5t11.5 -14.5q7 4 7 19v32
q-3 0 -11 8q-12 -12 -14 -12q0 2 2 5t3 5q-1 14 7 33.5t8 23.5t-4 7q5 0 26 13q0 15 -17 15q10 11 19 45q0 -9 8 -17q3 7 18 25q7 35 33 79q16 6 42 24l9 -9q1 3 4 15q2 9 5 6q59 25 66 59q18 -1 36 5l8 -9l7 9q29 2 39 -2q5 -2 14 -10.5t14 -8.5t5 8q11 -11 29 -36
q-2 -2 -2 -5q0 -6 7 -16q12 -17 12 -18q1 -6 6.5 -28.5t5.5 -29.5v-31q-10 0 -10 -4q0 -5 6 -16q-6 -7 -6 -11q-1 3 -6 9q-3 0 -25 -21q0 1 -18 10q13 9 13 21q1 3 -3 7q-3 -4 -8 -4l-2 2q0 8 -2 10q-8 -7 -10 -7q2 5 25 22q-9 4 -25 13q0 15 -4 46q-7 15 -15 45
q-8 0 -27.5 4t-24.5 4q-4 0 -20.5 -17t-21.5 -17q-6 0 -7 4t-2 5q-17 -12 -17 -28q0 7 -4 11q-3 -3 -3 -21q-4 5 -8 5q5 -20 -22.5 -29t-27.5 -21q0 -6 3 -14q-2 2 -5 6t-5 6q-3 -1 -12 -21q0 5 -4 9q-2 -21 -2 -22q-2 -9 -13.5 -27.5t-14.5 -18.5q-6 0 -6 4.5t-1 4.5
q-1 -7 -2 -13q0 -6 7 -11q-8 -7 -21 -18q0 -19 -7 -25t-15 -12q13 -13 21 -11q0 -24 -4 -31q8 -8 13 -8q-13 -12 -13 -19q-5 -5 -3 -17q3 -17 3 -18q-3 0 -11 8q-2 2 -6 -2q5 -12 17 -33q0 -8 8 -8q0 -47 13 -71q-7 2 -19 13q-2 -2 -5 -7.5t-5 -7.5q7 -7 19 -32q12 13 12 25
q21 -48 21 -73q11 -11 26 -34.5l15 -23.5q6 0 8.5 2t3.5 2q0 -2 -2 -6.5t-2 -6.5q4 -1 9 -3q6 0 11 8q0 -1 -1 -9q0 -6 1 -9t6 -3q6 0 8.5 1.5t3.5 1.5q0 -9 11 -20l9 8q14 -8 42 -8q19 0 61.5 29.5t40.5 29.5q4 0 8 -4q17 20 37 50q10 0 15 5q0 -9 3 -13q7 11 26 30
q6 -1 6 -11zM89 391l-5 -4l-14 15l4 4zM212 575v20h-7v-20h7zM132 515h-8l-4 -29h7zM122 444l-19 9l-3 -6l20 -9zM55 304v20h-7v-20h7z" />
    <glyph glyph-name="D" unicode="D" horiz-adv-x="575" 
d="M151 189h-5l-6 10l6 2zM138 181q-2 0 -7 -2.5t-11 -2.5t-6 4.5t-1 4.5l7 -5q12 6 18 1zM115 130l-10 -15l-5 4l9 15zM220 3h-6l-5 10l5 2zM98 70l-3 -6l-11 5l2 6zM89 12q-2 -2 -7.5 -9t-7.5 -9q0 2 -2.5 9.5t-2.5 9.5q3 3 10 3t10 -4zM498 538q-9 3 -20 -2l6 17
q7 -15 14 -15zM455 576l-6 -3l-5 17h7zM503 502h-6l-4 10l5 3zM486 276q-11 -3 -22 -3q-6 0 -10 1h-4q6 10 18 29q5 -12 18 -27zM95 678l-6 -11l-6 2l5 11zM52 680q-3 4 -11 5q-6 2 -6 -1q2 9 -2 18q-8 3 -8 7q17 0 17 5q2 -11 -2 -19q8 -4 12 -15zM467 244h-7v11h7v-11z
M174 720q-6 -9 -20 -22q4 -3 12 -7q-5 -15 -28 -40l3 -39q6 6 6 12q6 -4 10 -4q0 -4 -5.5 -13t-5.5 -13q3 -4 11 1v-55q-13 0 -15 -2q4 -4 16 -12q0 -24 -12 -24q-9 0 -9 -6q10 -5 25 -4l-11 -11q-9 10 -18 2q9 -8 9 -12q3 2 -21 2q0 -6 8 -14q1 -2 -2.5 -14t-0.5 -19
q-2 0 -10 8t-12 8q-6 0 -7.5 -1t-3.5 -1q4 4 8 9.5t10 5.5q3 0 8 -4q0 10 -3 12t-2 7q3 1 5 15q3 15 -1 25q9 -3 20 3q-6 6 -13 6h-10q-4 1 -6 1q9 25 9 40q4 2 12 0t12 0q-20 47 -20 64q0 15 7 25q0 1 -3.5 5t-5.5 9q-7 -14 -21 -21q-16 9 -26 35q-4 15 -9 30q0 9 10 19
q3 0 5.5 -5.5t3.5 -6.5q-1 4 8 4q15 0 36 17q2 -7 9 -21q2 4 7.5 12.5t7.5 12.5q4 -2 11.5 -9.5t11.5 -9.5zM526 394q0 -6 -4 -13t-6 -11q0 8 -10 22q-4 3 -4 -7q0 -5 8 -19t8 -19t-7 -13q-12 -11 -13 -13q0 -4 8 -8q-10 -21 -4 -39q-8 -6 -28 -16q4 -3 8 -3q-5 -10 -19 -26
q1 -5 -1 -19q-1 -1 -12 -16q-9 -10 -15 -10q-5 0 -7 2.5t-3 2.5q-3 -25 -20 -46q-28 -33 -31 -38q-4 0 -14 -5t-17 -6q1 -4 1 -8q0 -14 -9 -25.5t-20 -7.5q-4 -4 3 -11q-1 1 -2 1q-5 0 -5 -11q0 4 -10 4q-6 0 -6 -13l-10 9l-11 -13l-21 21q-12 -5 -12 -18q0 -5 2.5 -15
t2.5 -13q0 4 -9 4q-5 0 -3 -4.5t-3 -4.5q-6 0 -25 9q-22 11 -29 12q-5 -10 -8 -20q-10 -18 -21 -18q-5 0 -3 4.5t-3 4.5q-6 0 -14 -9q-18 7 -18 29q0 6 3 11q-1 2 -7 5t-8 5q3 0 9.5 3.5t11.5 1.5q1 12 10 24q-7 8 -14 2q-7 7 -5 23q-2 4 -12 22q-9 14 -9 20q0 11 8.5 27.5
t13.5 17.5q4 0 13 -9q1 1 1.5 9t5.5 8q6 0 8.5 -2t3.5 -2q2 2 2 6.5t2 6.5q-2 -1 2.5 -6.5t4.5 -10.5q0 -13 -15 -30q3 15 0 21q-8 -8 -11 -25q-2 -15 1 -25q1 0 -10 12q-2 0 -5.5 -4t-5.5 -4l-6 -6q10 -6 14 -16q6 1 29 26q1 7 1 -20q-4 0 -8 -4q25 -56 32 -56q6 0 25 7.5
t25 8.5l13 13q5 0 12 -17q19 29 19 42q6 0 14 -8q23 46 51 73q23 31 82 91q0 18 16 59q14 37 26 55q0 3 -5 4.5t-7 3.5q16 15 16 36q0 104 -91 250q-1 -2 -3 -8.5t-4 -8.5q-32 14 -62 39v16q-6 -13 -6 -16h-12q-2 1 -5 2q1 4 0 6q-3 -3 -3 -12q8 -1 -32 -1q-5 0 -7 6.5
t-7 6.5q-6 0 -8.5 -4.5t-7.5 -4.5t-6.5 6.5t-6.5 6.5q1 0 -22 -12q10 10 15 40q3 23 18 23q6 0 20 -15q-2 -2 -6.5 -4.5t-6.5 -4.5q0 -6 15 -6q5 0 9 -2q3 -1 5 1q0 10 -12 16q13 0 13 6q-2 -5 6 -21q8 8 29 25q0 -1 -5 -7.5t-7 -10.5q6 -3 23 -3q8 0 8 11q0 -2 20 -23
q6 7 2 13q4 -9 12.5 -13t14.5 -7q13 -17 20 -36q15 0 15 17h14q0 -11 8.5 -22.5t14.5 -11.5q5 0 5 2.5t6 2.5q5 0 6 -5v-4l13 8q0 -7 -8 -14q8 -8 22 -37q12 -25 17 -25l7 -5l-7 5q-4 -4 -4 -8q-6 16 -16 21q-2 -2 -3.5 -5t-3.5 -6q2 -1 8.5 -6t8.5 -7q-12 0 -15 3
q-2 -2 -2 -17q0 -26 21 -22l-8 -10q26 -18 34 -36l6 7v15q-13 9 -24 9q9 17 9 27h19q-9 -10 -7 -17q9 -13 10 -47q2 -31 -3 -38q16 -14 16 -34zM118 446l-12 -5v6l10 5zM113 343h-11v8h11v-8zM370 672v11h-7v-11h7zM434 598l-10 11l-4 -5l10 -10zM403 635l-7 3l-5 -11l6 -3z
M407 613v11h-8v-11h8zM475 473v11h-7v-11h7zM496 430v16h-7v-16h7zM508 405l-6 17l-6 -3l5 -14h7zM492 418l-6 16l-6 -2l5 -14h7zM483 380l-5 12l-5 -2l4 -10h6zM486 369q-6 0 -15 10q0 -21 6 -30q2 8 9 20zM126 673q0 4 -1 13v10q-17 -16 -16 -24q8 -8 17 1zM164 635l-7 3
l-5 -11l6 -3zM139 621v11h-7v-11h7zM113 513q-8 0 -19 -12v-16q6 0 14 -8q-8 19 -3 29q3 0 8 7zM99 432l-6 2l-6 -11l6 -2zM162 458q-5 0 -8.5 6t-6.5 8q0 -6 -2 -16.5t-2 -17.5q-8 0 -13 4q3 -7 3 -12q0 -8 -8 -10h-16q3 -7 12 -14q11 -10 13 -11q-7 -1 -14 -7t-11 -6
q2 -2 8.5 -7t8.5 -7q-5 -5 -7 -14q-4 -12 -5 -14h-21q14 -10 33 -30q-11 -4 -11 -22q0 -6 2 -21.5t1 -22.5q9 -4 11.5 -14.5t8.5 -13.5q-9 0 -20 -4q0 -11 10 -11q3 12 16 36q10 19 10 38q0 6 -8 20q-12 18 -13 18q8 7 8 11l-10 -9q-5 7 -5 14q10 12 10 29q4 -3 17 -3
q-4 8 -4 15q0 4 3.5 10t3.5 9q0 -6 -7 -6q-3 0 -4 6q-1 4 0 13q1 13 1 14q-4 0 -8 3q8 0 11 13q3 17 13 26zM108 202q0 19 -3 24q-3 0 -6.5 -7t-5.5 -8q2 0 7.5 -4.5t7.5 -4.5z" />
    <glyph glyph-name="E" unicode="E" horiz-adv-x="532" 
d="M499 697q0 -1 -15 -31q0 9 -8 17q-2 -4 -6 -14.5t-6 -14.5q-3 2 -9 9t-12 7t-5 -2q2 -7 2 -6l-10 9q-3 0 -7 4q-2 -2 -4.5 -8t-4.5 -9q1 5 3 10q2 7 -5 7q-5 0 -3 -4.5t-3 -4.5t-2 4.5t-2 4.5q-1 0 -12 -8.5t-12 -8.5q-6 0 -7 6t-2 7q-6 0 -6 -12q-4 0 -12.5 -2.5
t-13.5 -2.5t-6.5 4t-6.5 4q-3 0 -24.5 -6t-32.5 -6q-66 0 -83 -8t-20 -42l-10 -108q0 -20 4 -117q17 -4 58 -4q5 0 4 4.5t4 4.5t8 2t8 2t11.5 2t11.5 2q4 0 11.5 -4t12.5 -4q4 0 11 6t12 6q6 0 18 -12q15 20 78 20q9 0 24.5 -7.5t18.5 -17.5q15 0 24 8v-19q-17 -17 -22 -17
q-8 0 -16 8q-5 -5 2 -11q-13 0 -18 11q-3 -4 -3 -8q-10 0 -18 16q-9 -14 -21 -20q0 9 -4 12q-2 -1 -10 -9.5t-17 -8.5q-4 0 -9 2l-14 -12q2 8 -3 20q-15 -8 -29 -16q-25 -13 -40 -13q-6 0 -7 4t-6 4t-8 -6t-8 -6t-5 4v0q0 4 -5 4t-18 -8t-17 -8q-5 0 -5 6v0q0 6 -5 6
q-6 0 -3.5 -4t-3.5 -4q-5 0 -4 2q2 4 0 6q-12 -13 -11 -26q3 -43 0 -95q-3 -42 -6 -83q0 -9 -4.5 -36.5t-4.5 -31.5q0 -13 14 -27q4 12 53 12q5 0 14 -6t13 -6q6 0 6 2v4q9 2 53 2q4 0 37 -2t45 -2q3 0 35 7q-6 -6 -4 -20q2 -9 4 -19q-11 -3 -20 -3q-8 0 -14.5 3t-8.5 3
q-4 0 -14.5 -4t-16.5 -4q-5 0 -4 4t-4 4h-26q-6 0 -27.5 -8t-26.5 -8q-12 0 -53 20q-4 -3 -4 -12q0 2 -4 8q-3 -3 -3 -8h-20q-2 2 -5 3q1 4 0 5q-4 -6 -12 -20q-11 4 -32.5 17t-31.5 17q8 29 8 36q0 10 -5 18q3 2 9 6.5t8 6.5q1 3 -16 11q2 5 5 70q3 -4 10 -6q7 -1 7 2
q0 -14 1 -14q7 0 13 6q-8 14 -11 36q-1 7 -8 9q0 4 10 73q-17 36 -23 36t-6 -8q-24 21 -60 59q2 2 18 2q6 0 9 4t7 4l10 8q0 -4 12 -16q12 4 21 24q16 33 17 36q1 10 -12 11q1 3 6 11l8 -8q0 -1 1 -1q0 -1 1 1v6t-4.5 8t-6.5 6q-5 0 6 12q-3 -5 -3 -9q1 -3 5 -3q6 10 -4 22
v47q1 0 9 -7q4 13 15 38q-4 2 -10 -1.5t-10 -3.5q-5 0 -5 10q0 4 17 29v23l-7 7q-6 -3 -10 -3q17 16 17 32q0 10 -19 27q-15 14 -26 18l-9 11q5 4 9 9q9 8 18 8q5 0 6 -4t6 -4t6 4t6 4q6 0 7 -4q1 -7 2 -8q11 0 11 12q2 -2 7 -6t7 -6q-1 0 12 12l5 -7.5t9 -4.5q5 0 31.5 6
t31.5 6q6 0 9 -4t8 -4q4 0 10.5 4t11.5 4t58.5 2.5t58.5 2.5q4 0 13 -9q24 17 36 17q5 0 3 -4t3 -4q6 0 6 4t5 4t15.5 -4.5t14.5 -4.5q0 -1 2.5 -6.5t2.5 -11.5zM111 339l-5 16l-6 -2l4 -14h7z" />
    <glyph glyph-name="F" unicode="F" horiz-adv-x="463" 
d="M452 701q-2 -1 -5 -8.5t-4 -9.5q-9 12 -23 12q-4 -5 -11 -15h-13q-2 4 -7 11q-16 -15 -27 -15q-5 0 -2 3.5t-2 3.5t-8.5 -1.5t-4.5 -1.5q0 12 -2 15q-5 -4 -11 -15q-50 0 -127 7l-8 -7q-17 -1 -50 0q-4 -6 -4 -18q0 -8 2.5 -23.5t1.5 -20.5q-5 5 -10 1q9 -17 19 -21
q-5 -10 -19 -17q2 -2 11 -2v-18q-8 -1 -11.5 -17.5t-11.5 -20.5q4 -5 16 -14q-9 -6 -10 -33q-1 -30 -2 -32q-9 -7 -3 -28q-3 -14 -1 -16h-11l2 -28q6 6 6 11q7 -5 11 -5q-2 -2 -4 -5.5t-4 -5.5q11 -3 60 -3q4 0 10.5 3.5t10.5 3.5q0 -9 6 -22l2 21q0 5 1 10q2 -2 4.5 -6
t4.5 -6q11 0 11 10q0 -3 -1.5 -14t-1.5 -19q2 1 14 38q2 -5 10 -15q4 2 2 5l-2 5q9 9 17 9q10 0 16 -11l7 7q2 0 8.5 -2t8.5 -2q0 -8 5 -13l-13 -13q-2 2 1 5q-2 2 -5 3t-4 3q-7 -7 -7 -15l-9 8q-1 -10 -7 -27h-14q0 6 8 13q-3 5 -13 14q0 -10 -4 -31q-1 2 -5 7
q-7 -3 -23 -11q-8 8 -8 15q-9 -6 -6 -22q-10 5 -26 -4q2 2 8 4.5t7 4.5q-1 2 -21 2q-4 0 -3.5 2t-3.5 2q-7 0 -7 -15q-6 0 -19.5 1.5t-18.5 1.5q-13 0 -13 -24q0 -21 5 -29q-4 4 -8 4q-2 -14 0 -37q3 -30 3 -39q0 6 -5 5q-2 -1 -5 -2q0 -9 11 -9q0 -18 -15 -18l3 -12
q6 3 15 15q0 -6 2.5 -13.5t2.5 -10.5q0 -7 -11 -13v-56l6 -7q4 2 4 6q0 -1 2.5 -5t2.5 -10v-21q-8 0 -15 -7l3 -17q4 6 16 15v-17q1 -19 -13 -40q0 2 -4 8l-17 -15q4 5 4 8q-2 2 -6 1q-6 -2 -10 -2q-6 0 -26 30l9 -7q10 10 10 12h-19q0 6 7 13l-6 12l-6 12q4 2 8 6t8 6
q0 4 -4 3q-9 -2 -7 -2q2 6 4 11q4 9 0 16q-9 0 -9 75q7 7 24 20q0 5 -15 13v18q8 -1 14 6q-12 12 -19 27q-1 6 12 12q-2 4 -10 6t-9 5q0 1 2.5 7.5t8.5 6.5t7 -2t2 -2l6 6q-15 15 -19 23l8 7q-7 0 -8.5 1.5t-2.5 1.5q5 10 15 31q-9 -2 -13 -8.5t-6 -7.5q8 23 8 34q6 0 13 -7
l5 5q-13 12 -19 24q2 2 8 5.5t8 5.5q-3 2 -12 2v49q9 9 9 12q-3 -58 -11 -236q1 6 1 13q8 115 15 216q2 0 3.5 3.5t3.5 3.5q1 0 4 -1t4 0q2 1 2 5q0 21 -23 41q6 2 19 8q-2 3 -8.5 7t-6.5 8q0 1 16 1l3 67q-17 10 -18 52q-2 46 -17 61q5 0 25 21q1 -1 6 -8t9 -12q8 15 8 23
l2 -8q3 -7 9 -7t10 -4t5 -4q0 8 -2.5 13l-2.5 5q0 5 14 5q5 0 4 -2q-2 -4 0 -5q1 1 3.5 8t4.5 7q4 -4 19 -4q4 0 11 2t12 2t9.5 -2t9.5 -2t40.5 -2t40 -2t4 -3.5t3.5 -3.5q5 0 3 3.5t3 3.5q6 0 7.5 -5t2.5 -6q10 11 19 11q14 0 27 -19q2 2 9 13q5 6 10 6q20 0 32 -19
q7 0 15 8q0 -12 4 -16q4 0 11.5 -2.5t8.5 -2.5zM367 704q-10 9 -29 22q-7 -15 -7 -21q0 2 8 9q7 -15 16 -19q0 12 2 12q4 -4 10 -3zM323 696v10h-7v-10h7zM244 712q0 4 -14 17v-12q-10 0 -10 7q0 -5 1 -12.5t1 -8.5q10 3 22 9zM146 705l-6 2l-4 -10l5 -2zM123 615v10h-7v-10
h7zM123 453v11h-7v-11h7zM100 399v15h-7v-15h7zM77 424l-6 2l-5 -10l6 -2zM141 345l-2 5l-9 -4v-6zM88 19v14h-6v-14h6z" />
    <glyph glyph-name="G" unicode="G" horiz-adv-x="553" 
d="M428 78h-7v41h7v-41zM405 85l-5 -15l-5 2l4 13h6zM504 291q-2 -2 -8 -6t-8 -5q3 -4 11 1l5 -48q-2 -2 -6 -4t-6 -4q3 -8 3 -9q0 -2 -9 -11l-9 10q11 5 12 9v15q-12 -9 -20 -33v-22q3 -3 15 -3l-5 -23q1 4 -5 16q-4 -3 -4 -1q1 -17 3 -33q-14 -6 -21 -37q-7 -35 -20 -48
q0 12 -3 15l-6 -24q-6 -22 -12 -22t-14 -8q0 8 7 14q0 7 -6 13q-8 -7 -15 -37q-48 -36 -60 -36q-5 0 -3 4t-3 4t-6.5 -3.5t-2.5 -3.5q1 4 -7 18q-3 -7 -17 -19l-9 8l-16 -8q-4 5 -13 5q3 8 -2 18q-7 -6 -7 -15q-7 3 -20 3q-24 0 -71.5 38.5t-43.5 38.5q-5 0 -9 -3
q0 10 -26 40q-16 17 -16 46q-6 12 -16 36q5 0 15 10q-3 3 -3 6t3 6q-11 11 -11 9q1 0 5 -1.5t10 -1.5q7 0 15 17l-6 6q-2 -2 -8 -4t-8 -4q5 14 26 29q-12 6 -25 6q-6 0 -8 -4l-4 -8q2 16 10 43q8 24 8 34q0 13 -16 21q13 17 11 43q2 8 11 19q-1 12 -3 23q0 17 8 17l9 -4
q1 18 -3 21q3 4 3 25q1 -1 2.5 -10t6.5 -9h7h3q11 18 -4 53q11 0 12 13q4 25 4 26q2 0 8 -4q7 9 10 19.5t6 15.5q0 -9 3 -12q1 6 -1.5 16t-2.5 11q4 -2 15 -7q3 6 3 10q0 5 -4 12t-4 10q0 6 22 27.5t22 28.5q-1 -4 8 -4q6 0 23.5 13.5t21.5 25.5q7 0 13 -2t7 -2q5 11 16 27
q11 -8 17 -8t8 3t5 5q39 0 75 -12q0 -17 1 -17q32 -20 63 -40q28 -24 29 -80q-36 0 -59.5 51.5t-58.5 51.5h-10q-72 0 -131 -74q-47 -60 -76 -151q-25 -79 -20 -119q2 -16 -14 -47v-121q13 -4 19 -36q7 -42 9 -45q9 -10 24 -29q3 -10 8 -32q8 -2 20 -10.5t14 -8.5q8 0 12 4
q2 -2 4 -8t4 -8q7 2 22 -11q12 11 22 11q4 0 4 -2t5 -2q43 0 97 77q51 70 51 108q0 7 -4 10q9 5 12.5 31t15.5 32l7 6q-7 4 -7 14v9q1 6 1 9q0 6 -4 8q-16 5 -21 27q-6 28 -13 35q-3 -4 -3 -8q-5 2 -15 10.5t-15 8.5t-5 -2v0q0 -2 -5 -2q-2 0 -25 12q0 -7 -8 -23
q-6 2 -15.5 6t-15.5 6q-10 -16 5 -17q-10 -12 -25 -35q4 -6 -5 -21q3 4 3 8q-1 3 -5 3q0 -9 -6 -29q9 -14 9 -23q0 -7 -6.5 -12t-6.5 -7q0 -3 6 -18l8 8q-2 -4 -5 -8q-3 -7 0 -26q-5 7 4 7q6 0 10 15q7 3 21 4q12 -11 14 -11v18q19 7 15 11q-1 0 9 -10q5 6 17 15v-29
q-2 -6 -13 -16q-15 -14 -19 -20q0 2 -4 8q-3 -1 -10 -8.5t-13 -7.5q-5 0 -4 3.5t-1 4.5h-13q-6 -1 -13 -8q5 8 -4 8q-4 0 -21 14q-24 19 -29 23q-2 28 -17 57v13h15q-2 -7 -7 -24l6 -6q9 11 6 33q8 7 6 25l-2 28q5 6 12 20q-3 11 -9 11q1 0 15 11v-1q0 -1 -4 -6q0 -6 14 -17
q11 20 19 53q16 6 30 20q1 0 4.5 -7.5t7.5 -7.5t4 7q6 -9 16 -31q6 5 11 15.5t8 11.5l8 -7l8 7q0 -12 3 -15q5 6 17 15q0 -14 14 -34q3 3 3 15q2 -2 8 -5.5t8 -5.5l9 7q-1 -27 9 -27t17 -23l7 8q20 -7 28 -28q16 -45 17 -47zM455 295l-5 2l-5 -10l5 -2zM330 205q-1 1 -1 19
q-1 -2 -4.5 -7t-5.5 -7q4 -4 11 -5zM51 180l-5 2l-5 -10l5 -2zM78 121v18h-7v-18h7z" />
    <glyph glyph-name="H" unicode="H" horiz-adv-x="556" 
d="M84 599h-6v15h6v-15zM506 705q0 -8 -11 -70q-12 -69 -21 -101q-1 -39 -2 -77q-2 -47 -12 -76q0 -1 2.5 -3.5t2.5 -8.5v-18q-7 0 -22 -7q1 -1 3 -7.5t6 -11.5q8 8 8 9q0 -26 -11 -83q0 2 -4 8q-7 -3 -17 -18q6 -4 26 -4q-8 -5 -8 -32q0 -9 2 -43q2 -29 1 -46
q0 -4 -4.5 -19.5t-4.5 -23.5q0 -19 14 -60q-6 -3 -16 -14l-11 12q-4 -9 -15 -20q-4 6 -15 20l-11 -12q-16 9 -16 23q0 1 4.5 12.5t7.5 40.5q3 0 10 5v142l-10 -4q-1 4 1 12t2 12q0 12 -13 21q-5 0 -14 -8q-5 0 -13 17q-11 -12 -9 -20q-2 0 -8 -2.5t-7 -2.5l-9 8
q-16 -12 -51 -33q-4 7 -14 21q-3 -11 -20 -29q0 8 -4 8q-5 0 -15 -6t-15 -6q-4 0 -6 4t-7 4q-3 0 -7 -6.5t-9 -6.5t-8 2.5t-4 2.5l-14 -31q0 -4 5 -28.5t5 -33.5q0 -6 -3 -29.5t-2 -36.5q0 -7 5 -27t5 -25q0 -8 -9 -21.5t-16 -15.5q-1 2 -8 29q-5 0 -5 -13q-17 28 -17 42
q0 5 7 24.5t7 24.5q0 3 -10 18q3 21 -5 58q-7 5 -20 15q0 12 -1 24q-1 21 -8 21q-4 0 -4 -2t-5 -2q-4 0 -10.5 12.5t-11.5 12.5l-16 -3q2 2 4 7.5t4 7.5q11 -4 39 -4q10 0 17 22q5 16 5 24q0 11 -10 19q0 22 4 65q-2 13 -7 38q10 18 10 28q0 6 -11 9q0 -1 11 37q-4 4 -11 -2
q11 34 3 44q8 0 11 4q0 8 -1 10q-2 -1 -5 -6v14q7 -8 11 -8q3 3 3 10q0 9 -7.5 16t-7.5 11q0 -2 13 48q-3 12 -5 33v38q19 8 39 0q7 -53 7 -164v-151q0 -4 -3 -15.5t-3 -17.5v-82q2 -3 13 -3h9q4 0 4 -2t5 -2l16.5 12.5t31.5 12.5q4 0 11.5 -2t12.5 -2t9 5.5t5 5.5
q0 -12 6 -24q2 10 7 29q2 -4 7 -12q3 6 5.5 13t7.5 7t4 -2t4 -2t5 11q0 -7 11 -7q4 0 8 2t9 2t6.5 -2.5t3.5 -5.5q2 0 9 16q1 0 7 -1.5t11 -1.5t8 2t4 2l7 8q23 9 23 27q0 7 -4 19.5t-4 16.5q0 12 17 14q-10 27 -10 26q8 -2 23 -12q4 7 3.5 21t1 16t4.5 3q-2 2 -10 2
q1 10 3.5 20t10.5 11q-5 8 -3 28t-2 28q-7 9 -17 26q7 5 16.5 23t9.5 26q0 5 -15 38q4 5 15 17v23q-5 3 -13 20q0 -5 10 -5q5 11 0 21q-1 -2 -5 -4t-6 -4v53l8 -8q1 2 0.5 5t6 3t20.5 8q0 -8 3 -12q1 0 5 4.5t9 4.5q28 0 28 -71zM95 70h-5l-5 10l6 2zM466 743l-4 12l-5 -2
l4 -10h5zM473 713l-2 6l-9 -5v-6zM489 700h-6l-4 -13l5 -3zM481 666l-5 2l-5 -10l5 -3zM452 615v15h-7v-15h7zM431 354v32q-3 2 -7 7.5t-6 5.5q-5 -26 1 -45q7 6 12 0zM412 204l-9 15l-5 -4l9 -15zM345 286l-5 2l-5 -10l5 -3zM98 503l-2 5l-9 -5v-6zM103 462l-5 12l-5 -2
l4 -10h6zM408 111v15h-7v-15h7zM103 446l-5 12l-5 -2l4 -10h6zM228 252v11h-7v-11h7zM106 177v11h-6v-11h6zM117 138l-9 11l-4 -5l9 -10zM99 152v11h-6v-11h6z" />
    <glyph glyph-name="I" unicode="I" horiz-adv-x="218" 
d="M122 102l-4 -10l-6 2l5 10zM86 60h-7l-4 21h7zM100 665l-4 -14l-6 2l5 12h5zM141 724l-9 -323q0 -11 -7 -16.5t-15 -10.5q2 -2 3 -5t3 -4l11 11q1 -43 -5 -57q3 -6 4 -15q0 -6 -1.5 -17t-1.5 -13l4.5 -6.5t4.5 -11.5q0 -58 -15 -85q0 -7 10 -13q0 -50 4 -82t4 -40v-46
q-2 2 -5.5 -1t-8.5 -3t-4 3.5t-3 3.5q-5 0 -6 -3.5t-5 -3.5q-6 0 -5.5 3t-0.5 4q-2 -2 -3.5 -5.5t-3.5 -5.5q-9 11 -35 19v21q13 -3 18 0q-2 9 -18 17q8 16 28 50q5 9 5 31q0 7 -3 10.5t-6 0.5q2 3 2 13q4 0 8 1q0 1 -6.5 6.5t-7.5 7.5q-6 -7 -9 -7q9 13 16 43q0 -1 4 -7
q9 9 20 32v10q-5 5 -8 3q-6 -10 -24 -23l-4 14q8 3 8 13q0 6 -5 11q0 1 11 12q-5 6 -14 20q2 -2 4.5 -5.5t3.5 -5.5q6 12 6 24q0 4 -4 13t-4 13q-4 27 0 43q-8 10 -8 20q0 11 9 11q-8 -8 -8 -14q3 0 10 -7q2 2 3.5 7.5t3.5 7.5q-1 -5 6 -5q0 4 -5 19t-5 30l8 -8q2 2 4.5 3
t4.5 3q-3 12 -12 35q-4 0 5 9q-9 10 -17 15q-2 1 -2 11q0 4 4 12.5t5 13.5q7 2 21 8q0 1 -3.5 4t-3.5 7q5 -4 10 -1q-14 15 -14 29q0 5 2.5 9.5t2.5 5.5q0 -6 4 -9q9 9 9 38q0 3 -4 6.5t-4 6.5q0 5 7 13q-1 9 -4 25q-2 3 -13 3q0 5 7 12q-3 3 -7 3v43q11 0 11 4q11 0 11 -9
q0 1 27 1zM130 708l-6 2l-4 -9l5 -2zM118 512l-4 4l-9 -9l4 -4zM95 504q-2 0 -7 1.5t-7 1.5q2 -2 -1 -9t-3 -8q5 0 13 -8zM115 472l-4 4l-13 -13l4 -4zM104 304l-5 2l-5 -9l5 -3zM106 265v25h-14q0 -1 -2 -3t-2 -7q0 -6 6 -9zM117 146v6l-17 5v-7zM100 115v14h-6v-14h6z" />
    <glyph glyph-name="J" unicode="J" horiz-adv-x="530" 
d="M411 140l-6 -12l-5 2l6 12zM395 139q-2 1 -4.5 5.5t-4.5 6.5q5 5 9 5q9 0 0 -17zM351 63h-6l-2 23h6zM281 7q-3 0 -11.5 2t-11.5 2q0 10 19 20q0 -13 -6 -16q10 -10 10 -8zM73 131q-8 -9 -8 -13q-5 5 -5 13h13zM435 416l-5 -30h-5l5 30h5zM411 336l-4 -14l-5 2l4 12h5z
M473 710q0 -4 -6 -17.5t-7 -21.5q-3 -23 -1 -64q2 -49 2.5 -64t0.5 -32q0 -41 -6.5 -120.5t-6.5 -101.5q0 -20 2 -29q-4 0 -7 4q-1 -30 -10.5 -67t-9.5 -48q-1 0 -8 7q0 -4 -2 -11q-1 -4 1 -8q-11 -29 -30 -57q-4 0 -11 7q-7 -18 -17 -52q-6 3 -9 3q0 2 1.5 6t1.5 5l-5 6
q-2 -2 -4.5 -6t-4.5 -6q7 -7 7 -11q-6 -5 -4 -15q-4 0 -8 3q-7 -12 -3 -19q-1 1 -4 6q-6 0 -14 -13q-6 9 -9 9v-21l-8 7q-12 -17 -23 -17q-3 0 -13 5t-14 5q-5 0 -15 -3v8q-7 0 -33 6l-6 7q-2 -2 -7 -5.5t-7 -5.5q-6 7 -17 21q-3 -4 -3 -7q-8 9 -22 24q-3 -2 -3 -17
q-12 24 -25 42q-2 0 -5.5 -3.5t-5.5 -3.5q-1 4 6 19q-2 2 -5 0t-3 -5q-12 23 -12 52q6 -6 10 -1v9q3 2 -5 2q-5 0 -4 -1.5t-3 -1.5q-5 0 -4 2q2 3 0 5q-4 -9 -12 -25q-1 5 -10 34q-8 23 -8 38q0 12 5 23q-13 -4 -14 -16q1 -10 1 -20q-2 4 -12 12q0 1 3.5 3.5t4.5 4.5
q3 9 2 38q1 3 6.5 11t5.5 18q11 -6 17 -20q6 -17 9 -20q-8 -2 -13 -27l6 -6q9 0 9 11q3 -35 25 -51q36 -94 70 -97q6 -19 13 -19q4 0 1.5 3.5t1.5 3.5q5 0 21.5 -5t20.5 -5q3 0 11 9t11 11q-5 -6 -1 -10q2 2 10 17q2 -1 5.5 -4.5l5.5 -5.5q2 2 2 13q15 0 15 3v-16q6 7 11 25
q8 28 9 30q2 0 4 -4.5t3 -5.5q6 15 11 35q2 -4 5.5 -9t5.5 -9q2 4 2 7q2 -2 4 -5t4 -5q13 19 -2 32l6 -8q6 6 6 15q0 7 -4 18t-4 12q0 13 16 38l-3 -8.5t-3 -13.5q0 5 5 5t4 -2q-2 -3 0 -5q3 9 7 18.5t12 11.5q-3 2 -6 2v20q2 -5 11 -17q13 13 13 17q-3 -3 4 -10q6 5 7 3
q6 10 0 21q-5 -2 -8 -2q6 6 9 16t12 23q-6 6 -14 6q8 13 17 45q-8 1 -10 -10q4 17 1 23q-12 -3 -12 -23q-7 -12 0 -29q-8 9 -24 26q8 6 13 21q0 3 -5 16q10 17 10 23q2 0 7 -3.5t7 -3.5q0 45 -1 44l-5 5l-15 -13q16 28 16 46q0 7 -2 13q3 15 10 40l14 13q-3 3 -8 2
q-4 -1 -4 -3q-4 3 1 8q-2 5 -12 12q1 1 1 -17q-2 2 -5 6t-5 6q28 48 28 64q0 10 -6 21q-11 -4 -10 -12q1 -17 1 -19q-11 24 -12 61q2 14 2 34q-8 6 -19 23q-3 -5 -14.5 -11t-16.5 -6q-4 0 -8.5 3.5t-8.5 3.5t-4 -6v0q0 -5 -5 -5q-9 0 -11.5 5l-4.5 9q-5 -2 -19 -13t-22 -11
q-4 0 -6 1.5t-6 1.5q-3 0 -20 -5t-23 -5q-14 0 -19.5 7t-10.5 15q10 12 33 33q2 -7 11 -21q5 0 5 14q1 0 4 -3.5t8 -3.5q3 0 3 7l7 -7q7 9 25 28q10 -10 15 -10t5 5q0 -8 4 -12l11 10q0 -21 4 -21l13 4q4 0 3 -2q-2 -4 0 -5q7 10 2 23q5 5 14 5q4 0 9.5 -5.5t9.5 -5.5
q1 0 22 10q-2 -10 2 -17q9 10 9 15q0 1 -3.5 8.5t-2.5 18.5q27 -14 35 -14q7 0 11 4q1 -3 15 -18q11 -11 11 -15zM381 701q0 12 -4 17q0 -3 -5 -9zM432 646v9h-6v-9h6zM361 708q0 17 -1 17q-3 0 -9 -4q0 -13 10 -13zM328 693l-9 9l-3 -4l8 -8zM429 535v16h-6v-16h6zM404 246
h-5l-4 -12l5 -2zM394 229v10h-6v-10h6zM391 190h-6l-4 -12l5 -2zM73 158q0 4 -20 4v-16q12 0 16 -4q0 1 2 6t2 10z" />
    <glyph glyph-name="K" unicode="K" horiz-adv-x="540" 
d="M74 55l-5 -9l-5 2l5 9zM84 683l-4 -9l-5 2l4 9zM541 10q0 -21 -10 -21q-5 0 -9 4l-4 4l-10 -7q0 3 -3 7l-11 -11q-90 49 -146 128q-8 0 -2 -7q-12 7 -33 30.5t-16 30.5q-13 8 -18 12.5t-9 14.5q-2 -2 -3.5 -7t-3.5 -7q-8 17 -32 50q-8 9 -19 15q1 2 9 16q6 10 6 15
q0 4 -3 7q-11 -10 -9 -17q-3 0 -11.5 -2t-11.5 -2q-11 12 -34 47q4 6 -4 6q-3 0 -3 -7q-7 8 -20 19q7 13 7 23q18 -2 21 7.5t6 17.5q3 -10 3 -29q5 11 8 11q0 5 2 25q-3 0 -3 -3q1 1 16 21l9 -7q6 6 -2 13q9 1 9 -3q3 3 0 6q-2 3 -5 3q11 8 24 33q10 20 19 40q2 -5 7 -14
q2 7 13 32q9 20 8 31q13 4 23 15q-1 -16 3 -22q1 4 16 17v13q-4 4 -14 4q9 3 17 24q10 27 16 35q1 0 4.5 -4t5.5 -4v32q2 0 7.5 -1.5t6.5 -1.5q5 7 -4 24q2 0 8 -1.5t8 -1.5q10 3 11 15q1 21 3 28q0 -13 7 -36q3 5 6 22q2 14 7 17q0 -14 8 -39q6 8 3 16q-3 13 -4 16
q5 0 9 -3q1 2 0 9q-2 12 -2 22q19 0 37 4q9 0 9 -16q0 -2 -17 -26q0 7 -6 7q0 -1 2 -13q-9 -14 -24 -40q0 7 -6 7q-3 -10 -12 -29q0 7 -3 11h-10q-2 -14 -4 -27q-7 -26 -19 -26q-5 0 -4 1.5t-4 1.5q-7 0 -12 -18q-1 -10 -3 -20q-9 -20 -25 -36q-2 3 -8 10q-2 1 -5 -2
q0 -1 5.5 -4.5t5.5 -8.5v-13q-7 0 -21 -14q-5 0 -6.5 2t-2.5 2q-5 -5 1 -18h-11q-5 -5 4 -5q-2 -3 -11 -23q-2 0 -5.5 1.5t-4.5 1.5q-4 -16 -25 -46q-31 -44 -35 -52q27 -36 53 -56q16 -11 16 -24q0 -7 -2 -21q5 0 5 7q1 -1 67 -58q5 -7 12 -15.5t6 -15.5q29 -26 97 -79
q3 -2 8 -14.5t9 -12.5q3 0 3 7q5 -9 10 -18.5t10 -9.5t15.5 -10.5t21.5 -10.5q6 0 8 -1h4zM252 236l-4 -9l-5 2l4 9zM113 665q0 -3 5.5 -11.5t4.5 -13.5q-8 -63 -11 -152q3 -25 4 -71q-4 -41 -12 -138q4 -4 0 -113q9 -8 9 -35q0 -23 -4 -37q10 -39 10 -76q0 -9 -20 -29
q-15 8 -41 23l8 8q1 9 -11 9q4 11 4 38q6 0 18 -7v47q-14 6 -14 17q4 -3 11 -10q3 2 9 9l-6 20q-7 16 -15 18q18 33 18 38q0 10 -2 10q-5 0 -6.5 -1t-2.5 -1q7 10 7 35l-5 6l-8 -6q2 8 4 38q1 15 13 30q-6 4 -17.5 34t-11.5 41q0 2 10 18.5t12 31.5q-3 22 -3 54q1 20 10 65
l-7 2q2 30 7 82q4 3 7 3q0 4 -2 9t-2 10q0 4 7 13.5t8 14.5q15 -5 15 -23zM72 188q-3 3 -6 2q-2 -1 -2 -4v29q0 -12 8 -27zM341 612l-5 2l-5 -9l5 -2zM284 497l-4 17h-6l4 -17h6zM245 460l-5 1l-4 -9l5 -2zM91 609l-5 1l-4 -9l5 -2zM180 303q0 3 -5 9q-5 -4 -5 -17zM203 275
l-5 2l-5 -9l5 -2zM63 79l-8 24l-5 -2l8 -22h5z" />
    <glyph glyph-name="L" unicode="L" horiz-adv-x="460" 
d="M434 46q0 -9 -2.5 -17.5l-2.5 -8.5l-8 7q-4 -4 -24.5 -5t-25.5 -10q1 8 -14 15q-11 -11 -11 -23q-10 3 -33 3q-9 0 -9 -11q-1 0 -11 9q-7 6 -12 6q-4 0 -18 -7l-9 -8q5 7 -4 7q-5 0 -5 -4v0q0 -4 -4 -4q-5 0 -7 2t-6 2q-5 0 -13.5 -8t-13.5 -8q-6 0 -6.5 5.5t-1.5 6.5
l-3 -6t-4 -6q-12 5 -19 20q-1 -1 -1.5 -6.5t-6.5 -5.5q-4 0 -3.5 2t-3.5 2q-5 0 -4 -4t-4 -4t-4 2t-3 2q-5 0 -5 -4v0q0 -4 -5 -4t-5.5 4t-5.5 4t-5 4v0q0 4 -5 4t-6 -1.5t-3 -1.5q0 2 2 7t2 9q-27 0 -33 -5q0 1 -6.5 6t-6.5 10q0 10 7.5 40t7.5 42q0 4 -5.5 17.5t-5.5 21.5
t4 14q-1 2 -7 10.5t-6 12.5q0 -6 6 -6q8 17 8 23q0 10 -12 10q2 13 12 38t10 29q0 11 -13 16q-3 -3 -3 -16q5 -5 5 4v45q-12 -2 -15 1q9 10 15 10l9 -8l10 11l-3 38h-9q-2 -9 3 -36q-9 7 -29 41q3 7 17 25q0 14 3 53.5t4 39.5q6 0 6 -2t1 -2q3 -3 3 6q0 8 -23 32
q15 14 30 36q-1 2 -7 4t-8 4l5 158q19 -4 46 -14l6 -6q-8 -82 -8 -211q0 -176 -1 -212q-5 -8 -17 -19q2 -3 8 -2q5 1 5 4q1 -51 -3 -61q9 -14 9 -28q0 -19 -16 -28q6 -6 19 -16v-18q-9 8 -15 4v-21q13 -4 16 -31q4 -32 17 -45q25 4 87 4q4 0 6 4t7 4q4 0 10 -2t11 -2
q4 0 65.5 10t66.5 10q23 0 40 -13zM83 476v15h-7v-15h7zM109 288v11h-6v-11h6zM91 188v11h-7v-11h7zM115 136q0 3 -4 11q-3 0 -10 -6q9 0 14 -5zM72 48v19h-7v-19h7z" />
    <glyph glyph-name="M" unicode="M" horiz-adv-x="678" 
d="M600 102l-8 -14l-5 4l8 13zM562 674h-5l-5 8l5 2zM643 -6q-25 -16 -33 -16q-3 0 -3 -7l-8 7q-6 -6 -6 -11q-10 7 -15 42q-15 100 -43 201q2 16 -3 49q-6 38 -6 42q0 5 14 13q-15 10 -15 33q1 20 1 39h14q0 4 -6 8q-9 6 -11 9q-1 41 -5 186q-4 7 -11 21q-7 -30 -7 -41
q1 7 -10 7q-2 -2 0 -5t4 -3q-13 -15 -13 -23q-3 -21 -1 -26q-11 6 -13 6q6 12 1 22q-12 -13 -12 -21q0 -5 9 -13t9 -13t-4 -8t-5 -4q-8 -50 -31 -98q-6 -25 -19 -58q2 -6 2 -19q-11 -9 -8 -21q-4 -12 -18 -34q3 -34 -22 -122q-27 -95 -48 -95q-4 0 -6 5.5t-6 5.5
q-5 0 -7.5 -3.5t-3.5 -3.5q-14 27 -22 67q-6 34 -13 67q-11 11 -11 27q-5 15 -44 102q-33 74 -36 110q-7 14 -13 48.5t-15 49.5q7 0 10 5q-5 8 -12 0q-7 30 -31 70q-13 -51 -16 -135q-2 -99 -6 -123q0 -3 3 -182q1 -55 5 -76q-1 -18 -3 -55q-2 -2 -15 -14q-9 -10 -13 -10
q-12 0 -19 5q-7 31 -7 51q0 15 4.5 34t4.5 27q0 12 2 15.5t3 1.5v281q7 13 7 29q0 6 -2 25q-2 15 -1 24q6 56 21 137q-1 6 0 52q10 5 30 17q0 -6 -3 -9q2 -5 19 -6t18 -18q2 4 2 7q14 -30 36 -90q21 -76 49 -189q24 -53 29 -65q16 -42 17 -66q3 -3 9 1q10 -25 38 -78
q13 5 17 25t7 20q5 0 4 -2q-2 -4 0 -6q6 6 6 14q0 2 -3 18q-3 13 -1 24q2 0 4 -5t3 -6q8 39 15 59q-2 -4 -2 -11q2 0 9 -7q1 6 8 20q-3 4 -10 -1q4 5 14 13q-6 6 -10 6q2 16 18 51q2 -4 7 -11l6 6q0 4 -5.5 10t-5.5 10q0 2 9.5 23.5t9.5 47.5q0 -2 4 -8q9 10 9 10.5t16 66.5
q2 9 2 27l3 -5.5t7 -5.5v18q1 14 13 21q-7 8 -7 11q0 9 9.5 34.5t17.5 30.5q0 14 2 44q9 6 26 23q0 -4 6 -11l8 7q0 -7 7 -14q5 0 5 10q9 0 9 -10q-6 -2 -18 0q-5 -18 3 -26q8 4 14 18l-2 -18t-11 -14v-10q2 -7 4.5 -14t6.5 -7q5 0 7 1.5t3 1.5q-6 -35 -6 -57q0 -3 4.5 -11
t4.5 -12t-8 -4q1 -5 9 -14q-9 -5 -5 -24q3 2 3 6q0 -22 8 -31q-3 3 -10 -3v-85q13 -14 14 -44q1 -36 7 -53q-1 -1 -11 -1q-5 -11 -1 -19q7 7 8 7q0 -25 -3 -33l7 -11q1 -1 -3 -20q3 -4 10 -4q-2 -2 -5 -4t-5 -4q5 -6 6 -5q7 -24 8 -65q1 -29 12 -41q0 -9 4.5 -31.5
t27.5 -103.5zM493 625v18l-9 -9zM494 605l-17 -4l5 -25q4 11 12 29zM558 432v17h-6v-17h6zM562 343v10h-6v-10h6zM556 354q-9 19 -9 14h-17v-15q11 12 18 12q2 -4 8 -11zM565 301h-5l-4 -13l5 -2zM558 246v10h-6v-10h6zM589 175l-12 9l-3 -5l12 -9zM565 187l-4 14l-5 -2
l4 -12h5zM357 250v10h-6v-10h6zM284 195l-4 13h-5l4 -15z" />
    <glyph glyph-name="N" unicode="N" horiz-adv-x="579" 
d="M500 74l-11 -4v5l9 5zM91 130q-7 5 -10 5q9 9 10 9v-14zM518 36q0 -8 -7 -23.5t-13 -15.5q-5 0 -4 2t-4 2q-3 0 -11 -7.5t-13 -7.5q-9 0 -30 41q-17 34 -33 68q-3 12 -6 23q-6 18 -17 19q-30 57 -93 164q-20 30 -148 237q-5 0 -7 -1.5t-3 -1.5q-9 12 -25 36q-8 -6 -8 -15
q0 -3 2 -13t1 -15q0 -49 1 -152q-4 -35 0 -50q-9 -33 -9 -62q0 -5 4.5 -8.5t5.5 -6.5q-3 -5 -3 -13t4.5 -26t4.5 -26q0 -10 -5 -17l-7 -6q7 -8 11 -30l4 -26q-4 1 -8 -3q12 -11 12 -18q0 -4 -2 -18q-3 -17 -4 -27q-6 -7 -26 -16q-5 4 -8 4q0 19 10 35q-16 16 -16 33
q0 11 9 29q-7 7 -15 7q3 3 -1 15q4 7 8 23v227q-3 1 -10 7q-10 189 -4 240q0 3 -5.5 12t-5.5 13q0 7 12.5 15.5t22.5 8.5q3 0 60 -84q65 -95 72 -104q44 -57 88 -143q12 -11 37 -31q1 -2 7 -22q5 -14 13 -17q0 -2 -7 -9q-2 -2 2 -5q5 3 8 3q2 -6 16 -22.5t14 -24.5
q0 -5 -3 -9q2 -3 14 -3q1 -10 11 -24.5t10 -23.5q0 -6 -4 -12q0 -3 4 -9l11 11q8 -13 8 -36q1 -8 10 -8q15 0 20 3v9q-18 16 -18 23q0 13 7 38.5t8 37.5l-6 6q-3 -3 -13 -3q9 38 0 46q11 -3 11 5l-7.5 50t-7.5 53q0 7 19 21v10l-6 6q-5 -3 -8 -3q-1 4 1 18t2 20q0 14 -7 17
v31q5 4 14 11q0 6 -10 6q-1 14 -1.5 29t-6.5 23l2 91l9 5q-7 8 -7 19q0 38 46 30q12 -11 12 -60q0 -91 -15 -111l4 -227q3 -12 9 -39q0 4 -3 8q-2 -2 -3 -7t-3 -7l2 -89q5 0 6.5 1t2.5 1l-8 -10q-2 -6 3 -14q3 3 3 11q5 -49 5 -81q-11 0 -10 1q6 -7 12 -21q0 -3 -2.5 -10
t-2.5 -12v-15l6 -6q3 3 3 11q6 0 6 -9zM479 643l-6 2l-4 -10l5 -2zM493 570l-13 13l-3 -4l12 -13zM159 548h-6l-4 -12l5 -2zM490 156l-5 11l-5 -2l4 -9h6zM376 204l-5 14l-5 -2l4 -12h6zM95 150v7h-10v-7h10z" />
    <glyph glyph-name="O" unicode="O" horiz-adv-x="549" 
d="M108 89l-4 -14l-6 2l5 12h5zM463 243h-7v22h7v-22zM514 401q-1 -1 -23 -12q0 -6 2 -8q4 0 4 4l5 -55q-6 -7 -13 -89q-8 -2 -12 -22q-1 -2 0 -33q0 -26 -18 -37q-9 -8 -14 -27.5t-2 -30.5q-2 -2 -6.5 -4.5t-6.5 -4.5q-4 3 -12 19q-3 -5 1 -28q-23 -20 -23 -30q0 2 -7 10
q-23 -23 -26 -23q-5 0 -4 2t-4 2t-2 -4t-2 -4t-5 2t-1 2q-1 -1 -2 -14q-1 -8 -7 -8q-5 0 -4 2q2 4 1 5q-18 -17 -18 -22q-1 2 -5 7q-2 -1 -9.5 -8t-12.5 -7t-5 4v0q0 4 -4 4q-5 0 -6 -2t-6 -2t-13 15q-1 -4 -5 -13t-6 -13q0 8 -3 11q-11 -11 -21 -11q-6 0 -7.5 3.5l-1.5 3.5
q-8 -7 -8 -9q0 15 -4 28q-10 -5 -38 1q0 5 -6 18q-3 -4 -3 -8l-9 8q-11 0 -5 12q-9 -1 -15 3l-10 -8q-2 6 -10 16q0 1 5.5 8t5.5 12q0 -6 5 -5l4 2q0 6 -6 12q-9 -10 -9 -11q-8 0 -13 11q-4 -3 -4 -19v53q-3 27 -24 37q6 -1 15 2l-3 28q-2 -2 -4.5 -8.5t-7.5 -6.5t-8.5 2.5
t-5.5 1.5v14q1 -2 5 -7q16 0 16 13t-13 39q-5 -10 -11 -17q6 6 6 11q-7 7 -15 -1q3 3 30 21v10q0 5 -4.5 10t-6.5 7q-10 0 -14 -3q0 13 8 15q1 13 17 53q-3 1 -6 1q-11 0 -11 -21q-1 5 -3 14t-2 15q0 8 4 6q-7 23 -7 51q0 -2 4 -8q2 2 3 6.5t3 6.5q-3 3 -10 -1
q0 3 -2.5 12.5t-2.5 14.5q0 4 6 23.5t6 28.5q19 -9 15 -9q-3 10 -1 32l-5 6q-4 -2 -4 -6q0 3 3 11.5t3 12.5q4 -5 16 -15q-1 5 13 25q-8 8 -14 2q2 11 6 29q1 -5 8 -15q7 9 0 40q16 10 17 32q0 18 11 18q5 0 5.5 -2t4.5 -2q0 10 -4 14q8 0 8 8l9 -7q6 1 19.5 20.5t17.5 31.5
q0 -8 7 -15q6 16 6 33q2 0 4 -3t7 -4h16q4 7 4 30l12 -11q17 19 26 19q5 0 5 -4t4 -4h13q8 9 2 15q27 -13 37 -20q16 -11 29 -28q3 3 3 15q4 -10 16 -30q7 2 18 7q0 -15 19 -18l7 -8q7 7 9 7q-2 -25 18 -44q13 -12 25 -24q1 -9 3 -29q13 -13 13 -10q0 -2 -7 -3q2 -2 15 -2
q4 -32 17 -98q2 -4 -3.5 -19.5t-5.5 -19.5q0 -6 6 -17q7 -15 9 -19zM459 604h-6l-4 -29h6zM337 690v15q-4 0 -9.5 3.5t-7.5 3.5q0 -8 10 -18q0 4 3 8q2 -3 4 -12zM453 552q-3 0 -9 4q-4 -8 5 -26q0 4 2 12t2 10zM463 541h-6l-4 -13l5 -2zM506 409v7h-14v-7h14zM483 385v14
h-17v-14h17zM179 665v14h-6v-14h6zM142 620v21h-7v-21h7zM444 276h-5l-5 -13l5 -2zM129 585q-3 0 -9 5q-6 -6 -4 -23q3 7 13 18zM454 495q0 5 -17 46.5t-18 49.5q-44 40 -48 77q-1 0 -4 -3.5t-8 -3.5q-4 0 -11.5 11t-16.5 11q-5 0 -4 -2t-4 -2t-22 15t-19 15q-4 0 -4 -2v0
q0 -2 -5 -2t-4 4t-3 4q-17 0 -52 -26q1 13 -4 26l-6 -11q0 -39 -3 -42q-21 -16 -37 -39q-28 -42 -33 -52q-17 -33 -34 -108q-9 -36 -9 -34q0 -2 2.5 -6t2.5 -23q0 -14 1 -38v-33q1 -31 8 -80q9 -65 10 -73q10 -14 13 -38q0 -17 1 -34q11 0 15 -2q16 -24 56 -65
q23 -16 59 -16q7 0 18 3.5t14 3.5q47 0 83 68q26 48 46 129q8 42 17 83q2 -8 9 -22q6 18 6 38q0 11 -2.5 32t-2.5 32q0 52 5 71t5 38zM84 507q-11 0 -11 -9q0 -8 10 -28q0 34 1 37zM84 458q-11 0 -10 -9v-12q3 7 10 21zM86 408v17h-7v-17h7zM60 381v10h-7v-10h7zM64 340v10
h-7v-10h7zM47 236q-2 9 -8 22q-10 0 -10 -10q0 -5 2 -8t2 -4h14zM104 194h-5l-6 -25h5zM97 102v10h-6v-10h6z" />
    <glyph glyph-name="P" unicode="P" horiz-adv-x="477" 
d="M53 706l-9 -18l-6 2l9 18zM436 501q-12 -53 -12 -62q-3 -1 -9 3q-4 -36 -31 -74l-50 -68q0 8 -5 11q-15 -27 -72 -96q-2 2 -3.5 6t-3.5 6q-7 -12 -13 -24q-12 -19 -18 -19q-5 0 -4 2t-4 2q-8 0 -35 -27q0 2 -4 8q-1 0 -5.5 -5.5t-9.5 -5.5t-5 1v0q0 2 -4 2
q-6 0 -13 -13.5t-7 -16.5q0 -6 7 -18.5t9 -17.5q1 -4 -1 -59.5t-5 -58.5l-8 7q-18 -18 -21 -18q11 11 0 11q-5 0 -11 -4t-7 -4q-5 7 -8 23l10 -8q6 0 8 3q-23 34 -23 42q0 2 4.5 16t4.5 21q0 9 -5 13q6 6 19 15l-9 10q-4 -1 -4 -4q1 3 8.5 16t7.5 21q0 7 -4 13
q-2 -4 -6.5 -14.5t-7.5 -16.5q-7 9 -5 37q3 46 4 42q0 16 -7 45.5t-7 27.5q0 7 8 25h12q2 1 2 2q0 3 -7 3q4 6 8 17.5t7 17.5l-6 6q-3 -6 -14 -23q-8 5 -10 17q-2 11 0 17q2 2 3.5 7t3.5 7q-3 3 -10 -2q-2 5 -1 16t3 11q3 -1 4 -9l3 -6q3 5 13 18v21q-12 -4 -15 -4
q11 23 11 26q0 6 -5 19.5t-13 16.5v14q0 -2 4 -7q1 2 9 7q5 4 5 10q0 13 -14 23q3 9 1 21q-2 14 -10 17q7 3 8 14q1 10 -4 14q1 0 5.5 4.5t9.5 4.5q6 0 7 -4t2 -4l7 7q0 4 -8 10q-13 9 -14 10q-4 1 -11 -15l-10 10q9 0 9 20q8 -4 15 0v12q-7 -1 -18 -6q10 10 10 21
q0 13 -16 36v17q6 3 27 17q16 11 21 11q6 0 6 -4l-1 -4l10 8h25q-2 -12 22 -27l6 6q-8 8 -11 6q0 11 8 19q4 -2 6.5 -8.5t7.5 -6.5q6 0 9.5 3.5t4.5 3.5q2 -1 3.5 -9t3.5 -10q9 8 22 19q2 2 13 -11l8 8q-1 0 13 0q5 0 4 -4t4 -4q6 0 6 6q0 -10 9 -10q5 0 5 8q5 -11 18 -31
q5 7 5 23q6 -6 10 -22q6 -21 7 -24q6 6 6 11q6 -5 20 -11q6 5 -1 19l10 -10q-1 -3 -3 -4l7 -5q1 0 5 3t6 1q5 0 5 -20q1 0 2.5 -1.5t7.5 -1.5q9 0 2 7q8 -6 10.5 -20t8 -14t11.5 -7h-6q-4 -1 -6 -1q-3 -3 -3 -8q0 -7 10 -20.5t17 -14.5v-75zM386 638l-2 5l-9 -4v-6zM316 683
v7h-10v-7h10zM263 722h-14v-22q5 7 14 22zM421 552q-10 10 -10 11q0 -5 -9 -24q9 0 9 -10q0 4 10 23zM403 444l-6 2l-5 -10l6 -2zM120 718q-2 0 -7 -1.5t-7 -1.5q0 -11 10 -11q4 4 4 14zM366 350q0 9 -10 19q0 -4 3 -9l-8 -8q2 -2 15 -2zM386 544q0 85 -129 143q-18 7 -62 9
q-67 3 -68 3v12q-2 -3 -14 -15q-8 -9 -8 -14q0 -4 7 -30.5t5 -42.5l4 -3q0 -17 -16 -24q8 0 12 -3q-4 -4 -9.5 -7.5t-5.5 -5.5q4 -4 10.5 -6.5t8.5 -3.5q-12 -13 -11 -23l15 -55v-106q1 1 -10 1q-12 0 -12 -12q6 7 6 -2q0 -7 10 2l6 -6q0 -11 1.5 -35t1.5 -28q0 -41 -7 -52
q12 -37 12 -51q18 6 47 22l8 -7q29 26 85 82q21 32 64 85l30 80q19 54 19 93zM110 500v11h-6v-11h6zM99 435v14h-7v-14h7zM103 403h-6l-5 -13l6 -2zM108 261q0 5 -3.5 11.5t-3.5 7.5q-11 0 -11 -13q0 -5 4.5 -10.5t4.5 -6.5q0 8 4 19q4 -4 5 -8zM118 166v10h-7v-10h7z
M122 73l-4 5l-19 -13l3 -5z" />
    <glyph glyph-name="Q" unicode="Q" horiz-adv-x="614" 
d="M532 37v0v0zM496 606l-5 -16l-5 2l4 14h6zM596 5q-1 -5 -3 -9q-3 -7 -9 -7q-10 0 -16 -9q-2 1 -26 29q-17 2 -23 21q-3 14 -7 29q-3 -3 -3 -16q-31 27 -48 53q0 2 1.5 6t1.5 6q0 6 -7 6q-5 0 -7.5 -2.5t-7.5 -2.5q-6 0 -7 12q-1 17 -3 20q-7 -11 -6 -38t-3 -37
q-1 6 -13 24q-5 -6 -8 -20q-4 -15 3 -21q-2 0 -9 1.5t-11 1.5q-3 -28 -23 -40q-20 -7 -40 -16q-2 12 -8 35q30 28 59 57q32 36 32 64q0 18 -7 36l-7 -7q-17 13 -45 35q-2 3 1 13q2 10 0 13l-12 -11q-6 10 2 32l-9 11q-7 -7 -13 -7v26q3 0 6.5 4t8.5 4q16 0 22 -16q6 0 6 12
q35 -23 40 -36q3 -13 13 -42l8 8q0 -10 11 -16q2 0 2 -9t2 -14q11 20 37 64q-7 7 -7 16q0 5 13 28q-2 5 -1 17q2 0 8 -1.5t8 -1.5q2 1 5 6t6 7q-3 2 -8 0l-7 -2q0 13 -9 13v131q6 4 14 21q0 -3 3 -9q8 1 18 11q0 1 1 3.5t1 3.5q-1 2 -6 2q-4 0 -10 -4t-11 -4t-9.5 4t-7.5 4
q0 2 4 14q3 9 0 13q-1 -2 -5.5 -2t-4.5 -2q0 19 -19 60l-42 56q-30 39 -54 54q-6 4 -16 22q-2 -2 -5.5 -8t-4.5 -8q-2 1 -13 10.5t-18 9.5q-25 0 -80 -58q-44 -45 -67 -100q-14 -33 -29 -93t-28 -87q0 -11 12 -11v-30q-2 0 -10 7q-2 2 -5 -2q12 -18 12.5 -72t10.5 -68
q-2 -7 -8 -20q0 -10 6 -10q4 0 4 9q3 -18 7 -29q6 -20 14 -20q-2 -5 -2 -11q0 -10 9.5 -26t9.5 -23t-4 -11q5 -6 17 -6q6 0 9 3.5t4 3.5q0 -26 7 -26q5 0 4 1.5t3 1.5q5 0 14 -16q10 0 10 7q0 -18 19 -18q6 0 19.5 2t18.5 2t8.5 -5.5t4.5 -5.5q4 4 -1 9q9 9 20 9q4 0 7 -1
q-5 -6 -4 -21q-24 -10 -25 -28q0 12 -5 16q-21 -12 -30 -12q-5 0 -8.5 4t-7.5 4t-13.5 3.5t-14 3.5t-11.5 10t-12 10l-8 -4q-5 0 -5 6v0q0 6 -5 6q-6 0 -6 -8q-10 9 -31 39q-2 -1 -4 -5.5t-5 -6.5q-5 10 -11 15.5t-6 7.5t3 6q-11 2 -13 20q-2 23 -21 39q12 21 12 27
q0 3 -10 22q-4 -4 -4 -8q0 7 3 14t3 8q0 3 -7 6q0 17 11 22q-1 13 -15 10q3 0 3 9l-5 4q1 2 1 6q0 6 -7.5 20.5t-7.5 24.5q0 20 23 31q-1 3 -8.5 9t-7 11t-3.5 19v21q3 0 4 4q2 4 -1 7q2 0 6.5 -3.5t6.5 -3.5l10 22q0 4 -7.5 13t-7.5 14q0 7 5 11l5 5q-1 12 3.5 38.5
t4.5 39.5q0 -6 11 -6t11 21q0 25 1 28q9 6 47 72q0 -1 4 -7l30 48q18 30 22 30q5 0 7 -2t3 -2q5 7 3 26q5 0 17.5 4.5t17.5 4.5q6 0 5.5 -3.5t0.5 -4.5q11 8 11 19q18 -11 24 -11q5 0 9 4q3 2 7 0l13 11q14 -20 40 -24q0 -1 -8 -8q7 -3 22 -26q8 14 8 29q0 -5 4 -18.5
t4 -18.5q6 5 6 15q-2 0 6 -15q11 11 11 21q0 -27 -2 -33q5 -3 13 -1q11 2 12 2q7 0 14.5 -8t7.5 -14q0 -5 -7 -13t-8 -10q2 -2 9 -2q14 0 12 15q4 -4 13 -4q0 -82 7 -82q22 0 21 -1q-2 -4 -2 -8q0 -10 17 -29.5t17 -29.5q0 -4 -3 -22.5t-3 -26.5q0 2 -4 7q-2 2 -5 -1
q0 -1 1.5 -5.5t7.5 -4.5q5 0 8.5 1.5t4.5 1.5v-14q-1 0 -3.5 3t-8.5 5q1 -14 1 -38q-10 -14 -6.5 -31.5t-1.5 -24.5q-1 -2 3.5 -2.5t4.5 -6.5q0 2 -5.5 -1.5t-3.5 -17.5q5 2 9 2q-15 -4 -17 -27v-37q-7 0 -15 -8q-2 0 -3 5.5t-6 5.5q-6 0 -6 -1q2 -2 2 -3q1 1 -11 16
q-7 -5 -7 -12q0 -13 20 -19q14 -4 27 -8q-5 -8 -13 0q-9 -7 -15 -31q-6 -30 -15 -42q0 -13 8 -13h11q6 -1 8 -1q3 -8 8 -40q3 -22 18 -42q2 2 5 3.5t5 3.5q-9 13 2 25q0 -5 4.5 -16t4.5 -17q0 -5 -3 -9l-9 -7q0 -3 12 -21q10 0 10 11q0 -2 5 -7q4 3 12 16q-3 -12 -3 -49
l6 -7q9 4 17 13zM445 678l-6 3l-5 -10l5 -3zM477 540v23l-9 -10q8 0 9 -13zM504 497v22h-7v-22h7zM488 518l-5 2l-6 -9l7 -2zM519 463v10h-6v-10h6zM496 436l-6 2l-4 -10l5 -2zM430 211h-7l-5 -19h7zM367 258h-6l-6 -19h8zM92 501v18h-7v-18h7zM406 189v14h-6v-14h6z
M394 211h-6l-4 -14l5 -2zM453 140l-6 2l-4 -11l5 -2zM111 485h-6l-4 -22h6zM418 149v27l-9 -10q8 -8 9 -17zM488 75v19h-6v-19h6zM103 442l-10 9l-4 -4l11 -10zM88 118v26h-7v-26h7z" />
    <glyph glyph-name="R" unicode="R" horiz-adv-x="490" 
d="M336 144h-5l-5 8l5 2zM322 154h-8v11h8v-11zM349 76q-3 0 -9 -5q-3 6 -3 14q0 7 3 12q3 -6 9 -21zM383 34h-6v14h6v-14zM91 127h-9v6h9v-6zM336 400h-6l-4 17h6zM459 -34q-10 -6 -23 -23q-12 7 -27 26q-2 -2 -2 -11q-16 16 -22 51q-34 39 -34 89q-7 6 -23 22q-9 11 -15 8
q-1 18 4 24q-7 5 -8 5q-14 0 -17 -3q0 5 -2 39q-1 0 -17 12v41q-1 17 -11 29q-6 0 -6 -8q-6 12 -15 12q-11 -2 -16 -9t-6 -7q-5 0 -6.5 4t-3.5 4q-11 -13 -29 -38q-2 0 -4.5 5l-3.5 7q-6 -5 -13.5 -16.5t-13.5 -17.5q-1 8 -7 22l-13 -14q-10 -10 -11 -36q4 -3 14 -3
q2 -18 -5 -18l-2 -51q0 1 15 1q4 -33 19 -103q-11 -13 -20 -13q-6 0 -9.5 3.5t-4.5 3.5q-6 -10 0 -22q-20 4 -33 29q-10 20 -10 39q0 10 8 10l6 8q0 8 -10 8q0 -1 3 18q2 10 -5 20q0 -1 3 -4q2 2 3 4.5t2 4.5q-14 7 -14 12q7 20 7 34q0 42 -9 57t-9 16q0 4 6.5 21.5
t8.5 19.5q0 7 -6 1q-1 3 1 25q1 13 -13 14q21 4 21 34q0 5 -10.5 41t-10.5 40q0 10 14 24q-5 7 -9 7q-5 0 -5 -1q2 -2 2 -4q1 12 3 25t9 16q-4 5 -14 5q-8 55 -8 64t9 27q5 -2 11 -5q6 -2 6 5q0 5 -6 26q-7 25 -8 33q3 0 18 7q1 7 -1.5 13.5t-2.5 7.5q0 6 11 10v9
q1 -1 -10 -1q-7 0 -15 18h15q2 3 -5 10q4 4 14 16q-3 5 -3 8q1 0 4 -5.5t9 -5.5q5 0 2 4t2 4q14 -3 18 -3t5 3.5t5 3.5q6 0 12.5 -6t10.5 -6q5 0 11 2t7 2q7 6 12 -15q1 2 3 6.5t4 4.5q7 -7 10 -7q5 0 5 3.5t5 3.5t26 -9.5t25.5 -9.5t8 -3.5t7.5 -3.5q8 0 8 7q13 -10 39 -24
q-7 0 -12 -4q6 -8 21 -24l6 7q6 1 8 -4q4 -11 8 -15q6 1 15 8q0 -15 15 -15q0 -8 -10 -13l6 -6q3 0 4 -4t7 -4q4 0 4 7q0 -15 -2 -19q4 -3 11 -19t7 -22q-18 -30 -18 -31q0 -19 14 -27q-3 -3 -15 -5v-48q-1 0 -9 13q-8 -7 -2 -13q-4 3 -8 3q-2 -11 -5 -22q-3 -13 0 -26
q-9 -11 -18.5 -24t-9.5 -27l-9 8q-1 0 -3 -2t-6 -2t-4 -8l-8 9q-2 -14 -11 -38l-7 7q-6 -5 -6 -12q0 -3 19 -40t17 -55q5 -7 8 -24q3 -20 6 -27q6 0 6 11q7 -17 34 -70q17 -33 17 -48q6 -5 19 -12q0 -1 2 -7.5t4 -6.5q-6 -7 -14 -7q0 2 1.5 6.5t1.5 6.5l-5 6l-6 -7v-17l6 -6
q6 7 10 7q-2 -12 -8 -24q1 -2 4 -7t4 -7q15 22 15 38q4 -3 2 -23q3 -3 6 -1t3 5q21 -15 21 -44q0 -5 -1 -8zM112 197h-6v13h6v-13zM347 659h-6l-4 -13l5 -2zM399 595h-6l-5 -13l6 -2zM374 619q0 8 -12 21q1 -5 -7 -18q-7 2 -7 18q-5 0 -13 -8q1 -3 5 -9t6 -7q0 2 9 2
q5 0 12 -8q0 9 7 9zM355 439l-6 3l-5 -11l5 -2zM336 395h-6l-4 -18h6zM364 556v12q-1 0 -2.5 -1.5t-6.5 -1.5q-3 0 -3 40q-53 45 -62 77l-12 -11q0 32 2 30q-4 -8 -12 -19q-3 2 -3 10l-6 -7q-1 3 -2 8t-3 7q0 7 -9 -3l-8 7q0 -9 -4 -14q-6 0 -12 6q3 6 7 16q-29 -15 -38 -15
q-6 0 -8.5 7.5t-3.5 7.5q0 -8 -3 -11q-1 1 1 6q1 2 -4 2q-7 0 -54 -12q-1 -22 -7 -28q14 -15 14 -27q0 -45 -14 -55q-2 -12 -7 -16q14 -14 14 -26t-5 -18q-2 2 -4 8t-4 8q0 -4 -2.5 -12.5t-2.5 -9.5q15 -8 18 -18q0 -69 -2 -112q-2 -30 -5 -44.5t-3 -11.5q0 5 14 -24
q-6 -1 -14 -7v-33q4 0 14 -9q-7 -7 -7 -10h16q31 24 92 68q6 -7 5 -7q0 12 2 14q6 -6 12 -6q-5 8 -5 13t7 13t8 11q8 -16 7 -34q1 1 3 19q2 15 10 19q-1 9 5.5 25t15.5 16q4 0 3 -2t4 -2q22 43 44 94q10 -9 13 -8q-2 14 2.5 39.5t4.5 31.5zM111 600q-9 12 -9 25
q-5 -7 -5 -17q0 -8 14 -8zM88 637q-3 0 -9 4l-5 -9q0 -6 4.5 -13t4.5 -9q5 12 5 27zM306 380h-6l-2 -13h6zM295 282l-2 5l-9 -4v-5zM91 434v21q-3 0 -10 -4q8 -17 10 -17zM85 432q-6 13 -13 13q-1 -1 -1 -15q14 0 14 2zM112 393l-5 3l-8 -13l5 -4zM318 174l-6 4l-8 -13l5 -4
zM65 324v11h-8v-11h8zM126 246l-5 3l-8 -13l5 -4z" />
    <glyph glyph-name="S" unicode="S" horiz-adv-x="546" 
d="M200 718l-4 -11l-7 2l6 10zM424 672q1 -5 -1.5 -14t-2.5 -12l-10 7q-3 -4 -2 -11l-13 10q-4 -1 -11 -4q7 16 -19 55q-28 41 -62 40q-2 -2 -15 -4q-5 0 -12 6t-10 7q-2 -2 -1 -8q1 -2 2 -6q-6 0 -9 3q-6 -12 -20 -12q-6 0 -7 3t-6 3t-12 -6t-13 -6q-5 -1 -7.5 5t-3.5 6
q-8 -29 -26 -61q-13 -25 -13 -33q0 -1 8.5 -16.5t8.5 -27.5q0 -5 -3 -10l1 -10q14 1 14 12q10 -10 40 -45q25 -29 28 -28q4 0 3 1.5t5 1.5q6 1 21 -35q2 0 6 3.5t6 3.5q40 -40 61 -52l2 -33q-2 2 -14 4q-8 -2 -8 -11q0 9 -4 13l-8 -8q-8 9 -20 36q-15 -4 -25 17l-14 30
q-3 -8 -15 -20q-17 10 -17 20q2 14 -2 20q-1 -6 -10 -11q-2 0 -5 1l4 4q-2 1 -5 1q-14 0 -22 7v27q-1 16 -9 32q5 -8 -5 -8l-4 2q2 4 0 5q0 -4 -10 -8q-3 1 -5 2q0 3 -1 6q-2 -7 -8 -17q-21 36 -44 80q0 6 2.5 8.5t2.5 6.5l13 -4q2 14 -2.5 15l-4.5 1l8.5 13.5t8.5 23.5
q0 4 -1 7q0 -1 6 -7q12 12 20 23q2 11 9 31q0 -7 10 -25q8 9 14 29q13 -9 18 -9q11 11 10 30q3 -3 6 -7l4 -12q8 5 25 32q-1 -6 3 -19q12 3 26 27q9 -3 27 -17q7 8 6 11q7 -5 14 -13t13 -7q4 0 4 8q11 -8 27 -25l6 8q11 -8 29 -18q0 -5 -8 -13q7 -2 22 -22q-3 0 -11 7
q-2 -6 -10 -14q13 -9 27 -26zM477 294q-9 -8 -9 -12q-13 6 -26 -1q0 3 -5 10q-6 0 -6 -15q-8 12 -24 37q-1 11 -7 32q-10 -1 -9 -10q1 10 -2 24q-5 -5 -12 -11q-14 13 -29 37q0 4 7.5 21.5t9.5 25.5q8 -20 3 -42q19 6 13 24q3 -13 14 -40v2v17q10 -8 21.5 -17t11.5 -19
q0 -6 -3 -13q6 -5 10 -5q5 1 13 9q4 -9 8 -28q6 -6 21 -26zM479 263q5 -44 -12 -137q0 26 -11 36q-7 -3 -7 -16q0 -22 12 -38h-16q0 1 -12 -36l-8 8q-15 -9 -15 -33q-13 -15 -35.5 -29t-44.5 -29q-1 6 -2 11.5t-15 10.5q-2 -23 5 -30q0 1 -4 4q-1 -5 -11 -12q-3 0 -8 4
l-2 -4q0 -2 12 -5q-9 -9 -22 -4q-6 -5 -11.5 -12t-16.5 -7q-7 -1 -8 11t-2 14q-4 -9 -6 -11q-8 -12 -18 -13q-6 0 -9 -3.5t-4 -3.5q0 5 -3 14q-1 -3 -7 -11q-5 0 -14 7l-7 -8q-5 1 -19 7t-20 6q-4 0 -13 -4q0 16 -58 56l6 18q3 -3 12 -2l7 5q-7 3 -18 11q9 8 9 10
q-8 6 -15 6q0 1 2 -15h-15q-5 2 -10 14q0 3 7.5 15t7.5 17q-1 17 -21 16l-1 23l4 3q4 15 12 44q0 -4 8 -11q4 8 7.5 26t19.5 32q-9 -42 -6 -99q1 -25 32 -77q36 -62 68 -60l30 1q35 2 55 12q33 15 51 28q26 17 56 65q14 21 26 42l6 -2q0 -1 1 -2q1 19 14 58t13 60
q0 15 -5 28q0 -2 5 -7q2 2 2 11q0 -3 11 -3q6 0 18 -4t13 -6zM418 656l-5 22h-8l5 -22h8zM308 756q-11 9 -11 14q0 -3 -19 -4q6 -7 30 -10zM131 638l-2 18h-6v-18h8zM156 601l-4 1l-6 -10l7 -1zM257 504h-6l-4 -14l5 -2zM399 374h-4l-5 -14l5 -1zM456 249l-6 2l-5 -9l6 -2z
M445 147l-5 25h-8l5 -25h8zM428 94l-1 26q-9 -17 -13 -21q1 0 6 -2.5t8 -2.5zM273 -48l-1 7l-12 -1l1 -7z" />
    <glyph glyph-name="T" unicode="T" horiz-adv-x="532" 
d="M273 190h-6v10h6v-10zM269 145l-4 -14l-5 2l4 12h5zM256 118h-6v9h6v-9zM256 38h-6v13h6v-13zM512 713l-4 -10l-5 3l5 9zM500 698q0 2 -7 9l-2 -21h-12q-10 5 -17 14q-18 -3 -55 -10q4 5 4 14q0 -2 4 -7q2 5 4.5 9t8.5 1v14q1 7 12 11q0 -11 2 -14q2 2 3.5 7.5t3.5 7.5
q3 -4 -2 -9q9 -4 18 -11q-2 -7 6 -13q3 2 2 7l-2 10q3 2 6 2q6 0 19 -12q4 0 4 6v-15zM421 728l-4 -10l-5 2l4 9zM408 719h-6v10h6v-10zM347 704h-5l-4 13l5 2zM400 698q-4 0 -11 -1h-11t-3.5 -4t-3.5 -4q-5 0 -5 3.5t-1 4.5q-6 -15 -17 -15q-5 0 -17.5 3.5t-16.5 3.5
q-6 0 -19 -13q12 -26 -3 -36q1 -13 8 -44q5 -27 5 -32q0 -17 -20 -26q0 -5 2 -8q19 -2 18 -17q-7 -2 -20 -10q3 -4 -3 -11q7 -8 16 1q-4 -5 -5 -15q0 -12 9 -15q-8 0 -8 -9l-7 7l-5 -6q3 -18 16 -56q-2 -1 -7 4q-2 -10 3 -16.5t5 -14.5q0 -4 -3.5 -9t-2.5 -8q5 -19 2 -49
q-2 -28 -7 -36q-8 -12 -4 -23q0 1 7 1l-3 -38q8 -4 9 -18q1 -17 5 -22q-10 -11 -10 -24q0 -24 13 -34q-2 -7 -13 -42q0 -24 8.5 -41.5t8.5 -19.5q0 -14 -25 -40q-7 0 1 8q-10 1 -18 -11v0q0 1 1 4l-8 10q-7 -7 -11 -7q-8 12 -8 37q0 58 17 66q-9 9 -13 5q7 21 -4 35
q8 3 8 19l6 -7q-2 7 0 10q3 4 3 6q0 22 -13 37l3 1.5t3 7.5q0 4 -6 21t-7 24v34q2 0 5.5 2t5.5 2l6 5q-5 6 -7 6q-8 0 -8 40q0 12 3 91q3 70 2 117q-3 25 -6 69v40q0 27 -7 29q-18 5 -26 5q-16 0 -78.5 -18t-65.5 -18q3 0 -30 11q0 1 -2 6t-2 10q0 2 12 27l7 -7q3 5 9 14h9
q2 -2 4 -3q-1 -4 3 -4q19 3 54 10q-3 -17 -1 -21q4 5 6 15q1 7 5 7q5 0 5 -2q-1 -4 0 -5l7 7q7 0 14 -7q4 8 16 14q2 0 4 -4.5t3 -6.5q4 4 4 7q1 -1 1 -6.5t2 -7.5q5 7 10.5 14.5t13.5 7.5q4 0 4 -3q-2 -3 -1 -5q10 5 10 18q5 -10 5 -22q4 0 11 15q-2 0 8 -11q3 4 13 4
q4 0 4 5q0 -9 3 -12q7 5 17 18q7 -7 15 -21q5 -1 8 -1q8 0 8 9q0 26 -1 23q5 0 15 -10q3 0 13 11q0 -11 7 -18q3 0 3 3q1 4 -2 6q3 0 11.5 4.5t12.5 4.5q7 0 12 -16t8 -19zM327 713v0v0v0zM302 558q-6 13 -10 48q-4 -4 -7.5 -16t-6.5 -15q6 -2 13.5 -9.5t10.5 -7.5zM290 561
l-5 2l-5 -9l5 -3zM273 563v10h-6v-10h6zM302 513q-4 3 -12 10l-5 -10h8.5h8.5zM290 478l-12 17l-4 -4l11 -16zM29 674l-8 9l-4 -4l8 -9zM274 360v14q-5 0 -12 7q4 -6 12 -21zM276 348h-5l-4 -12l5 -2zM259 250h-5l-7 -19l5 -2z" />
    <glyph glyph-name="U" unicode="U" horiz-adv-x="535" 
d="M409 470h-6v22h6v-22zM478 541q2 -14 -16 -29q-1 -21 7 -52q-1 -8 -9 -26q15 -64 15 -89q0 -11 -5.5 -33.5t-6.5 -52.5q-2 7 -9 22q-4 -2 -4 -9q0 -16 14 -22q-3 -23 -13 -73q-1 -4 -9 -6q-6 -13 -6 -20q0 -6 3.5 -9.5t3.5 -4.5v-21l-15 4q-4 -20 -18 -59
q-14 -11 -34 -31q-10 -14 -27 -30t-23.5 -16t-13.5 -8q0 8 -4 8q-6 0 -6 -6q0 5 -4 10q-9 1 -9 -15q-1 0 -7.5 5.5t-11.5 5.5q-2 0 -10 -3q-5 -2 -9 0q1 18 -2 25q-4 -5 -12 -14q4 18 -10 18q-4 0 -3 -2t-4 -2q-7 0 -22.5 12t-15.5 24q0 4 1 7q-1 0 -4.5 1.5t-8.5 1.5
q-6 0 -6 -11q-30 31 -31 32q-14 19 -17 43q-5 0 -5 -11q-11 7 -13 31q-2 20 -3 40q-10 -11 -10 -9q0 4 1 20t1 21q0 11 -4 27q-5 20 -11 20q-5 0 -7 -1.5t-3 -1.5q7 8 21 28q-1 5 -18 14q8 23 -7 30q3 12 6.5 18.5t11.5 13.5v100q-1 3 -3 3l-11 -8q0 3 3.5 12.5t3.5 13.5
q0 5 -7.5 13.5t-7.5 13.5q0 10 4.5 10t10.5 7q-8 8 -10 6q5 9 1 32.5t5 29.5q-5 1 -14 6v14q5 4 8 4l6 6q-2 2 -10 2q-2 14 2.5 22l4.5 8q0 14 -18 31q18 29 34 29q4 0 21 -8q10 11 8 11q10 -379 8 -475q6 -7 14 -7q0 -11 3.5 -25.5t3.5 -22.5t28 -57t31 -49q5 0 4 2t3 2
t20 -16.5t20 -25.5q2 4 2 8h13q10 -11 32 -42q47 20 75 93q19 56 39 113q-4 23 -2 56q-2 53 2 159q0 6 9.5 17t9.5 14q0 8 -11 46.5t-11 51.5q0 6 5 10.5t7 7.5t4 9t2 11q0 15 -5 26q-3 -3 -9 -2q-7 0 -7 6t18 25q-11 11 -11 22q0 12 15 28h24q0 -1 -1.5 -7t-1.5 -12
q6 -7 13 1q5 -25 11 -151q3 0 14 11zM444 651v18h-6v-18h6zM423 537h-6l-2 -18h6zM241 3v10h-6v-10h6zM106 152l-6 2l-4 -10l5 -2z" />
    <glyph glyph-name="V" unicode="V" horiz-adv-x="514" 
d="M142 292l-5 -10l5 -2l5 10zM179 209h-6v-14h6v14zM190 173h-6v-10h6v10zM179 120h-6v10h6v-10zM385 413l-5 -9l5 -2l5 9zM400 318l-4 -9l-5 2l4 9zM460 579l-13 6l-2 -5l13 -6zM449 562q-2 0 -7 -4t-7 -4q3 -3 9 -6q2 2 2.5 7t2.5 7zM405 549v13h6v-13h-6zM485 686
q0 -4 -4.5 -15.5t-5.5 -18.5q3 13 3 19l-5 6q-7 -12 -9 -27q-3 -17 3 -22q-10 10 -13 17q-8 0 -2 -7q-4 4 -7 4q-5 -10 0 -30q1 0 2 -1.5t6 -1.5q6 0 17 11q-11 -76 -18 -114q-8 7 -13 1q1 -1 4.5 -2.5t5.5 -3.5q0 -13 -9 -13q-3 0 -6 3q-2 -6 1.5 -20l3.5 -14q0 1 -10 -25
q-2 -5 -4.5 -27t-6.5 -27q0 -1 2 -5t2 -5q-1 -2 -6 -1q-9 -26 -15 -40q0 7 -4 11q-19 -20 -19 -25l7 -10t7 -17q0 -13 -19 -52q-2 2 -4 5.5t-4 5.5q-4 -4 -4 -11q0 -6 5 -18.5t5 -15.5q0 -11 -31 -69q1 11 -6 14q-4 -19 1 -32q-5 1 -25 -4q18 -15 18 -27q0 -2 -7.5 -21.5
t-7.5 -29.5q-11 0 -17 -6q0 -1 5 -6t5 -10q0 -4 -3 -10q-2 -5 0 -7q-13 0 -16 3l-2.5 -5t-1.5 -9q0 4 -12 4q-1 4 7 12l-12 12q-11 -20 -19 -28q-7 21 -7 32q-2 -2 -5.5 -4t-5.5 -3q-5 12 -8 31q-1 5 -11 5l7 8q-13 17 -21 21q8 15 -10 31q-6 0 -6 -5q0 3 4.5 5t4.5 7
q0 19 -8 35l4 4q0 8 -4 8t-4 -7q-22 15 -23.5 35.5t-7.5 25.5q0 1 5 5.5t5 9.5t-5 16q-10 -17 -11 -25q-4 14 -2.5 34t-1.5 27q-6 -7 -15 -7q0 7 -3 18q-1 8 0 19q-15 17 -17 54q-3 34 -9 38q0 1 7 8q-2 2 -2.5 6.5t-2.5 6.5q-3 -3 -12 -3q-6 25 -11 34q10 12 14 20
q-2 2 -3 5t-3 5q-10 -4 -10 -18q-14 59 -25 89q0 -4 3 -7q2 2 3 4.5t3 4.5q-10 7 -18 10v18q-11 21 -11 31q0 16 8 31q10 6 11 13q11 -8 30 -2q5 -15 12 -37q-9 -9 -11 -9q-5 -2 -5 -6q0 -1 11 -22q6 5 16 5q-15 -6 -15 -14q5 -4 13 5l36 -148q17 -70 15 -96q2 -3 5 -3
q4 5 4 15q10 -46 24 -67q-11 0 -11 -6q0 -10 14 -17q20 -49 25 -66q-3 0 -7 -4q5 -9 10 -19q7 -16 7 -26q1 -4 7 -9q16 7 25 10v-32q6 6 6 11q3 -11 -1 -19q2 -2 6.5 -6t8.5 -4q15 46 30 72q0 -8 3 -11q8 8 -5 23q9 8 15 39q5 27 11 27t7.5 -2t2.5 -2q5 62 30 126
q0 -11 4 -15q8 0 1 7q5 -3 8 -3q2 5 0 16q-3 13 -3 17q0 12 5.5 33.5t6.5 30.5q-7 1 -5 6q3 9 3 11q12 0 16 4q0 -8 3 -11q5 5 5 16q0 20 -7 20q-5 0 -7 -1t-3 -1q13 4 11 30q2 -2 4 -5.5t4 -4.5q10 18 10 52q1 26 8 26q5 0 4 -2q-2 -3 0 -5q1 2 2 4.5t3 4.5q-2 2 -8 5.5
t-6 7.5q-5 0 -5 -6q1 6 1 44l10 7q-6 -6 2 -6q3 21 6 43q8 35 30 35q20 0 20 -37zM88 519q-3 0 -10 -4q3 -4 5 -9q5 5 5 13zM130 345q5 8 0 14q-6 -5 -11 -5q2 0 11 -9z" />
    <glyph glyph-name="W" unicode="W" horiz-adv-x="691" 
d="M448 39h-7v10h7v-10zM458 22l-11 -6v6l9 5zM199 95h-6l-5 19h7zM149 95h-6v11h6v-11zM164 43h-5l-5 9l6 2zM628 642l-5 -11l-6 3l5 10zM563 452l-5 -11l-6 3l5 10zM566 422h-6v11h6v-11zM279 696l-5 -16l-5 2l5 14h5zM630 682q0 2 -22 -64q6 -7 6 -23q0 -11 -4 -34.5
t-4 -29.5l-8 8q-6 -36 -1 -69q0 5 -4 8q-2 -9 0 -16q3 -10 3 -12q0 -8 -16 -22q6 -4 16 -12q-10 -23 -20 -61t-19 -61q0 -1 6 -4t6 -8q0 -4 -7.5 -15t-9.5 -18q-7 -28 -4 -55q-17 -26 -17 -38q0 -6 2 -9h10q-1 8 6 16q-4 -19 -17 -52q1 2 -3 8q-2 -2 -5 -3.5t-5 -3.5
q1 -2 4.5 -29.5t3.5 -30.5q0 -1 -6.5 -31t-6.5 -36q-6 17 -18 17q-5 0 -4 -4t-3 -4q-5 0 -4 2t-4 2q-4 0 -6 -4q0 -2 1 -7l1 -5h-13q-5 0 -16 16q-3 5 -6 37q-9 1 -18.5 21.5t-17.5 27.5q-7 18 -18 56q-5 4 -14 12q0 2 5.5 2.5t9.5 2.5q-26 18 -26 36q0 10 7 20q-3 3 -15 3
l-4 34q-1 12 -12 25q11 6 9.5 19.5t6.5 20.5q-3 2 -8 0l-7 -2q0 3 7 10q-2 7 -18 42q4 -5 10 -1q-7 6 -19 16q6 1 10 -3q11 14 7 35t2 32q-2 2 -2.5 7t-2.5 7q-6 -18 -16 -36q0 7 6 14q-2 1 -12 20q4 4 16 5v18q1 10 11 8v-1q0 10 -15 10l8 9v14q-9 -2 -13.5 -16t-8.5 -29
q0 13 10 54q2 3 -2 7q-10 -12 -17 -12q-6 0 -10 4l-5 -7q4 -4 4 -9t-5.5 -16.5t-5.5 -17.5q0 -8 7 -14l-10 -2.5t-24 -2.5l-4 27q12 7 12 29q-1 37 -1 35q8 24 8 26q0 6 -2 13q15 11 15 36q0 7 -1 17t-1 12q1 -1 5 -9q0 2 3.5 11.5t3.5 15.5q0 10 -8 16q1 0 6.5 2.5
t10.5 2.5q28 0 27 0q1 -2 4 -24q1 -16 13 -14q-3 0 -8 -5q0 -6 11 -6q0 -12 -1.5 -31t-1.5 -21q0 -11 8 -16q0 -29 0 -20q1 -19 15 -19q3 0 7 2q-3 -4 -5 -16t-6 -18q0 -5 15 -12q-11 0 -15 -4q2 -2 5.5 -3t5.5 -3q1 -1 -3 -18t-4 -22q0 -19 13 -26q-4 -2 -7 2
q-2 -2 -3 -5.5t-3 -5.5q8 -10 23 -33q-13 0 -13 -3q0 14 -1 14q-2 -2 -9 -18q7 -5 21 -18q3 0 3 4q-7 -13 -2 -28q5 3 8 3q1 -19 -2 -28q15 -9 3 -62q4 -3 13 -10q4 6 13 16q-8 -25 -8 -48q-5 0 -8 4q-3 -2 -3 -6q3 -1 11 -7q7 0 14 17q7 -14 2 -50q10 -6 22 1q1 -18 -3 -26
q3 -3 15 -3q0 -10 7 -23q2 2 4.5 5t4.5 5q0 10 -11 10v19q17 11 17 15q0 3 -6 7q0 6 8 14q0 6 -12 6q16 46 13 73q3 9 9 14t6 6q0 3 -9 10q11 -1 14 5q8 13 9 15q-2 2 -6.5 2.5t-4.5 1.5q0 8 6 18q9 17 11 22q1 13 2 25q-1 15 -10 15q2 4 5 7q3 4 -3 14q13 13 15.5 31
t15.5 29l-7 6q-2 0 1.5 5.5t9.5 9.5q-6 6 -9 6q-2 9 7 25.5t9 22.5q0 5 -3 9q0 -2 15 14q0 7 -6 13q-9 -9 -17 -1q6 1 9 -3q2 4 1.5 10.5t8.5 15.5l-11 12q0 1 11 13q0 8 -2.5 25.5t-2.5 27.5q0 21 11 33q7 -8 13 -8t10 6t7 10q1 0 3.5 -6t8.5 -6q5 0 6.5 2t2.5 2
q0 -2 -7 -10l7 -10q4 -7 4 -14zM371 249h-6v10h6v-10zM107 519h-7v11h7v-11zM274 443q-15 -18 -17.5 -37.5t-4.5 -38.5q0 -2 -6 -19q-4 -13 -4 -21q0 -9 5 -17q-23 -4 -23 -33q-1 -33 -11 -39q11 -12 11 -16v-30h-12q-1 -14 9 -22q-13 -26 -12 -30q-6 0 -13 7l-4 -9
q0 -6 16 -12v-60l-11 13q2 -6 7 -20q1 -2 1 -13q0 -4 -6 -16.5t-6 -19.5h-21q-7 7 -15 32q-4 -3 -21 6q4 10 12 28q-3 3 -6 1q-4 -1 -4 -5q0 7 -4.5 24.5t-4.5 30.5q0 10 9 48l8 -8q5 4 9 4l-2 -6q-1 -3 2 -6q4 3 4 8q0 18 -21 33q-4 -11 -16 -25q2 9 -3 29q-7 -8 -13 -2
q15 2 15 24q0 5 -1.5 9.5t-1.5 6.5q-5 12 -19 24q-9 8 -8 25v25q6 4 15 23q0 -1 -15 15v23q8 -1 11 -1v50q-1 0 -6 2t-7 2l-6 -7q3 -3 3 -8t-3 -5q0 7 1.5 16.5t1.5 11.5q0 8 -11 9q8 7 8 29q0 5 -7 31q-7 31 -9 40q3 7 3 14q0 10 -5 21.5t-5 12.5q0 13 19 27v11
q-6 2 -19 17q5 11 17 26q31 -14 35 -79q-3 -6 -10 -16q8 -14 23 -41q-6 -4 -6 -14q-1 -11 3 -11l2 2q-3 -19 4 -39q-6 7 -11 2q17 -17 21 -66q3 -41 6 -83q0 -1 5.5 -11t5.5 -15q0 -21 -9 -21q-5 0 -6 3q-1 1 -4 -1q11 -6 26 -26q10 3 11 14q2 16 3 18q4 -2 12 -8l6 6
q-4 3 -7 3q2 20 9 60q0 -8 4 -12l9 7q-5 -3 -10 -7t-5 -10q0 -16 7 -27q16 56 16 57q0 8 -5 21.5t-5 18.5q-5 -8 4 -8q6 0 5 1l-2 3q2 -2 -1 -6q2 -2 10 -2q1 -1 1 -17q1 -3 9 -3q0 1 1.5 7t1.5 11q0 6 -11 19t-12 15q10 2 28 0q0 25 -8 41q-4 0 -7.5 -3.5t-4.5 -3.5
q5 5 5 15q1 -2 7.5 -2.5t6.5 -2.5q5 -8 13 -23q5 9 15 9q7 0 6 -8zM187 249h-6v10h6v-10zM596 679q-5 5 -15 5l-4 -15q5 0 13 -9zM590 659h-7l-2 -15h6zM609 634l-6 2l-5 -10l6 -3zM595 622v7l-22 4v-7zM605 566h-6l-5 -13l6 -2zM578 370v15h-7v-15h7zM275 610l-5 2l-5 -11
l5 -2zM545 297l-6 23h-6l6 -23h6zM509 253v15h-7v-15h7zM244 503l-4 4l-9 -9l4 -5zM232 439q0 -1 -10 11v-16q1 4 10 5zM374 294q-2 2 -10 -6q-3 4 -9 4v-15q3 1 19 17zM434 206v7h-10v-7h10zM432 190l-5 2l-5 -11l5 -2zM132 375q-11 10 -4 26q-1 -2 -8 -10t-7 -14t8 -5
q6 1 11 3zM88 386v15h-7v-15h7zM138 327l-6 2l-5 -10l6 -3zM191 227h-6l-4 -51h6zM115 222l-6 2l-5 -10l6 -3zM198 260q0 -6 -11.5 -20.5t-11.5 -24.5q0 -5 3 -10h-15q2 6 8 17l-6 6q-3 -3 -13 -3q13 21 41 59q0 -4 2.5 -11.5t2.5 -12.5z" />
    <glyph glyph-name="X" unicode="X" horiz-adv-x="565" 
d="M462 68l-2 -29h-6l2 29h6zM137 85h-7v21h7v-21zM507 694q0 -5 -12 -17t-13 -15q0 1 2 6t1 7q-2 2 -11 -1l-7 7q-1 0 -7 -2.5t-11 -6.5q1 -1 2 -3.5t6 -2.5t7 -4t7 -4t5 2q-2 6 -2 4q0 -9 6 -15q-1 -2 -16 6q-2 -8 -4.5 -23.5t-4.5 -22.5q0 8 -3 11q0 -11 2.5 -18l2.5 -7
q0 -12 -18 -28q-3 13 7 17l-7 6q-8 -4 -12 -4q0 2 2.5 7.5t2.5 7.5q7 -8 14 -2q-2 5 -7 18q-2 0 -2 -12q-5 0 -9 4q-4 -6 -14 -15q2 10 28 32q-10 24 -10 28q4 -4 10 0q2 7 -12 13q1 2 23 33q1 0 10 -19q14 24 10 46h18q2 -7 16 -20v-13zM430 542q0 -6 -7 -6q-5 0 -13 2
l-36 -36q7 16 14 46q9 39 13 53q10 -14 29 -44v-15zM378 542l-5 -10l-5 2l5 10zM361 506h-18v16q-1 4 10 14q0 -13 8 -30zM235 418h-26q-1 2 -9 23q-5 13 -3 35q-1 3 -6 10q-9 -9 -4 -13q-2 1 -2 14q-4 6 -18 -1q0 5 -2 9.5t-14 6.5q0 2 8 10q0 9 -6 9q-4 0 -4 -8
q-1 5 -7.5 17t-8.5 17q-3 -4 -3 -7q-3 6 -7 30q-3 19 -9 19q-5 0 -5 -1q2 -7 2 -4q0 5 -4 9q-8 -7 -12 -7q-2 0 -3 17t-6 17q-6 0 -6 -8q-1 3 -13 23t-12 27q0 6 4.5 12t4.5 7q9 -26 9 -42q15 17 15 29q0 5 -3 10q-1 -1 3 -4l9 7q0 -5 -4 -9q9 -5 33 -30q9 -9 0 -20
q2 -6 6 -6q5 0 5 4q-1 -11 23 -25q5 -14 9 -27q7 -19 18 -27q4 -10 21 -35q14 -21 14 -33q0 -16 13 -22v-33zM262 431q-2 -2 -8 -4t-6 -4q0 -1 -2 8.5t-2 23.5q5 -10 18 -24zM261 405q0 -2 -5.5 -4.5t-7.5 -4.5q6 6 -3 6q-5 0 -9 -4q0 2 13 15q0 -8 12 -8zM518 31
q-20 -6 -56 -16q-6 9 -10.5 33t-8.5 33q-7 0 -17 -12q-1 5 -2 37q-1 22 -11 32q-8 -15 2 -26q-33 10 -32 50q-11 5 -16 22q-7 -7 -7 -20q-20 57 -33 55q5 7 5 15q0 11 -10 24l-14 19q4 4 4 7q-7 7 -15 -1q0 2 4.5 5.5t5.5 5.5q-2 5 5 18l-4 18q-5 0 -5 -12l-9 7
q-9 -6 -25 -18q0 1 -2 -6q-1 -3 4 -3h9q3 -1 5 -1q-17 -30 -52 -83q-2 7 -8 21q0 -1 4 -6q1 5 14 14l-10 9q-7 -6 -7 -7q2 2 2 28q-2 3 -5 3q-1 -3 -5 -26q-2 -8 -14 -8q6 -9 19 -21q0 -2 -10 -31q-6 -17 -16 -24q7 -7 7 -16q-5 0 -12 7q0 -20 -17 -61q1 7 -14 15
q-2 -4 1.5 -14.5t3.5 -14.5q0 -9 -11.5 -23.5t-19.5 -15.5q0 -30 -16 -85q-14 1 -23 -8q-6 8 -20 23l-16 -15q-6 18 1 38q0 -4 8 -19q10 9 12 27q2 22 7 30q0 -9 3 -11q10 22 24 63q0 -1 11 -21l6 6q-2 7 -12 22v28q16 18 37 39q0 1 -2 -5q-1 -4 3 -6q7 28 27 71q-3 3 -11 3
q29 19 29 40q0 5 -2 11q9 8 36 44l7 -8q0 5 3 16.5t3 15.5q0 5 -7 20.5t-8 18.5q5 6 5 9q6 -5 17 -27q8 5 11 12.5t9 13.5q0 8 -6 1q0 10 -2 24l-2 14q3 -1 13 -19q3 0 11 16q0 -5 7 -12q3 4 21 18q0 6 -11 6q4 7 13 34l16 -16q4 3 13 14q-7 6 -7 17q2 -2 4.5 -7.5t4.5 -7.5
q6 6 6 22q13 0 13 4q7 -15 21 -24q-11 -15 -28 -44q-2 3 -8 11v-23q-7 8 -19 27q-10 -19 -10 -21q0 -8 15 -31q-7 -8 -15 -17t-8 -21t48 -89q-1 -8 3 -28q-4 -4 5 -4q4 0 8 4q2 -13 8 -38q3 3 2 19q6 -11 26 -24q-7 -22 -19 -40q0 -9 8 -9q4 12 15 35q-5 -16 -2 -23
q7 7 16 7q5 -14 5 -28q0 5 6 5q2 0 12 -19q12 -22 12 -35l6 -7q8 8 13 8q27 -42 27 -44v-13zM420 548v10h-6v-10h6zM167 563v11h-6v-11h6zM158 584q0 9 -14 9q-12 -24 -12 -22l22 -4q0 1 2 6t2 11zM331 391q-4 9 -8 17.5t-15 8.5v-14l11 -11q0 -1 12 -1zM177 517v18
q-2 0 -7 2t-7 2q0 -17 -4 -21h9q7 -1 9 -1zM311 372q-9 28 -9 32l-2.5 -8.5t-2.5 -19.5q2 0 7 -2t7 -2zM190 500l-10 10l-3 -4l9 -9zM217 445v10h-6v-10h6zM315 336v6l-18 -4v-7zM347 253v14h-6v-14h6zM255 332h-5l-5 -13l6 -2zM424 147l-6 2l-4 -9l5 -3zM435 136l-5 2
l-5 -10l5 -2zM267 288v10h-7v-10h7zM397 154v17h-6v-17h6zM256 284v21h-7v-21h7zM236 291v14h-6v-14h6zM397 144l-5 2l-5 -10l5 -3zM200 228v7h-10v-7h10z" />
    <glyph glyph-name="Y" unicode="Y" horiz-adv-x="471" 
d="M458 719q-13 -3 -19 -36q-6 -6 -19 -18l7 -7q-5 -4 -5 -7q0 5 -7 5q-3 -16 -44 -126q0 3 -3 6q-2 -5 -5.5 -15.5l-5.5 -16.5q0 8 -3 11q-3 -12 -9 -39q-16 -37 -60 -114q-22 -30 -24 -75q1 1 9 -5q-3 -2 -7.5 -4t-4.5 -6q0 -3 4 -5q-13 0 -13 2q-2 -2 0 -5q3 -3 6 -3
q-10 -11 -10 -23v-165q13 -9 13.5 -39t7.5 -38q-7 -2 -11.5 -12.5t-3.5 -17.5q-2 0 -10 6q-5 0 -5 -10q-28 25 -42 47v35q5 0 16 -10v-1q1 0 1.5 1t0.5 5q0 12 -18 17q-10 46 -10 106q0 12 18 22q-1 15 3 25q-13 7 -21 7q8 4 25 13q0 5 -7 5q12 21 10 29q-6 5 -20 14
q-2 5 -1 19q2 18 2 23q0 20 -10 28l-4 20q-4 13 -15 13q-5 18 -30.5 59t-30.5 63q-9 46 -36 104q-27 63 -55 98q31 -1 50 -29q26 -37 31 -39q2 -4 0 -11q18 -31 56 -125q34 -83 71 -138q8 0 -1 -8l10 -10q2 0 9 15l8 -7q4 4 6.5 10.5t5.5 10.5l-3 16q-7 1 -10 -6.5t-2 -18.5
q-9 0 -13 4v12q10 2 19.5 14t18.5 24q0 -3 4 -8q1 0 4.5 4t6.5 6q-6 6 -6 15q0 7 24 42q-10 25 -10 23q0 15 15 18q0 -7 5 -21l6 7q4 -2 5 -2l-2 2t-7 5v26q7 9 7 12q2 0 7.5 -1.5t7.5 -1.5q4 5 -1 10q6 0 9 -3q2 0 4.5 4.5t4.5 5.5q-2 7 -2 15q0 10 7 26q8 20 10 29
q0 -2 4 -8q3 8 12 34q5 17 14 23q0 11 6 34q2 -2 4 -5.5t3 -5.5q3 11 7 22q8 21 15 21q4 0 10 -2t9 -2q0 -13 7 -23zM198 154l-4 10l-5 -2l4 -8h5zM213 19h-5l-4 -13l5 -1z" />
    <glyph glyph-name="Z" unicode="Z" horiz-adv-x="515" 
d="M129 117l-4 -19h-6l4 19h6zM118 123l-7 -16l-5 2l7 16zM275 445l-1 -16h-6l2 16h5zM262 416l-5 -9l-4 2l4 9zM481 687q2 -2 2 -5q0 -6 -6.5 -21t-6.5 -20q0 5 -6 12q-2 -1 -11.5 -26t-21.5 -30q4 -3 7 -3q-11 -10 -12 -19q0 7 -6 7q-1 -10 -9.5 -26t-7.5 -27q-4 8 -13 25
q-2 -7 -2 -12l4 -6q-8 -31 -51 -83q-9 -11 -25 -37q-1 -7 -2 -21l-17 -21q0 1 -4 6q-3 -3 -10 -3q0 -1 -1 -1q-1 -3 6 -3q-7 -16 -13 -32q-9 -22 -25 -27l7 -7q-5 -12 -23 -36q1 6 -7 17q-1 -4 -4 -17.5t-3 -20.5q-9 -17 -26 -57q0 7 -4 10q0 -7 -2.5 -11.5t-3 -8.5
t-24.5 -45q-5 13 -13 21q-4 -25 -9 -50t-18 -34q0 -29 -12 -43q0 7 -3 11q-6 0 -8 -3v-12l9 -9q-8 0 47 0q3 0 11.5 5t12.5 5t10 -1.5t10 -1.5t9 5t9 5q19 0 28 -11q1 0 4 4.5t4 4.5q175 15 167 15q3 0 29 -17q1 0 0 -5q-1 -7 1 -10q-2 -1 -8 -5q-2 1 -2 11q-11 3 -19 -4
q0 7 -3 10q-1 -1 -6 -7t-8 -10v10q-2 0 -6 -3t-6 -3q6 6 2 10q-6 -7 -6 -14q-1 2 -4 7q-3 -3 -3 -7q-1 0 -4.5 3.5t-8.5 3.5q-1 0 -8 7q-11 -10 -18 -24q1 7 -13 13q-6 -6 -6 -10q-3 3 -14 3q-10 0 -12 -3q-5 -7 -9 -13q0 14 0 13q-7 -7 -8 -7q-5 0 -14 5t-14 5q-4 0 -12 -9
t-11 -11q0 1 -9 10q-4 -4 1 -9q-1 0 -5.5 -2t-9.5 -2t-9.5 6t-7.5 7q-1 -1 -9 -17q-3 0 -11.5 7t-13.5 7q-4 0 -1.5 -3.5t-1.5 -3.5q-5 0 -2 3.5t-2 3.5q-8 0 -22 -17l-8 7q-2 -4 -4 -7.5t-7 -3.5q-4 0 -4 4v0q0 3 -4 3t-6 -3.5t-6 -3.5t-17 8.5t-17 8.5q-5 0 -8 -1t-4 -1
l-10 22q4 3 7.5 14t9.5 11q5 0 5.5 -3.5t1.5 -3.5q2 2 3.5 4.5t2.5 3.5q-6 7 -10 7l10 22q9 18 18 20q0 3 10 45q7 0 18 -3q3 5 -5 19q7 14 25 46q5 0 11 -7l15 15q1 -1 -13 -1q-3 10 5 10q4 0 13.5 23.5t9.5 34.5l5.5 -5.5t5.5 -4.5l6 30q21 10 28 28q16 43 16 44
q10 0 20 8q-4 0 -21 8h18q10 18 0 18q-6 0 -6 -5q0 -1 10 19q9 -9 16 -8q0 -4 -3 -8q5 -5 7 -5v22q0 3 6.5 13.5t6.5 16.5q0 7 -7 12q7 0 14 7q0 8 -4 4q16 9 38 37l8 8l7 -4q2 10 0 14l-7 -7q-1 3 -1 30q8 8 15.5 8t14.5 17l6 20q0 -9 3 -10l5 6q0 2 -10 12q12 21 34 58
q-5 0 -16.5 4.5t-15.5 4.5t-12.5 -4.5t-11.5 -4.5q-20 0 -66 -4t-48 -4t-11 -3.5t-13 -3.5q-5 0 -8.5 3.5t-7.5 3.5t-34 -3.5t-34 -3.5q-17 0 -45 44q6 -6 14 -6q5 0 2 3.5t2 3.5q4 0 3 -2q-1 -4 0 -5q1 0 2.5 5t6.5 5q3 0 15.5 -5t16.5 -5t1.5 3.5t1.5 3.5t17.5 1.5
t20.5 1.5q3 0 8.5 -5t10.5 -5q4 0 3 3.5t4 3.5q4 0 5.5 -3.5t6.5 -3.5q4 0 4.5 3.5t5.5 3.5q3 0 13 -11q1 1 1.5 6t5.5 5q10 0 14 -4l7 7q0 -7 5 -7q4 0 19.5 8.5t19.5 8.5t3.5 -3.5t3.5 -3.5q-2 0 18 10q0 -10 4 -10q13 0 19 7q0 -11 3 -13q7 7 2 16q4 -5 15 -13v14
q4 -10 13 -24q5 9 14 24q-3 -3 1 -7l8 6q-9 -8 -5 -16q5 8 21 20q1 -1 3 -8t4 -9q8 0 8 10q1 0 3 -5t7 -5t5 7l3.5 -7l3.5 -7q3 2 7 6t7 4zM415 662l-5 2l-7 -16l4 -2zM371 668v9h-6v-9h6zM347 661v9h-6v-9h6zM385 524l-5 10l-5 -2l5 -8h5zM374 509l-5 1l-4 -8l5 -3z
M221 650v10h-6v-10h6zM197 651v12h-6v-12h6zM146 654l-4 19h-6l4 -19h6zM261 387l-9 5l-2 -5l9 -4zM238 346h-5l-4 -12l5 -2zM213 291l-2 5l-8 -4v-5zM200 279l-4 10l-5 -2l4 -8h5zM197 227v10h-6v-10h6zM176 226h-5l-4 -11l5 -2zM131 168l-9 8q0 -1 -2 -7.5t-2 -12.5
q13 0 13 12z" />
    <glyph glyph-name="a" unicode="a" horiz-adv-x="448" 
d="M309 39q-2 0 -10.5 -2.5t-10.5 -2.5q0 4 5 8t8 4q0 27 2 33zM316 13q0 3 -7 8t-8 6q7 6 12 6q3 -3 3 -20zM386 1q0 3 -16 -26q-1 11 -14 32q0 -3 3 -27q-6 0 -15 -10q-10 6 -20 23q-7 0 -7 -13q-6 4 -20 26q-19 28 -22 32q-17 -6 -47 -21q0 -4 3.5 -8t6.5 -1
q-12 -2 -24 -3q-15 -5 -14 -16l-11 9q-4 0 -8 4q-8 -8 -8 -13q-2 2 -7 2.5t-5 3.5q8 7 -0.5 7t-10 4.5t-2.5 4.5q-6 2 -16 -18q-3 5 -7.5 11.5t-11.5 6.5q-5 0 -1.5 -4.5t-2.5 -4.5t-10.5 4.5t-8.5 4.5q-3 15 -5 29q-5 23 -19 31q14 24 14 32q0 6 -2 11.5t-2 9.5q-8 0 -17 9
l-6 -7q7 -7 13 -23q-6 -6 -16 -29q3 12 -15 39q7 6 14 24q8 0 15 -2t8 -2q10 11 11 37q3 36 4 39q0 -9 8 -9q7 8 7 14q0 11 -7 18q-8 -9 -10 -9q-2 15 8 25q-3 3 -13 3q7 4 23 11q0 7 -9 7q0 9 13 16q0 1 2 4q0 2 -7.5 2t-9.5 6t1 10q0 5 7 -12q2 2 4 7.5t4 5.5l8 7l-14 15
q2 0 4.5 -1.5t9.5 -1.5q8 0 0 7q-1 0 11 -12q3 5 34 34q-9 9 -9 10l11 10q1 -9 9 -4l13 -14q2 3 0 10q-2 8 -2 9q0 4 5 4q6 0 6 -3q-1 -5 0 -6q14 31 28 31q5 0 21 -2t21 -2q6 0 10.5 6.5t10.5 6.5q4 0 4 -2l-1 -2t-1 -3q1 -2 5 -2q5 0 4 4.5t5 4.5q7 0 7 -9v-1q1 0 1.5 1.5
t0.5 6.5t-10.5 21t-16.5 18l-4 21q7 0 15 -8q8 6 8 26q4 -1 20 -7t24 -10q-1 -1 -23 -12q11 -9 17 -12v0v0q-3 2 -4 -5v-44q5 -8 19 -19q-14 -10 -14 -22q0 -9 9 -14q-2 -3 -9 -5t-9 -5l7 -6q7 3 11 3q-2 -3 -6.5 -7.5l-6.5 -6.5q4 -4 8 -4q-2 -12 3 -26q5 -17 6 -22
q-16 2 -26 -3q3 -3 13 -3q-8 -12 -8 -17.5t-10 -15.5q4 -4 12 2q0 -5 -16 -20q13 -15 14 -36q-1 -20 -1 -40q5 -4 20 -6h-12q-3 -4 -3 -13q0 -6 7 -22q9 -19 11 -25l-13 -13q9 10 1 18q-7 -3 -16 -28h40q5 -16 19 -41zM105 182q4 -13 -5 -40q-11 12 -11 18t16 22zM325 336
v12h-8v-12h8zM307 352l-7 2l-6 -12l7 -2zM289 345v21h-8v-21h8zM332 310q-12 11 -26 11q0 -4 5 -12q2 1 21 1zM347 192l-5 18l-7 -3l5 -15h7zM280 263h-8l-5 -57h8zM305 173l-2 6l-15 -5v-7zM151 287q0 7 -10 17q-3 0 -3 -10q-1 -9 3 -13q4 5 10 6zM127 321h-8l-5 -25h8z
M318 299h-21q-6 -5 -20 -18q0 15 -8 30q6 11 19 12h17q0 4 -16 4q-5 0 -12 18t-13 18t-11 -6t-8 -8q-4 4 -4 13q-8 -9 -16 -19q-11 -12 -17 -12q-10 0 -4 9l-14 -13q-4 4 -10 4q-1 -19 -19 -23v-29q2 -4 2 -6q0 -1 -15 -1q0 -14 -4 -22q-7 -12 -10 -22q14 0 14 -6
q-9 -4 -21 -13q-1 2 -4.5 7.5t-6.5 5.5q2 -6 10 -17t8 -16q0 -7 -11 -53q0 -1 -6 -4.5t-6 -10.5q0 -5 4 -18.5t4 -19.5q0 -5 -1 -9q-3 5 -10 14v-23q6 4 17 -7q-4 -4 -4 -10q1 0 5 2t10 2t8.5 -9.5t4.5 -17.5q8 2 24 10t22 8q10 0 10 -5q2 10 9 17l8 6q7 -16 19 -14
q2 3 4.5 12t4.5 11q2 0 9 -2t10 -2q-3 4 -3 9q0 7 6 16q3 5 6 9q-5 0 -9 4q3 2 4 0q1 -3 7 -3q8 0 9 16q1 14 -3 20q-9 -3 -22 -2q19 11 19 23q0 5 -6.5 15t-4.5 19q5 -3 16 -2q14 2 16 2v42q-1 -4 -10 -7l-7 8q5 21 20 56q2 -15 5 -32q0 8 3 22t3 18zM113 291v12h-8v-12h8z
M59 166l-6 4l-11 -16l6 -4zM338 301l-11 -16l-6 4l11 16zM270 332h-6l-6 15l7 2z" />
    <glyph glyph-name="b" unicode="b" horiz-adv-x="428" 
d="M109 46l-5 -15l-5 2l4 13h6zM86 -5h-6v10h6v-10zM374 300q-1 -13 -9.5 -41.5t-8.5 -40.5q0 -15 8 -22q-5 -2 -19 -8q3 -9 3 -20q0 -10 -4 -31q-4 -17 -2 -25q-9 -13 -17 -39q-2 0 -8 4q-9 -10 -6 -25q-7 -17 -26 -17q-5 0 -4.5 3.5t-1.5 4.5q-3 -3 -7 -14.5t-8 -11.5
t-3.5 1.5t-3.5 1.5q-6 0 -6 -7q1 0 -9 11q-11 -10 -11 -15q-12 4 -20 0t-5 -4q-5 0 -4 4t-4 4q-4 0 -3.5 -2t-3.5 -2q-6 0 -5 5t-1 6q-2 -3 -2 -7q-3 0 -11 -2t-13 -2q-6 0 -9 5t-6 6q-8 -11 -12 -45q-3 -19 -28 -19q-5 0 -16.5 9t-16.5 11q-2 12 -9 35q5 6 5 9l8 -7
q-2 5 0 11q1 4 -3 4q-6 0 -7 -1.5t-2 -1.5v25q9 4 9 17q0 3 -1 10v10q0 13 11 16q0 6 -3 8q-3 -3 -12 -3q0 3 -4 11t-4 13q0 16 13 33.5t13 24.5q0 21 -10 42l-11 -12q0 11 5.5 30.5t5.5 28.5q0 13 -9 22l10 14t5 13q0 4 -6 14t-8 17q-1 7 7 29q-12 27 -12 68q0 6 6 8.5
l6 2.5q-9 2 -9 16q0 7 3.5 25t3.5 26q0 -4 8 -23l5 6v29q-6 6 -11 6q0 -15 4 196q6 0 16 -11q2 2 8 6t8 5q0 -11 13 -11q7 0 10 4q-1 -4 -1 -9q0 -8 5 -20t5 -14q0 -3 -5.5 -20t-5.5 -26q0 -25 -6 -119.5t-6 -112.5q0 -20 13 -45q10 10 12 7q4 0 11 -7q6 5 6 18q14 5 39 5
q6 0 6.5 -5.5t1.5 -6.5q2 0 2 11q6 0 13 -7q19 8 37 8q16 0 31 -16q2 0 4 -6q2 -9 4 -12l6 7q23 -8 33 -4q0 -7 2 -11l8 8q16 -26 16 -46q0 -6 -3 -10q-1 -5 6 -12q7 0 7 4zM90 670v10h-6v-10h6zM356 319l-6 21h-6l6 -21h6zM324 323v10h-6v-10h6zM332 304v14h-7v-14h7z
M316 300l-8 37h-5l8 -37h5zM232 381v7h-11v-7h11zM335 247v10h-6v-10h6zM90 494l-5 2l-7 -13l5 -3zM83 503h-6l-8 -20l5 -3zM91 432q0 -1 0 28q0 -1 -5 -1.5t-5 -6.5q0 -12 10 -20zM155 374h-7l-4 -17h6zM341 134v32q0 5 -4.5 12t-4.5 10q0 -23 -24 -41q3 -4 9 2l6 -7v-20
q1 13 9 38q0 -18 9 -26zM328 100v10h-7v-10h7zM323 237q-4 4 -23 12v14q7 7 9 7q5 -10 4 -19q3 11 3 21q0 14 -12 41t-12 50q-1 0 -4 -5.5t-9 -5.5q-5 0 -16.5 8t-15.5 8q-3 0 -8 -3.5t-7 -1.5q0 8 -14 8q0 -9 -7 -15q-7 7 -12 7q-5 -10 -10 -14l-8 7q-32 -32 -38 -30
q-1 -1 -6 -42q-3 -28 -18 -39q12 -12 12 -50q0 -8 -1 -27v-29q0 -46 13 -68q7 -3 40 -18q27 -14 32 -14q17 0 32 19q8 11 17 23q7 -7 17 -7q-7 10 -7 51q0 49 15 51q0 -9 -1 -23.5t-1 -18.5q2 7 11.5 23.5t9.5 21.5t-10 15q0 -12 -7 -12q-2 3 -2 9q11 11 16 30q4 14 18 16z
M290 104v10h-6v-10h6zM94 164v10h-7v-10h7zM90 68l-5 2l-5 -10l5 -2z" />
    <glyph glyph-name="c" unicode="c" horiz-adv-x="371" 
d="M117 400l-6 -12l-6 3l6 11zM92 318h-8l-4 24h7zM324 63l-20 -40q-13 -24 -19 -24q-5 0 -4 2t-5 2l-33 -33q-7 6 -40.5 10.5t-56.5 30.5q-7 -7 -7 -12q-52 22 -52 53q0 9 3 19q-2 0 -9 -5.5t-11 -7.5q-2 6 0 23q3 18 1 27q-9 -8 -17 -34q2 10 1 28.5t2 27.5q-2 4 -10 4
q2 -10 -7 -18v24q3 1 10 6q-1 -5 9 -5q5 0 4 -2q-2 -4 -1 -6q10 15 24 48q-2 2 -3 5.5t-4 5.5q-3 -4 -10 -12q0 -7 4 -11q-6 -8 -24 -19q0 7 7 14q-3 3 -7 3q0 8 2.5 27t2.5 27q4 -6 17 -17q1 2 2 5q1 4 0 6t-3.5 0.5t-3.5 -2.5q0 3 7 11q-4 11 -2 30q3 27 3 30q3 -4 10 -13
q15 16 15 53q0 29 -13 41v15q32 1 40 -29q6 7 3 21q-2 15 0 20q5 12 20 22.5t19 16.5q0 -5 8 -13q13 14 26 14q20 1 25 3q2 -11 8 -29q4 10 13 29q-1 -17 4 -26q3 0 11 17q16 -5 29 -16l20 -18q0 -6 -8 -14q2 -6 12 -21q-1 0 -8 1t-13 1q-10 0 -10 -6q0 18 -2 19l-12 -8
q2 5 8 14l-11 11q-8 -7 -16 -7.5t-14 -5.5q0 9 -4 13q-48 6 -87 -76q-32 -69 -32 -117q0 -54 13 -101q19 -67 56 -67q11 0 26 17q0 -13 8 -21q4 4 10.5 18.5t11.5 19.5q-3 -22 3 -34q1 2 15 46q2 0 14 -12q3 3 3 16h12l6 -2q-1 -4 0 -6q7 6 7 21q7 0 15 -2.5t9 -2.5v-23z
M158 409h-6l-5 -14l6 -2zM146 394v11h-7v-11h7zM112 96v11h-7v-11h7zM70 127l-6 2l-5 -11l6 -2zM117 59l-6 4l-10 -15l6 -4z" />
    <glyph glyph-name="d" unicode="d" horiz-adv-x="412" 
d="M280 144l-18 -22l-5 4l17 21zM300 -10q-4 0 -9 2t-7 2q8 6 11 6q1 -3 5 -10zM120 58l-5 -11l-6 3l5 10zM238 736h-7v11h7v-11zM266 569l-2 -46h-7l2 46h7zM355 -27q0 -19 -30 -40q0 9 -3 12q-3 -4 -3 -8q-16 12 -19 12q-5 0 -5 -8q-9 8 -22 27q4 -3 13 -3q6 0 7.5 6.5
t2.5 7.5l-6 6q-3 -4 -13 -4q0 2 7 9q-6 7 -14 -1l3 32q-5 8 -18 19q-10 -13 -20 -25q-16 -19 -24 -19q-5 0 -6 2t-6 2t-4 -4t-4 -4q-4 0 -13 7q-12 8 -14 9l-6 -6l-6 -6q-2 6 -9 20q-9 -6 -2 -19q-16 24 -21 39l-8 -8q-9 26 -6 37q-4 6 -18 -1q-3 10 3 21q-2 2 -5 3t-5 3
q-8 -7 -8 -12q-1 8 -1 14q0 12 11 14q0 4 -3.5 9t-7.5 19l-8 -8q0 15 3 44q-8 7 -24 18q6 -2 9 -2q13 0 15 25q2 29 16 40q-4 4 -4 10t3.5 14t4.5 11q-6 6 -15 21q8 -8 15 -8q1 13 -7 17v15l8 -8q15 18 12 32q2 -2 4 -6t4 -6q7 13 25 40l-2 -9t-1 -16l6 -7q0 4 5 19.5
t5 25.5q0 9 -3 18l9 -8q2 4 2 8q2 0 9 -2t12.5 -2t8 -4t3.5 -4q9 8 -1 20q2 -2 9 -2.5t9 -9.5q2 3 2 16q4 -4 19 -4q18 0 48 73q-3 12 -3 26q0 30 14 57l-6 6q-6 -3 -9 -3q-4 11 5 11l7 -4q0 1 1.5 5.5t1.5 11.5q-2 3 -6 3q-3 -1 -3 -4q1 10 -2.5 25t-3.5 18q0 8 8 11v14
q-16 -1 -23 -17q0 10 -1.5 20t-7.5 13v18q4 -1 14 -19q1 5 6 29q-4 4 -16 3q0 7 1 20.5t1 16.5l12 -22q5 9 12 28q-2 -8 4 -20q3 4 11 20q2 -2 4 -6t4 -6q7 2 21 8q0 -16 -7 -37q3 -3 11 -3q0 -6 -7 -13q12 -18 12 -34q0 -24 -8 -72l-8 -48q8 -25 8 -81q0 -11 -6 -19
q-2 -22 0 -80q1 -51 -5 -81q0 -1 1 -41q0 -20 -10 -35q0 -9 12 -15q3 -1 -4 -5q0 -8 10 -13l-3.5 -4t-3.5 -5q0 -3 6 -2q3 -7 0 -27q-3 -25 -3 -29q0 -8 4 -8q6 0 7 1.5t2 1.5q0 -6 -7 -13l7 -6q1 0 -3 -6t-4 -12q0 -2 15 -24q-6 1 -19 -12v-14q10 5 14 1q2 6 13 15
q-2 -9 5 -34t7 -32zM100 282h-7v14h7v-14zM290 637v15h-7v-15h7zM297 540l-5 2l-9 -18l5 -2zM286 544l-6 2l-5 -10l5 -3zM309 424l-4 34h-7l5 -34h6zM270 369v18h-7v-18h7zM234 278v18h-7v-18h7zM297 201h-5l-5 -13l6 -2zM274 173l-6 2l-5 -11l6 -2zM284 300q-9 -6 -25 -15
q-2 2 -3 7t-3 7l2 49q3 -2 5 -2q6 0 -2 17q-16 13 -23 32q0 -6 -5 -19q-3 0 -11 8l-16 -16q-7 8 -13 8q-44 -73 -54 -95q-26 -54 -26 -99q0 -37 23 -82q5 -10 39 -68q0 4 8 12q2 -2 4 -6t4 -6v16q17 0 14 -16q4 4 11 9q11 11 30 32q-3 11 4 26q2 -2 6 -8t6 -8q0 2 2.5 9.5
t2.5 9.5q-1 1 -7 5t-6 6q0 -4 -4 -6q-1 4 -1 8t1.5 9.5t1.5 6.5q0 4 -5 7l-3 33l7 7q13 1 26 32q0 -4 -3 -4q-6 21 -3 26h-19q7 -3 7 -12q0 -5 -3 -17t-3 -17q-13 11 -13 18q0 12 12 24q-8 7 -6 10h13v18q-4 2 -5 5q-1 2 -0.5 9.5t0.5 10.5q3 -2 3 -16q5 5 13 -4q0 22 17 39
zM72 278v14h-7v-14h7zM88 262v10h-7v-10h7zM76 195v10h-7v-10h7zM298 289h-7v15h7v-15z" />
    <glyph glyph-name="e" unicode="e" horiz-adv-x="386" 
d="M326 221q-9 0 -13 3l-3 -14q-2 -9 -7 -9t-8.5 2t-8.5 2t-8 -4t-8 -4t-2 4t-2 4t-11 -6t-10 -6q-5 0 -9 4t-9 4t-11 -6t-11 -6q-4 0 -12 4t-13 4t-8 -4t-8 -4q-4 0 -1.5 4t-2.5 4t-20 -10q-19 -14 -25 -16q5 -24 14 -23q0 -3 2.5 -15.5t2.5 -19.5q34 -45 68 -92q1 -8 5 -8
q5 0 22.5 4t23 4t4.5 4l-3 8q5 -6 13 -1q-1 -10 4 -19q3 0 9 6q-2 1 -5 0.5t-3 5.5q0 5 10 15v-39q13 9 13 20q0 4 -7 27q5 0 23 -16v-14q-21 -7 -28 -28q-6 0 -13 8q-4 -4 -15 -16h-14q2 10 -3 20q-6 -8 -23 -20l-8 8q2 -4 -7 -4q-5 0 -4 4t-4 4q-6 0 -5 -3l2 -5q-1 0 -4 6
t-9 6q-5 0 -4 -2t-4 -2q-3 0 -19 27l-8 -8l-3 8t-9 8q-7 0 -7 -8q-2 8 -18 21q4 4 4 12l-10 10q-3 -4 -3 -8q-4 7 -15 17q6 7 6 16q0 14 -15 38q-24 40 -25 42q5 0 9 -3q2 6 18 21l-6 6q-2 -2 -7 -4t-5 -4q2 4 -2 11.5t-4 12.5q0 4 6.5 16t6.5 19l9 -8q5 6 5 12q0 5 -15 21
v17q7 6 13 24.5t7 19t2 4.5t7 4q1 0 6 14.5t5 20.5l8 -8q8 17 29 42q30 36 50 36q86 0 118 -66q-2 3 -6 0q-5 -4 -5 -9q3 -3 6 -1q3 3 3 6q9 -8 15 -23q-15 0 -15 4l-5 -7q6 0 17 -22q2 -3 10 -3v-101zM256 238q0 4 -4.5 21.5t-4.5 25.5q-2 70 -8 98q-1 6 -10 13.5t-14 7.5
q-35 -28 -51 -55q-2 2 -6 4t-6 4q1 -28 -15 -62q0 -1 -13 -1q0 -18 -2.5 -29l-2.5 -11q0 -5 6.5 -18t6.5 -19q80 0 120 8q0 1 2 4t2 9zM82 273l-6 2l-5 -10l6 -2zM132 119l-11 5l-2 -6l10 -5zM125 105l-6 2l-5 -10l6 -2zM89 115v11h-6v-11h6zM132 52h-5l-5 -13l6 -3z" />
    <glyph glyph-name="f" unicode="f" horiz-adv-x="384" 
d="M150 4h-14v26q2 1 13 24q0 -2 2 -25q1 -15 -1 -25zM289 559q-7 5 -10 5l10 10v-15zM117 551l-5 -15l-5 2l5 13h5zM129 521l-10 -9l-4 4l10 9zM124 471h-15q-1 12 10 22q0 -12 5 -22zM360 238q-7 -5 -17 -14q-2 0 -4.5 5t-3.5 6q-3 -2 -3 -11q2 0 -9 11q-19 -19 -40 -19
q-5 0 -4 2t-4 2q-6 0 -9 -6l-4 -9q-6 -1 -12 11q-4 0 -4 -4q2 6 6 6h-21q-16 -2 -16 -14q0 4 -7.5 9t-10.5 11q-6 -14 -31 -37q12 -20 12 -69v-46q27 -28 27 -68q0 -17 -14 -31q2 10 -11 16l-8 -8q-8 7 -11 7q-6 0 -11 -1t-7 -1q4 4 4 7q-1 1 -26 4q-12 8 -12 23q0 13 8 21
q-1 17 -16 45q8 13 8 33l7 -2q6 -1 8 1q-4 10 -19 10q1 4 1 8q0 8 -7 19.5t-9 17.5q1 -1 5 -7l8 8q2 -2 5.5 -4t5.5 -4l6 7q0 4 -3 8q-6 5 -7 8q-6 -6 -2 -10q-3 0 -13 10q-7 -7 -4 -10q-2 2 -7 1q-6 -3 -11 -3t-7.5 5l-3 6t-9 3t-8.5 4t5 4q-5 5 -7 5q-5 0 -4 -2t-4 -2
q-6 0 -11 7.5t-8 9.5v17q10 -2 28 0q26 1 24 1q16 0 22 12q-6 -10 1 -23q5 10 17 32q-3 3 -10 -1q-5 11 -17 16q9 13 9 29h19v13q-2 4 -9 4q0 -2 2 -6t2 -6q-7 4 -11 4q0 6 11 17q-7 15 -15 10q11 10 17 7l6 6q-6 4 -14 16.5t-13 17.5q4 9 23 28q-3 3 -11 -2q9 15 27 34
q2 -1 3 -1q4 0 3 4t-5 4q-2 0 -5 -2q16 22 5 59q9 -14 19 -14q7 7 7 10q0 7 -8.5 29t-14.5 30q7 -5 18 -19q12 6 17 21q-6 3 -19 3q1 7 9 34q5 18 4 35q0 -4 6 -4v13q0 8 -8 12q25 29 58 29q5 0 7 -5.5t6.5 -5.5t5.5 -4t6 -4q3 0 3 8q5 -10 13 -27q3 3 2 19q0 -4 9 -4
q5 0 5 4t5 4q-3 0 32 -14q4 -4 13 -21q3 3 3 15q25 -51 25 -75q0 -25 -15 -35q0 -6 6 -13q1 0 12 11q-1 -3 -2.5 -10.5t-2.5 -7.5q-3 2 -7 1q-4 -2 -4 -5q-10 19 -37 27q1 19 6.5 34.5t5.5 13.5q0 12 -10 25q-15 21 -17 23q-4 0 -6 -4q-3 -7 -4 -8q-8 5 -31 12q-2 -3 -7 -13
t-11 -10q-5 0 -6 2t-2 2l-7 -7q8 -17 6 -36q0 2 -4 8q-3 -6 1 -15q-9 8 -11 8q5 -20 -3 -53q-1 -1 -10 -34q-7 -28 -26 -40q-1 -1 2 -5q3 3 14 3q-5 -9 -5 -25v-14q1 -9 1 -13q0 -23 -16 -27q0 -9 12 -9v-61q-3 0 -9 4q1 -9 -6 -25l5 -6q2 1 5 6v-19q46 -10 44 -10q5 0 7 3
q2 2 6 0l8 8q7 0 16 -15q6 19 29 19q4 0 7 -7t6 -8q2 2 2.5 7.5t2.5 7.5q0 -12 9 -12q6 0 7 2l1 2l9 -7q4 3 10 3q4 0 15.5 -8t15.5 -8zM194 216l-11 -5v5l9 5zM179 660v14h-6v-14h6zM208 590v15q-8 -3 -12 -19q0 4 12 4zM183 515l-5 2l-5 -10l5 -2zM174 467q0 -2 -11 9
q3 4 3 9q-7 0 -7 -18h15zM140 425l-4 4l-9 -9l3 -5zM120 394q-4 4 -5 11q-3 0 -11 -6q5 -5 16 -5zM129 328v15h-7v-15h7zM122 322q0 -4 -10 -4q4 -3 6 -10q4 5 4 14zM234 207l-6 1l-5 -9l5 -3zM154 255q-2 11 -8 26q-4 0 -11 -5q4 -4 5 -8h-14q17 0 28 -13zM67 222l-5 2
l-5 -10l5 -2zM118 135v23q-1 -8 -10 -17q4 -4 10 -6zM170 65q-2 0 -7.5 -2t-7.5 -2q0 -2 9 -11q6 5 6 15z" />
    <glyph glyph-name="g" unicode="g" horiz-adv-x="402" 
d="M158 -434h-7l-4 19h6zM144 -448h-11v6h11v-6zM-24 -314l-15 -5v7l13 4zM364 85q-9 -10 -29 -28q-2 0 -4.5 5.5t-3.5 6.5q-7 -5 -8 -9l4 -14q-11 0 -15 -3q0 -8 6 -14q7 7 9 7v-25l-9 -10q0 5 -4 8q-5 -6 -5 -10t6.5 -16t6.5 -18q0 -7 -10 -11q6 -11 19 -12h-16
q-6 -9 -6 -11l6 -7q11 12 12 12q0 -3 -15 -18q0 -3 7 -4.5t10 -3.5q-12 -18 -6 -58q-6 0 -9 4q-13 -2 -13 -16q0 -20 -5 -27q0 -10 6 -10q-4 -37 -20 -105l-8 9q-6 -1 -12.5 -14.5t-6.5 -22.5q0 -5 1 -7q-5 -1 -10 3q-6 -18 -16 -53q0 5 -7 8q-9 6 -12 9v-48q-7 2 -21 12
h-11q0 -4 -1.5 -14t-1.5 -14q-8 0 -8 -12q-13 4 -23 23q-10 -10 -10 -16q-4 3 -8.5 8.5t-7.5 7.5q-1 -9 -9 -27q0 4 -3 7q-9 -10 -8 -20q-6 6 -15 1q0 5 4 9q-5 5 -16 14l-11 -7q0 7 -5 7q-7 0 0 -7q-3 0 -10 7q-5 -4 -17 -11q2 2 11 21l-6 6q-6 -13 -21 -27q0 -1 -12 24
q-3 0 -11 -8q-13 8 -42 28q0 2 5 7.5t7 9.5q-3 3 -7 1q-3 -1 -3 -4q0 11 -14 11q12 53 4 78q2 4 23 12q-2 1 -20 22q3 1 10 -1q6 -2 12 0q0 4 -8 9q-11 8 -14 10q11 10 11 22q3 -4 13 -24q13 6 13 16q0 3 -2 11t-2 13l11 -4q7 -2 12 0q-2 -9 -9 -34q-7 -21 -7 -26t6.5 -12
t6.5 -8q-4 1 -8 -3q13 -22 13 -56v-11v-9q0 -31 25 -31q9 0 33 -1.5t25 -1.5q4 0 9.5 6t13.5 6q4 0 3 -2.5t4 -2.5q8 0 25 13t17 22q35 31 41 70q5 0 17 -11q2 1 -1.5 4.5t-3.5 8.5q0 8 3 11t6 0q12 8 12 21q0 5 -4 24q-4 14 -1 23q1 0 4.5 -5t7.5 -7q6 23 11.5 45.5
t20.5 41.5q-9 9 -12 7q0 3 4.5 12.5t4.5 12.5q0 -6 7 -6q3 -4 3 6q0 5 -5 13.5t-6 10.5q5 23 5 21q0 7 -13 14v28q9 -9 16 -2q-9 9 -20 31q-9 -6 -37 -17l-11 8q3 -4 -7 -4q-4 0 -23 18q-24 23 -31 26q-22 17 -37 55q-13 31 -26 61q6 10 3 25t-12 23q1 3 17 12q-7 14 -20 14
v56h11q0 15 -8 23q2 3 24 12q-7 10 -7 25q0 26 22 45q0 -8 7 -16q3 7 11 23l-7 6q-7 -8 -9 -8v8q1 5 1 7q0 -4 3 -8q-1 4 3 17t4 19q0 7 -4 12q1 0 6 -2t10 -2q4 0 13.5 6.5t14.5 6.5q6 0 12 -4t7 -4q0 -4 -3 -11q-3 -5 0 -11q1 -3 14 -14q6 10 -1 31q9 -3 16.5 -13
t10.5 -10q5 0 4 1.5t5 1.5q5 0 5 -4q-1 -6 0 -7l9 7l3 -8.5t2 -15.5l15 4q8 -19 26 -22q-6 0 -13 -7q20 -5 39 -72q18 -59 18 -98l-3.5 -32t-2.5 -47l-8 9q2 -17 7 -17h18q7 0 7 10q0 -9 -11 -36q3 -3 6 -1q5 1 5 4q0 -9 7 -9q6 0 7.5 1.5t2.5 1.5zM274 -235l-5 -11l-7 3
l6 10zM238 -269h-7l-4 19h6zM310 205l-7 2l-4 -11l6 -2zM133 374l-5 3l-5 -11l5 -2zM97 329v15h-6v-15h6zM300 156q0 5 -12 14q-18 11 -18 13q0 -10 -3 -13q3 27 5 54q2 20 -5 44q-19 61 -19 64q0 5 8 14t8 14q-4 0 -10 -4v14q0 -2 -7 -10q-7 11 -5 17q0 -13 -8 -21
q-9 8 -58 36l-2 -4l-8 4q-8 0 -26 -42q-21 -47 -21 -77q0 -12 4 -19q-23 -43 -23 -47q0 -6 3 -8.5t3 -3.5q7 16 11 20l8 -7q-4 -11 -4 -21q0 -18 13 -58t12 -67q11 13 19 12q8 -15 4 -24q2 0 8.5 3.5t8.5 3.5q16 -25 15 -29q8 37 33 45q2 -3 8 -11q4 9 23 25l-13 13
q10 9 33 23q-14 14 -25 14q12 6 11.5 15t2.5 15q9 -16 17 -36q0 8 4.5 17t4.5 8zM334 -12l-6 2l-6 -11l7 -2zM234 50l-5 19h-7l5 -19h7zM280 -27l-2 5l-9 -4v-7zM270 -51v15h-8v-15h8zM177 34l-5 12l-5 -2l5 -10h5zM301 -120v15h-6v-15h6zM300 -132l-2 5l-9 -4v-7zM261 -180
v11h-6v-11h6z" />
    <glyph glyph-name="h" unicode="h" horiz-adv-x="397" 
d="M132 71h-6l-4 9l5 2zM366 14l-9 7q-6 -13 -6 -25q-8 -5 -27 -5q-13 0 -16 5q-6 33 -14 99q-16 139 -20 159q-22 119 -61 119q-4 0 -40.5 -23l-36.5 -23q-5 0 -4 3q2 3 1 5q-1 -8 -4 -22l-9 -13q-7 -9 -7 -16v-49q5 -5 5 -15q0 -8 -5 -24.5t-5 -21.5t5 -12.5t3 -27.5
q2 -3 6 -2q2 -7 8 -22v-13q-2 4 -8 11q1 -6 -4 -17t-5 -15q0 -6 6 -12q-12 0 -15 -3q6 -6 11.5 -6t11 -4t6.5 -4v-45q-8 12 -14 12q-8 -24 0 -38l-9 8q-2 -4 -8 -12q0 4 -3 8q-6 -4 -16 -11q2 7 -12 19v86q-4 0 18 10q-2 8 -9 24q-11 -4 -11 -8l-4 117q-7 85 -9 179
q-3 154 -3 163q0 29 -2 88q0 5 -3 17t-3 17v12q22 7 44 -4q0 -23 9 -44q3 -40 -3 -119q4 -9 4 -25q-1 -21 0 -27q2 2 6 7.5t6 7.5q-5 -11 -14 -25q10 -20 10.5 -34.5t6.5 -29.5q-1 -8 1 -28q1 0 3 4t6.5 4t8.5 5.5t9 5.5q6 0 8.5 -3.5t4.5 -7.5q0 6 3 19l8 -8q10 9 32 22
q-10 -9 -5 -14q5 2 13 8.5t13 6.5q4 0 9 -4t9 -4h12q3 -6 11 -30q4 6 2 22q13 -1 26 -16t13 -31q0 -12 -9 -19q3 -6 22 -19l-15 -14q4 -3 14 -29q4 6 16 11q0 2 -15 9v12q2 2 4 3q4 -1 4 0q-2 0 -2 -2q0 -1 4.5 -5.5l5.5 -5.5q1 -6 -1 -151q13 -3 13 -19q0 -5 -3 -20
q-2 -12 0 -16q3 0 3 3q-3 -6 -3 -11q0 -9 12 -23t15 -28v-13zM338 129l-5 -10l-5 2l5 10zM94 536v17h-6v-17h6zM327 273l-6 2l-4 -10l5 -2zM312 264l-5 11l-5 -2l4 -9h6zM184 395h-5l-5 -13l6 -2zM331 244h-7l-4 -22h7zM94 363l-5 2l-5 -9l5 -3z" />
    <glyph glyph-name="i" unicode="i" horiz-adv-x="239" 
d="M106 102l-12 -5v6l10 5zM179 608q-1 -10 -6 -28q0 4 -8 12l-6 -7q3 -5 12 -14q-1 -6 -11 -20v25q-11 -3 -28 -29q0 -1 -2 22q-2 15 1 28q-3 0 -10 7q0 -34 -8 -41q7 5 -5 14q0 36 20 47q3 -1 10 -8.5t13 -7.5q5 0 4 2t4 2t5 -4t5 -4q6 0 10 4zM103 588h-7v15h7v-15z
M136 282h-7v19h7v-19zM163 383q1 -5 1 -11q0 -15 -13 -49.5t-13 -51.5q0 -7 1 -12q-9 -13 -9 -26q0 -5 3 -20t3 -27q0 2 -8 10q-6 -6 -6 -23q0 -12 16 -50q1 0 -8 -2q-6 -1 -9 1q-2 -1 8 -28q3 0 7 4t6 4q1 -30 7 -89q1 -7 6 -15q-2 -2 -9 -4t-10 -4l6 4t5 4q-4 1 -19 18
q-7 -10 -20 -24q-9 8 -9 20q0 -2 5 -8q8 15 4 21q-6 -5 -17 -17q-15 44 -7 60q-1 2 -6 10t-5 14q0 2 3.5 25t3.5 32q1 6 10 17l-11 9q-4 -4 -4 -14q0 10 -6 17l11 10q0 -9 6 -9l8 19q0 6 -7 18q-3 -5 -3 -24q-2 2 -5.5 7t-5.5 7q9 10 9 45q0 14 -4 22q2 -2 7 -8t7 -8
q7 8 7 12t-4.5 10t-4.5 10h17q0 -2 -13 12h12q0 2 2 3.5t2 7.5q0 9 -16 33q17 17 17 26q9 -8 12 -8q0 5 -7 11t-14 11q2 7 26 31q9 -10 35 -33zM160 378l-6 2l-5 -11l6 -2zM122 384l-10 5l-2 -6l10 -5zM140 322h-6l-5 -14l6 -2zM119 332l-19 16l-3 -5l18 -16zM79 142h-6
l-5 -14l6 -2z" />
    <glyph glyph-name="j" unicode="j" horiz-adv-x="237" 
d="M56 -330h-7v20h7v-20zM-133 -354q-9 -9 -17 0q0 3 6 11zM-98 -423l-5 -11l-7 2l6 12zM152 617q0 -27 -10 -43q-9 9 -14 9l-12 -9q0 21 -8 21q-6 0 -7 -1.5t-2 -1.5q-6 9 -6 34q0 22 29 42q0 -9 7 -17q4 7 14 17q0 -9 4.5 -28t4.5 -23zM116 -123l-6 -11l-6 2l6 12z
M161 300q0 -4 -6 -84q-6 -75 -4 -94q1 -18 1 -266q0 -88 -14 -88q-6 0 -6.5 2t-1.5 2q-1 -2 -1.5 -11.5t-9.5 -16.5q11 -11 21 -11q-32 -64 -66 -123q-4 0 -13 8q-8 -16 -7 -25q-2 0 -10 8q-4 -2 -8 -5q-6 -5 -6 -10q0 -4 7 -10h-21q2 7 -11 20q-7 0 -7 -16q-3 0 -11 8
q-1 0 -3 -8.5t-9 -8.5q-6 0 -7.5 2.5t-3.5 2.5q0 -5 -4.5 -13.5t-4.5 -13.5q-2 7 -14 22q-4 -3 -7 -5q-7 -4 -7 -8q0 -3 4 -5q-2 1 -21 1q-2 6 0 17q4 11 1 17q-4 -4 -12 4l-13 -12l-9 12q-13 0 -13 -6q0 20 -27 39h16q0 2 -21 33q0 7 9 7q-2 7 0 25.5t0 26.5l-8 8
q-11 0 -11 -14q-3 7 19 30q1 7 -13 21q20 10 20 33q0 3 -1 7q3 -4 21 4h15q-8 -10 -8 -20q0 -26 16 -96q20 -85 39 -85q49 0 79 26.5t34 67.5q-1 -4 9 -4q9 0 10 8v15q4 7 18 22q-3 3 -12 3q23 29 23 68q0 21 -10 28q4 -3 18 -11q12 24 -4 63q2 1 0 2t-2 8q0 6 17 23
q-7 5 -17 18q2 0 10 -6q5 8 -5 25q-1 0 -6 -3.5t-8 -3.5q1 2 10 22q7 15 7 21t-5.5 17t-15.5 12q5 6 5 21q9 -9 13 -9q5 0 9.5 4.5t5.5 4.5q0 -9 6 -13q4 2 4 8q0 20 -22 33q18 15 18 25q0 19 -16 19q-4 0 -9 -3q0 7 7 15q-8 11 -8 43q2 0 6.5 -1.5t7.5 -1.5q3 7 3 30
q0 5 -8 26q-4 12 -9 23q2 4 9 2l9 -4q6 5 5 21q5 -5 11 -1q-8 17 -29 47q6 4 12 19q4 13 4 17q0 7 -2 9l-10 -9q6 13 1 17q-3 1 -4 18q-6 -6 7 -14q5 15 -4 34l14 -12q4 4 3 17h24q9 -13 7 -42q-3 -35 -1 -45q1 -5 6.5 -12t5.5 -12zM56 -296h-7v12h7v-12zM120 -13v16h-8v-16
h8zM125 -64v20h-8v-20h8zM85 -210l-4 17l-7 -2l6 -15h5zM82 -273l-7 3l-5 -12l7 -2zM-138 -192q-8 8 -8 11q-7 0 -12 5l-10 -12q9 -4 16 3q6 -7 14 -7z" />
    <glyph glyph-name="k" unicode="k" horiz-adv-x="388" 
d="M297 400q-2 -5 -9 -25q-5 -16 -7 -16q-9 0 -9 -7q0 2 -4 8q-20 -52 -58 -65q-11 -23 -16 -23q-4 0 -5 2t-4 2q3 -7 -3.5 -16.5t-14.5 -12.5q48 -81 70 -104l62 -60q51 -54 51 -75q0 -18 -13 -18h-42q-4 0 -2.5 3.5t-3.5 3.5t-32 55q-3 0 -3 -7q-12 9 -38 69q-2 -2 -2 -18
q-26 24 -52 73q-4 0 -4 -4q1 11 -22 19q-6 -2 -15 -21q-5 -9 -9 -19q-3 -5 -3 -9q0 -6 10 -10q0 -11 -4 -36t-4 -37q0 -14 4 -25q-11 0 -14 -3q15 -14 15 -25q0 -35 -19 -35q-4 0 -2 3.5t-3 3.5t-8 -1.5t-4 -1.5q-3 9 -13 22l-9 -8q-2 10 -12 27q0 2 2.5 7t2.5 6q4 -3 11 -3
q9 18 -1 18q-5 0 -5 -3q1 25 2 51q2 33 21 42q-9 8 -9 20q0 21 24 46l-6 5q-5 -3 -8 -3q-2 8 -8 24q22 11 22 21l-16 33q0 5 -1.5 15t-1.5 9q0 22 8.5 54.5t8.5 52.5q0 26 -9 57q11 10 13 15q5 11 5 45q0 5 -3.5 6.5t-3.5 2.5q7 13 6 21q-14 18 -14 50q0 5 6 40t6 39v31
q6 -1 16 -11q13 12 18 26q4 -5 17 -11q7 -3 7 -13q0 3 -5 -37q-3 0 -9 -4q6 -144 -2 -212l-18 -152q-4 4 -7 4q2 -8 1 -27q2 -3 6 -1q3 1 3 4q0 -7 11 -13q3 3 20 26l9 -4q2 4 -1.5 11t-3.5 10q12 12 14 12l16 -4q7 14 14 28.5t21 23.5q0 -6 6.5 -15.5t7.5 -14.5q2 -1 5 3
q-13 31 -10 38q4 -4 7 -4q2 6 8 18q-1 -3 8 -3q5 0 4 -2q-2 -4 -1 -6q7 6 11 43q7 7 19 27q8 15 29 24q1 0 6.5 -5t9.5 -7l-1 -30q-1 0 -18 -17.5t-19 -15.5zM315 424l-6 2l-4 -10l5 -2zM253 345v14h-7v-14h7zM212 323v10h-6v-10h6zM208 302l-4 10l-5 -2l4 -8h5zM148 206v14
q-3 0 -8 4q-2 0 -5 -8t-4 -9q16 0 17 -1zM146 201h-5l-5 -12l6 -2zM88 159v13h-7v-13h7z" />
    <glyph glyph-name="l" unicode="l" horiz-adv-x="223" 
d="M121 122h-6v9h6v-9zM84 107q0 -13 -10 -21v11q0 10 10 10zM82 28l-5 -14l-5 2l5 12h5zM150 697q0 2 -4 8q-13 -33 -13 -59l13 -21q1 -2 1 -17q0 -23 -9 -27q-12 -5 -16 -27l7 -6q-1 0 10 10q0 -4 -2 -13q-1 -8 0 -11q2 -5 10 -9q-1 -2 -5 -23q-3 -17 -12 -27q5 -5 17 1
q-11 -9 -11 -19q0 -5 4 -10q-6 -64 0 -83q-7 0 -11 -4q4 -128 8 -185q2 -16 -2 -49q12 -58 12 -92q0 -4 -2 -22t-2 -26q-6 2 -23 -7q2 10 -12 10q-9 0 -16 -7q-7 14 -16 23q-3 9 5 9l7 -4v40q-5 -5 -12 2q8 -1 18 4l-21 34v122q8 6 8 15v15q2 7 10 10v16l-9 9q-1 -8 -4 -24
q0 5 -2.5 20.5t-2.5 19.5v17q3 6 24 30q-6 6 -11 6q13 23 3 58q0 4 2.5 17t2.5 20q0 13 -6 19q12 37 5 64q8 8 8 17q0 5 -4 6.5t-3.5 4t-5 14.5t-5.5 16q0 2 13 19q0 -2 4 -7q1 -1 5 2q0 1 -3 19q-1 11 -6 11l-16 -3v20q20 15 20 35q0 -4 -5 40q15 2 29 3q18 1 26 -3v-21z
M88 152q-2 -2 -7 -8t-7 -8q2 3 4.5 12t4.5 12q0 -2 5 -8zM134 617l-3 9h-6l3 -9h6zM103 638v17h-6v-17h6zM125 452h-6l-4 -24h6zM125 300v13h-6v-13h6z" />
    <glyph glyph-name="m" unicode="m" horiz-adv-x="535" 
d="M466 19l-5 -15l-5 2l4 13h6zM327 302q-6 5 -9 5q8 9 8 18q8 -9 1 -23zM487 5q-5 1 -13 -7t-11 -16q-16 10 -33 21q-11 8 -11 26q0 3 15 26q-3 3 -10 -2q1 10 -6.5 45t-7.5 51q0 12 4 19q-4 7 -9 2v98q9 0 1 8q-5 -4 -9 -4v20q0 10 19 39q1 2 -2 5q-11 -11 -13 -11
q0 14 3 14l-6 5q-6 -7 -6 -15q2 0 -9 11l-9 -10q10 -10 15 -10l-13.5 -27t-19.5 -23q2 -5 0 -13q-2 -13 -2 -14q-5 -2 -13 -8q-3 -35 -9 -57q-5 -16 -10 -33q-3 -27 -11 -82q-14 -21 -17 -62q-3 -1 -7 -1q-10 0 -24 12q-19 17 -25 20q-2 10 -2 19q0 5 1.5 14t1.5 13
q0 6 -12 6q9 13 9 30q0 6 -1.5 17.5t-1.5 16.5q0 15 13 21q-12 22 -23 64q-14 51 -21 69q-33 -42 -41 -63q-26 -73 -31 -135q1 -29 -3 -86l-15 -21q-12 6 -36 31q0 2 5 4.5t6 3.5q-18 17 -12 61q0 8 6 19q-7 31 -22 86q3 7 3 16q0 22 -13 63l-18 54q36 -3 55 -43
q17 -36 33 -73q5 10 15 25q-2 23 1.5 44.5t10.5 21.5q5 0 4 -3q-2 -3 -1 -5q2 2 21 27q10 13 8 21q1 0 6 2.5t11 2.5q5 0 5 -4t4 -4q5 0 6 2t6 2q7 0 25 -30q23 -40 24 -42q-1 3 -8 -12q4 -4 15 -3q0 -3 -2 -11.5t-2 -12.5q0 -19 17 -36q19 44 21.5 56.5t4.5 25.5
q22 16 34 20q1 2 1 13.5t11 20.5q5 6 -3 11q-10 -5 -10 4q0 5 2.5 10.5t2.5 6.5q0 -5 5 -10q3 4 6 4q3 3 -5 18q3 0 13 -10q8 15 2 16q2 2 6 -1q5 7 14 34q3 0 12.5 -4t14.5 -4t4 -3.5t4 -3.5t7.5 3.5t7.5 3.5t8 -2t5 -2q13 -56 13 -69q0 -4 -2.5 -11.5t-2.5 -20.5
q0 -5 7.5 -28.5t7.5 -28.5l-5 -14q-1 -6 1 -20q1 -12 0 -19q-2 -9 -11 -14q0 -4 10 -7q0 -4 4.5 -18.5t4.5 -18.5q0 -16 -19 -25l6 -7q1 1 2 1q2 0 0 -6t-5 -9q0 -6 15 -6q-3 -52 8 -85zM417 350l-6 1l-4 -9l5 -3zM373 352v14q-5 -3 -14 -9q5 -5 14 -5zM447 250v14h-7v-14h7
zM413 297l-5 2l-5 -10l5 -2zM375 303v10h-6v-10h6zM418 234q9 18 0 26q-10 0 -10 -9q0 -17 10 -17zM473 156l-4 4l-9 -9l4 -5zM333 270q-5 5 -15 5q9 -10 9 -16q0 5 6 11zM465 126q-3 2 -8.5 7.5t-10.5 5.5v-18zM462 61v10h-6v-10h6z" />
    <glyph glyph-name="n" unicode="n" horiz-adv-x="436" 
d="M96 77h-7v15h7v-15zM346 192l-13 -31l-6 2l13 29h6zM369 5l-3.5 -3t-5.5 -10q-2 0 -13 12q-4 -3 -25 -37q-16 25 -16 41q-12 -12 -17 -12v99q7 8 8 20v17q1 0 6 2.5t5 8.5q0 10 -19 69q12 0 15 4q0 8 -6 1q-18 34 -14 80l8 7q-6 7 -15 7l1.5 7.5t1.5 16.5q-2 3 -5 3
q-5 -2 -5 -20q-6 16 -24 44q-2 -6 -9 -16q0 2 -4 8q-40 -20 -55 -63q-8 -33 -17 -66q1 5 -3 9q-10 -64 -7 -80q-13 -13 -13 -17q-4 3 -6 3q-1 0 -2 -2q0 5 7 -21q4 2 4 6q0 -10 -7.5 -23.5t-7.5 -18.5q0 -8 13 -14q0 -8 -12 -14q0 -39 -10 -49q-29 8 -42 21q2 6 2 17
q0 12 -3.5 39t-3.5 36q0 -1 2 12q1 10 0 21q11 8 5 30q0 1 5 11t5 16q0 9 -11 16q-7 52 3 73q-8 7 -11 4q3 2 9 12q-4 27 3 62q0 -2 4 -8q4 5 4 8q17 -21 45 -64q16 30 16 40q0 -2 4 -8l7 8q45 45 50 45t4 -3q-2 -4 0 -5l10 11q21 5 58 21q7 -6 15.5 -25t16.5 -28q1 10 5 25
q2 -16 9 -48q-4 1 -6 1q-3 0 2 -8t5 -12q0 -6 -4.5 -21.5t-4.5 -20.5q0 -32 15 -32q5 0 6.5 1.5t2.5 1.5q0 -8 -2 -20.5t-2 -17.5q0 -12 7 -22l9 8q0 -4 2 -14t2 -13q-2 0 -9 7q-16 -17 -1 -32q4 0 4 4q-3 -6 -3 -30q-1 -19 -10 -25l7 -6q9 -1 12 -1q-8 -23 9 -65v-21z
M314 331v11h-7v-11h7zM298 149v19h-7v-19h7zM141 282q0 -4 -3 -8.5t-2 -10.5v-17q12 11 5 36z" />
    <glyph glyph-name="o" unicode="o" horiz-adv-x="404" 
d="M339 213q0 -11 -4 -34q-6 -28 -12 -28h-13l-6 -6q1 -4 6 -12q1 0 6 4.5t8 5.5q-8 -37 -25 -103q0 4 -4 8q-3 -10 -3 -29q-2 3 -5 7q-7 -1 -12 -11q-7 -17 -9 -20q-20 -2 -33 -15q0 5 3 9l-5 5l-33 -21q-3 8 -19 8q8 17 59 83q4 30 17 96q2 9 19 23q14 13 10 29
q0 -9 3 -11v21q-5 -3 -14 -14q6 18 6 34q0 15 -9 59q-10 53 -20 53q-4 0 -3 -1.5t-4 -1.5t-15 10t-12 18q-40 -22 -70.5 -97.5t-30.5 -137.5q0 -83 65 -128q6 -3 6 -18q-12 0 -12 -6q0 6 -5 6l-10 -8q-2 6 -8 18q-14 -2 -16 3.5t-4 11.5q-3 -4 -3 -7q-5 3 -13 17.5t-13 14.5
t-6 -2t-2 -2q-1 22 3 33l-5 6q-1 -2 -8 -21q-8 18 -22 55v12q4 -3 11 -3q3 2 3 9q0 9 -14 30q2 -3 6 0q4 2 4 5q-4 22 5 84q2 0 8 -3q10 2 9 28q13 0 12 0q8 6 7 16q-2 16 -2 18q9 11 32 33q0 12 -6 5q25 48 31 55q15 16 47 16q4 0 6.5 -3.5t7.5 -3.5q7 0 20 7q0 5 -2 -9
q0 -5 5 -5t6 1.5t2 1.5q0 -2 -1.5 -6t-1.5 -6l6 -6q10 10 10 14q35 -33 49 -72q17 -45 17 -122zM59 169h-6v10h6v-10zM300 357l-1 5l-12 -4v-5zM262 373l-4 10l-5 -2l4 -8h5zM223 413l-5 2l-5 -9l5 -2zM280 169v10h-6v-10h6zM91 212v13h-6v-13h6zM84 205l-5 10l-5 -2l5 -8h5
zM89 175q-3 0 -7.5 -3.5t-4.5 -6.5q1 2 3 2q9 0 8 -16q1 4 1 24zM112 98v13h-6v-13h6z" />
    <glyph glyph-name="p" unicode="p" horiz-adv-x="387" 
d="M65 266h-7v10h7v-10zM345 247q0 -14 -7.5 -41.5t-7.5 -54.5q-26 -3 -27 -22q-1 -12 -1 -24q-11 -9 -50 -32q7 -6 10 -3q-18 -12 -51 -42q2 2 2 4.5t2 4.5q-2 2 -7 2q-12 0 -8 -14q-5 2 -13 7q-2 0 -2 -10q-3 0 -10 -2t-12 -2q-7 0 -9.5 4.5t-3.5 9.5q-6 0 -6 -7h-13
q0 8 -7 14q2 0 -9 -10q-4 -2 -4 -12q0 -4 1 -14v-16q0 -33 -15 -47q2 -2 7 0l7 2q0 -1 2 -7t2 -11q0 -4 -7 -19.5t-7 -19.5q0 2 4 -19.5t2 -43.5q2 -10 -1 -30q-1 -5 4 -14.5t5 -13.5q0 -20 -10 -39q4 -8 6 -19q2 -14 -6 -18q8 -17 -4 -25q2 -2 10 -2q4 -12 -4 -46
q-4 4 -11 4v-14h-21q0 2 4.5 4t6.5 4q-5 0 -22 2q-7 0 -22 16v45q8 0 11 2q-5 12 -5 20q0 7 4 13t4 8q0 5 -7.5 13t-7.5 12l5 4q7 31 7 53q2 0 7 2t7 2q-4 -14 -1 -17q4 4 6 11q2 14 3 15q-5 5 -18 -1q2 23 -8 29v110q8 0 15 7q0 3 -6 8l-9 -6q13 17 13 29q-1 2 -8 4
q0 1 13 72v32q0 24 -5.5 24t-5.5 9l6 14q7 14 16 19q2 1 -1 4q-8 -7 -17 2q3 67 10 77q0 -11 4 -14q3 8 1 17q-4 11 -4 12q0 9 8 6q3 6 1 10q-1 0 9 7q-20 18 -21 19.5t-1 11.5q0 12 6 18q0 -2 4 -8q6 0 13 7q3 11 -12 11q-5 0 -7 -1t-4 -1q3 3 23 12q-6 7 -15 24v20
q3 0 9 -3q2 2 6.5 4.5t6.5 4.5q-4 14 -15 42v42q25 7 35 7q4 0 12 -7q5 2 7 -1q-7 -34 -6 -111q2 0 10 8q8 -16 7 -25q-5 6 -9 2l12 -9q9 13 10 23q2 14 5 23l9 -7q3 0 6 -3l9 6q-3 -2 0 -6q4 -4 9 -4q5 5 4 14l7 -7q8 15 19 15q5 0 13.5 -5.5t12.5 -5.5q6 0 11 5
q-3 -3 4 -9q3 4 3 7q27 -7 44 -42q13 -27 25 -54q-4 1 -7 -4q-6 -8 -8 -9q6 -1 15 -9q-6 0 -9 3q-6 -5 -6 -8q6 -6 10 -6q3 0 3 7q6 -11 6 -29zM239 376l-4 22h-6l3 -22h7zM198 359v14h-6v-14h6zM291 194v24h-7v-24h7zM324 157l-13 12l-4 -3l13 -13zM297 240q0 5 -2.5 7.5
t-2.5 3.5q-3 -4 -3 -8.5t-8 -9.5q-2 20 -3.5 57.5t-3.5 57.5l-9 -4q-4 0 -7 7.5t-8 7.5q-68 0 -115 -42q-4 -39 -16 -49v-38q0 -8 5 -8q-2 -2 -1.5 -7t-1.5 -7q-4 3 -9 3v-38q9 -6 9 -16q0 -6 -4 -17q-4 1 -7.5 5.5t-4.5 4.5q5 -10 3 -20q12 0 15 -4q0 -28 -1.5 -43
t-1.5 -11q6 2 21 -1t17 -3q8 0 22 14q7 -6 7 -11q13 21 27 36q7 -7 8 -7q11 29 32 52q8 46 27 68zM282 124q-5 2 -14 8v-17q5 2 14 9zM107 216q0 5 -8 14q-5 -5 -5 -18q2 0 7 2t6 2zM83 180l-5 4l-8 -13l4 -3zM135 58v13h-6v-13h6zM65 22v13h-7v-13h7zM78 24q-2 0 -7 -1.5
t-7 -1.5q0 -7 2.5 -13t2.5 -7q0 5 9 23zM89 -2l-14 4q2 -2 0 -6q-3 -6 -3 -7q2 2 9 4.5t8 4.5zM72 -140v13h-6v-13h6zM105 -255l-4 4l-9 -9l4 -4zM109 -296h-5l-5 -12l6 -2zM78 -311q-9 0 -9 7q0 -2 -2.5 -6t-2.5 -6q9 0 14 5zM72 -334v10h-6v-10h6zM65 -354l-5 2l-5 -10
l5 -2z" />
    <glyph glyph-name="q" unicode="q" horiz-adv-x="381" 
d="M264 -44l-4 -9l-5 2l4 8zM328 -299q-5 0 -8 3q-2 -3 -18 -11q-6 4 -13 17q-2 -3 -2 -6q-15 7 -27 7q1 6 1 13q0 8 -15 84q0 -8 10 35q-16 23 -16 66v14.5v14.5q0 43 -17 66q-10 -2 -18.5 -12t-27.5 -10h-17q-4 0 -3 3.5t-3 3.5q-5 0 -7 -3t-3 -3q0 7 -14 7q0 1 1.5 5
t1.5 6q-19 -4 -35 15q-11 19 -22 37q-4 -1 -11 -7q1 3 0 19q-1 13 14 18q2 9 -13 9q-4 0 -7 -4q-8 25 -8 34q0 7 13 21q-6 10 -12 10q5 0 15 11l-2 13q-3 0 -10 -15q0 19 -7 27q2 0 7.5 -5t9.5 -5q7 91 7 92q4 -4 10 -1q0 3 -3 5q-5 2 -7 0q-1 -4 -1 24q2 0 10 7q0 -7 5 -14
q2 6 2 38q8 9 10 9q10 0 9 11q0 -9 5 -15q0 5 3.5 19.5t3.5 19.5q0 6 -3 8q7 12 21 30l11 -11q7 21 -4 31q6 0 25.5 4.5t23.5 4.5t20.5 -10.5t20.5 -10.5t1.5 3.5t1.5 3.5q11 0 18 -15q9 11 9 32q0 19 -7 42q4 0 7 -3q4 14 -4 34q23 12 26 12q25 0 25 -51q0 -25 -6 -33v-34
q13 -47 13 -74q0 -8 -2 -12q-10 -4 -13 -21q-3 -27 -4 -29l-6 7q2 -9 7 -15t5 -8q0 -6 -5 -31t-5 -36q0 -6 1 -10v-36q0 -2 -4.5 -22t-4.5 -27q0 -2 4.5 -20.5t4.5 -35.5q0 -9 -1 -19q-3 -20 -4 -17q7 -48 3 -57v-95l9 -20q4 0 2 -3q-3 -3 -8 -5v-13q3 -2 6 -1q4 1 4 5
q0 -4 6 -29q5 -22 4 -27q-5 5 -5 -3q0 -5 3 -7q7 -5 8 -6q5 -8 5 -17v-26zM59 198h-6v13h6v-13zM124 357v10h-6v-10h6zM108 323h-11q2 0 2 -13q9 10 9 13zM266 319q0 13 -7 43q-1 0 -2 -1t-6 -1q3 0 -9 23t-33 23q-13 0 -25 -21q-7 -15 -14 -29q-13 -4 -19.5 -21t-13.5 -33
q-9 -19 -22 -73q-13 -50 -13 -59q0 -41 12 -85q14 -61 41 -61q8 0 26 13t19 14t18 32q11 22 16 56q10 34 26 103q-4 3 -7 0q-5 -3 -8 -3q-4 0 -10 6q22 19 20 31q1 1 4 5.5t2 5.5q0 5 -4 18q9 13 9 14zM98 283l-9 9q0 -2 -3 -9t-3 -8q7 8 15 8zM89 258v13h-5v-13h5zM256 34
q-3 0 -8 5v-16q0 2 8 11zM276 -27q-3 0 -12 16v-20q1 0 5.5 2t6.5 2zM192 28v10h-5v-10h5zM65 128l-4 3l-8 -8l3 -5zM72 114l-5 2l-4 -8l5 -2zM83 75l-4 3l-9 -8l3 -3zM254 339h-5l-7 16l5 1z" />
    <glyph glyph-name="r" unicode="r" horiz-adv-x="348" 
d="M167 321h-6v9h6v-9zM315 275q0 -6 -16 -17q-7 7 -9 7q-2 -9 -8 -25q0 2 -3 7l-9 -6q5 5 1 10q-2 -3 -11 -3q6 7 6 15q0 5 -5.5 13t-7.5 13q7 -7 11 -7q6 6 6 9q0 13 -9 22q-10 -10 -8 -10q1 15 -7 19q9 8 11 26q-8 0 -8 -2q-3 9 -14 9q-4 0 -5 -2t-5 -2q-6 0 -13 14
q-6 -2 -12 -17q-1 0 -8 7q-7 -7 -7 -14q1 7 -6 10q-4 -7 -4 -20q-5 7 -17 7l-7 -7q0 -7 -1 -20q-13 -11 -22 -57q-7 -33 -7 -47q0 -12 7 -12q5 0 5 5q0 -11 -12 -17l7 -6v-22q-4 -5 -18 -24l3 -19q3 2 7 10.5t7 9.5q-2 -4 0 -9q2 -7 2 -8q0 -4 -5 -8l6 -5q5 2 8 2
q-6 -3 -4 -16q6 6 6 8q0 -12 4.5 -35.5t4.5 -26.5q0 -26 -16 -40l-7 7q-1 -1 -0.5 -4t-4.5 -3q-27 0 -38 43q-7 26 -7 54q0 14 17 26l-6 6l-14 -4q-5 7 -5 14q0 5 5 18t6 24q-1 3 -4 3q-4 -4 -4 -12q0 58 2 78q-4 -3 -7 -3q-4 12 -4 31q-8 -1 -8 -14q-3 1 -6 3t-3 7
q0 8 8 24q3 -3 6 -3q2 2 -1 9q-1 5 4 5t4.5 -3t0.5 -4q8 9 8 37v5q0 17 2 26q13 7 13 16l-6 6l-7 -7q0 5 3.5 11t3.5 7q0 3 -5 4q2 2 5 -1q6 4 6 14q0 9 -9 15q1 9 6 36q36 -2 36 -20q0 -3 -2 -12q-2 -7 0 -10q0 -5 -3 -14.5t-2 -15.5l7 7q2 -4 0 -10q-2 -8 -2 -11
q0 -5 15 -21q9 11 18 21q12 14 17 14t4 -2q-2 -4 0 -5l9 10q7 0 7 7q7 -1 19 -10q2 0 6 5.5t6 6.5q10 2 39 2q3 0 21 -11q14 -31 14 -40q0 -2 -1 -17q-2 -11 0 -17t11 -24t9 -23zM288 338l-4 10l-5 -2l4 -8h5zM242 382q-4 0 -10 -5q11 -5 8 -19q2 4 2 24zM271 317v16h-6v-16
h6zM216 369v9h-6v-9h6zM282 313h-6l-2 -20h6zM112 448h-6l-4 -12l5 -2zM103 434h-13q0 -2 8 -10q3 3 5 10zM87 328v9h-6v-9h6zM79 278q-2 0 -7 -2t-7 -2q4 -3 9 -6q3 3 5 10zM103 195q-13 -3 -13 -17q0 -5 9 -14q4 13 4 31zM93 127q-5 23 -5 30q-5 -15 -12 -30h17z" />
    <glyph glyph-name="s" unicode="s" horiz-adv-x="318" 
d="M92 1h-7l-5 10l6 2zM264 74q-4 5 -9 5q0 -8 -7 -41q-10 -14 -21 -42q0 16 -5 26q-5 -2 -14 -19q-14 -25 -16 -29q0 13 -5 18q-5 -1 -8 -8q-4 -10 -9 -18q0 3 -8 13q-12 1 -12 -18q-10 10 -27 44q-8 -13 -18 -39q-8 4 -1 11q-23 21 -27 25q-9 7 -25 11q-14 21 -14 35
q0 4 5.5 12.5t5.5 13.5q0 7 -6 12q4 -3 12.5 -15t14.5 -19q7 18 6 35q1 -17 14 -43q16 -31 33 -31q10 0 14 -4q24 7 43 42.5t15 60.5q34 14 34 27q-16 27 -28 31q0 -1 -1.5 -11.5t-6.5 -10.5q-6 0 -11.5 13.5t-11.5 15.5q6 32 -23 60q-33 29 -33 53q0 7 2 17q-5 -1 -20 2
q-2 0 0 -1t4 0q4 1 4 5q0 13 -11 13q-7 0 -8 -1.5t-3 -1.5q2 11 -9 40t-13 42q6 -5 10 -5l8 8q0 8 -7 14q-4 -2 -4 -6q0 11 3 15q4 -5 8 -5q2 24 4 27q9 16 40 13l10 9q38 -13 39 -13q20 5 23 5h1q-1 -3 -10 -9q-3 -4 4 -23q4 9 11 26q15 -2 22 -24q11 -30 12 -31
q-5 3 -13 3q-7 0 -20 -13q-26 27 -60 44q-5 -10 -9 -21q-9 -16 -20 -22q0 -6 17 -15q0 -12 -9 -12l-8 -7q0 -10 11 -10q5 0 10 4q1 -3 11 -43q8 -26 14 -26t7.5 1.5t2.5 1.5q0 -14 -3 -19q3 -1 8.5 -8t10.5 -7q7 0 6 3q-3 8 -3 6q26 -41 26 -48q0 -8 -5 -11q10 -6 21 -18
q-2 -3 -6 -5t-6 -4q4 -8 15 -18q3 3 9 13q0 -7 10 -36.5t10 -42.5q-8 16 -5 19q-3 1 -12 7q-3 -3 -15 -3l4 -36q2 11 8 30q2 -7 23 -39zM119 416q0 -5 -14 28v-21q14 0 14 -7zM92 375v12h-8v-12h8zM206 239h-8l-5 -20h7zM170 261h-6l-6 -15l7 -3zM175 227v12h-8v-12h8z
M192 197v20h-8v-20h8zM226 74l-17 6v-7l14 -5z" />
    <glyph glyph-name="t" unicode="t" horiz-adv-x="366" 
d="M174 223l-6 -12l-6 3l5 12zM254 -5l-13 -6v7l11 5zM160 511h-6l-6 15l7 2zM264 393h-8v17h8v-17zM143 478l-6 -21h-7l5 21h8zM169 440l-5 -12l-7 3l6 12zM344 74q-14 -18 -5 -46q-3 0 -11 8q-10 -9 -20 -17q-11 -11 -11 -20q0 -4 1 -7q-10 1 -28 -19h-16q9 11 2 18
q-8 -9 -8 -18q-2 1 -1.5 7t-6.5 6q-6 0 -4.5 -2t-4.5 -2t-12.5 9t-12.5 9t-24 -9q0 13 -7 13q-6 0 -5 -2t-4 -2q-7 0 -16 16q-13 22 -18 27l13 14v48l-6 8q-4 -5 -4 -9q-8 5 -21 15q6 7 15.5 23t15.5 22q-5 4 -23 3q-6 -11 -6 -32q0 15 -1 45l11 -9q7 0 15 8q-3 11 -22 11
q2 8 2 36q0 16 3 23q1 2 7 11q5 6 5 13q0 17 -17 17q8 17 8 26q0 18 -22 21q-28 5 -40 24q-5 2 -26 -9q-7 6 -7 20q0 17 37 29q31 9 59 9l10 40q7 24 16 31q-6 2 -22 8q9 9 9 19q0 25 -12 43q-4 -5 -4 -9q0 12 1 24q2 16 15 24q0 11 -6 11q-6 24 27 35q2 -6 9 -22q8 0 8 18
q9 -15 9 -52q0 6 -6 5q-2 0 -5 -2q0 -10 13 -10q0 -3 -5.5 -6.5t-6.5 -4.5q2 -9 16 -26v-71q-8 1 -13 -4l-9 -8q1 -2 9 -19q4 -12 4 -20q21 -6 59 -4q7 -27 -1 -58q-1 7 -4 19q-8 4 -20 17q-1 -2 -4 -9t-5 -4q-13 0 -13 -12q0 2 -10 12q-1 0 -5.5 -5.5t-8.5 -7.5
q4 -14 5 -40q-5 -3 -10 -17v-22q3 -3 7 -1q4 3 4 7q0 -3 -2.5 -8t-3.5 -12q6 -16 6 -22q0 -4 -3.5 -5.5t-3.5 -4.5q0 -7 4 -11t6 -7q-5 -5 -9 -10q10 -57 7 -71q3 -10 15 -29q-4 0 -9 2q-2 1 -5 -1l20 -48q22 -40 55 -40q14 0 46 32q30 29 31 36q0 -5 11 -16zM187 535l-6 2
l-6 -11l7 -3zM285 400v8h-13v-8h13zM160 317v16h-7v-16h7zM133 326v16h-8v-16h8zM155 280l-12 6l-3 -7l12 -6zM29 366v17h-7v-17h7zM147 195l-5 30h-8l5 -30h8z" />
    <glyph glyph-name="u" unicode="u" horiz-adv-x="406" 
d="M336 27q0 -22 -17 -32q0 -7 4 -7q-5 1 -18 14q-3 -3 -3 -7q-12 0 -27 18q11 7 11 15q-8 0 -23 3l-9 -8q0 10 -3 13q-7 -11 -19 -23q-6 -7 -6 -12q0 -2 1 -6q-6 0 -10.5 1.5t-9.5 1.5q-4 0 -10.5 -6t-12.5 -6q-5 0 -10 2t-9.5 2t-26.5 16t-33 18q-8 8 -2 26q-7 7 -16 7
q4 0 4 10q0 7 -7.5 24t-13.5 22q1 -4 9 -4q-16 13 -16 49q0 10 1.5 30.5t1.5 29.5q0 10 -1 18q-7 8 -7 19q0 7 3 20.5t2 18.5q-6 46 -5 89q5 2 49 13q0 -4 7 -15t8 -15q4 -9 -1 -38q-1 -5 3 -12.5t4 -12.5l-8 -41.5t-8 -47.5q0 -5 6.5 -17t6.5 -18q3 -38 8 -66
q1 -6 4.5 -15.5t3.5 -13.5q0 -6 -5 -9l8 -7q11 -7 28 -37q24 16 37 29l8 -8q6 5 16 28q29 10 29 47q0 14 -4.5 38t-4.5 30t-2.5 18t-2.5 17q0 7 6 8.5t7 2.5q-8 4 -8 17q0 -3 6 31q0 -3 4 -9q5 8 7 21q4 23 4 24h5q-6 7 -17 26q-3 -4 -3 -11q0 17 -3 34t-3 20q0 13 29 20
q18 3 35 7q14 -22 14 -91q0 -14 -2 -20q-9 -5 -9 -39v-50q-1 -8 -4 -39q-2 -25 -2 -39q9 10 9 -6q0 -14 -6 -14q-5 0 -7 2q-1 1 -4 -1q30 -78 30 -97zM271 385v19h-8v-19h8zM274 255l-10 10l-4 -4l10 -11zM266 234h-6l-5 -14l6 -2zM279 53l-5 4l-14 -14l4 -4z" />
    <glyph glyph-name="v" unicode="v" horiz-adv-x="390" 
d="M147 77h-6v20h6v-20zM342 391q0 -5 -5.5 -19.5t-5.5 -21.5q0 -6 2 -11q-4 4 -8 4q-5 -13 -5 -27t5 -32.5t5 -21.5q0 -2 -9 -9t-9 -17q0 -6 2 -14q0 -62 -23 -105q4 -1 8 -1q-3 0 -17 15q-4 -29 -20 -95l-22 -20q-17 -16 -17 -28q-1 1 -8 8.5t-12 7.5t-2 -4t-2 -4
q-8 0 -29 23q2 9 12 22q0 11 -12 11l7 21q-1 4 -4 4q-2 -9 -4.5 -26t-4.5 -26q-3 8 -21 41q-17 30 -17 35q0 6 7 19q8 17 9 21q-6 7 -9 7q-3 -3 -3 -9q-1 -6 2 -6q-2 0 -6.5 -3t-6.5 -3q0 17 -16 22q0 11 4 38q-3 0 -6.5 -6t-3.5 -12q-1 10 -8 31.5t-7 34.5q0 6 2 11
q-16 7 -16 20q13 0 15 6l-6 7q-7 -8 -8 -8q-7 15 -1 35q-1 3 -5 3q0 -2 -2.5 -9.5t-2.5 -13.5q-11 24 -6 75l-6 7q-5 -6 -17 -16q2 4 6 16t6 17l49 -1q2 -6 29 -95q23 -78 23 -92q0 6 6 6q3 0 23 -58t35 -69q2 11 8 30q4 -5 8 -5q2 2 3 7.5t3 7.5q-3 4 -11 -1q9 29 9 46
l8 -9q1 2 5 32q3 23 17 34q-8 7 -8 25q0 44 22 77q-1 15 -5 45q7 5 14 22q-2 2 -3 5t-3 6q-4 -5 -4 -15v15q-1 12 -1 24q1 0 20.5 7t23.5 7q14 0 15 -11q1 -5 8 -16.5t7 -17.5zM297 283v32q0 -1 -5 -5t-5 -10t10 -17zM277 271l-4 20h-7l4 -20h7zM300 149v11h-7v-11h7z
M287 165l-2 6l-9 -6v-6zM155 122h-6l-5 -24h7z" />
    <glyph glyph-name="w" unicode="w" horiz-adv-x="509" 
d="M119 56l-5 -10l-5 3l5 10zM474 401q-2 -3 -11 -13t-9 -13q0 -5 13 -4l-2 -42q-7 -14 -21 -20l-7 -7q-3 -11 10 -19q0 -1 -12 -12q1 -3 1 -8q0 -16 -11 -48q-4 -9 -3 -32q1 -21 4 -27q-8 -13 -11 -46q-2 -26 -3 -52q-5 6 -15 -2l-1 -22q20 6 19 6q-5 -5 -13 -8.5t-8 -4.5
q0 -3 9 -8q-8 3 -22 -3q2 10 -5 28q-9 2 -10 -11q-23 4 -27 28q-2 17 -5 34l-10 -7q-6 8 0 21q-29 5 -30 82q-4 -4 -8 -3q-1 16 -9.5 39.5t-10.5 37.5q-3 -3 -4 -14q1 7 -6 15q-2 -20 -14 -59q0 -5 -9 -4q-5 0 -5 4t-1 5q-1 -3 -9 -33q1 -2 5 -8q6 11 16 27q-8 -21 -18 -63
q0 4 -8 9.5t-10 8.5q-6 0 -8 -3l-4 -6q-1 -3 4 -3.5t13 -0.5l-2 -26q-4 -8 -16 -38q-8 -22 -13 -22q-6 0 -6.5 2.5t-1.5 2.5q-4 -9 -4.5 -30t-15.5 -37q-49 18 -47 68q-15 26 -10 37q-3 3 3 24q-3 9 -19 23q4 -1 10.5 4.5t8.5 6.5l-1 34q-9 1 -9 -12q-3 12 -14 25
q-4 0 -4 -8q-1 25 -10 64q-10 46 -12 64q0 6 11 21q0 1 2 3q1 1 0 1q0 1 -5 1t-5 -8q-2 12 -7.5 19t-5.5 9q0 3 3 9q2 -2 7 -4q7 6 5 16q-5 -7 -20 -6q12 11 33 25q9 -14 26 -41q-9 -26 15 -40q-6 -6 -7 -14q4 12 -5 12q-9 1 -15 -5q5 -11 23 -22q1 -8 0 -28l2 -6q1 -2 9 -5
v9q2 -7 -9 -22q2 -5 7 -14q2 -1 4 3q-6 -11 -7 -20q16 -9 20 -21q2 -6 2.5 -27t14.5 -34q9 27 28 80q15 10 18 15q0 6 1 13l1 12q4 2 12 -8q5 9 17 22q-2 6 -2 13q0 25 16 51q16 3 20 23q14 -9 30 -10q3 0 3 8q8 -10 26 -32q-2 -2 -6 -8t-6 -8l1 -18l7 8q5 0 13 7
q-2 -4 -2 -9q0 -8 16 -50q-9 -11 -6 -30q7 5 8 20q10 -43 10 -47l-1 -11q7 10 23 26q-2 20 7 68q10 57 11 68q8 1 19 5q-11 10 -10 19q0 2 10 20v-33q1 -2 5 -8q3 6 7 22q3 34 -3 34q-5 1 -6.5 -1t-2.5 -2l1 14q3 6 13.5 13t15.5 7q1 0 17.5 -10t19.5 -15zM129 226
q0 -2 -2.5 -7.5t-2.5 -7.5q-3 1 -10 6q10 9 15 9zM408 335h-6l-5 -13l5 -3zM410 268l-4 12l-5 -2l4 -10h5zM427 245h-6l-5 -18h6zM408 110l1 20q-10 -9 -10 -15q3 0 9 -5zM369 154l1 14l-6 1l-1 -15h6zM413 92l-5 2l-6 -10l5 -2zM204 218l1 14l-6 1l-1 -15h6zM66 349l-7 18
h-5l6 -20zM181 187q3 5 3 12q1 7 -2 7l-10 -9q3 -5 9 -10zM184 178q-7 -4 -15 -17q0 -9 5 -10q9 8 10 27zM90 226l1 10l-6 1l-1 -11h6zM101 235q-11 1 -13 -18q0 -6 3 -8.5t6 -4.5q0 12 4 31zM70 257l-5 2l-5 -10l5 -3zM114 154l-8 10l-4 -4l8 -10zM106 73l1 20l-1 -10h-7
q8 0 7 -10z" />
    <glyph glyph-name="x" unicode="x" horiz-adv-x="400" 
d="M97 83l-6 -2l-7 22h6zM377 -2q0 -5 -4 -9t-4 -5t2 -2q-6 0 -12 7q-8 -7 -3 -12q-28 14 -56 41q-36 33 -42 64l-9 -9q-4 15 -14 44l-10 -9q-2 2 -2 15q-3 4 -20 3v13q-4 0 -11 9q-8 -9 -8 -18q1 5 -5 18q-7 -16 -5 -25q-23 -11 -18 -36q-17 3 -20 -16q-5 -25 -15 -29l-8 4
q-3 -4 -1 -12q2 -11 2 -13q-20 -14 -39 -14q-6 0 -13.5 9.5t-13.5 17.5q0 5 4.5 12t4.5 9q0 3 -5 6q17 25 33 49q14 18 46 44l-12 14q7 12 25 30q-7 7 -9 26q-3 16 -8 16q-6 0 -6 -7q0 12 2 14q-3 6 -26 29q-17 18 -18 35q-4 -3 -4 -7q0 8 -8.5 15.5t-17.5 4.5q-6 28 -18 48
h32l9 -9q16 0 24 -6q26 -33 71 -89q-2 -5 -2 -16q-4 -3 6 -3h19q12 0 23 34q8 31 17 63q0 -9 7 -9q2 2 1 5q-3 5 -3 10q0 9 12 35q14 33 31 38q3 3 1 7q-2 3 -6 3l15 16q0 -8 5 -13q6 0 6 8h19q0 -10 3 -12q3 4 3 9l10 -9q5 4 9 4q0 -3 -2 -8.5t-2 -8.5q-2 0 -6.5 2t-6.5 2
v-25q-4 -15 -23 -23q-2 -31 -9 -49q-16 -18 -13 -34q-2 0 -14 12q-1 -1 1 -26q-7 7 -12 2q7 -7 12 -7v-17l-9 4q-3 -3 -1 -7q3 -3 7 -3q-5 -7 -9.5 -14.5t-16.5 -10.5q-5 -5 5 -16q-13 -11 -13 -17t32 -73q7 8 7 13q5 -4 16 -28.5t16 -24.5q6 0 6 9q2 -9 13 -26l10 8
q-4 0 -4 -10q0 -2 11 -25l9 9q0 -2 -1.5 -9.5t-1.5 -9.5q6 1 15 0q18 -14 18 -29zM283 360l-6 13l-5 -3l5 -10h6zM249 314h-6l-9 -23l6 -3zM254 251l-6 3l-6 -12l6 -2zM216 245v12h-7v-12h7zM213 233v0v0v0zM229 201v12h-8v-12h8zM206 225q-10 0 -10 8q0 -1 -1 -8v-11z
M177 227l-2 6l-10 -6v-6zM152 181l-11 10q0 -5 2.5 -13.5t2.5 -10.5q0 7 6 14z" />
    <glyph glyph-name="y" unicode="y" horiz-adv-x="400" 
d="M28 -279l-16 -15l-4 5l15 15zM333 208q0 -20 -10 -112q3 0 3 4q-13 -27 -3 -77q-3 4 -7 1t-4 -12q0 -25 -1 -14q0 -6 7 -6q6 0 7.5 2t3.5 2v-41q-14 -62 -14 -101q0 -16 2 -28l-26 -65q0 -16 -24 -50.5t-33 -37.5l-8 8q-5 -4 -3 -21q-7 1 -23 13q-3 -7 -6 -14.5t-10 -7.5
q-5 0 -4 2.5t-4 2.5q-13 0 -1 -12q-2 0 -10 -1h-14q-6 0 -8.5 4.5t-4.5 8.5q-3 -2 -9 -10t-13 -8q-12 0 -31 18q-12 0 -12 -13q-10 9 -13 22q-4 18 -14 34l-8 -16q-6 -14 -9 -14q-2 1 -2 6q1 11 13.5 40.5t14.5 47.5q-2 -20 10 -47q16 -35 45 -35q4 0 15.5 6.5t17.5 6.5
q5 0 5 -2t6 -2q5 0 6 2t0 5q-1 5 -1 6l18 -4q8 15 8 29q11 4 28 23t24 24q1 10 -13 16q11 7 17 18t9 14q0 9 -8 1l4 20q3 14 11 22q1 10 0 29q-2 23 -2 32q4 0 5 -6q2 -5 -1 -9q7 -7 9 -7q0 4 13 42q-8 14 -30 33q0 3 12 15q0 2 2 4q1 1 0 1q-1 1 -6 1q-9 0 -9 32q-3 3 -9 3
q-5 0 -20.5 -11t-20.5 -11t-11 -2t-11 -2t-29 12q-34 18 -38 20q0 5 -11.5 21t-14.5 26q-4 24 -12 69q-16 67 -16 76q0 16 18 28l-7 7q-8 -8 -19 -8q4 9 7 40q0 5 7 27q6 19 4 29q-4 23 -4 32q0 -4 4 -8q0 -1 2 8q1 7 0 13l4 5h21q6 0 2.5 -4.5t2.5 -4.5q4 0 4 2q0 1 -1 2.5
t-1 2.5q1 2 4 2q17 0 22 -20q2 -13 5 -25q-13 -58 -13 -134q0 -18 9.5 -51.5t9.5 -44.5q0 -15 -11 -21q14 -7 19 -27.5t14 -26.5q21 10 54 52q0 -14 3 -17q4 12 28 53q18 32 18 52q0 7 -1 14q14 19 14 30q-13 17 -10 42q-3 6 -10 13q-2 6 8 14v50q-5 7 -18 18v36
q10 10 19 10q63 0 63 -50q0 -13 -5 -30q10 -94 10 -136zM247 -240h-7v24h7v-24zM85 295v12h-8v-12h8zM291 -54v11h-7v-11h7zM138 71v11h-8v-11h8zM265 -180v25h-8v-25h8z" />
    <glyph glyph-name="z" unicode="z" horiz-adv-x="430" 
d="M201 7l-6 -18l-6 3l5 15h7zM391 20q0 6 -4 9q-2 -1 -14 -16q-8 -10 -23 -14q5 5 5 13l-8 9q-1 -2 -2 -10t-7 -8q-5 0 -5 2t-6 2q-12 0 -23 -21q-1 0 -1 4t-6 4q-7 0 -7 -7q0 12 -12 12l-16 -13q5 5 -3 13q-13 -7 -31 -27q0 2 -4 9q-3 -4 -3 -9h-16q-2 5 -8 13
q-3 -6 -14 -17q0 10 -3 13q-8 -8 -8 -17q-7 6 -23 17l-10 -9q0 1 -12 13q-1 -8 -6 -22q0 1 -2.5 12.5t-2.5 19.5q-6 0 -8 -8v13q-12 5 -45 28q1 0 4 -1.5t9 -1.5q4 0 4 2q0 1 -1 2.5t-1 2.5q1 2 5 2q12 0 12 2l-2.5 5t-2.5 10q3 -2 5 -6.5t4 -6.5l2 4q1 3 0 6q-2 5 -7 9v24
q5 6 5 10q9 -9 17 -2q-8 8 -8 13q0 -2 10 -2t24 15l-7 7q-2 -2 -4.5 -6.5t-4.5 -6.5q0 10 -8 12h12q1 3 6 25q4 16 6 16q2 -1 4 -10q7 0 14 8q0 6 -3 20q-6 -4 -10 -4q0 1 13 17q10 12 7 22q0 -4 7.5 -10t10.5 -12q3 3 2 11q-1 9 -10 12q9 11 23 15q0 29 17 39l-8 8v16
l10 -9q3 7 10 22q0 -9 3 -13q5 17 19 53q-3 -10 4 -22q2 4 6.5 11t6.5 11q0 -14 4 -18q7 14 7 23q0 5 -9 15q-14 16 -24 33q-5 -2 -5 -7q0 11 -4 16q-7 -7 -7 -13t8 -11.5t10 -9.5l-16 -15q6 9 -4 9q-8 0 -8 -13q-3 5 -3 32q-1 4 -5 4l-13 -40q-5 0 -16 -4.5t-17 -4.5
q-5 0 -5 4v0q0 5 -6 5q-5 0 -3 -7q-10 -2 -20 -3q-18 -4 -22 -12q-1 0 -3.5 6.5t-8.5 6.5t-6 -5q1 7 -13 14q-2 -5 -2.5 -13.5t-2.5 -13.5h-19q-5 8 -9 26q-3 15 -5 30q11 11 38 19q2 -7 -0.5 -20t0.5 -20q4 5 15 40q2 0 11 -9l12 13q3 0 5.5 -5.5t4.5 -7.5q3 7 14 18
q0 -1 -1 -6q-1 -3 0 -5q2 -2 6 -2q6 0 5 2t4 2q7 0 6.5 -3.5t1.5 -5.5q7 0 10 3q0 2 -4 8t-4 11q1 0 4.5 4.5t10.5 4.5q2 0 15.5 -7.5t15.5 -10.5q9 10 2 17q-5 0 19 -12q0 6 4 17h15q0 -6 4 -17q5 2 8.5 7t5.5 5q0 -1 7 -7t9 -14q6 30 19 33l36 2l-3 -9q-1 -6 1 -8
q3 2 19 1q22 -2 19 -2q-3 -4 -33 -59q-25 -46 -44 -64l-9 9q-3 -4 -3 -35q-2 0 -7 2t-7 2q-2 -2 2 -3.5t4 -7.5q0 -11 -17 -19q4 5 4 13q-2 0 -11 8q0 -15 -7 -33.5t-7 -28.5q0 -8 2 -16q-22 -1 -22 -27q-13 2 -22 -7q4 -4 14 -4q-3 -2 -21 -34q0 10 -3 14q-5 -16 -4 -53
q-6 0 -10 4q-13 -12 -20 -24q10 -17 12.5 -18.5t21.5 -1.5h52q6 0 6 4.5t5.5 4.5t58.5 2t58 2q9 0 13 -9q7 -16 9 -18zM38 377l-6 -17l-6 2l5 15h7zM302 410v16h-7v-16h7zM236 370v12h-7v-12h7zM227 381l-6 2l-6 -12l7 -2zM139 391q0 -9 -8 -17q-4 4 -4 11q0 -7 4 -18t4 -18
q0 8 4 25q3 14 0 17zM108 357v12h-7v-12h7zM117 61v16h-8v-16h8z" />
    <glyph glyph-name="hyphen" unicode="&#x2010;" horiz-adv-x="463" 
d="M310 217l-13 -6v7l11 6zM413 224q-6 -2 -24.5 -16t-24.5 -14h-152q-9 0 -16.5 9.5t-14.5 18.5q-3 -3 -3 -18q-1 0 -9 4.5t-14 4.5t-8 -5t-8 -5q-7 0 -9.5 5t-5.5 10q-28 -15 -30 -15q-11 0 -24 22q-10 15 -13 28q0 1 4.5 11t11.5 10q6 0 23.5 -3.5t19.5 -6.5q9 10 16 10
t10 -5t6 -9q9 9 24 9l9 -9q10 9 19 9q6 0 6 -4.5t5.5 -4.5t11 -6t10.5 -6q-7 0 -12 -5q1 -1 6 -8t10 -13q12 19 3 46q17 -2 31 -10t18 -8q8 0 8 14l11 -9q9 9 14 9q9 0 21.5 -9t14.5 -14q4 3 4 23h18q0 -11 8 -18q2 2 7.5 6.5t7.5 6.5q-2 -10 -13 -25q7 -3 23 -10zM53 267
l-6 -12l-6 3l6 12zM343 224q-6 13 -6 26q-17 -21 -16 -37q2 2 11 5.5t11 5.5zM213 223v17h-8v-17h8z" />
    <glyph glyph-name="NULL" horiz-adv-x="0" 
 />
    <glyph glyph-name="perthousand.001" horiz-adv-x="833" 
 />
    </font>
</defs>
</svg>
