<?xml version="1.0" standalone="no"?>
<!DOCTYPE svg PUBLIC "-//W3C//DTD SVG 1.1//EN" "http://www.w3.org/Graphics/SVG/1.1/DTD/svg11.dtd" >
<svg xmlns="http://www.w3.org/2000/svg" xmlns:xlink="http://www.w3.org/1999/xlink" version="1.1">
<metadata>
Created by FontForge 20170731 at Mon Aug  4 22:29:19 2014
 By Aleksey,,,
Copyright (c) 2016 by Alberto Romanos. All rights reserved.
</metadata>
<defs>
<font id="BwSurco-Bold" horiz-adv-x="0" >
  <font-face 
    font-family="Bw Surco"
    font-weight="700"
    font-stretch="normal"
    units-per-em="1000"
    panose-1="0 0 8 0 0 0 0 0 0 0"
    ascent="770"
    descent="-230"
    x-height="506"
    cap-height="720"
    bbox="-769 -241 1220 1058"
    underline-thickness="50"
    underline-position="-250"
    unicode-range="U+000D-FB02"
  />
<missing-glyph horiz-adv-x="1274" 
d="M1214 369l-368 -372q-7 -7 -17 -7q-20 0 -20 23v324l-339 -340q-7 -7 -17 -7q-20 0 -20 23v324l-340 -340q-7 -7 -17 -7q-17 0 -17 18q0 10 5 15l342 341h-324q-23 0 -23 19q0 9 7 16l340 342h-327q-20 0 -20 19v1q0 19 20 19h370q23 0 23 -20q0 -9 -8 -17l-341 -340h330
q8 0 14 -6t6 -14v-327l339 338q9 8 17 8q18 0 18 -22v-324l340 338q8 8 16 8q17 0 17 -19q0 -7 -6 -14z" />
    <glyph glyph-name="fi" unicode="fi" horiz-adv-x="690" 
d="M631 506v-506h-155v390h-220v-390h-155v390h-74v116h74v102q0 82 49.5 127t140.5 45q68 0 128 -17l-20 -115q-30 9 -68 9q-35 0 -55 -20.5t-20 -55.5v-75h375zM552 584q-40 0 -63 22t-23 61t23 60t63 21t63 -21t23 -60t-23 -61t-63 -22z" />
    <glyph glyph-name="fl" unicode="fl" horiz-adv-x="726" 
d="M702 120l20 -98q-50 -32 -112 -32q-67 0 -104.5 38t-37.5 109v253h-212v-390h-155v390h-74v116h74v102q0 82 49.5 127t140.5 45q64 0 115 -17l-19 -114q-26 8 -56 8q-35 0 -55 -20.5t-20 -55.5v-75h212v253q47 21 83 21q35 0 53.5 -19.5t18.5 -52.5v-558q0 -37 36 -37
q22 0 43 7z" />
    <glyph glyph-name="f_f" unicode="ff" horiz-adv-x="763" 
d="M683 657q-36 0 -56 -20.5t-20 -55.5v-75h143v-116h-143v-390h-155v390h-196v-390h-155v390h-74v116h74v102q0 82 49.5 127t140.5 45q64 0 115 -17l-19 -114q-26 8 -56 8q-35 0 -55 -20.5t-20 -55.5v-75h196v102q0 82 49.5 127t140.5 45q83 0 146 -27l-20 -115
q-37 19 -85 19z" />
    <glyph glyph-name="f_f_i" unicode="ffi" horiz-adv-x="1042" 
d="M983 506v-506h-155v390h-220v-390h-155v390h-197v-390h-155v390h-74v116h74v102q0 82 49.5 127t140.5 45q64 0 115 -17l-19 -114q-26 8 -56 8q-35 0 -55 -20.5t-20 -55.5v-75h197v102q0 82 49.5 127t140.5 45q68 0 128 -17l-20 -115q-30 9 -68 9q-35 0 -55 -20.5
t-20 -55.5v-75h375zM904 584q-40 0 -63 22t-23 61t23 60t63 21t63 -21t23 -60t-23 -61t-63 -22z" />
    <glyph glyph-name="f_f_l" unicode="ffl" horiz-adv-x="1077" 
d="M1053 120l20 -98q-50 -32 -112 -32q-67 0 -104.5 38t-37.5 109v253h-212v-390h-155v390h-196v-390h-155v390h-74v116h74v102q0 82 49.5 127t140.5 45q64 0 115 -17l-19 -114q-26 8 -56 8q-35 0 -55 -20.5t-20 -55.5v-75h196v102q0 82 49.5 127t140.5 45q64 0 115 -17
l-19 -114q-26 8 -56 8q-35 0 -55 -20.5t-20 -55.5v-75h212v253q47 21 83 21q35 0 53.5 -19.5t18.5 -52.5v-558q0 -37 36 -37q22 0 43 7z" />
    <glyph glyph-name=".notdef" horiz-adv-x="1274" 
d="M1214 369l-368 -372q-7 -7 -17 -7q-20 0 -20 23v324l-339 -340q-7 -7 -17 -7q-20 0 -20 23v324l-340 -340q-7 -7 -17 -7q-17 0 -17 18q0 10 5 15l342 341h-324q-23 0 -23 19q0 9 7 16l340 342h-327q-20 0 -20 19v1q0 19 20 19h370q23 0 23 -20q0 -9 -8 -17l-341 -340h330
q8 0 14 -6t6 -14v-327l339 338q9 8 17 8q18 0 18 -22v-324l340 338q8 8 16 8q17 0 17 -19q0 -7 -6 -14z" />
    <glyph glyph-name="uni0000" 
 />
    <glyph glyph-name="uni0000" 
 />
    <glyph glyph-name="uni000D" unicode="&#xd;" horiz-adv-x="215" 
 />
    <glyph glyph-name="space" unicode=" " horiz-adv-x="215" 
 />
    <glyph glyph-name="exclam" unicode="!" horiz-adv-x="295" 
d="M228 720l-5 -475h-149l-5 475h159zM148 -10q44 0 68.5 24t24.5 66t-24.5 66t-68.5 24q-45 0 -69.5 -24t-24.5 -66t24.5 -66t69.5 -24z" />
    <glyph glyph-name="quotedbl" unicode="&#x22;" horiz-adv-x="419" 
d="M44 770h144l-18 -240h-110zM230 770h144l-18 -240h-110z" />
    <glyph glyph-name="numbersign" unicode="#" horiz-adv-x="716" 
d="M665 372h-86l-14 -125h89l-14 -116h-88l-14 -131h-149l15 131h-131l-15 -131h-149l15 131h-87l13 116h87l14 125h-89l13 116h89l14 128h149l-14 -128h130l14 128h149l-14 -128h87zM284 243h133l15 132h-133z" />
    <glyph glyph-name="dollar" unicode="$" horiz-adv-x="522" 
d="M489 181q0 -84 -52.5 -133.5t-147.5 -56.5v-101h-43v100q-130 2 -210 62l37 90q77 -48 173 -50v162q-110 40 -151.5 80t-41.5 109q0 80 51 128t142 54v95h43v-94q105 -7 180 -58l-51 -78q-66 31 -129 35v-147l12 -4q40 -13 69.5 -26.5t58.5 -35.5t44.5 -55t15.5 -76z
M188 461q0 -47 58 -71v134q-58 -12 -58 -63zM289 240v-145q66 11 66 68q0 28 -15.5 45t-50.5 32z" />
    <glyph glyph-name="percent" unicode="%" horiz-adv-x="728" 
d="M182 308q-69 0 -107.5 41.5t-38.5 116.5t38.5 117.5t107.5 42.5t107.5 -42.5t38.5 -117.5t-38.5 -116.5t-107.5 -41.5zM115 42l414 584l82 -51l-414 -585zM182 390q42 0 42 76q0 77 -42 77q-20 0 -31.5 -20.5t-11.5 -56.5q0 -76 43 -76zM546 -10q-69 0 -107.5 41.5
t-38.5 116.5t38.5 117.5t107.5 42.5t107.5 -42.5t38.5 -117.5t-38.5 -116.5t-107.5 -41.5zM546 72q42 0 42 76t-42 76q-43 0 -43 -76t43 -76z" />
    <glyph glyph-name="ampersand" unicode="&#x26;" horiz-adv-x="719" 
d="M568 160l141 -123q-15 -18 -45.5 -32.5t-57.5 -14.5q-73 0 -115 39q-9 9 -27 25q-95 -64 -219 -64q-99 0 -153.5 47t-54.5 132q0 119 109 237q-41 73 -41 131q0 88 65.5 140.5t180.5 52.5q125 0 237 -84l-58 -106q-79 62 -159 62q-99 0 -99 -78q0 -82 209 -283
q40 73 63 190l122 -27q-31 -148 -98 -244zM274 106q62 0 108 27q-90 86 -154 161q-40 -55 -40 -113q0 -36 22 -55.5t64 -19.5z" />
    <glyph glyph-name="quotesingle" unicode="'" horiz-adv-x="233" 
d="M44 770h144l-18 -240h-110z" />
    <glyph glyph-name="parenleft" unicode="(" horiz-adv-x="337" 
d="M311 -185l-128 -55q-143 219 -143 510t143 510l128 -55q-104 -189 -104 -452q0 -268 104 -458z" />
    <glyph glyph-name="parenright" unicode=")" horiz-adv-x="337" 
d="M154 -240l-128 55q104 182 104 458q0 270 -104 452l128 55q143 -219 143 -510t-143 -510z" />
    <glyph glyph-name="asterisk" unicode="*" horiz-adv-x="390" 
d="M354 621l-97 -22l64 -73l-74 -55l-50 85l-50 -86l-76 54l64 73l-96 21l27 89l92 -39l-9 102h92l-9 -100l92 39z" />
    <glyph glyph-name="plus" unicode="+" horiz-adv-x="498" 
d="M461 310v-116h-135v-154h-154v154h-135v116h134v154h155v-154h135z" />
    <glyph glyph-name="comma" unicode="," horiz-adv-x="275" 
d="M138 170q44 0 69 -33.5t25 -92.5q0 -70 -38 -120t-113 -67l-21 38q49 14 72.5 38.5t32.5 64.5q-27 -8 -49 -8q-72 0 -72 85q0 45 24.5 70t69.5 25z" />
    <glyph glyph-name="hyphen" unicode="-" horiz-adv-x="433" 
d="M56 321h320v-129h-320v129z" />
    <glyph glyph-name="period" unicode="." horiz-adv-x="273" 
d="M137 -10q-45 0 -69.5 24t-24.5 66t24.5 66t69.5 24q44 0 68.5 -24t24.5 -66t-24.5 -66t-68.5 -24z" />
    <glyph glyph-name="slash" unicode="/" horiz-adv-x="412" 
d="M282 780l102 -31l-253 -869l-102 31z" />
    <glyph glyph-name="zero" unicode="0" horiz-adv-x="631" 
d="M316 -10q-131 0 -202.5 83.5t-71.5 234.5t71.5 234.5t202.5 83.5q130 0 202 -83.5t72 -234.5t-72 -234.5t-202 -83.5zM316 113q54 0 84.5 51t30.5 144t-30.5 144.5t-84.5 51.5q-56 0 -86.5 -51.5t-30.5 -144.5t30.5 -144t86.5 -51z" />
    <glyph glyph-name="one" unicode="1" horiz-adv-x="402" 
d="M334 616v-616h-155v447l-112 -57l-62 119l203 107h126z" />
    <glyph glyph-name="two" unicode="2" horiz-adv-x="571" 
d="M189 116h343v-116h-499v79q0 36 15 67.5t48 60t56.5 44.5t69.5 44q41 26 54 34.5t39.5 29.5t35.5 38.5t9 37.5q0 69 -94 69q-77 0 -158 -64l-57 101q109 85 238 85q108 0 168 -49.5t60 -137.5q0 -38 -17.5 -71t-55 -63.5t-63 -47t-73.5 -44.5q-53 -30 -82.5 -52
t-36.5 -45z" />
    <glyph glyph-name="three" unicode="3" horiz-adv-x="562" 
d="M493 522l-170 -196q203 -62 203 -223q0 -106 -73 -164.5t-206 -58.5q-127 0 -230 64l58 104q42 -24 75.5 -34.5t80.5 -10.5q66 0 101.5 28t35.5 79q0 54 -61.5 91t-197.5 60l194 239h-242v116h432v-94z" />
    <glyph glyph-name="four" unicode="4" horiz-adv-x="604" 
d="M588 116v-116h-96v-110h-155v110h-317v102l263 524l139 -39l-243 -471h162v128l151 57v-185h96z" />
    <glyph glyph-name="five" unicode="5" horiz-adv-x="586" 
d="M235 353l74 -5q117 -8 182 -68.5t65 -160.5q0 -114 -74 -176.5t-209 -62.5q-66 0 -136 21t-122 59l62 103q87 -60 188 -60q63 0 98.5 30t35.5 84q0 51 -34 81.5t-95 33.5l-206 9l44 375h400v-116h-251z" />
    <glyph glyph-name="six" unicode="6" horiz-adv-x="608" 
d="M329 465q114 0 176.5 -61t62.5 -170q0 -115 -68.5 -179.5t-192.5 -64.5q-127 0 -196.5 94.5t-69.5 265.5q0 179 83.5 279.5t230.5 100.5q105 0 203 -56l-45 -113q-58 46 -139 46q-68 0 -112.5 -44.5t-60.5 -126.5q55 29 128 29zM313 113q45 0 71.5 31t26.5 85
q0 60 -30 94t-82 34q-59 0 -105 -30q4 -102 35 -158t84 -56z" />
    <glyph glyph-name="seven" unicode="7" horiz-adv-x="535" 
d="M513 616v-95l-289 -660l-144 47l265 592h-321v116h489z" />
    <glyph glyph-name="eight" unicode="8" horiz-adv-x="618" 
d="M477 378q102 -53 102 -176q0 -100 -71.5 -156t-198.5 -56t-198.5 56t-71.5 156q0 123 102 176q-78 54 -78 154q0 94 65 146t181 52t181 -52t65 -146q0 -100 -78 -154zM309 607q-42 0 -66 -23.5t-24 -66.5q0 -42 24 -65.5t66 -23.5t66 23.5t24 65.5q0 43 -24 66.5
t-66 23.5zM309 113q53 0 82 27.5t29 75.5q0 50 -29 78t-82 28q-54 0 -83.5 -28t-29.5 -78q0 -48 29.5 -75.5t83.5 -27.5z" />
    <glyph glyph-name="nine" unicode="9" horiz-adv-x="607" 
d="M301 626q125 0 195 -96t70 -270q0 -179 -83.5 -279.5t-230.5 -100.5q-105 0 -203 56l45 113q58 -46 139 -46q68 0 112.5 44.5t60.5 126.5q-55 -29 -128 -29q-113 0 -176 62.5t-63 171.5q0 112 70 179.5t192 67.5zM196 384q0 -61 30 -96t82 -35q54 0 105 30
q-4 105 -35 163t-84 58q-45 0 -71.5 -31.5t-26.5 -88.5z" />
    <glyph glyph-name="colon" unicode=":" horiz-adv-x="288" 
d="M145 336q-45 0 -69.5 24t-24.5 66t24.5 66t69.5 24q44 0 68.5 -24t24.5 -66t-24.5 -66t-68.5 -24zM145 -10q-45 0 -69.5 24t-24.5 66t24.5 66t69.5 24q44 0 68.5 -24t24.5 -66t-24.5 -66t-68.5 -24z" />
    <glyph glyph-name="semicolon" unicode=";" horiz-adv-x="289" 
d="M145 336q-45 0 -69.5 24t-24.5 66t24.5 66t69.5 24q44 0 68.5 -24t24.5 -66t-24.5 -66t-68.5 -24zM145 170q44 0 69 -33.5t25 -92.5q0 -70 -38 -120t-113 -67l-21 38q49 14 72.5 38.5t32.5 64.5q-27 -8 -49 -8q-72 0 -72 85q0 45 24.5 70t69.5 25z" />
    <glyph glyph-name="less" unicode="&#x3c;" horiz-adv-x="515" 
d="M458 482v-123l-290 -106l290 -106v-123l-424 175v107z" />
    <glyph glyph-name="equal" unicode="=" horiz-adv-x="542" 
d="M59 402h424v-116h-424v116zM59 218h424v-116h-424v116z" />
    <glyph glyph-name="greater" unicode="&#x3e;" horiz-adv-x="515" 
d="M57 482l424 -176v-107l-424 -175v123l290 106l-290 106v123z" />
    <glyph glyph-name="question" unicode="?" horiz-adv-x="511" 
d="M84 540l-58 106q100 84 219 84q110 0 172 -51.5t62 -139.5q0 -33 -9.5 -61.5t-31.5 -54t-35.5 -39t-42.5 -37.5q-26 -23 -37.5 -34.5t-22.5 -30.5t-11 -37h-149q0 44 18.5 82.5t37.5 57.5t51 46q64 55 64 100q0 71 -89 71q-68 0 -138 -62zM215 -10q-45 0 -69.5 24
t-24.5 66t24.5 66t69.5 24q44 0 68.5 -24t24.5 -66t-24.5 -66t-68.5 -24z" />
    <glyph glyph-name="at" unicode="@" horiz-adv-x="1096" 
d="M540 485q109 0 214 -17v-198q0 -45 19 -70t54 -25t54.5 35.5t19.5 98.5q0 166 -94 259t-261 93q-166 0 -259.5 -103.5t-93.5 -287.5t93.5 -287.5t259.5 -103.5q138 0 267 63l53 -110q-61 -34 -149 -53t-171 -19q-238 0 -372.5 135t-134.5 375t134.5 375t372.5 135
q240 0 374 -124.5t134 -346.5q0 -120 -59.5 -186.5t-167.5 -66.5q-141 0 -195 99q-20 -47 -64 -73t-97 -26q-79 0 -122 53.5t-43 150.5q0 106 61.5 165.5t172.5 59.5zM521 168q39 0 62 29.5t23 81.5v86q-19 1 -51 1q-45 0 -72 -28.5t-27 -79.5q0 -42 17.5 -66t47.5 -24z" />
    <glyph glyph-name="A" unicode="A" horiz-adv-x="686" 
d="M517 0l-51 153h-263l-51 -153h-155l260 709q42 21 85 21q80 0 113 -88l234 -642h-172zM244 277h181l-90 290z" />
    <glyph glyph-name="B" unicode="B" horiz-adv-x="658" 
d="M500 376q123 -51 123 -175q0 -101 -78.5 -156t-220.5 -55q-93 0 -249 10v720q176 10 229 10q137 0 213 -52.5t76 -146.5q0 -101 -93 -155zM305 606q-41 0 -68 -1v-172h68q120 0 120 87q0 86 -120 86zM325 114q62 0 96 26t34 72t-34 71.5t-96 25.5h-88v-193q66 -2 88 -2z
" />
    <glyph glyph-name="C" unicode="C" horiz-adv-x="645" 
d="M568 184l63 -111q-96 -83 -259 -83q-156 0 -243.5 100t-87.5 270q0 169 83.5 269.5t231.5 100.5q175 0 256 -144l-149 -59q-40 75 -106 75t-107.5 -61.5t-41.5 -180.5t49.5 -180.5t131.5 -61.5q98 0 179 66z" />
    <glyph glyph-name="D" unicode="D" horiz-adv-x="716" 
d="M288 730q183 0 286 -97.5t103 -272.5t-103 -272.5t-286 -97.5q-135 0 -213 10v720q74 10 213 10zM287 114q105 0 163 64.5t58 181.5t-58 181.5t-163 64.5q-16 0 -50 -2v-488q34 -2 50 -2z" />
    <glyph glyph-name="E" unicode="E" horiz-adv-x="590" 
d="M237 124h310v-124h-472v720h461v-124h-299v-165h264v-124h-264v-183z" />
    <glyph glyph-name="F" unicode="F" horiz-adv-x="543" 
d="M514 596h-277v-201h225v-124h-225v-271h-162v720h439v-124z" />
    <glyph glyph-name="G" unicode="G" horiz-adv-x="711" 
d="M369 416h293v-405q-39 -21 -75 -21q-35 0 -56.5 20t-24.5 54q-31 -41 -74.5 -57.5t-108.5 -16.5q-133 0 -207 100t-74 270q0 169 86.5 269.5t238.5 100.5q175 0 256 -144l-149 -59q-43 75 -111 75q-69 0 -111.5 -61.5t-42.5 -180.5t43.5 -180.5t115.5 -61.5
q132 0 132 135v39h-131v124z" />
    <glyph glyph-name="H" unicode="H" horiz-adv-x="762" 
d="M602 730q40 0 63.5 -23.5t23.5 -61.5v-645h-162v302h-290v-302h-162v709q39 21 75 21q40 0 63.5 -23.5t23.5 -61.5v-218h290v282q39 21 75 21z" />
    <glyph glyph-name="I" unicode="I" horiz-adv-x="310" 
d="M237 0h-162v709q39 21 75 21q40 0 63.5 -23.5t23.5 -61.5v-645z" />
    <glyph glyph-name="J" unicode="J" horiz-adv-x="415" 
d="M184 204v505q38 21 75 21q40 0 63.5 -23.5t23.5 -61.5v-473q0 -87 -51 -134.5t-142 -47.5q-77 0 -140 27l20 120q37 -19 82 -19q33 0 51 23t18 63z" />
    <glyph glyph-name="K" unicode="K" horiz-adv-x="673" 
d="M150 730q40 0 63.5 -23.5t23.5 -61.5v-645h-162v709q39 21 75 21zM415 379l269 -363q-31 -26 -86 -26q-51 0 -77.5 13.5t-48.5 43.5l-230 317l233 366l151 -26z" />
    <glyph glyph-name="L" unicode="L" horiz-adv-x="536" 
d="M237 129h282v-129h-444v709q39 21 75 21q40 0 63.5 -23.5t23.5 -61.5v-516z" />
    <glyph glyph-name="M" unicode="M" horiz-adv-x="940" 
d="M902 0h-165l-45 467l-155 -467h-148l-162 473l-39 -473h-148l80 709q40 21 79 21q93 0 115 -67l167 -498l171 542q32 23 76 23t65.5 -19.5t28.5 -71.5z" />
    <glyph glyph-name="N" unicode="N" horiz-adv-x="764" 
d="M535 720h154v-720h-127l-339 448l6 -448h-154v709q27 21 66 21q52 0 97 -58l303 -403z" />
    <glyph glyph-name="O" unicode="O" horiz-adv-x="786" 
d="M394 -10q-166 0 -259.5 97.5t-93.5 272.5t93.5 272.5t259.5 97.5t259 -97.5t93 -272.5t-93 -272.5t-259 -97.5zM393 118q88 0 136 63.5t48 178.5t-48 178.5t-136 63.5t-136.5 -63.5t-48.5 -178.5t48.5 -178.5t136.5 -63.5z" />
    <glyph glyph-name="P" unicode="P" horiz-adv-x="640" 
d="M324 730q139 0 217 -60.5t78 -169.5q0 -112 -77.5 -173.5t-218.5 -61.5q-24 0 -86 2v-267h-162v720q142 10 249 10zM323 389q62 0 95 29.5t33 81.5q0 50 -33.5 78t-93.5 28q-21 0 -87 -2v-214q16 0 44.5 -0.5t41.5 -0.5z" />
    <glyph glyph-name="Q" unicode="Q" horiz-adv-x="786" 
d="M486 -1l5 -13q33 -87 159 -94l-70 -108q-87 8 -149.5 50.5t-93.5 114.5l-20 47q-132 22 -204 116.5t-72 247.5q0 175 93.5 272.5t259.5 97.5t259 -97.5t93 -272.5q0 -149 -67 -242t-193 -119zM208 360q0 -115 48.5 -178.5t136.5 -63.5t136 63.5t48 178.5t-48 178.5
t-136 63.5t-136.5 -63.5t-48.5 -178.5z" />
    <glyph glyph-name="R" unicode="R" horiz-adv-x="676" 
d="M618 168l9 -81q4 -38 19 -76q-48 -21 -93 -21q-75 0 -87 88l-10 83q-14 117 -118 117h-101v-278h-162v720q138 10 239 10q144 0 224.5 -56t80.5 -158q0 -118 -112 -174q97 -51 111 -174zM314 606q-19 0 -77 -2v-201h76q138 0 138 102q0 101 -137 101z" />
    <glyph glyph-name="S" unicode="S" horiz-adv-x="590" 
d="M302 730q129 0 232 -70l-68 -110q-72 52 -161 52q-42 0 -65 -16.5t-23 -45.5q0 -24 19.5 -43t42 -28.5t66.5 -24.5q38 -13 59.5 -22t53.5 -28.5t49.5 -40t31 -54.5t13.5 -76q0 -112 -72 -172.5t-203 -60.5q-147 0 -247 75l51 114q77 -61 204 -61q49 0 76 19t27 53
q0 17 -8 31t-16 22.5t-30 19t-31.5 14t-39.5 14.5q-37 12 -59.5 21t-54.5 28.5t-50.5 41t-32 56.5t-13.5 79q0 103 65 158t184 55z" />
    <glyph glyph-name="T" unicode="T" horiz-adv-x="566" 
d="M546 720v-124h-182v-596h-162v596h-181v124h525z" />
    <glyph glyph-name="U" unicode="U" horiz-adv-x="728" 
d="M508 279v430q38 21 73 21q38 0 59.5 -23t21.5 -62v-378q0 -132 -78.5 -204.5t-219.5 -72.5q-140 0 -218 72.5t-78 204.5v442q39 21 75 21q40 0 63.5 -23.5t23.5 -61.5v-366q0 -77 35.5 -119t98.5 -42q69 0 106.5 42t37.5 119z" />
    <glyph glyph-name="V" unicode="V" horiz-adv-x="692" 
d="M540 730l146 -26l-256 -704h-166l-259 704q31 26 83 26q43 0 67 -15.5t41 -63.5l119 -337l47 -156l45 159z" />
    <glyph glyph-name="W" unicode="W" horiz-adv-x="1014" 
d="M856 730l147 -26l-203 -704h-173l-92 374l-30 161l-28 -160l-89 -375h-169l-212 704q31 26 82 26q45 0 70 -15t38 -64l97 -362l27 -132l23 143l94 404q31 26 87 26q37 0 64.5 -23.5t36.5 -63.5l80 -369l19 -123l26 133z" />
    <glyph glyph-name="X" unicode="X" horiz-adv-x="661" 
d="M318 245l-152 -245h-168l237 370l-213 334q31 26 86 26q49 0 77.5 -12.5t48.5 -44.5l106 -176l140 233l158 -26l-212 -334l233 -354q-31 -26 -81 -26q-58 0 -86.5 12.5t-49.5 44.5z" />
    <glyph glyph-name="Y" unicode="Y" horiz-adv-x="640" 
d="M632 704l-231 -424v-280h-162v279l-233 425q31 26 88 26q46 0 72 -12.5t43 -44.5l89 -176l37 -90l36 94l111 229z" />
    <glyph glyph-name="Z" unicode="Z" horiz-adv-x="602" 
d="M275 198l-58 -74h349v-124h-541v103l290 421l53 72h-318v124h502q19 -31 19 -62q0 -19 -9.5 -37.5t-35.5 -56.5z" />
    <glyph glyph-name="bracketleft" unicode="[" horiz-adv-x="364" 
d="M331 646h-100v-752h100v-124h-262v1000h262v-124z" />
    <glyph glyph-name="backslash" unicode="\" horiz-adv-x="412" 
d="M130 780l253 -869l-102 -31l-253 869z" />
    <glyph glyph-name="bracketright" unicode="]" horiz-adv-x="364" 
d="M295 770v-1000h-262v124h100v752h-100v124h262z" />
    <glyph glyph-name="asciicircum" unicode="^" horiz-adv-x="481" 
d="M447 353h-130l-77 236l-77 -236h-129l144 367h124z" />
    <glyph glyph-name="underscore" unicode="_" horiz-adv-x="624" 
d="M44 -28h536v-82h-536v82z" />
    <glyph glyph-name="grave" unicode="`" horiz-adv-x="257" 
d="M65 794l188 -147l-42 -74l-221 97z" />
    <glyph glyph-name="a" unicode="a" horiz-adv-x="539" 
d="M269 516q103 0 160 -49.5t57 -140.5v-315q-47 -21 -83 -21q-29 0 -47 21t-20 57q-54 -78 -151 -78q-76 0 -119 41.5t-43 113.5q0 80 64 124t182 44q41 0 62 -1q-2 45 -21.5 66.5t-66.5 21.5q-68 0 -129 -40l-62 96q98 60 217 60zM228 104q44 0 73.5 29.5t29.5 89.5
q-21 1 -58 1q-103 0 -103 -65q0 -25 14.5 -40t43.5 -15z" />
    <glyph glyph-name="b" unicode="b" horiz-adv-x="605" 
d="M374 516q88 0 141 -66t53 -181q0 -133 -73.5 -206t-205.5 -73q-86 0 -230 10v759q47 21 83 21q35 0 53.5 -19.5t18.5 -52.5v-265q57 73 160 73zM274 105q64 0 100.5 43t36.5 121q0 60 -24.5 92.5t-69.5 32.5q-103 0 -103 -142v-146q23 -1 60 -1z" />
    <glyph glyph-name="c" unicode="c" horiz-adv-x="514" 
d="M447 156l49 -108q-81 -58 -198 -58q-124 0 -193 69.5t-69 194.5q0 121 70 191.5t179 70.5q26 0 52.5 -6t55 -20.5t52 -44.5t34.5 -71l-113 -45q-22 65 -73 65q-48 0 -74 -37t-26 -103t31.5 -103.5t86.5 -37.5q80 0 136 43z" />
    <glyph glyph-name="d" unicode="d" horiz-adv-x="604" 
d="M473 780q35 0 53.5 -19.5t18.5 -52.5v-697q-47 -21 -83 -21q-29 0 -47 21.5t-20 57.5q-57 -79 -165 -79q-88 0 -141 65.5t-53 180.5q0 134 73.5 207t206.5 73q16 0 74 -2v245q47 21 83 21zM390 253v147q-23 1 -60 1q-63 0 -100 -44t-37 -121q0 -59 24.5 -91.5t70.5 -32.5
q102 0 102 141z" />
    <glyph glyph-name="e" unicode="e" horiz-adv-x="541" 
d="M299 106q84 0 143 40l61 -97q-95 -59 -215 -59t-186.5 66t-66.5 185q0 130 70 202.5t198 72.5q95 0 148 -45t53 -124q0 -76 -65.5 -118.5t-182.5 -42.5q-35 0 -66 4q17 -84 109 -84zM288 396q-42 0 -68.5 -31t-32.5 -88q34 -3 67 -3q100 0 100 66q0 56 -66 56z" />
    <glyph glyph-name="f" unicode="f" horiz-adv-x="412" 
d="M332 657q-36 0 -56 -20.5t-20 -55.5v-75h143v-116h-143v-390h-155v390h-74v116h74v102q0 82 49.5 127t140.5 45q83 0 146 -27l-20 -115q-37 19 -85 19z" />
    <glyph glyph-name="g" unicode="g" horiz-adv-x="604" 
d="M316 516q85 0 229 -10v-536q0 -100 -62 -155t-175 -55q-130 0 -237 59l62 97q70 -40 149 -40q60 0 84 30.5t24 91.5v64q-56 -72 -160 -72q-88 0 -141 65.5t-53 180.5q0 134 73.5 207t206.5 73zM390 253v147q-23 1 -60 1q-63 0 -100 -44t-37 -121q0 -59 24.5 -91.5
t70.5 -32.5q102 0 102 141z" />
    <glyph glyph-name="h" unicode="h" horiz-adv-x="605" 
d="M373 516q85 0 131 -49.5t46 -140.5v-326h-155v299q0 45 -18.5 70t-53.5 25q-53 0 -81 -33t-28 -109v-252h-155v759q47 21 83 21q35 0 53.5 -19.5t18.5 -52.5v-267q58 75 159 75z" />
    <glyph glyph-name="i" unicode="i" horiz-adv-x="273" 
d="M135 584q40 0 63 22t23 61t-23 60t-63 21t-63 -21t-23 -60t23 -61t63 -22zM59 0v506h155v-506h-155z" />
    <glyph glyph-name="j" unicode="j" horiz-adv-x="273" 
d="M136 584q40 0 63 22t23 61t-23 60t-63 21t-63 -21t-23 -60t23 -61t63 -22zM76 -240l-69 111q52 18 52 107v528h155v-556q0 -137 -138 -190z" />
    <glyph glyph-name="k" unicode="k" horiz-adv-x="589" 
d="M142 780q35 0 53.5 -19.5t18.5 -52.5v-708h-155v759q47 21 83 21zM383 277l217 -264q-40 -23 -98 -23q-74 0 -111 49l-174 227l195 250l143 -23z" />
    <glyph glyph-name="l" unicode="l" horiz-adv-x="314" 
d="M198 -10q-67 0 -104.5 38t-37.5 109v622q47 21 83 21q35 0 53.5 -19.5t18.5 -52.5v-558q0 -37 36 -37q22 0 43 7l20 -98q-50 -32 -112 -32z" />
    <glyph glyph-name="m" unicode="m" horiz-adv-x="861" 
d="M648 516q75 0 116.5 -49.5t41.5 -140.5v-326h-155v299q0 95 -54 95q-87 0 -87 -142v-252h-155v299q0 95 -54 95q-87 0 -87 -142v-252h-155v495q47 21 83 21q29 0 46.5 -20.5t20.5 -56.5q53 77 144 77q90 0 132 -75q59 75 163 75z" />
    <glyph glyph-name="n" unicode="n" horiz-adv-x="605" 
d="M373 516q85 0 131 -49.5t46 -140.5v-326h-155v299q0 45 -18.5 70t-53.5 25q-53 0 -81 -33t-28 -109v-252h-155v495q47 21 83 21q29 0 47 -22.5t20 -59.5q58 82 164 82z" />
    <glyph glyph-name="o" unicode="o" horiz-adv-x="610" 
d="M304 -10q-128 0 -198.5 69t-70.5 194t70.5 194t198.5 69t199 -69t71 -194t-71 -194t-199 -69zM305 113q53 0 82.5 37t29.5 103t-29.5 103.5t-82.5 37.5t-82.5 -37.5t-29.5 -103.5t29.5 -103t82.5 -37z" />
    <glyph glyph-name="p" unicode="p" horiz-adv-x="605" 
d="M374 516q88 0 141 -66t53 -181q0 -133 -73.5 -206t-205.5 -73q-17 0 -75 2v-222h-155v725q47 21 83 21q30 0 47.5 -21.5t19.5 -58.5q57 80 165 80zM274 105q64 0 100.5 43t36.5 121q0 60 -24.5 92.5t-69.5 32.5q-103 0 -103 -142v-146q23 -1 60 -1z" />
    <glyph glyph-name="q" unicode="q" horiz-adv-x="604" 
d="M316 516q85 0 229 -10v-736h-155v292q-56 -72 -160 -72q-88 0 -141 65.5t-53 180.5q0 134 73.5 207t206.5 73zM390 253v147q-23 1 -60 1q-63 0 -100 -44t-37 -121q0 -59 24.5 -91.5t70.5 -32.5q102 0 102 141z" />
    <glyph glyph-name="r" unicode="r" horiz-adv-x="424" 
d="M349 516q41 0 77 -17l-45 -137q-28 18 -63 18q-104 0 -104 -168v-212h-155v495q47 21 83 21q32 0 49.5 -24t17.5 -64q50 88 140 88z" />
    <glyph glyph-name="s" unicode="s" horiz-adv-x="493" 
d="M253 516q115 0 198 -58l-56 -86q-70 36 -137 36q-62 0 -62 -35q0 -20 21 -32.5t66 -26.5q39 -12 65.5 -23t55 -29.5t43 -46.5t14.5 -64q0 -75 -58 -118t-160 -43q-137 0 -215 62l41 97q70 -49 167 -49q74 0 74 40q0 19 -24 31t-73 26q-34 10 -59 20.5t-52.5 29t-42 46
t-14.5 62.5q0 76 55.5 118.5t152.5 42.5z" />
    <glyph glyph-name="t" unicode="t" horiz-adv-x="429" 
d="M392 132l20 -115q-58 -27 -136 -27q-86 0 -133 45t-47 127v228h-74v116h79v114q47 21 83 21q32 0 49.5 -19.5t17.5 -52.5v-63h152v-116h-152v-202q0 -36 17.5 -55.5t50.5 -19.5q42 0 73 19z" />
    <glyph glyph-name="u" unicode="u" horiz-adv-x="592" 
d="M463 516q35 0 53.5 -19.5t18.5 -52.5v-433q-47 -21 -83 -21q-29 0 -47 22t-20 58q-53 -80 -154 -80q-85 0 -131 49.5t-46 140.5v315q47 21 83 21q35 0 53.5 -19.5t18.5 -52.5v-236q0 -45 18.5 -70t53.5 -25q49 0 74 32.5t25 107.5v242q47 21 83 21z" />
    <glyph glyph-name="v" unicode="v" horiz-adv-x="548" 
d="M388 516l145 -23l-176 -493h-166l-177 493q44 23 94 23q67 0 88 -72l61 -210l23 -113l25 104z" />
    <glyph glyph-name="w" unicode="w" horiz-adv-x="832" 
d="M683 516l136 -23l-163 -493h-156l-72 261l-13 69l-12 -64l-67 -266h-158l-166 493q40 23 89 23q74 0 93 -72l52 -196l25 -129l30 136l61 238q29 23 67 23q59 0 79 -72l52 -197l23 -118l28 122z" />
    <glyph glyph-name="x" unicode="x" horiz-adv-x="540" 
d="M262 160l-104 -160h-159l181 258l-155 235q48 23 94 23q35 0 57 -11t40 -39l65 -98l95 148l141 -23l-157 -233l174 -247q-33 -23 -82 -23q-81 0 -112 49z" />
    <glyph glyph-name="y" unicode="y" horiz-adv-x="552" 
d="M392 516l146 -23l-196 -547q-27 -77 -77 -127.5t-105 -58.5l-63 99q36 6 71 38.5t48 78.5l10 31q-37 14 -53 57l-156 429q44 23 89 23q69 0 93 -72l52 -165l37 -158l37 158z" />
    <glyph glyph-name="z" unicode="z" horiz-adv-x="501" 
d="M203 116h267v-116h-441v104l165 197l80 89h-229v116h401q20 -35 20 -59q0 -38 -40 -83l-167 -191z" />
    <glyph glyph-name="braceleft" unicode="{" horiz-adv-x="342" 
d="M258 159v-181q0 -88 53 -107l-76 -111q-138 53 -138 190v197q0 28 -18 44t-50 16v128q32 0 50 15.5t18 43.5v196q0 137 138 190l76 -111q-53 -19 -53 -107v-181q0 -71 -63 -111q63 -38 63 -111z" />
    <glyph glyph-name="bar" unicode="|" horiz-adv-x="251" 
d="M69 770h113v-1000h-113v1000z" />
    <glyph glyph-name="braceright" unicode="}" horiz-adv-x="342" 
d="M245 590v-196q0 -28 18 -43.5t50 -15.5v-128q-32 0 -50 -16t-18 -44v-197q0 -137 -138 -190l-76 111q53 19 53 107v181q0 73 63 111q-63 40 -63 111v181q0 88 -53 107l76 111q138 -53 138 -190z" />
    <glyph glyph-name="asciitilde" unicode="~" horiz-adv-x="599" 
d="M87 165l-41 53q18 46 57.5 76t82.5 30q52 0 134.5 -21t115.5 -21q48 0 79 49l39 -53q-54 -106 -149 -106q-52 0 -129 22.5t-110 22.5q-45 0 -79 -52z" />
    <glyph glyph-name="uni00A0" unicode="&#xa0;" horiz-adv-x="215" 
 />
    <glyph glyph-name="exclamdown" unicode="&#xa1;" horiz-adv-x="283" 
d="M142 516q-45 0 -69.5 -24t-24.5 -66t24.5 -66t69.5 -24q44 0 68.5 24t24.5 66t-24.5 66t-68.5 24zM67 261h149l5 -491h-159z" />
    <glyph glyph-name="cent" unicode="&#xa2;" horiz-adv-x="538" 
d="M456 156l49 -108q-70 -53 -186 -58v-62h-43v63q-109 9 -170 78t-61 185t64.5 185.5t166.5 75.5v63h43v-63q136 -18 169 -141l-113 -45q-18 53 -56 63v-279h1q80 0 136 43zM202 254q0 -112 74 -137v275q-35 -8 -54.5 -44.5t-19.5 -93.5z" />
    <glyph glyph-name="sterling" unicode="&#xa3;" horiz-adv-x="544" 
d="M271 258v-65q0 -41 -19 -77h240v-116h-446v109h18q25 0 38.5 30t13.5 84v35h-67v107h67v82q0 85 54.5 132t152.5 47q101 0 171 -38l-14 -113q-51 29 -117 29q-46 0 -69 -22.5t-23 -61.5v-55h158v-107h-158z" />
    <glyph glyph-name="currency" unicode="&#xa4;" horiz-adv-x="624" 
d="M539 337q0 -51 -19 -94l58 -60l-96 -98l-67 68q-41 -16 -102 -16q-59 0 -104 16l-67 -67l-96 97l60 61q-19 39 -19 93q0 53 18 92l-60 62l96 98l68 -69q48 17 104 17q61 0 102 -16l67 67l96 -97l-59 -59q20 -43 20 -95zM312 241q48 0 74.5 25t26.5 71t-26.5 71t-74.5 25
t-74 -25t-26 -71t26 -71t74 -25z" />
    <glyph glyph-name="yen" unicode="&#xa5;" horiz-adv-x="602" 
d="M573 601l-178 -334h90v-106h-106v-161h-155v161h-107v106h91l-180 334q32 25 85 25q80 0 108 -54l93 -185l116 239z" />
    <glyph glyph-name="brokenbar" unicode="&#xa6;" horiz-adv-x="255" 
d="M71 770h113v-400h-113v400zM71 170h113v-400h-113v400z" />
    <glyph glyph-name="section" unicode="&#xa7;" horiz-adv-x="604" 
d="M506 121q52 -52 52 -128q0 -112 -72 -172.5t-203 -60.5q-147 0 -247 75l51 114q77 -61 204 -61q49 0 76 19.5t27 54.5q0 19 -8 33.5t-27.5 26.5t-34 18t-44.5 17q-3 1 -4 1.5t-3 1t-4 1.5q-37 12 -59.5 21t-54.5 28.5t-50.5 41t-32 56.5t-13.5 79q0 93 53 148
q-53 51 -53 132q0 103 65 158t184 55q129 0 232 -70l-69 -110q-72 52 -160 52q-42 0 -65 -17t-23 -46q0 -24 19.5 -42.5t41.5 -28t66 -24.5q32 -12 49.5 -19t46.5 -21t45 -29.5t33.5 -37t25.5 -50.5t8 -64q0 -91 -52 -152zM208 303q0 -14 4 -25.5t17 -21.5t21 -16t31 -15.5
t31.5 -13t38.5 -13.5l37 -13q22 19 22 55q0 19 -8.5 35.5t-18.5 26.5t-33.5 21.5t-36 16.5t-44.5 16l-31 11q-30 -24 -30 -64z" />
    <glyph glyph-name="dieresis" unicode="&#xa8;" horiz-adv-x="479" 
d="M136 584q-40 0 -63 22t-23 61t23 60t63 21t63 -21t23 -60t-23 -61t-63 -22zM343 584q-40 0 -63 22t-23 61t23 60t63 21t63 -21t23 -60t-23 -61t-63 -22z" />
    <glyph glyph-name="copyright" unicode="&#xa9;" horiz-adv-x="907" 
d="M454 -10q-196 0 -305 97.5t-109 272.5t109 272.5t305 97.5q193 0 302.5 -98t109.5 -272t-109.5 -272t-302.5 -98zM453 92q133 0 208.5 71t75.5 197t-75.5 197t-208.5 71q-134 0 -208 -70t-74 -198t74 -198t208 -70zM575 297l39 -89q-58 -44 -152 -44q-96 0 -149 52
t-53 146q0 90 54.5 143.5t135.5 53.5q47 0 90.5 -25t59.5 -88l-92 -37q-15 47 -50 47q-31 0 -47.5 -24.5t-16.5 -69.5t21 -70t59 -25q58 0 101 30z" />
    <glyph glyph-name="ordfeminine" unicode="&#xaa;" horiz-adv-x="468" 
d="M239 626q95 0 166 -7v-347q-41 -16 -67 -16q-21 0 -34 14t-17 38q-40 -52 -113 -52q-62 0 -99 46t-37 126q0 94 52.5 146t148.5 52zM281 448v87h-30q-40 0 -63 -28t-23 -79q0 -75 56 -75q30 0 45 21.5t15 73.5z" />
    <glyph glyph-name="guillemotleft" unicode="&#xab;" horiz-adv-x="570" 
d="M31 250l161 247l111 -65l-104 -182l104 -182l-111 -65zM261 250l161 247l111 -65l-104 -182l104 -182l-111 -65z" />
    <glyph glyph-name="logicalnot" unicode="&#xac;" horiz-adv-x="540" 
d="M54 386h424v-259h-155v143h-269v116z" />
    <glyph glyph-name="uni00AD" unicode="&#xad;" horiz-adv-x="433" 
d="M56 321h320v-129h-320v129z" />
    <glyph glyph-name="registered" unicode="&#xae;" horiz-adv-x="523" 
d="M261 730q105 0 163.5 -50t58.5 -140t-58.5 -140t-163.5 -50t-163.5 50t-58.5 140t58.5 140t163.5 50zM262 394q78 0 122 38.5t44 107.5t-44 107.5t-122 38.5t-122 -38.5t-44 -107.5t44 -107.5t122 -38.5zM347 488l1 -14q1 -16 6 -25q-18 -9 -34 -9q-29 0 -31 30l-1 16
q-2 23 -26 23h-17v-66h-60v194q16 3 69 3q43 0 68 -16t25 -46t-27 -47q26 -14 27 -43zM254 596h-9v-43h13q27 0 27 21q0 22 -31 22z" />
    <glyph glyph-name="overscore" unicode="&#xaf;" horiz-adv-x="332" 
d="M17 720h298v-112h-298v112z" />
    <glyph glyph-name="degree" unicode="&#xb0;" horiz-adv-x="340" 
d="M171 523q-65 0 -101 34t-36 94t36 94.5t101 34.5q64 0 99.5 -34.5t35.5 -94.5t-35.5 -94t-99.5 -34zM170 598q22 0 34.5 14t12.5 39q0 54 -47 54q-21 0 -33.5 -14t-12.5 -40q0 -25 12.5 -39t33.5 -14z" />
    <glyph glyph-name="plusminus" unicode="&#xb1;" horiz-adv-x="536" 
d="M345 403h135v-116h-135v-106h-154v106h-135v116h134v106h155v-106zM56 0v116h424v-116h-424z" />
    <glyph glyph-name="twosuperior" unicode="&#xb2;" horiz-adv-x="365" 
d="M135 424h201v-86h-312v48q0 34 10 62t31 50.5t35.5 34t42.5 31.5q49 36 60 52q10 14 10 31q0 41 -47 41q-41 0 -92 -37l-39 74q67 51 148 51q71 0 109 -34.5t38 -97.5q0 -30 -19.5 -57.5t-35 -39.5t-53.5 -37q-7 -5 -10 -7q-56 -37 -67 -52q-10 -13 -10 -27z" />
    <glyph glyph-name="threesuperior" unicode="&#xb3;" horiz-adv-x="362" 
d="M313 701l-89 -97q111 -39 111 -136q0 -63 -48 -99.5t-133 -36.5q-74 0 -137 35l36 78q37 -25 90 -25q35 0 55 14.5t20 39.5q0 60 -154 81l107 129h-131v86h273v-69z" />
    <glyph glyph-name="acute" unicode="&#xb4;" horiz-adv-x="271" 
d="M192 794l75 -124l-221 -97l-42 74z" />
    <glyph glyph-name="paragraph" unicode="&#xb6;" horiz-adv-x="661" 
d="M578 770v-1000h-123v884h-114v-884h-123v617q-91 0 -141.5 51t-50.5 141q0 91 50.5 141t141.5 50h360z" />
    <glyph glyph-name="middot" unicode="&#xb7;" horiz-adv-x="279" 
d="M140 173q-45 0 -69.5 24t-24.5 66t24.5 66t69.5 24q44 0 68.5 -24t24.5 -66t-24.5 -66t-68.5 -24z" />
    <glyph glyph-name="cedilla" unicode="&#xb8;" horiz-adv-x="252" 
d="M204 16l-45 -63q80 -27 80 -95q0 -47 -33.5 -72.5t-94.5 -25.5q-52 0 -97 24l27 59q25 -18 60 -18q52 0 52 35q0 40 -106 55l64 101h93z" />
    <glyph glyph-name="onesuperior" unicode="&#xb9;" horiz-adv-x="276" 
d="M227 770v-432h-111v303l-67 -32l-43 92l135 69h86z" />
    <glyph glyph-name="ordmasculine" unicode="&#xba;" horiz-adv-x="463" 
d="M232 256q-93 0 -144 48.5t-51 136.5t51 136.5t144 48.5q92 0 143 -48.5t51 -136.5t-51 -136.5t-143 -48.5zM231 353q32 0 50.5 23t18.5 65q0 41 -18.5 64.5t-50.5 23.5t-50 -23.5t-18 -64.5q0 -42 18 -65t50 -23z" />
    <glyph glyph-name="guillemotright" unicode="&#xbb;" horiz-adv-x="570" 
d="M309 250l-161 -247l-111 65l104 182l-104 182l111 65zM539 250l-161 -247l-111 65l104 182l-104 182l111 65z" />
    <glyph glyph-name="onequarter" unicode="&#xbc;" horiz-adv-x="870" 
d="M585 730l87 -53l-461 -687l-87 53zM227 288h-111v303l-67 -32l-43 92l135 69h86v-432zM851 172v-86h-56v-86h-114v86h-182v74l151 278l98 -27l-135 -239h74v51l108 40v-91h56z" />
    <glyph glyph-name="onehalf" unicode="&#xbd;" horiz-adv-x="887" 
d="M585 730l87 -53l-461 -687l-87 53zM227 288h-111v303l-67 -32l-43 92l135 69h86v-432zM657 86h201v-86h-312v48q0 34 10 62t31 50.5t35.5 34t42.5 31.5q49 36 60 52q10 14 10 31q0 41 -47 41q-41 0 -92 -37l-39 74q67 51 148 51q71 0 109 -34.5t38 -97.5
q0 -30 -19.5 -57.5t-35 -39.5t-53.5 -37q-7 -5 -10 -7q-56 -37 -67 -52q-10 -14 -10 -27z" />
    <glyph glyph-name="threequarters" unicode="&#xbe;" horiz-adv-x="956" 
d="M671 730l87 -53l-461 -687l-87 53zM335 418q0 -63 -48 -99.5t-133 -36.5q-74 0 -137 35l36 78q37 -25 90 -25q35 0 55 14.5t20 39.5q0 60 -154 81l107 129h-131v86h273v-69l-89 -97q111 -39 111 -136zM937 172v-86h-56v-86h-114v86h-182v74l151 278l98 -27l-135 -239h74
v51l108 40v-91h56z" />
    <glyph glyph-name="questiondown" unicode="&#xbf;" horiz-adv-x="505" 
d="M293 516q44 0 68.5 -24t24.5 -66t-24.5 -66t-68.5 -24q-45 0 -69.5 24t-24.5 66t24.5 66t69.5 24zM425 -50l58 -106q-100 -84 -219 -84q-110 0 -172 51.5t-62 139.5q0 16 2 30.5t7.5 29t9 25t13.5 24t14.5 20.5t18 20.5t17 17.5t18.5 18t17 16q25 23 37.5 35.5t24 33
t11.5 40.5h149q0 -29 -7 -55t-15 -43t-26 -38.5t-26.5 -29.5t-30.5 -29q-33 -30 -50 -54t-17 -53q0 -33 23 -52t67 -19q70 0 138 62z" />
    <glyph glyph-name="Agrave" unicode="&#xc0;" horiz-adv-x="686" 
d="M444 861l-42 -74l-221 97l75 124zM517 0l-51 153h-263l-51 -153h-155l260 709q42 21 85 21q80 0 113 -88l234 -642h-172zM244 277h181l-90 280z" />
    <glyph glyph-name="Aacute" unicode="&#xc1;" horiz-adv-x="686" 
d="M506 884l-221 -97l-42 74l188 147zM517 0l-51 153h-263l-51 -153h-155l260 709q42 21 85 21q80 0 113 -88l234 -642h-172zM244 277h181l-90 280z" />
    <glyph glyph-name="Acircumflex" unicode="&#xc2;" horiz-adv-x="686" 
d="M198 787l-42 74l186 137l1 2h1l1 -2l186 -137l-42 -74l-145 74zM517 0l-51 153h-263l-51 -153h-155l260 709q42 21 85 21q80 0 113 -88l234 -642h-172zM244 277h181l-90 280z" />
    <glyph glyph-name="Atilde" unicode="&#xc3;" horiz-adv-x="686" 
d="M263 843q-40 0 -73 -35l-38 49q16 42 53 70.5t75 28.5q29 0 75.5 -18.5t67.5 -18.5q44 0 75 34l38 -49q-54 -99 -139 -99q-29 0 -72 19t-62 19zM517 0l-51 153h-263l-51 -153h-155l260 709q42 21 85 21q80 0 113 -88l234 -642h-172zM244 277h181l-90 280z" />
    <glyph glyph-name="Adieresis" unicode="&#xc4;" horiz-adv-x="686" 
d="M240 798q-40 0 -63 22t-23 61t23 60t63 21t63 -21t23 -60t-23 -61t-63 -22zM447 798q-40 0 -63 22t-23 61t23 60t63 21t63 -21t23 -60t-23 -61t-63 -22zM517 0l-51 153h-263l-51 -153h-155l260 709q42 21 85 21q80 0 113 -88l234 -642h-172zM244 277h181l-90 280z" />
    <glyph glyph-name="Aring" unicode="&#xc5;" horiz-adv-x="686" 
d="M342 773q-63 0 -99 32t-36 89q0 58 36 90t99 32q64 0 99.5 -32t35.5 -90q0 -57 -35.5 -89t-99.5 -32zM343 947q-23 0 -36 -14t-13 -39q0 -24 13 -38t36 -14q48 0 48 52q0 53 -48 53zM517 0l-51 153h-263l-51 -153h-155l260 709q42 21 85 21q80 0 113 -88l234 -642h-172z
M244 277h181l-90 280z" />
    <glyph glyph-name="AE" unicode="&#xc6;" horiz-adv-x="992" 
d="M635 124h314v-124h-462l-24 153h-247l-75 -153h-155l366 720h586v-124h-386l29 -165h322v-124h-300zM276 277h167l-42 266z" />
    <glyph glyph-name="Ccedilla" unicode="&#xc7;" horiz-adv-x="645" 
d="M406 -9l-27 -38q80 -27 80 -95q0 -47 -33.5 -72.5t-94.5 -25.5q-52 0 -97 24l27 59q25 -18 60 -18q52 0 52 35q0 40 -106 55l50 79q-131 18 -203.5 115t-72.5 251q0 169 83.5 269.5t231.5 100.5q175 0 256 -144l-149 -59q-40 75 -106 75t-107.5 -61.5t-41.5 -180.5
t49.5 -180.5t131.5 -61.5q98 0 179 66l63 -111q-78 -71 -225 -82z" />
    <glyph glyph-name="Egrave" unicode="&#xc8;" horiz-adv-x="590" 
d="M409 861l-42 -74l-221 97l75 124zM237 124h310v-124h-472v720h461v-124h-299v-165h264v-124h-264v-183z" />
    <glyph glyph-name="Eacute" unicode="&#xc9;" horiz-adv-x="590" 
d="M471 884l-221 -97l-42 74l188 147zM237 124h310v-124h-472v720h461v-124h-299v-165h264v-124h-264v-183z" />
    <glyph glyph-name="Ecircumflex" unicode="&#xca;" horiz-adv-x="590" 
d="M163 787l-42 74l186 137l1 2h1l1 -2l186 -137l-42 -74l-145 74zM237 124h310v-124h-472v720h461v-124h-299v-165h264v-124h-264v-183z" />
    <glyph glyph-name="Edieresis" unicode="&#xcb;" horiz-adv-x="590" 
d="M205 798q-40 0 -63 22t-23 61t23 60t63 21t63 -21t23 -60t-23 -61t-63 -22zM412 798q-40 0 -63 22t-23 61t23 60t63 21t63 -21t23 -60t-23 -61t-63 -22zM237 124h310v-124h-472v720h461v-124h-299v-165h264v-124h-264v-183z" />
    <glyph glyph-name="Igrave" unicode="&#xcc;" horiz-adv-x="310" 
d="M68 1008l188 -147l-42 -74l-221 97zM237 0h-162v709q39 21 75 21q40 0 63.5 -23.5t23.5 -61.5v-645z" />
    <glyph glyph-name="Iacute" unicode="&#xcd;" horiz-adv-x="310" 
d="M243 1008l75 -124l-221 -97l-42 74zM237 0h-162v709q39 21 75 21q40 0 63.5 -23.5t23.5 -61.5v-645z" />
    <glyph glyph-name="Icircumflex" unicode="&#xce;" horiz-adv-x="310" 
d="M157 998l186 -137l-42 -74l-145 74l-146 -74l-42 74l186 137l1 2h1zM150 730q40 0 63.5 -23.5t23.5 -61.5v-645h-162v709q39 21 75 21z" />
    <glyph glyph-name="Idieresis" unicode="&#xcf;" horiz-adv-x="310" 
d="M52 798q-40 0 -63 22t-23 61t23 60t63 21t63 -21t23 -60t-23 -61t-63 -22zM259 798q-40 0 -63 22t-23 61t23 60t63 21t63 -21t23 -60t-23 -61t-63 -22zM237 0h-162v709q39 21 75 21q40 0 63.5 -23.5t23.5 -61.5v-645z" />
    <glyph glyph-name="Eth" unicode="&#xd0;" horiz-adv-x="716" 
d="M288 730q183 0 286 -97.5t103 -272.5t-103 -272.5t-286 -97.5q-135 0 -213 10v307h-68v117h68v296q74 10 213 10zM287 114q105 0 163 64.5t58 181.5t-58 181.5t-163 64.5q-16 0 -50 -2v-180h146v-117h-146v-191q34 -2 50 -2z" />
    <glyph glyph-name="Ntilde" unicode="&#xd1;" horiz-adv-x="764" 
d="M302 843q-40 0 -73 -35l-38 49q16 42 53 70.5t75 28.5q29 0 75.5 -18.5t67.5 -18.5q44 0 75 34l38 -49q-54 -99 -139 -99q-29 0 -72 19t-62 19zM535 720h154v-720h-127l-339 448l6 -448h-154v709q27 21 66 21q52 0 97 -58l303 -403z" />
    <glyph glyph-name="Ograve" unicode="&#xd2;" horiz-adv-x="786" 
d="M305 1008l188 -147l-42 -74l-221 97zM394 -10q-166 0 -259.5 97.5t-93.5 272.5t93.5 272.5t259.5 97.5t259 -97.5t93 -272.5t-93 -272.5t-259 -97.5zM393 118q88 0 136 63.5t48 178.5t-48 178.5t-136 63.5t-136.5 -63.5t-48.5 -178.5t48.5 -178.5t136.5 -63.5z" />
    <glyph glyph-name="Oacute" unicode="&#xd3;" horiz-adv-x="786" 
d="M480 1008l75 -124l-221 -97l-42 74zM394 -10q-166 0 -259.5 97.5t-93.5 272.5t93.5 272.5t259.5 97.5t259 -97.5t93 -272.5t-93 -272.5t-259 -97.5zM393 118q88 0 136 63.5t48 178.5t-48 178.5t-136 63.5t-136.5 -63.5t-48.5 -178.5t48.5 -178.5t136.5 -63.5z" />
    <glyph glyph-name="Ocircumflex" unicode="&#xd4;" horiz-adv-x="786" 
d="M247 787l-42 74l186 137l1 2h1l1 -2l186 -137l-42 -74l-145 74zM394 730q166 0 259 -97.5t93 -272.5t-93 -272.5t-259 -97.5t-259.5 97.5t-93.5 272.5t93.5 272.5t259.5 97.5zM393 118q88 0 136 63.5t48 178.5t-48 178.5t-136 63.5t-136.5 -63.5t-48.5 -178.5
t48.5 -178.5t136.5 -63.5z" />
    <glyph glyph-name="Otilde" unicode="&#xd5;" horiz-adv-x="786" 
d="M239 808l-38 49q16 42 53 70.5t75 28.5q29 0 75.5 -18.5t67.5 -18.5q44 0 75 34l38 -49q-54 -99 -139 -99q-29 0 -72 19t-62 19q-40 0 -73 -35zM394 -10q-166 0 -259.5 97.5t-93.5 272.5t93.5 272.5t259.5 97.5t259 -97.5t93 -272.5t-93 -272.5t-259 -97.5zM393 118
q88 0 136 63.5t48 178.5t-48 178.5t-136 63.5t-136.5 -63.5t-48.5 -178.5t48.5 -178.5t136.5 -63.5z" />
    <glyph glyph-name="Odieresis" unicode="&#xd6;" horiz-adv-x="786" 
d="M289 798q-40 0 -63 22t-23 61t23 60t63 21t63 -21t23 -60t-23 -61t-63 -22zM496 798q-40 0 -63 22t-23 61t23 60t63 21t63 -21t23 -60t-23 -61t-63 -22zM394 -10q-166 0 -259.5 97.5t-93.5 272.5t93.5 272.5t259.5 97.5t259 -97.5t93 -272.5t-93 -272.5t-259 -97.5z
M393 118q88 0 136 63.5t48 178.5t-48 178.5t-136 63.5t-136.5 -63.5t-48.5 -178.5t48.5 -178.5t136.5 -63.5z" />
    <glyph glyph-name="multiply" unicode="&#xd7;" horiz-adv-x="521" 
d="M479 373l-117 -117l117 -118l-101 -101l-117 118l-118 -118l-101 101l118 118l-118 117l101 101l118 -117l117 117z" />
    <glyph glyph-name="Oslash" unicode="&#xd8;" horiz-adv-x="786" 
d="M715 665l-43 -55q74 -97 74 -250q0 -175 -93 -272.5t-259 -97.5q-100 0 -175 36l-40 -52l-110 81l44 57q-72 94 -72 248q0 175 93.5 272.5t259.5 97.5q96 0 171 -35l40 51zM208 360q0 -57 14 -107l256 329q-38 20 -85 20q-88 0 -136.5 -63.5t-48.5 -178.5zM393 118
q88 0 136 63.5t48 178.5q0 58 -14 109l-256 -330q36 -21 86 -21z" />
    <glyph glyph-name="Ugrave" unicode="&#xd9;" horiz-adv-x="728" 
d="M278 1008l188 -147l-42 -74l-221 97zM508 279v430q38 21 73 21q38 0 59.5 -23t21.5 -62v-378q0 -132 -78.5 -204.5t-219.5 -72.5q-140 0 -218 72.5t-78 204.5v442q39 21 75 21q40 0 63.5 -23.5t23.5 -61.5v-366q0 -77 35.5 -119t98.5 -42q69 0 106.5 42t37.5 119z" />
    <glyph glyph-name="Uacute" unicode="&#xda;" horiz-adv-x="728" 
d="M453 1008l75 -124l-221 -97l-42 74zM508 279v430q38 21 73 21q38 0 59.5 -23t21.5 -62v-378q0 -132 -78.5 -204.5t-219.5 -72.5q-140 0 -218 72.5t-78 204.5v442q39 21 75 21q40 0 63.5 -23.5t23.5 -61.5v-366q0 -77 35.5 -119t98.5 -42q69 0 106.5 42t37.5 119z" />
    <glyph glyph-name="Ucircumflex" unicode="&#xdb;" horiz-adv-x="728" 
d="M220 787l-42 74l186 137l1 2h1l1 -2l186 -137l-42 -74l-145 74zM581 730q38 0 59.5 -23t21.5 -62v-378q0 -132 -78.5 -204.5t-219.5 -72.5q-140 0 -218 72.5t-78 204.5v442q39 21 75 21q40 0 63.5 -23.5t23.5 -61.5v-366q0 -77 35.5 -119t98.5 -42q69 0 106.5 42
t37.5 119v430q38 21 73 21z" />
    <glyph glyph-name="Udieresis" unicode="&#xdc;" horiz-adv-x="728" 
d="M262 798q-40 0 -63 22t-23 61t23 60t63 21t63 -21t23 -60t-23 -61t-63 -22zM469 798q-40 0 -63 22t-23 61t23 60t63 21t63 -21t23 -60t-23 -61t-63 -22zM508 279v430q38 21 73 21q38 0 59.5 -23t21.5 -62v-378q0 -132 -78.5 -204.5t-219.5 -72.5q-140 0 -218 72.5
t-78 204.5v442q39 21 75 21q40 0 63.5 -23.5t23.5 -61.5v-366q0 -77 35.5 -119t98.5 -42q69 0 106.5 42t37.5 119z" />
    <glyph glyph-name="Yacute" unicode="&#xdd;" horiz-adv-x="640" 
d="M486 884l-221 -97l-42 74l188 147zM632 704l-231 -424v-280h-162v279l-233 425q31 26 88 26q46 0 72 -12.5t43 -44.5l89 -176l37 -90l36 94l111 229z" />
    <glyph glyph-name="Thorn" unicode="&#xde;" horiz-adv-x="645" 
d="M318 598q143 0 222 -60t79 -169q0 -112 -79.5 -174t-222.5 -62q-12 0 -39 0.5t-41 0.5v-134h-162v709q39 21 75 21q40 0 63.5 -23.5t23.5 -61.5v-49q64 2 81 2zM317 258q65 0 99.5 29t34.5 82q0 49 -35 77.5t-98 28.5q-19 0 -81 -2v-214q28 -1 80 -1z" />
    <glyph glyph-name="germandbls" unicode="&#xdf;" horiz-adv-x="632" 
d="M406 -10q-87 0 -151 42l44 103q33 -22 78 -22q32 0 49.5 18t17.5 50q0 102 -167 230q78 106 78 182q0 30 -19 47t-50 17q-33 0 -52.5 -17.5t-19.5 -48.5v-591h-155v613q0 79 60 123t167 44t166.5 -45.5t59.5 -127.5q0 -45 -25.5 -95t-54.5 -81q170 -121 170 -262
q0 -86 -51 -132.5t-145 -46.5z" />
    <glyph glyph-name="agrave" unicode="&#xe0;" horiz-adv-x="539" 
d="M377 647l-42 -74l-221 97l75 124zM269 516q103 0 160 -49.5t57 -140.5v-315q-47 -21 -83 -21q-29 0 -47 21t-20 57q-54 -78 -151 -78q-76 0 -119 41.5t-43 113.5q0 80 64 124t182 44q41 0 62 -1q-2 45 -21.5 66.5t-66.5 21.5q-68 0 -129 -40l-62 96q98 60 217 60z
M228 104q44 0 73.5 29.5t29.5 89.5q-21 1 -58 1q-103 0 -103 -65q0 -25 14.5 -40t43.5 -15z" />
    <glyph glyph-name="aacute" unicode="&#xe1;" horiz-adv-x="539" 
d="M439 670l-221 -97l-42 74l188 147zM269 516q103 0 160 -49.5t57 -140.5v-315q-47 -21 -83 -21q-29 0 -47 21t-20 57q-54 -78 -151 -78q-76 0 -119 41.5t-43 113.5q0 80 64 124t182 44q41 0 62 -1q-2 45 -21.5 66.5t-66.5 21.5q-68 0 -129 -40l-62 96q98 60 217 60z
M228 104q44 0 73.5 29.5t29.5 89.5q-21 1 -58 1q-103 0 -103 -65q0 -25 14.5 -40t43.5 -15z" />
    <glyph glyph-name="acircumflex" unicode="&#xe2;" horiz-adv-x="539" 
d="M131 573l-42 74l186 137l1 2h1l1 -2l186 -137l-42 -74l-145 74zM269 516q103 0 160 -49.5t57 -140.5v-315q-47 -21 -83 -21q-29 0 -47 21t-20 57q-54 -78 -151 -78q-76 0 -119 41.5t-43 113.5q0 80 64 124t182 44q41 0 62 -1q-2 45 -21.5 66.5t-66.5 21.5q-68 0 -129 -40
l-62 96q98 60 217 60zM228 104q44 0 73.5 29.5t29.5 89.5q-21 1 -58 1q-103 0 -103 -65q0 -25 14.5 -40t43.5 -15z" />
    <glyph glyph-name="atilde" unicode="&#xe3;" horiz-adv-x="539" 
d="M196 629q-40 0 -73 -35l-38 49q16 42 53 70.5t75 28.5q29 0 75.5 -18.5t67.5 -18.5q44 0 75 34l38 -49q-54 -99 -139 -99q-29 0 -72 19t-62 19zM269 516q103 0 160 -49.5t57 -140.5v-315q-47 -21 -83 -21q-29 0 -47 21t-20 57q-54 -78 -151 -78q-76 0 -119 41.5
t-43 113.5q0 80 64 124t182 44q41 0 62 -1q-2 45 -21.5 66.5t-66.5 21.5q-68 0 -129 -40l-62 96q98 60 217 60zM228 104q44 0 73.5 29.5t29.5 89.5q-21 1 -58 1q-103 0 -103 -65q0 -25 14.5 -40t43.5 -15z" />
    <glyph glyph-name="adieresis" unicode="&#xe4;" horiz-adv-x="539" 
d="M173 584q-40 0 -63 22t-23 61t23 60t63 21t63 -21t23 -60t-23 -61t-63 -22zM380 584q-40 0 -63 22t-23 61t23 60t63 21t63 -21t23 -60t-23 -61t-63 -22zM269 516q103 0 160 -49.5t57 -140.5v-315q-47 -21 -83 -21q-29 0 -47 21t-20 57q-54 -78 -151 -78q-76 0 -119 41.5
t-43 113.5q0 80 64 124t182 44q41 0 62 -1q-2 45 -21.5 66.5t-66.5 21.5q-68 0 -129 -40l-62 96q98 60 217 60zM228 104q44 0 73.5 29.5t29.5 89.5q-21 1 -58 1q-103 0 -103 -65q0 -25 14.5 -40t43.5 -15z" />
    <glyph glyph-name="aring" unicode="&#xe5;" horiz-adv-x="539" 
d="M275 559q-63 0 -99 32t-36 89q0 58 36 90t99 32q64 0 99.5 -32t35.5 -90q0 -57 -35.5 -89t-99.5 -32zM276 733q-23 0 -36 -14t-13 -39q0 -24 13 -38t36 -14q48 0 48 52q0 53 -48 53zM269 516q103 0 160 -49.5t57 -140.5v-315q-47 -21 -83 -21q-29 0 -47 21t-20 57
q-54 -78 -151 -78q-76 0 -119 41.5t-43 113.5q0 80 64 124t182 44q41 0 62 -1q-2 45 -21.5 66.5t-66.5 21.5q-68 0 -129 -40l-62 96q98 60 217 60zM228 104q44 0 73.5 29.5t29.5 89.5q-21 1 -58 1q-103 0 -103 -65q0 -25 14.5 -40t43.5 -15z" />
    <glyph glyph-name="ae" unicode="&#xe6;" horiz-adv-x="835" 
d="M596 106q79 0 137 40l61 -97q-92 -59 -207 -59q-136 0 -194 106q-75 -106 -209 -106q-75 0 -118.5 41t-43.5 113q0 79 64.5 122.5t181.5 43.5q42 0 63 -1q-2 46 -21 68.5t-67 22.5q-68 0 -129 -40l-62 96q98 60 217 60q108 0 158 -70q64 70 173 70q94 0 147 -43.5
t53 -120.5q0 -74 -65 -115t-183 -41q-43 0 -64 1q9 -46 34 -68.5t74 -22.5zM588 395q-40 0 -66 -28.5t-34 -80.5q21 -1 59 -1q96 0 96 60q0 22 -14.5 36t-40.5 14zM228 110q50 0 76.5 28.5t26.5 81.5q-20 1 -58 1q-99 0 -99 -60q0 -23 14 -37t40 -14z" />
    <glyph glyph-name="ccedilla" unicode="&#xe7;" horiz-adv-x="514" 
d="M329 -9l-27 -38q80 -27 80 -95q0 -47 -33.5 -72.5t-94.5 -25.5q-52 0 -97 24l27 59q26 -18 60 -18q52 0 52 35q0 40 -106 55l50 79q-97 16 -150.5 83t-53.5 177q0 121 70 191.5t179 70.5q26 0 52.5 -6t55 -20.5t52 -44.5t34.5 -71l-113 -45q-22 65 -73 65q-48 0 -74 -37
t-26 -103t31.5 -103.5t86.5 -37.5q80 0 136 43l49 -108q-65 -49 -167 -57z" />
    <glyph glyph-name="egrave" unicode="&#xe8;" horiz-adv-x="541" 
d="M393 647l-42 -74l-221 97l75 124zM299 106q84 0 143 40l61 -97q-95 -59 -215 -59t-186.5 66t-66.5 185q0 130 70 202.5t198 72.5q95 0 148 -45t53 -124q0 -76 -65.5 -118.5t-182.5 -42.5q-35 0 -66 4q17 -84 109 -84zM288 396q-42 0 -68.5 -31t-32.5 -88q34 -3 67 -3
q100 0 100 66q0 56 -66 56z" />
    <glyph glyph-name="eacute" unicode="&#xe9;" horiz-adv-x="541" 
d="M455 670l-221 -97l-42 74l188 147zM299 106q84 0 143 40l61 -97q-95 -59 -215 -59t-186.5 66t-66.5 185q0 130 70 202.5t198 72.5q95 0 148 -45t53 -124q0 -76 -65.5 -118.5t-182.5 -42.5q-35 0 -66 4q17 -84 109 -84zM288 396q-42 0 -68.5 -31t-32.5 -88q34 -3 67 -3
q100 0 100 66q0 56 -66 56z" />
    <glyph glyph-name="ecircumflex" unicode="&#xea;" horiz-adv-x="541" 
d="M147 573l-42 74l186 137l1 2h1l1 -2l186 -137l-42 -74l-145 74zM299 106q84 0 143 40l61 -97q-95 -59 -215 -59t-186.5 66t-66.5 185q0 130 70 202.5t198 72.5q95 0 148 -45t53 -124q0 -76 -65.5 -118.5t-182.5 -42.5q-35 0 -66 4q17 -84 109 -84zM288 396
q-42 0 -68.5 -31t-32.5 -88q34 -3 67 -3q100 0 100 66q0 56 -66 56z" />
    <glyph glyph-name="edieresis" unicode="&#xeb;" horiz-adv-x="541" 
d="M189 584q-40 0 -63 22t-23 61t23 60t63 21t63 -21t23 -60t-23 -61t-63 -22zM396 584q-40 0 -63 22t-23 61t23 60t63 21t63 -21t23 -60t-23 -61t-63 -22zM299 106q84 0 143 40l61 -97q-95 -59 -215 -59t-186.5 66t-66.5 185q0 130 70 202.5t198 72.5q95 0 148 -45t53 -124
q0 -76 -65.5 -118.5t-182.5 -42.5q-35 0 -66 4q17 -84 109 -84zM288 396q-42 0 -68.5 -31t-32.5 -88q34 -3 67 -3q100 0 100 66q0 56 -66 56z" />
    <glyph glyph-name="igrave" unicode="&#xec;" horiz-adv-x="273" 
d="M50 794l188 -147l-42 -74l-221 97zM59 506h155v-506h-155v506z" />
    <glyph glyph-name="iacute" unicode="&#xed;" horiz-adv-x="273" 
d="M225 794l75 -124l-221 -97l-42 74zM59 506h155v-506h-155v506z" />
    <glyph glyph-name="icircumflex" unicode="&#xee;" horiz-adv-x="273" 
d="M139 784l186 -137l-42 -74l-145 74l-146 -74l-42 74l186 137l1 2h1zM59 0v506h155v-506h-155z" />
    <glyph glyph-name="idieresis" unicode="&#xef;" horiz-adv-x="273" 
d="M34 584q-40 0 -63 22t-23 61t23 60t63 21t63 -21t23 -60t-23 -61t-63 -22zM241 584q-40 0 -63 22t-23 61t23 60t63 21t63 -21t23 -60t-23 -61t-63 -22zM59 506h155v-506h-155v506z" />
    <glyph glyph-name="eth" unicode="&#xf0;" horiz-adv-x="615" 
d="M480 708l-88 -46q98 -65 140 -156.5t42 -226.5q0 -137 -71 -213t-199 -76t-198.5 67t-70.5 188t63 188t176 67q87 0 143 -37q-35 88 -138 140l-156 -82l-45 72l98 51q-1 0 -98 30l32 106q110 -31 193 -69l132 69zM305 113q53 0 82.5 34.5t29.5 97.5t-29.5 97.5
t-82.5 34.5t-82.5 -34.5t-29.5 -97.5t29.5 -97.5t82.5 -34.5z" />
    <glyph glyph-name="ntilde" unicode="&#xf1;" horiz-adv-x="605" 
d="M225 629q-40 0 -73 -35l-38 49q16 42 53 70.5t75 28.5q29 0 75.5 -18.5t67.5 -18.5q44 0 75 34l38 -49q-54 -99 -139 -99q-29 0 -72 19t-62 19zM373 516q85 0 131 -49.5t46 -140.5v-326h-155v299q0 45 -18.5 70t-53.5 25q-53 0 -81 -33t-28 -109v-252h-155v495
q47 21 83 21q29 0 47 -22.5t20 -59.5q58 82 164 82z" />
    <glyph glyph-name="ograve" unicode="&#xf2;" horiz-adv-x="610" 
d="M218 794l188 -147l-42 -74l-221 97zM304 -10q-128 0 -198.5 69t-70.5 194t70.5 194t198.5 69t199 -69t71 -194t-71 -194t-199 -69zM305 113q53 0 82.5 37t29.5 103t-29.5 103.5t-82.5 37.5t-82.5 -37.5t-29.5 -103.5t29.5 -103t82.5 -37z" />
    <glyph glyph-name="oacute" unicode="&#xf3;" horiz-adv-x="610" 
d="M393 794l75 -124l-221 -97l-42 74zM304 -10q-128 0 -198.5 69t-70.5 194t70.5 194t198.5 69t199 -69t71 -194t-71 -194t-199 -69zM305 113q53 0 82.5 37t29.5 103t-29.5 103.5t-82.5 37.5t-82.5 -37.5t-29.5 -103.5t29.5 -103t82.5 -37z" />
    <glyph glyph-name="ocircumflex" unicode="&#xf4;" horiz-adv-x="610" 
d="M160 573l-42 74l186 137l1 2h1l1 -2l186 -137l-42 -74l-145 74zM304 516q128 0 199 -69t71 -194t-71 -194t-199 -69t-198.5 69t-70.5 194t70.5 194t198.5 69zM305 113q53 0 82.5 37t29.5 103t-29.5 103.5t-82.5 37.5t-82.5 -37.5t-29.5 -103.5t29.5 -103t82.5 -37z" />
    <glyph glyph-name="otilde" unicode="&#xf5;" horiz-adv-x="610" 
d="M152 594l-38 49q16 42 53 70.5t75 28.5q29 0 75.5 -18.5t67.5 -18.5q44 0 75 34l38 -49q-54 -99 -139 -99q-29 0 -72 19t-62 19q-40 0 -73 -35zM304 -10q-128 0 -198.5 69t-70.5 194t70.5 194t198.5 69t199 -69t71 -194t-71 -194t-199 -69zM305 113q53 0 82.5 37
t29.5 103t-29.5 103.5t-82.5 37.5t-82.5 -37.5t-29.5 -103.5t29.5 -103t82.5 -37z" />
    <glyph glyph-name="odieresis" unicode="&#xf6;" horiz-adv-x="610" 
d="M202 584q-40 0 -63 22t-23 61t23 60t63 21t63 -21t23 -60t-23 -61t-63 -22zM409 584q-40 0 -63 22t-23 61t23 60t63 21t63 -21t23 -60t-23 -61t-63 -22zM304 -10q-128 0 -198.5 69t-70.5 194t70.5 194t198.5 69t199 -69t71 -194t-71 -194t-199 -69zM305 113q53 0 82.5 37
t29.5 103t-29.5 103.5t-82.5 37.5t-82.5 -37.5t-29.5 -103.5t29.5 -103t82.5 -37z" />
    <glyph glyph-name="divide" unicode="&#xf7;" horiz-adv-x="508" 
d="M254 348q-40 0 -63 22t-23 61t23 60.5t63 21.5t63 -21.5t23 -60.5t-23 -61t-63 -22zM42 310h424v-116h-424v116zM254 -9q-40 0 -63 22t-23 61t23 60.5t63 21.5t63 -21.5t23 -60.5t-23 -61t-63 -22z" />
    <glyph glyph-name="oslash" unicode="&#xf8;" horiz-adv-x="610" 
d="M543 468l-29 -33q60 -69 60 -182q0 -125 -71 -194t-199 -69q-86 0 -148 33l-28 -33l-61 48l28 33q-60 67 -60 182q0 125 70.5 194t198.5 69q85 0 149 -33l29 33zM193 253q0 -31 8 -61l162 187q-24 15 -58 15q-53 0 -82.5 -37.5t-29.5 -103.5zM305 113q53 0 82.5 37
t29.5 103q0 31 -8 61l-161 -186q24 -15 57 -15z" />
    <glyph glyph-name="ugrave" unicode="&#xf9;" horiz-adv-x="592" 
d="M397 647l-42 -74l-221 97l75 124zM463 516q35 0 53.5 -19.5t18.5 -52.5v-433q-47 -21 -83 -21q-29 0 -47 22t-20 58q-53 -80 -154 -80q-85 0 -131 49.5t-46 140.5v315q47 21 83 21q35 0 53.5 -19.5t18.5 -52.5v-236q0 -45 18.5 -70t53.5 -25q49 0 74 32.5t25 107.5v242
q47 21 83 21z" />
    <glyph glyph-name="uacute" unicode="&#xfa;" horiz-adv-x="592" 
d="M459 670l-221 -97l-42 74l188 147zM463 516q35 0 53.5 -19.5t18.5 -52.5v-433q-47 -21 -83 -21q-29 0 -47 22t-20 58q-53 -80 -154 -80q-85 0 -131 49.5t-46 140.5v315q47 21 83 21q35 0 53.5 -19.5t18.5 -52.5v-236q0 -45 18.5 -70t53.5 -25q49 0 74 32.5t25 107.5v242
q47 21 83 21z" />
    <glyph glyph-name="ucircumflex" unicode="&#xfb;" horiz-adv-x="592" 
d="M151 573l-42 74l186 137l1 2h1l1 -2l186 -137l-42 -74l-145 74zM463 516q35 0 53.5 -19.5t18.5 -52.5v-433q-47 -21 -83 -21q-29 0 -47 22t-20 58q-53 -80 -154 -80q-85 0 -131 49.5t-46 140.5v315q47 21 83 21q35 0 53.5 -19.5t18.5 -52.5v-236q0 -45 18.5 -70t53.5 -25
q49 0 74 32.5t25 107.5v242q47 21 83 21z" />
    <glyph glyph-name="udieresis" unicode="&#xfc;" horiz-adv-x="592" 
d="M193 584q-40 0 -63 22t-23 61t23 60t63 21t63 -21t23 -60t-23 -61t-63 -22zM400 584q-40 0 -63 22t-23 61t23 60t63 21t63 -21t23 -60t-23 -61t-63 -22zM463 516q35 0 53.5 -19.5t18.5 -52.5v-433q-47 -21 -83 -21q-29 0 -47 22t-20 58q-53 -80 -154 -80q-85 0 -131 49.5
t-46 140.5v315q47 21 83 21q35 0 53.5 -19.5t18.5 -52.5v-236q0 -45 18.5 -70t53.5 -25q49 0 74 32.5t25 107.5v242q47 21 83 21z" />
    <glyph glyph-name="yacute" unicode="&#xfd;" horiz-adv-x="552" 
d="M441 670l-221 -97l-42 74l188 147zM392 516l146 -23l-196 -547q-27 -77 -77 -127.5t-105 -58.5l-63 99q36 6 71 38.5t48 78.5l10 31q-37 14 -53 57l-156 429q44 23 89 23q69 0 93 -72l52 -165l37 -158l37 158z" />
    <glyph glyph-name="thorn" unicode="&#xfe;" horiz-adv-x="605" 
d="M374 516q88 0 141 -66t53 -181q0 -133 -73.5 -206t-205.5 -73q-17 0 -75 2v-222h-155v989q47 21 83 21q35 0 53.5 -19.5t18.5 -52.5v-265q57 73 160 73zM274 105q64 0 100.5 43t36.5 121q0 60 -24.5 92.5t-69.5 32.5q-103 0 -103 -142v-146q23 -1 60 -1z" />
    <glyph glyph-name="ydieresis" unicode="&#xff;" horiz-adv-x="552" 
d="M175 584q-40 0 -63 22t-23 61t23 60t63 21t63 -21t23 -60t-23 -61t-63 -22zM382 584q-40 0 -63 22t-23 61t23 60t63 21t63 -21t23 -60t-23 -61t-63 -22zM392 516l146 -23l-196 -547q-27 -77 -77 -127.5t-105 -58.5l-63 99q36 6 71 38.5t48 78.5l10 31q-37 14 -53 57
l-156 429q44 23 89 23q69 0 93 -72l52 -165l37 -158l37 158z" />
    <glyph glyph-name="Amacron" unicode="&#x100;" horiz-adv-x="686" 
d="M492 934v-112h-298v112h298zM517 0l-51 153h-263l-51 -153h-155l260 709q42 21 85 21q80 0 113 -88l234 -642h-172zM244 277h181l-90 280z" />
    <glyph glyph-name="amacron" unicode="&#x101;" horiz-adv-x="539" 
d="M425 720v-112h-298v112h298zM269 516q103 0 160 -49.5t57 -140.5v-315q-47 -21 -83 -21q-29 0 -47 21t-20 57q-54 -78 -151 -78q-76 0 -119 41.5t-43 113.5q0 80 64 124t182 44q41 0 62 -1q-2 45 -21.5 66.5t-66.5 21.5q-68 0 -129 -40l-62 96q98 60 217 60zM228 104
q44 0 73.5 29.5t29.5 89.5q-21 1 -58 1q-103 0 -103 -65q0 -25 14.5 -40t43.5 -15z" />
    <glyph glyph-name="Abreve" unicode="&#x102;" horiz-adv-x="686" 
d="M344 794q-81 0 -126 40.5t-45 112.5h109q0 -29 16.5 -45.5t45.5 -16.5q28 0 44 16.5t16 45.5h110q0 -72 -45 -112.5t-125 -40.5zM517 0l-51 153h-263l-51 -153h-155l260 709q42 21 85 21q80 0 113 -88l234 -642h-172zM244 277h181l-90 280z" />
    <glyph glyph-name="abreve" unicode="&#x103;" horiz-adv-x="539" 
d="M277 580q-81 0 -126 40.5t-45 112.5h109q0 -29 16.5 -45.5t45.5 -16.5q28 0 44 16.5t16 45.5h110q0 -72 -45 -112.5t-125 -40.5zM269 516q103 0 160 -49.5t57 -140.5v-315q-47 -21 -83 -21q-29 0 -47 21t-20 57q-54 -78 -151 -78q-76 0 -119 41.5t-43 113.5q0 80 64 124
t182 44q41 0 62 -1q-2 45 -21.5 66.5t-66.5 21.5q-68 0 -129 -40l-62 96q98 60 217 60zM228 104q44 0 73.5 29.5t29.5 89.5q-21 1 -58 1q-103 0 -103 -65q0 -25 14.5 -40t43.5 -15z" />
    <glyph glyph-name="Aogonek" unicode="&#x104;" horiz-adv-x="686" 
d="M684 -158l16 -57q-52 -25 -107 -25q-45 0 -71 22.5t-26 63.5q0 39 29 75t88 79h-96l-51 153h-263l-51 -153h-155l260 709q42 21 85 21q80 0 113 -88l234 -642q-106 -91 -106 -143q0 -32 37 -32q31 0 64 17zM244 277h181l-90 280z" />
    <glyph glyph-name="aogonek" unicode="&#x105;" horiz-adv-x="539" 
d="M481 -158l16 -57q-52 -25 -107 -25q-46 0 -71.5 22.5t-25.5 63.5q0 68 96 146q-48 11 -53 76q-54 -78 -151 -78q-76 0 -119 41.5t-43 113.5q0 80 64 124t182 44q41 0 62 -1q-2 45 -21.5 66.5t-66.5 21.5q-68 0 -129 -40l-62 96q98 60 217 60q103 0 160 -49.5t57 -140.5
v-315q-106 -97 -106 -154q0 -32 37 -32q32 0 64 17zM228 104q44 0 73.5 29.5t29.5 89.5q-21 1 -58 1q-103 0 -103 -65q0 -25 14.5 -40t43.5 -15z" />
    <glyph glyph-name="Cacute" unicode="&#x106;" horiz-adv-x="645" 
d="M444 1008l75 -124l-221 -97l-42 74zM568 184l63 -111q-96 -83 -259 -83q-156 0 -243.5 100t-87.5 270q0 169 83.5 269.5t231.5 100.5q175 0 256 -144l-149 -59q-40 75 -106 75t-107.5 -61.5t-41.5 -180.5t49.5 -180.5t131.5 -61.5q98 0 179 66z" />
    <glyph glyph-name="cacute" unicode="&#x107;" horiz-adv-x="514" 
d="M372 794l75 -124l-221 -97l-42 74zM447 156l49 -108q-81 -58 -198 -58q-124 0 -193 69.5t-69 194.5q0 121 70 191.5t179 70.5q26 0 52.5 -6t55 -20.5t52 -44.5t34.5 -71l-113 -45q-22 65 -73 65q-48 0 -74 -37t-26 -103t31.5 -103.5t86.5 -37.5q80 0 136 43z" />
    <glyph glyph-name="Cdotaccent" unicode="&#x10a;" horiz-adv-x="645" 
d="M356 798q-40 0 -63 22t-23 61t23 60t63 21t63 -21t23 -60t-23 -61t-63 -22zM568 184l63 -111q-96 -83 -259 -83q-156 0 -243.5 100t-87.5 270q0 169 83.5 269.5t231.5 100.5q175 0 256 -144l-149 -59q-40 75 -106 75t-107.5 -61.5t-41.5 -180.5t49.5 -180.5t131.5 -61.5
q98 0 179 66z" />
    <glyph glyph-name="cdotaccent" unicode="&#x10b;" horiz-adv-x="514" 
d="M284 584q-40 0 -63 22t-23 61t23 60t63 21t63 -21t23 -60t-23 -61t-63 -22zM447 156l49 -108q-81 -58 -198 -58q-124 0 -193 69.5t-69 194.5q0 121 70 191.5t179 70.5q26 0 52.5 -6t55 -20.5t52 -44.5t34.5 -71l-113 -45q-22 65 -73 65q-48 0 -74 -37t-26 -103
t31.5 -103.5t86.5 -37.5q80 0 136 43z" />
    <glyph glyph-name="Ccaron" unicode="&#x10c;" horiz-adv-x="645" 
d="M356 795l-1 2l-186 137l42 74l146 -74l145 74l42 -74l-186 -137l-1 -2h-1zM568 184l63 -111q-96 -83 -259 -83q-156 0 -243.5 100t-87.5 270q0 169 83.5 269.5t231.5 100.5q175 0 256 -144l-149 -59q-40 75 -106 75t-107.5 -61.5t-41.5 -180.5t49.5 -180.5t131.5 -61.5
q98 0 179 66z" />
    <glyph glyph-name="ccaron" unicode="&#x10d;" horiz-adv-x="514" 
d="M284 581l-1 2l-186 137l42 74l146 -74l145 74l42 -74l-186 -137l-1 -2h-1zM447 156l49 -108q-81 -58 -198 -58q-124 0 -193 69.5t-69 194.5q0 121 70 191.5t179 70.5q26 0 52.5 -6t55 -20.5t52 -44.5t34.5 -71l-113 -45q-22 65 -73 65q-48 0 -74 -37t-26 -103
t31.5 -103.5t86.5 -37.5q80 0 136 43z" />
    <glyph glyph-name="Dcaron" unicode="&#x10e;" horiz-adv-x="716" 
d="M323 795l-1 2l-186 137l42 74l146 -74l145 74l42 -74l-186 -137l-1 -2h-1zM288 730q183 0 286 -97.5t103 -272.5t-103 -272.5t-286 -97.5q-135 0 -213 10v720q74 10 213 10zM287 114q105 0 163 64.5t58 181.5t-58 181.5t-163 64.5q-16 0 -50 -2v-488q34 -2 50 -2z" />
    <glyph glyph-name="dcaron" unicode="&#x10f;" horiz-adv-x="624" 
d="M473 780q35 0 53.5 -19.5t18.5 -52.5v-697q-47 -21 -83 -21q-29 0 -47 21.5t-20 57.5q-57 -79 -165 -79q-88 0 -141 65.5t-53 180.5q0 134 73.5 207t206.5 73q16 0 74 -2v245q47 21 83 21zM618 780l140 -39l-79 -194l-86 22zM390 253v147q-23 1 -60 1q-63 0 -100 -44
t-37 -121q0 -59 24.5 -91.5t70.5 -32.5q102 0 102 141z" />
    <glyph glyph-name="Dcroat" unicode="&#x110;" horiz-adv-x="716" 
d="M288 730q183 0 286 -97.5t103 -272.5t-103 -272.5t-286 -97.5q-135 0 -213 10v307h-68v117h68v296q74 10 213 10zM287 114q105 0 163 64.5t58 181.5t-58 181.5t-163 64.5q-16 0 -50 -2v-180h146v-117h-146v-191q34 -2 50 -2z" />
    <glyph glyph-name="dslash" unicode="&#x111;" horiz-adv-x="604" 
d="M604 699v-116h-59v-572q-47 -21 -83 -21q-29 0 -47 21.5t-20 57.5q-57 -79 -165 -79q-88 0 -141 65.5t-53 180.5q0 134 73.5 207t206.5 73q16 0 74 -2v69h-162v116h162v60q47 21 83 21q35 0 53.5 -19.5t18.5 -52.5v-9h59zM390 253v147q-23 1 -60 1q-63 0 -100 -44
t-37 -121q0 -59 24.5 -91.5t70.5 -32.5q102 0 102 141z" />
    <glyph glyph-name="Emacron" unicode="&#x112;" horiz-adv-x="590" 
d="M457 934v-112h-298v112h298zM237 124h310v-124h-472v720h461v-124h-299v-165h264v-124h-264v-183z" />
    <glyph glyph-name="emacron" unicode="&#x113;" horiz-adv-x="541" 
d="M441 720v-112h-298v112h298zM299 106q84 0 143 40l61 -97q-95 -59 -215 -59t-186.5 66t-66.5 185q0 130 70 202.5t198 72.5q95 0 148 -45t53 -124q0 -76 -65.5 -118.5t-182.5 -42.5q-35 0 -66 4q17 -84 109 -84zM288 396q-42 0 -68.5 -31t-32.5 -88q34 -3 67 -3
q100 0 100 66q0 56 -66 56z" />
    <glyph glyph-name="Edotaccent" unicode="&#x116;" horiz-adv-x="590" 
d="M308 798q-40 0 -63 22t-23 61t23 60t63 21t63 -21t23 -60t-23 -61t-63 -22zM237 124h310v-124h-472v720h461v-124h-299v-165h264v-124h-264v-183z" />
    <glyph glyph-name="edotaccent" unicode="&#x117;" horiz-adv-x="541" 
d="M292 584q-40 0 -63 22t-23 61t23 60t63 21t63 -21t23 -60t-23 -61t-63 -22zM299 106q84 0 143 40l61 -97q-95 -59 -215 -59t-186.5 66t-66.5 185q0 130 70 202.5t198 72.5q95 0 148 -45t53 -124q0 -76 -65.5 -118.5t-182.5 -42.5q-35 0 -66 4q17 -84 109 -84zM288 396
q-42 0 -68.5 -31t-32.5 -88q34 -3 67 -3q100 0 100 66q0 56 -66 56z" />
    <glyph glyph-name="Eogonek" unicode="&#x118;" horiz-adv-x="590" 
d="M542 -158l16 -57q-52 -25 -107 -25q-45 0 -71 22.5t-26 63.5q0 39 29 75t88 79h-396v720h461v-124h-299v-165h264v-124h-264v-183h310v-124q-106 -91 -106 -143q0 -32 37 -32q31 0 64 17z" />
    <glyph glyph-name="eogonek" unicode="&#x119;" horiz-adv-x="541" 
d="M503 49l-5 -3q-196 -123 -196 -189q0 -32 37 -32q32 0 64 17l16 -57q-52 -25 -107 -25q-46 0 -71.5 22.5t-25.5 63.5q0 70 107 145q-11 -1 -34 -1q-120 0 -186.5 66t-66.5 185q0 130 70 202.5t198 72.5q95 0 148 -45t53 -124q0 -76 -65.5 -118.5t-182.5 -42.5
q-35 0 -66 4q17 -84 109 -84q84 0 143 40zM288 396q-42 0 -68.5 -31t-32.5 -88q34 -3 67 -3q100 0 100 66q0 56 -66 56z" />
    <glyph glyph-name="Ecaron" unicode="&#x11a;" horiz-adv-x="590" 
d="M308 795l-1 2l-186 137l42 74l146 -74l145 74l42 -74l-186 -137l-1 -2h-1zM237 124h310v-124h-472v720h461v-124h-299v-165h264v-124h-264v-183z" />
    <glyph glyph-name="ecaron" unicode="&#x11b;" horiz-adv-x="541" 
d="M292 581l-1 2l-186 137l42 74l146 -74l145 74l42 -74l-186 -137l-1 -2h-1zM299 106q84 0 143 40l61 -97q-95 -59 -215 -59t-186.5 66t-66.5 185q0 130 70 202.5t198 72.5q95 0 148 -45t53 -124q0 -76 -65.5 -118.5t-182.5 -42.5q-35 0 -66 4q17 -84 109 -84zM288 396
q-42 0 -68.5 -31t-32.5 -88q34 -3 67 -3q100 0 100 66q0 56 -66 56z" />
    <glyph glyph-name="Gbreve" unicode="&#x11e;" horiz-adv-x="711" 
d="M368 794q-81 0 -126 40.5t-45 112.5h109q0 -29 16.5 -45.5t45.5 -16.5q28 0 44 16.5t16 45.5h110q0 -72 -45 -112.5t-125 -40.5zM369 416h293v-405q-39 -21 -75 -21q-35 0 -56.5 20t-24.5 54q-31 -41 -74.5 -57.5t-108.5 -16.5q-133 0 -207 100t-74 270q0 169 86.5 269.5
t238.5 100.5q175 0 256 -144l-149 -59q-43 75 -111 75q-69 0 -111.5 -61.5t-42.5 -180.5t43.5 -180.5t115.5 -61.5q132 0 132 135v39h-131v124z" />
    <glyph glyph-name="gbreve" unicode="&#x11f;" horiz-adv-x="604" 
d="M316 580q-81 0 -126 40.5t-45 112.5h109q0 -29 16.5 -45.5t45.5 -16.5q28 0 44 16.5t16 45.5h110q0 -72 -45 -112.5t-125 -40.5zM316 516q85 0 229 -10v-536q0 -100 -62 -155t-175 -55q-130 0 -237 59l62 97q70 -40 149 -40q60 0 84 30.5t24 91.5v64q-56 -72 -160 -72
q-88 0 -141 65.5t-53 180.5q0 134 73.5 207t206.5 73zM390 253v147q-23 1 -60 1q-63 0 -100 -44t-37 -121q0 -59 24.5 -91.5t70.5 -32.5q102 0 102 141z" />
    <glyph glyph-name="Gdotaccent" unicode="&#x120;" horiz-adv-x="711" 
d="M367 798q-40 0 -63 22t-23 61t23 60t63 21t63 -21t23 -60t-23 -61t-63 -22zM369 416h293v-405q-39 -21 -75 -21q-35 0 -56.5 20t-24.5 54q-31 -41 -74.5 -57.5t-108.5 -16.5q-133 0 -207 100t-74 270q0 169 86.5 269.5t238.5 100.5q175 0 256 -144l-149 -59
q-43 75 -111 75q-69 0 -111.5 -61.5t-42.5 -180.5t43.5 -180.5t115.5 -61.5q132 0 132 135v39h-131v124z" />
    <glyph glyph-name="gdotaccent" unicode="&#x121;" horiz-adv-x="604" 
d="M315 584q-40 0 -63 22t-23 61t23 60t63 21t63 -21t23 -60t-23 -61t-63 -22zM316 516q85 0 229 -10v-536q0 -100 -62 -155t-175 -55q-130 0 -237 59l62 97q70 -40 149 -40q60 0 84 30.5t24 91.5v64q-56 -72 -160 -72q-88 0 -141 65.5t-53 180.5q0 134 73.5 207t206.5 73z
M390 253v147q-23 1 -60 1q-63 0 -100 -44t-37 -121q0 -59 24.5 -91.5t70.5 -32.5q102 0 102 141z" />
    <glyph glyph-name="uni0122" unicode="&#x122;" horiz-adv-x="711" 
d="M369 416h293v-405q-39 -21 -75 -21q-35 0 -56.5 20t-24.5 54q-31 -41 -74.5 -57.5t-108.5 -16.5q-133 0 -207 100t-74 270q0 169 86.5 269.5t238.5 100.5q175 0 256 -144l-149 -59q-43 75 -111 75q-69 0 -111.5 -61.5t-42.5 -180.5t43.5 -180.5t115.5 -61.5
q132 0 132 135v39h-131v124zM358 -53q35 0 55.5 -20t20.5 -53q0 -102 -125 -114l-10 23q74 11 86 54q-21 -9 -47 -9q-27 0 -42 15t-15 42q0 29 20.5 45.5t56.5 16.5z" />
    <glyph glyph-name="uni0123" unicode="&#x123;" horiz-adv-x="604" 
d="M315 584q-35 0 -56 23.5t-21 62.5q0 54 32 88t93 36l13 -29q-44 -3 -63.5 -18t-25.5 -44q23 9 48 9q27 0 42 -16t15 -45q0 -31 -21 -49t-56 -18zM316 516q85 0 229 -10v-536q0 -100 -62 -155t-175 -55q-130 0 -237 59l62 97q70 -40 149 -40q60 0 84 30.5t24 91.5v64
q-56 -72 -160 -72q-88 0 -141 65.5t-53 180.5q0 134 73.5 207t206.5 73zM390 253v147q-23 1 -60 1q-63 0 -100 -44t-37 -121q0 -59 24.5 -91.5t70.5 -32.5q102 0 102 141z" />
    <glyph glyph-name="Hbar" unicode="&#x126;" horiz-adv-x="762" 
d="M746 642v-117h-57v-525h-162v302h-290v-302h-162v525h-58v117h58v67q39 21 75 21q40 0 63.5 -23.5t23.5 -61.5v-3h290v67q39 21 75 21q40 0 63.5 -23.5t23.5 -61.5v-3h57zM528 426v100h-292v-100h292z" />
    <glyph glyph-name="hbar" unicode="&#x127;" horiz-adv-x="605" 
d="M373 516q85 0 131 -49.5t46 -140.5v-326h-155v299q0 45 -18.5 70t-53.5 25q-53 0 -81 -33t-28 -109v-252h-155v583h-60v117h60v59q47 21 83 21q35 0 53.5 -19.5t18.5 -52.5v-8h161v-117h-161v-142q58 75 159 75z" />
    <glyph glyph-name="Imacron" unicode="&#x12a;" horiz-adv-x="310" 
d="M6 934h298v-112h-298v112zM237 0h-162v709q39 21 75 21q40 0 63.5 -23.5t23.5 -61.5v-645z" />
    <glyph glyph-name="imacron" unicode="&#x12b;" horiz-adv-x="273" 
d="M-12 720h298v-112h-298v112zM59 506h155v-506h-155v506z" />
    <glyph glyph-name="Iogonek" unicode="&#x12e;" horiz-adv-x="310" 
d="M232 -158l16 -57q-52 -25 -107 -25q-45 0 -71 22.5t-26 63.5q0 39 29 75t88 79h-86v709q39 21 75 21q40 0 63.5 -23.5t23.5 -61.5v-645q-106 -91 -106 -143q0 -32 37 -32q31 0 64 17z" />
    <glyph glyph-name="iogonek" unicode="&#x12f;" horiz-adv-x="273" 
d="M137 584q-40 0 -63 22t-23 61t23 60t63 21t63 -21t23 -60t-23 -61t-63 -22zM209 -158l16 -57q-52 -25 -107 -25q-45 0 -71 22.5t-26 63.5q0 39 29 75t88 79h-79v506h155v-506q-106 -91 -106 -143q0 -32 37 -32q31 0 64 17z" />
    <glyph glyph-name="Idot" unicode="&#x130;" horiz-adv-x="310" 
d="M155 798q-40 0 -63 22t-23 61t23 60t63 21t63 -21t23 -60t-23 -61t-63 -22zM237 0h-162v709q39 21 75 21q40 0 63.5 -23.5t23.5 -61.5v-645z" />
    <glyph glyph-name="dotlessi" unicode="&#x131;" horiz-adv-x="273" 
d="M59 506h155v-506h-155v506z" />
    <glyph glyph-name="uni0136" unicode="&#x136;" horiz-adv-x="673" 
d="M150 730q40 0 63.5 -23.5t23.5 -61.5v-645h-162v709q39 21 75 21zM415 379l269 -363q-31 -26 -86 -26q-51 0 -77.5 13.5t-48.5 43.5l-230 317l233 366l151 -26zM355 -53q35 0 55.5 -20t20.5 -53q0 -102 -125 -114l-10 23q74 11 86 54q-21 -9 -47 -9q-27 0 -42 15t-15 42
q0 29 20.5 45.5t56.5 16.5z" />
    <glyph glyph-name="uni0137" unicode="&#x137;" horiz-adv-x="589" 
d="M142 780q35 0 53.5 -19.5t18.5 -52.5v-708h-155v759q47 21 83 21zM383 277l217 -264q-40 -23 -98 -23q-74 0 -111 49l-174 227l195 250l143 -23zM308 -53q35 0 55.5 -20t20.5 -53q0 -102 -125 -114l-10 23q74 11 86 54q-21 -9 -47 -9q-27 0 -42 15t-15 42q0 29 20.5 45.5
t56.5 16.5z" />
    <glyph glyph-name="Lacute" unicode="&#x139;" horiz-adv-x="536" 
d="M318 884l-221 -97l-42 74l188 147zM237 129h282v-129h-444v709q39 21 75 21q40 0 63.5 -23.5t23.5 -61.5v-516z" />
    <glyph glyph-name="lacute" unicode="&#x13a;" horiz-adv-x="314" 
d="M221 1058l75 -124l-221 -97l-42 74zM198 -10q-67 0 -104.5 38t-37.5 109v622q47 21 83 21q35 0 53.5 -19.5t18.5 -52.5v-558q0 -37 36 -37q22 0 43 7l20 -98q-50 -32 -112 -32z" />
    <glyph glyph-name="uni013B" unicode="&#x13b;" horiz-adv-x="536" 
d="M237 129h282v-129h-444v709q39 21 75 21q40 0 63.5 -23.5t23.5 -61.5v-516zM297 -53q35 0 55.5 -20t20.5 -53q0 -102 -125 -114l-10 23q74 11 86 54q-21 -9 -47 -9q-27 0 -42 15t-15 42q0 29 20.5 45.5t56.5 16.5z" />
    <glyph glyph-name="uni013C" unicode="&#x13c;" horiz-adv-x="314" 
d="M198 -10q-67 0 -104.5 38t-37.5 109v622q47 21 83 21q35 0 53.5 -19.5t18.5 -52.5v-558q0 -37 36 -37q22 0 43 7l20 -98q-50 -32 -112 -32zM154 -53q35 0 55.5 -20t20.5 -53q0 -102 -125 -114l-10 23q74 11 86 54q-21 -9 -47 -9q-27 0 -42 15t-15 42q0 29 20.5 45.5
t56.5 16.5z" />
    <glyph glyph-name="Lcaron" unicode="&#x13d;" horiz-adv-x="555" 
d="M237 129h282v-129h-444v709q39 21 75 21q40 0 63.5 -23.5t23.5 -61.5v-516zM505 691l-79 -194l-86 22l25 211z" />
    <glyph glyph-name="lcaron" unicode="&#x13e;" horiz-adv-x="334" 
d="M198 -10q-67 0 -104.5 38t-37.5 109v622q47 21 83 21q35 0 53.5 -19.5t18.5 -52.5v-558q0 -37 36 -37q22 0 43 7l20 -98q-50 -32 -112 -32zM283 780l140 -39l-79 -194l-86 22z" />
    <glyph glyph-name="Lslash" unicode="&#x141;" horiz-adv-x="547" 
d="M248 129h282v-129h-444v278l-67 -27v110l67 28v320q39 21 75 21q40 0 63.5 -23.5t23.5 -61.5v-199l160 70v-110l-160 -70v-207z" />
    <glyph glyph-name="lslash" unicode="&#x142;" horiz-adv-x="367" 
d="M322 120l20 -98q-50 -32 -112 -32q-67 0 -104.5 38t-37.5 109v143l-51 -29v110l51 29v369q47 21 83 21q35 0 53.5 -19.5t18.5 -52.5v-243l90 51v-110l-90 -51v-205q0 -37 36 -37q22 0 43 7z" />
    <glyph glyph-name="Nacute" unicode="&#x143;" horiz-adv-x="764" 
d="M545 884l-221 -97l-42 74l188 147zM535 720h154v-720h-127l-339 448l6 -448h-154v709q27 21 66 21q52 0 97 -58l303 -403z" />
    <glyph glyph-name="nacute" unicode="&#x144;" horiz-adv-x="605" 
d="M468 670l-221 -97l-42 74l188 147zM373 516q85 0 131 -49.5t46 -140.5v-326h-155v299q0 45 -18.5 70t-53.5 25q-53 0 -81 -33t-28 -109v-252h-155v495q47 21 83 21q29 0 47 -22.5t20 -59.5q58 82 164 82z" />
    <glyph glyph-name="uni0145" unicode="&#x145;" horiz-adv-x="764" 
d="M535 720h154v-720h-127l-339 448l6 -448h-154v709q27 21 66 21q52 0 97 -58l303 -403zM383 -53q35 0 55.5 -20t20.5 -53q0 -102 -125 -114l-10 23q74 11 86 54q-21 -9 -47 -9q-27 0 -42 15t-15 42q0 29 20.5 45.5t56.5 16.5z" />
    <glyph glyph-name="uni0146" unicode="&#x146;" horiz-adv-x="605" 
d="M373 516q85 0 131 -49.5t46 -140.5v-326h-155v299q0 45 -18.5 70t-53.5 25q-53 0 -81 -33t-28 -109v-252h-155v495q47 21 83 21q29 0 47 -22.5t20 -59.5q58 82 164 82zM306 -53q35 0 55.5 -20t20.5 -53q0 -102 -125 -114l-10 23q74 11 86 54q-21 -9 -47 -9q-27 0 -42 15
t-15 42q0 29 20.5 45.5t56.5 16.5z" />
    <glyph glyph-name="Ncaron" unicode="&#x147;" horiz-adv-x="764" 
d="M382 795l-1 2l-186 137l42 74l146 -74l145 74l42 -74l-186 -137l-1 -2h-1zM535 720h154v-720h-127l-339 448l6 -448h-154v709q27 21 66 21q52 0 97 -58l303 -403z" />
    <glyph glyph-name="ncaron" unicode="&#x148;" horiz-adv-x="605" 
d="M305 581l-1 2l-186 137l42 74l146 -74l145 74l42 -74l-186 -137l-1 -2h-1zM373 516q85 0 131 -49.5t46 -140.5v-326h-155v299q0 45 -18.5 70t-53.5 25q-53 0 -81 -33t-28 -109v-252h-155v495q47 21 83 21q29 0 47 -22.5t20 -59.5q58 82 164 82z" />
    <glyph glyph-name="Eng" unicode="&#x14a;" horiz-adv-x="764" 
d="M535 720h154v-785q0 -83 -51 -129t-142 -46q-77 0 -140 27l20 120q37 -19 85 -19q35 0 54 24t19 66v59l-311 411l6 -448h-154v709q27 21 66 21q52 0 97 -58l296 -395z" />
    <glyph glyph-name="eng" unicode="&#x14b;" horiz-adv-x="605" 
d="M373 516q85 0 131 -49.5t46 -140.5v-376q0 -137 -139 -190l-69 111q53 19 53 107v321q0 45 -18.5 70t-53.5 25q-53 0 -81 -33t-28 -109v-252h-155v495q47 21 83 21q29 0 47 -22.5t20 -59.5q58 82 164 82z" />
    <glyph glyph-name="Omacron" unicode="&#x14c;" horiz-adv-x="786" 
d="M243 934h298v-112h-298v112zM394 -10q-166 0 -259.5 97.5t-93.5 272.5t93.5 272.5t259.5 97.5t259 -97.5t93 -272.5t-93 -272.5t-259 -97.5zM393 118q88 0 136 63.5t48 178.5t-48 178.5t-136 63.5t-136.5 -63.5t-48.5 -178.5t48.5 -178.5t136.5 -63.5z" />
    <glyph glyph-name="omacron" unicode="&#x14d;" horiz-adv-x="610" 
d="M156 720h298v-112h-298v112zM304 -10q-128 0 -198.5 69t-70.5 194t70.5 194t198.5 69t199 -69t71 -194t-71 -194t-199 -69zM305 113q53 0 82.5 37t29.5 103t-29.5 103.5t-82.5 37.5t-82.5 -37.5t-29.5 -103.5t29.5 -103t82.5 -37z" />
    <glyph glyph-name="Ohungarumlaut" unicode="&#x150;" horiz-adv-x="786" 
d="M377 1017l104 -99l-188 -151l-60 61zM584 1017l104 -99l-188 -151l-60 61zM394 -10q-166 0 -259.5 97.5t-93.5 272.5t93.5 272.5t259.5 97.5t259 -97.5t93 -272.5t-93 -272.5t-259 -97.5zM393 118q88 0 136 63.5t48 178.5t-48 178.5t-136 63.5t-136.5 -63.5t-48.5 -178.5
t48.5 -178.5t136.5 -63.5z" />
    <glyph glyph-name="ohungarumlaut" unicode="&#x151;" horiz-adv-x="610" 
d="M290 803l104 -99l-188 -151l-60 61zM497 803l104 -99l-188 -151l-60 61zM304 -10q-128 0 -198.5 69t-70.5 194t70.5 194t198.5 69t199 -69t71 -194t-71 -194t-199 -69zM305 113q53 0 82.5 37t29.5 103t-29.5 103.5t-82.5 37.5t-82.5 -37.5t-29.5 -103.5t29.5 -103
t82.5 -37z" />
    <glyph glyph-name="OE" unicode="&#x152;" horiz-adv-x="1055" 
d="M721 124h291v-124h-453v82q-78 -92 -212 -92q-144 0 -224.5 97.5t-80.5 272.5t80.5 272.5t224.5 97.5q135 0 212 -92v82h442v-124h-280v-165h245v-124h-245v-183zM384 118q83 0 128.5 63.5t45.5 178.5t-45.5 178.5t-128.5 63.5t-129 -63.5t-46 -178.5t46 -178.5
t129 -63.5z" />
    <glyph glyph-name="oe" unicode="&#x153;" horiz-adv-x="902" 
d="M661 106q84 0 143 40l61 -97q-97 -59 -215 -59q-116 0 -176 77q-60 -77 -179 -77q-124 0 -191.5 69t-67.5 194t67.5 194t191.5 69q122 0 184 -83q63 83 185 83q94 0 148 -43.5t54 -120.5q0 -74 -65 -115t-183 -41q-45 0 -68 1q17 -91 111 -91zM649 395q-40 0 -65.5 -28.5
t-33.5 -80.5q46 -2 63 -2q97 0 97 61q0 22 -16 36t-45 14zM296 113q48 0 75 37t27 103t-27 103.5t-75 37.5t-75 -37.5t-27 -103.5t27 -103t75 -37z" />
    <glyph glyph-name="Racute" unicode="&#x154;" horiz-adv-x="676" 
d="M473 884l-221 -97l-42 74l188 147zM618 168l9 -81q4 -38 19 -76q-48 -21 -93 -21q-75 0 -87 88l-10 83q-14 117 -118 117h-101v-278h-162v720q138 10 239 10q144 0 224.5 -56t80.5 -158q0 -118 -112 -174q97 -51 111 -174zM314 606q-19 0 -77 -2v-201h76q138 0 138 102
q0 101 -137 101z" />
    <glyph glyph-name="racute" unicode="&#x155;" horiz-adv-x="424" 
d="M384 670l-221 -97l-42 74l188 147zM349 516q41 0 77 -17l-45 -137q-28 18 -63 18q-104 0 -104 -168v-212h-155v495q47 21 83 21q32 0 49.5 -24t17.5 -64q50 88 140 88z" />
    <glyph glyph-name="uni0156" unicode="&#x156;" horiz-adv-x="676" 
d="M618 168l9 -81q4 -38 19 -76q-48 -21 -93 -21q-75 0 -87 88l-10 83q-14 117 -118 117h-101v-278h-162v720q138 10 239 10q144 0 224.5 -56t80.5 -158q0 -118 -112 -174q97 -51 111 -174zM314 606q-19 0 -77 -2v-201h76q138 0 138 102q0 101 -137 101zM341 -53
q35 0 55.5 -20t20.5 -53q0 -102 -125 -114l-10 23q74 11 86 54q-21 -9 -47 -9q-27 0 -42 15t-15 42q0 29 20.5 45.5t56.5 16.5z" />
    <glyph glyph-name="uni0157" unicode="&#x157;" horiz-adv-x="424" 
d="M349 516q41 0 77 -17l-45 -137q-28 18 -63 18q-104 0 -104 -168v-212h-155v495q47 21 83 21q32 0 49.5 -24t17.5 -64q50 88 140 88zM136 -53q35 0 55.5 -20t20.5 -53q0 -102 -125 -114l-10 23q74 11 86 54q-21 -9 -47 -9q-27 0 -42 15t-15 42q0 29 20.5 45.5t56.5 16.5z
" />
    <glyph glyph-name="Rcaron" unicode="&#x158;" horiz-adv-x="676" 
d="M310 795l-1 2l-186 137l42 74l146 -74l145 74l42 -74l-186 -137l-1 -2h-1zM618 168l9 -81q4 -38 19 -76q-48 -21 -93 -21q-75 0 -87 88l-10 83q-14 117 -118 117h-101v-278h-162v720q138 10 239 10q144 0 224.5 -56t80.5 -158q0 -118 -112 -174q97 -51 111 -174zM314 606
q-19 0 -77 -2v-201h76q138 0 138 102q0 101 -137 101z" />
    <glyph glyph-name="rcaron" unicode="&#x159;" horiz-adv-x="424" 
d="M221 581l-1 2l-186 137l42 74l146 -74l145 74l42 -74l-186 -137l-1 -2h-1zM349 516q41 0 77 -17l-45 -137q-28 18 -63 18q-104 0 -104 -168v-212h-155v495q47 21 83 21q32 0 49.5 -24t17.5 -64q50 88 140 88z" />
    <glyph glyph-name="Sacute" unicode="&#x15a;" horiz-adv-x="590" 
d="M379 1008l75 -124l-221 -97l-42 74zM302 730q129 0 232 -70l-68 -110q-72 52 -161 52q-42 0 -65 -16.5t-23 -45.5q0 -24 19.5 -43t42 -28.5t66.5 -24.5q38 -13 59.5 -22t53.5 -28.5t49.5 -40t31 -54.5t13.5 -76q0 -112 -72 -172.5t-203 -60.5q-147 0 -247 75l51 114
q77 -61 204 -61q49 0 76 19t27 53q0 17 -8 31t-16 22.5t-30 19t-31.5 14t-39.5 14.5q-37 12 -59.5 21t-54.5 28.5t-50.5 41t-32 56.5t-13.5 79q0 103 65 158t184 55z" />
    <glyph glyph-name="sacute" unicode="&#x15b;" horiz-adv-x="493" 
d="M333 794l75 -124l-221 -97l-42 74zM253 516q115 0 198 -58l-56 -86q-70 36 -137 36q-62 0 -62 -35q0 -20 21 -32.5t66 -26.5q39 -12 65.5 -23t55 -29.5t43 -46.5t14.5 -64q0 -75 -58 -118t-160 -43q-137 0 -215 62l41 97q70 -49 167 -49q74 0 74 40q0 19 -24 31t-73 26
q-34 10 -59 20.5t-52.5 29t-42 46t-14.5 62.5q0 76 55.5 118.5t152.5 42.5z" />
    <glyph glyph-name="Scedilla" unicode="&#x15e;" horiz-adv-x="590" 
d="M552 223q0 -93 -51 -151.5t-147 -75.5l-31 -43q80 -27 80 -95q0 -47 -33.5 -72.5t-94.5 -25.5q-52 0 -97 24l27 59q25 -18 60 -18q52 0 52 35q0 40 -106 55l48 75q-137 6 -229 75l51 114q77 -61 204 -61q49 0 76 19t27 53q0 17 -8 31t-16 22.5t-30 19t-31.5 14
t-39.5 14.5q-37 12 -59.5 21t-54.5 28.5t-50.5 41t-32 56.5t-13.5 79q0 103 65 158t184 55q129 0 232 -70l-68 -110q-72 52 -161 52q-42 0 -65 -16.5t-23 -45.5q0 -24 19.5 -43t42 -28.5t66.5 -24.5q38 -13 59.5 -22t53.5 -28.5t49.5 -40t31 -54.5t13.5 -76z" />
    <glyph glyph-name="scedilla" unicode="&#x15f;" horiz-adv-x="493" 
d="M461 151q0 -63 -41.5 -104t-116.5 -53l-30 -41q80 -27 80 -95q0 -47 -33.5 -72.5t-94.5 -25.5q-52 0 -97 24l27 59q25 -18 60 -18q52 0 52 35q0 40 -106 55l48 76q-112 7 -181 61l41 97q70 -49 167 -49q74 0 74 40q0 19 -24 31t-73 26q-34 10 -59 20.5t-52.5 29t-42 46
t-14.5 62.5q0 76 55.5 118.5t152.5 42.5q115 0 198 -58l-56 -86q-70 36 -137 36q-62 0 -62 -35q0 -20 21 -32.5t66 -26.5q39 -12 65.5 -23t55 -29.5t43 -46.5t14.5 -64z" />
    <glyph glyph-name="Scaron" unicode="&#x160;" horiz-adv-x="590" 
d="M291 795l-1 2l-186 137l42 74l146 -74l145 74l42 -74l-186 -137l-1 -2h-1zM345 444q38 -13 59.5 -22t53.5 -28.5t49.5 -40t31 -54.5t13.5 -76q0 -112 -72 -172.5t-203 -60.5q-147 0 -247 75l51 114q77 -61 204 -61q49 0 76 19t27 53q0 17 -8 31t-16 22.5t-30 19t-31.5 14
t-39.5 14.5q-37 12 -59.5 21t-54.5 28.5t-50.5 41t-32 56.5t-13.5 79q0 103 65 158t184 55q129 0 232 -70l-68 -110q-72 52 -161 52q-42 0 -65 -16.5t-23 -45.5q0 -24 19.5 -43t42 -28.5t66.5 -24.5z" />
    <glyph glyph-name="scaron" unicode="&#x161;" horiz-adv-x="493" 
d="M245 581l-1 2l-186 137l42 74l146 -74l145 74l42 -74l-186 -137l-1 -2h-1zM283 314q39 -12 65.5 -23t55 -29.5t43 -46.5t14.5 -64q0 -75 -58 -118t-160 -43q-137 0 -215 62l41 97q70 -49 167 -49q74 0 74 40q0 19 -24 31t-73 26q-34 10 -59 20.5t-52.5 29t-42 46
t-14.5 62.5q0 76 55.5 118.5t152.5 42.5q115 0 198 -58l-56 -86q-70 36 -137 36q-62 0 -62 -35q0 -20 21 -32.5t66 -26.5z" />
    <glyph glyph-name="uni0162" unicode="&#x162;" horiz-adv-x="566" 
d="M364 0h-33l-28 -47q82 -26 82 -98q0 -45 -34 -70t-94 -25q-52 0 -97 24l25 56q29 -15 62 -15q52 0 52 35q0 40 -106 55l45 85h-36v596h-181v124h525v-124h-182v-596z" />
    <glyph glyph-name="uni0163" unicode="&#x163;" horiz-adv-x="429" 
d="M259 -10l-27 -37q80 -27 80 -95q0 -47 -33.5 -72.5t-94.5 -25.5q-52 0 -97 24l27 59q26 -18 60 -18q52 0 52 35q0 40 -106 55l60 95q-84 41 -84 152v228h-74v116h79v114q47 21 83 21q32 0 49.5 -19.5t17.5 -52.5v-63h152v-116h-152v-202q0 -36 17.5 -55.5t50.5 -19.5
q42 0 73 19l20 -115q-58 -27 -136 -27h-17z" />
    <glyph glyph-name="Tcaron" unicode="&#x164;" horiz-adv-x="566" 
d="M282 795l-1 2l-186 137l42 74l146 -74l145 74l42 -74l-186 -137l-1 -2h-1zM546 720v-124h-182v-596h-162v596h-181v124h525z" />
    <glyph glyph-name="tcaron" unicode="&#x165;" horiz-adv-x="429" 
d="M464 741l-79 -194l-86 22l25 211zM319 113q42 0 73 19l20 -115q-58 -27 -136 -27q-86 0 -133 45t-47 127v228h-74v116h79v114q47 21 83 21q32 0 49.5 -19.5t17.5 -52.5v-63h152v-116h-152v-202q0 -36 17.5 -55.5t50.5 -19.5z" />
    <glyph glyph-name="Tbar" unicode="&#x166;" horiz-adv-x="566" 
d="M546 596h-182v-177h106v-117h-106v-302h-162v302h-108v117h108v177h-181v124h525v-124z" />
    <glyph glyph-name="tbar" unicode="&#x167;" horiz-adv-x="429" 
d="M392 132l20 -115q-58 -27 -136 -27q-86 0 -133 45t-47 127v36h-72v117h72v75h-74v116h79v114q47 21 83 21q32 0 49.5 -19.5t17.5 -52.5v-63h152v-116h-152v-75h149v-117h-149v-10q0 -36 17.5 -55.5t50.5 -19.5q42 0 73 19z" />
    <glyph glyph-name="Umacron" unicode="&#x16a;" horiz-adv-x="728" 
d="M216 934h298v-112h-298v112zM508 279v430q38 21 73 21q38 0 59.5 -23t21.5 -62v-378q0 -132 -78.5 -204.5t-219.5 -72.5q-140 0 -218 72.5t-78 204.5v442q39 21 75 21q40 0 63.5 -23.5t23.5 -61.5v-366q0 -77 35.5 -119t98.5 -42q69 0 106.5 42t37.5 119z" />
    <glyph glyph-name="umacron" unicode="&#x16b;" horiz-adv-x="592" 
d="M445 720v-112h-298v112h298zM463 516q35 0 53.5 -19.5t18.5 -52.5v-433q-47 -21 -83 -21q-29 0 -47 22t-20 58q-53 -80 -154 -80q-85 0 -131 49.5t-46 140.5v315q47 21 83 21q35 0 53.5 -19.5t18.5 -52.5v-236q0 -45 18.5 -70t53.5 -25q49 0 74 32.5t25 107.5v242
q47 21 83 21z" />
    <glyph glyph-name="Uring" unicode="&#x16e;" horiz-adv-x="728" 
d="M364 773q-63 0 -99 32t-36 89q0 58 36 90t99 32q64 0 99.5 -32t35.5 -90q0 -57 -35.5 -89t-99.5 -32zM365 842q48 0 48 52q0 53 -48 53q-23 0 -36 -14t-13 -39q0 -24 13 -38t36 -14zM508 279v430q38 21 73 21q38 0 59.5 -23t21.5 -62v-378q0 -132 -78.5 -204.5
t-219.5 -72.5q-140 0 -218 72.5t-78 204.5v442q39 21 75 21q40 0 63.5 -23.5t23.5 -61.5v-366q0 -77 35.5 -119t98.5 -42q69 0 106.5 42t37.5 119z" />
    <glyph glyph-name="uring" unicode="&#x16f;" horiz-adv-x="592" 
d="M295 559q-63 0 -99 32t-36 89q0 58 36 90t99 32q64 0 99.5 -32t35.5 -90q0 -57 -35.5 -89t-99.5 -32zM296 733q-23 0 -36 -14t-13 -39q0 -24 13 -38t36 -14q48 0 48 52q0 53 -48 53zM463 516q35 0 53.5 -19.5t18.5 -52.5v-433q-47 -21 -83 -21q-29 0 -47 22t-20 58
q-53 -80 -154 -80q-85 0 -131 49.5t-46 140.5v315q47 21 83 21q35 0 53.5 -19.5t18.5 -52.5v-236q0 -45 18.5 -70t53.5 -25q49 0 74 32.5t25 107.5v242q47 21 83 21z" />
    <glyph glyph-name="Uhungarumlaut" unicode="&#x170;" horiz-adv-x="728" 
d="M350 1017l104 -99l-188 -151l-60 61zM557 1017l104 -99l-188 -151l-60 61zM508 279v430q38 21 73 21q38 0 59.5 -23t21.5 -62v-378q0 -132 -78.5 -204.5t-219.5 -72.5q-140 0 -218 72.5t-78 204.5v442q39 21 75 21q40 0 63.5 -23.5t23.5 -61.5v-366q0 -77 35.5 -119
t98.5 -42q69 0 106.5 42t37.5 119z" />
    <glyph glyph-name="uhungarumlaut" unicode="&#x171;" horiz-adv-x="592" 
d="M385 704l-188 -151l-60 61l144 189zM404 553l-60 61l144 189l104 -99zM463 516q35 0 53.5 -19.5t18.5 -52.5v-433q-47 -21 -83 -21q-29 0 -47 22t-20 58q-53 -80 -154 -80q-85 0 -131 49.5t-46 140.5v315q47 21 83 21q35 0 53.5 -19.5t18.5 -52.5v-236q0 -45 18.5 -70
t53.5 -25q49 0 74 32.5t25 107.5v242q47 21 83 21z" />
    <glyph glyph-name="Uogonek" unicode="&#x172;" horiz-adv-x="728" 
d="M581 730q38 0 59.5 -23t21.5 -62v-378q0 -164 -122 -236q-104 -63 -148.5 -104t-44.5 -70q0 -32 37 -32q30 0 64 17l16 -57q-52 -25 -107 -25q-46 0 -71.5 22.5t-25.5 63.5q0 39 30 72.5t92 71.5h-18q-140 0 -218 72.5t-78 204.5v442q39 21 75 21q40 0 63.5 -23.5
t23.5 -61.5v-366q0 -77 35.5 -119t98.5 -42q69 0 106.5 42t37.5 119v430q38 21 73 21z" />
    <glyph glyph-name="uogonek" unicode="&#x173;" horiz-adv-x="592" 
d="M530 -158l16 -57q-52 -25 -107 -25q-46 0 -71.5 22.5t-25.5 63.5q0 68 96 146q-48 11 -53 78q-53 -80 -154 -80q-85 0 -131 49.5t-46 140.5v315q47 21 83 21q35 0 53.5 -19.5t18.5 -52.5v-236q0 -45 18.5 -70t53.5 -25q49 0 74 32.5t25 107.5v242q47 21 83 21
q35 0 53.5 -19.5t18.5 -52.5v-433q-106 -97 -106 -154q0 -32 37 -32q34 0 64 17z" />
    <glyph glyph-name="Wcircumflex" unicode="&#x174;" horiz-adv-x="1014" 
d="M360 787l-42 74l186 137l1 2h1l1 -2l186 -137l-42 -74l-145 74zM856 730l147 -26l-203 -704h-173l-92 374l-30 161l-28 -160l-89 -375h-169l-212 704q31 26 82 26q45 0 70 -15t38 -64l97 -362l27 -132l23 143l94 404q31 26 87 26q37 0 64.5 -23.5t36.5 -63.5l80 -369
l19 -123l26 133z" />
    <glyph glyph-name="wcircumflex" unicode="&#x175;" horiz-adv-x="832" 
d="M271 573l-42 74l186 137l1 2h1l1 -2l186 -137l-42 -74l-145 74zM683 516l136 -23l-163 -493h-156l-72 261l-13 69l-12 -64l-67 -266h-158l-166 493q40 23 89 23q74 0 93 -72l52 -196l25 -129l30 136l61 238q29 23 67 23q59 0 79 -72l52 -197l23 -118l28 122z" />
    <glyph glyph-name="Ycircumflex" unicode="&#x176;" horiz-adv-x="640" 
d="M178 787l-42 74l186 137l1 2h1l1 -2l186 -137l-42 -74l-145 74zM632 704l-231 -424v-280h-162v279l-233 425q31 26 88 26q46 0 72 -12.5t43 -44.5l89 -176l37 -90l36 94l111 229z" />
    <glyph glyph-name="ycircumflex" unicode="&#x177;" horiz-adv-x="552" 
d="M133 573l-42 74l186 137l1 2h1l1 -2l186 -137l-42 -74l-145 74zM392 516l146 -23l-196 -547q-27 -77 -77 -127.5t-105 -58.5l-63 99q36 6 71 38.5t48 78.5l10 31q-37 14 -53 57l-156 429q44 23 89 23q69 0 93 -72l52 -165l37 -158l37 158z" />
    <glyph glyph-name="Ydieresis" unicode="&#x178;" horiz-adv-x="640" 
d="M220 798q-40 0 -63 22t-23 61t23 60t63 21t63 -21t23 -60t-23 -61t-63 -22zM427 798q-40 0 -63 22t-23 61t23 60t63 21t63 -21t23 -60t-23 -61t-63 -22zM632 704l-231 -424v-280h-162v279l-233 425q31 26 88 26q46 0 72 -12.5t43 -44.5l89 -176l37 -90l36 94l111 229z
" />
    <glyph glyph-name="Zacute" unicode="&#x179;" horiz-adv-x="602" 
d="M459 884l-221 -97l-42 74l188 147zM275 198l-58 -74h349v-124h-541v103l290 421l53 72h-318v124h502q19 -31 19 -62q0 -19 -9.5 -37.5t-35.5 -56.5z" />
    <glyph glyph-name="zacute" unicode="&#x17a;" horiz-adv-x="501" 
d="M413 670l-221 -97l-42 74l188 147zM203 116h267v-116h-441v104l165 197l80 89h-229v116h401q20 -35 20 -59q0 -38 -40 -83l-167 -191z" />
    <glyph glyph-name="Zdotaccent" unicode="&#x17b;" horiz-adv-x="602" 
d="M296 798q-40 0 -63 22t-23 61t23 60t63 21t63 -21t23 -60t-23 -61t-63 -22zM275 198l-58 -74h349v-124h-541v103l290 421l53 72h-318v124h502q19 -31 19 -62q0 -19 -9.5 -37.5t-35.5 -56.5z" />
    <glyph glyph-name="zdotaccent" unicode="&#x17c;" horiz-adv-x="501" 
d="M250 584q-40 0 -63 22t-23 61t23 60t63 21t63 -21t23 -60t-23 -61t-63 -22zM203 116h267v-116h-441v104l165 197l80 89h-229v116h401q20 -35 20 -59q0 -38 -40 -83l-167 -191z" />
    <glyph glyph-name="Zcaron" unicode="&#x17d;" horiz-adv-x="602" 
d="M296 795l-1 2l-186 137l42 74l146 -74l145 74l42 -74l-186 -137l-1 -2h-1zM275 198l-58 -74h349v-124h-541v103l290 421l53 72h-318v124h502q19 -31 19 -62q0 -19 -9.5 -37.5t-35.5 -56.5z" />
    <glyph glyph-name="zcaron" unicode="&#x17e;" horiz-adv-x="501" 
d="M250 581l-1 2l-186 137l42 74l146 -74l145 74l42 -74l-186 -137l-1 -2h-1zM203 116h267v-116h-441v104l165 197l80 89h-229v116h401q20 -35 20 -59q0 -38 -40 -83l-167 -191z" />
    <glyph glyph-name="uni018F" unicode="&#x18f;" horiz-adv-x="697" 
d="M327 730q155 0 242.5 -92t87.5 -257q0 -184 -94 -287.5t-263 -103.5q-121 0 -190.5 61.5t-69.5 170.5q0 113 84.5 176t238.5 63q54 0 124 -12q-25 153 -170 153q-125 0 -210 -58l-65 106q119 80 285 80zM318 118q75 0 120 58t53 165q-69 8 -124 8q-76 0 -118 -31t-42 -88
q0 -52 29 -82t82 -30z" />
    <glyph glyph-name="florin" unicode="&#x192;" horiz-adv-x="569" 
d="M451 657q-36 0 -62 -22.5t-33 -58.5l-30 -170h126v-116h-147l-61 -344q-13 -76 -55.5 -119.5t-110.5 -67.5l-58 114q62 25 77 110l54 307h-71v116h91l37 208q14 81 68.5 123.5t142.5 42.5q81 0 146 -30l-31 -109q-35 16 -83 16z" />
    <glyph glyph-name="uni0218" unicode="&#x218;" horiz-adv-x="590" 
d="M345 444q38 -13 59.5 -22t53.5 -28.5t49.5 -40t31 -54.5t13.5 -76q0 -112 -72 -172.5t-203 -60.5q-147 0 -247 75l51 114q77 -61 204 -61q49 0 76 19t27 53q0 17 -8 31t-16 22.5t-30 19t-31.5 14t-39.5 14.5q-37 12 -59.5 21t-54.5 28.5t-50.5 41t-32 56.5t-13.5 79
q0 103 65 158t184 55q129 0 232 -70l-68 -110q-72 52 -161 52q-42 0 -65 -16.5t-23 -45.5q0 -24 19.5 -43t42 -28.5t66.5 -24.5zM292 -53q35 0 55.5 -20t20.5 -53q0 -102 -125 -114l-10 23q74 11 86 54q-21 -9 -47 -9q-27 0 -42 15t-15 42q0 29 20.5 45.5t56.5 16.5z" />
    <glyph glyph-name="uni0219" unicode="&#x219;" horiz-adv-x="493" 
d="M283 314q39 -12 65.5 -23t55 -29.5t43 -46.5t14.5 -64q0 -75 -58 -118t-160 -43q-137 0 -215 62l41 97q70 -49 167 -49q74 0 74 40q0 19 -24 31t-73 26q-34 10 -59 20.5t-52.5 29t-42 46t-14.5 62.5q0 76 55.5 118.5t152.5 42.5q115 0 198 -58l-56 -86q-70 36 -137 36
q-62 0 -62 -35q0 -20 21 -32.5t66 -26.5zM242 -53q35 0 55.5 -20t20.5 -53q0 -102 -125 -114l-10 23q74 11 86 54q-21 -9 -47 -9q-27 0 -42 15t-15 42q0 29 20.5 45.5t56.5 16.5z" />
    <glyph glyph-name="uni021A" unicode="&#x21a;" horiz-adv-x="566" 
d="M546 720v-124h-182v-596h-162v596h-181v124h525zM283 -53q35 0 55.5 -20t20.5 -53q0 -102 -125 -114l-10 23q74 11 86 54q-21 -9 -47 -9q-27 0 -42 15t-15 42q0 29 20.5 45.5t56.5 16.5z" />
    <glyph glyph-name="uni021B" unicode="&#x21b;" horiz-adv-x="429" 
d="M276 -10q-86 0 -133 45t-47 127v228h-74v116h79v114q47 21 83 21q32 0 49.5 -19.5t17.5 -52.5v-63h152v-116h-152v-202q0 -36 17.5 -55.5t50.5 -19.5q42 0 73 19l20 -115q-58 -27 -136 -27zM201 -53q35 0 55.5 -20t20.5 -53q0 -102 -125 -114l-10 23q74 11 86 54
q-21 -9 -47 -9q-27 0 -42 15t-15 42q0 29 20.5 45.5t56.5 16.5z" />
    <glyph glyph-name="uni0259" unicode="&#x259;" horiz-adv-x="541" 
d="M252 516q120 0 186.5 -66t66.5 -186q0 -130 -70 -202t-197 -72q-94 0 -148 44.5t-54 123.5q0 77 64.5 119.5t183.5 42.5q34 0 68 -3q-20 83 -112 83q-83 0 -142 -40l-61 96q97 60 215 60zM252 109q43 0 70 31.5t33 88.5q-31 4 -66 4q-103 0 -103 -67q0 -26 17.5 -41.5
t48.5 -15.5z" />
    <glyph glyph-name="circumflex" unicode="&#x2c6;" horiz-adv-x="382" 
d="M379 647l-42 -74l-145 74l-146 -74l-42 74l186 137l1 2h1l1 -2z" />
    <glyph glyph-name="caron" unicode="&#x2c7;" horiz-adv-x="382" 
d="M193 583l-1 -2h-1l-1 2l-186 137l42 74l146 -74l145 74l42 -74z" />
    <glyph glyph-name="breve" unicode="&#x2d8;" horiz-adv-x="369" 
d="M245 733h110q0 -72 -45 -112.5t-125 -40.5q-81 0 -126 40.5t-45 112.5h109q0 -29 16.5 -45.5t45.5 -16.5q28 0 44 16.5t16 45.5z" />
    <glyph glyph-name="dotaccent" unicode="&#x2d9;" horiz-adv-x="261" 
d="M131 584q-40 0 -63 22t-23 61t23 60t63 21t63 -21t23 -60t-23 -61t-63 -22z" />
    <glyph glyph-name="ring" unicode="&#x2da;" horiz-adv-x="279" 
d="M139 559q-63 0 -99 32t-36 89q0 58 36 90t99 32q64 0 99.5 -32t35.5 -90q0 -57 -35.5 -89t-99.5 -32zM140 628q48 0 48 52q0 53 -48 53q-23 0 -36 -14t-13 -39q0 -24 13 -38t36 -14z" />
    <glyph glyph-name="ogonek" unicode="&#x2db;" horiz-adv-x="212" 
d="M192 -158l16 -57q-52 -25 -107 -25q-45 0 -71 22.5t-26 63.5q0 46 38.5 86t120.5 98l34 -30q-106 -91 -106 -143q0 -32 37 -32q31 0 64 17z" />
    <glyph glyph-name="tilde" unicode="&#x2dc;" horiz-adv-x="448" 
d="M71 583l-38 49q16 42 53 70.5t75 28.5q29 0 75.5 -18.5t67.5 -18.5q44 0 75 34l38 -49q-54 -99 -139 -99q-29 0 -72 19t-62 19q-40 0 -73 -35z" />
    <glyph glyph-name="hungarumlaut" unicode="&#x2dd;" horiz-adv-x="491" 
d="M162 803l104 -99l-188 -151l-60 61zM369 803l104 -99l-188 -151l-60 61z" />
    <glyph glyph-name="gravecomb" unicode="&#x300;" 
d="M-192 794l188 -147l-42 -74l-221 97z" />
    <glyph glyph-name="acutecomb" unicode="&#x301;" 
d="M-79 794l75 -124l-221 -97l-42 74z" />
    <glyph glyph-name="uni0302" unicode="&#x302;" 
d="M-3 647l-42 -74l-145 74l-146 -74l-42 74l186 137l1 2h1l1 -2z" />
    <glyph glyph-name="tildecomb" unicode="&#x303;" 
d="M-378 594l-38 49q16 42 52.5 70.5t75.5 28.5q29 0 75.5 -18.5t67.5 -18.5q44 0 75 34l38 -49q-54 -99 -139 -99q-29 0 -72 19t-62 19q-40 0 -73 -35z" />
    <glyph glyph-name="uni0304" unicode="&#x304;" 
d="M-315 720h298v-112h-298v112z" />
    <glyph glyph-name="uni0306" unicode="&#x306;" 
d="M-124 733h110q0 -72 -45 -112.5t-125 -40.5q-81 0 -126 40.5t-45 112.5h109q0 -29 16.5 -45.5t45.5 -16.5q28 0 44 16.5t16 45.5z" />
    <glyph glyph-name="uni0307" unicode="&#x307;" 
d="M-130 584q-40 0 -63 22t-23 61t23 60t63 21t63 -21t23 -60t-23 -61t-63 -22z" />
    <glyph glyph-name="uni0308" unicode="&#x308;" 
d="M-343 584q-40 0 -63 22t-23 61t23 60t63 21t63 -21t23 -60t-23 -61t-63 -22zM-136 584q-40 0 -63 22t-23 61t23 60t63 21t63 -21t23 -60t-23 -61t-63 -22z" />
    <glyph glyph-name="uni030A" unicode="&#x30a;" 
d="M-140 559q-63 0 -99 32t-36 89q0 58 36 90t99 32q64 0 99.5 -32t35.5 -90q0 -57 -35.5 -89t-99.5 -32zM-139 628q48 0 48 52q0 53 -48 53q-23 0 -36 -14t-13 -39q0 -24 13 -38t36 -14z" />
    <glyph glyph-name="uni030B" unicode="&#x30b;" 
d="M-329 803l104 -99l-188 -151l-60 61zM-122 803l104 -99l-188 -151l-60 61z" />
    <glyph glyph-name="uni030C" unicode="&#x30c;" 
d="M-189 583l-1 -2h-1l-1 2l-186 137l42 74l146 -74l145 74l42 -74z" />
    <glyph glyph-name="uni0312" unicode="&#x312;" 
d="M-67 712q27 0 42 -16t15 -45q0 -31 -21 -49t-56 -18t-56 23.5t-21 62.5q0 54 32 88t93 36l13 -29q-44 -3 -63.5 -18t-25.5 -44q23 9 48 9z" />
    <glyph glyph-name="uni0326" unicode="&#x326;" 
d="M-67 -53q35 0 55.5 -20t20.5 -53q0 -102 -125 -114l-10 23q74 11 86 54q-21 -9 -47 -9q-27 0 -42 15t-15 42q0 29 20.5 45.5t56.5 16.5z" />
    <glyph glyph-name="uni0327" unicode="&#x327;" 
d="M-48 16l-45 -63q80 -27 80 -95q0 -47 -33.5 -72.5t-94.5 -25.5q-52 0 -97 24l27 59q25 -18 60 -18q52 0 52 35q0 40 -106 55l64 101h93z" />
    <glyph glyph-name="uni0328" unicode="&#x328;" 
d="M-20 -158l16 -57q-52 -25 -107 -25q-45 0 -71 22.5t-26 63.5q0 46 39.5 87.5t119.5 96.5l34 -30q-106 -91 -106 -143q0 -32 37 -32q31 0 64 17z" />
    <glyph glyph-name="uni0335" unicode="&#x335;" 
d="M-418 416h376v-117h-376v117z" />
    <glyph glyph-name="uni0336" unicode="&#x336;" 
d="M-769 299v117h729v-117h-729z" />
    <glyph glyph-name="uni0337" unicode="&#x337;" 
d="M-15 516l61 -48l-415 -478l-61 48z" />
    <glyph glyph-name="uni0338" unicode="&#x338;" 
d="M-62 746l110 -81l-536 -691l-110 81z" />
    <glyph glyph-name="uni0394" unicode="&#x394;" horiz-adv-x="742" 
d="M483 642l234 -642h-692l260 709q42 21 85 21q80 0 113 -88zM224 124h277l-138 388z" />
    <glyph glyph-name="uni03A9" unicode="&#x3a9;" horiz-adv-x="820" 
d="M775 391q0 -183 -145 -271l128 3v-123h-295v115q67 21 105.5 85.5t38.5 160.5q0 107 -54.5 174t-142.5 67q-90 0 -144.5 -66.5t-54.5 -174.5q0 -95 39 -159.5t106 -86.5v-115h-295v123l128 -3q-145 88 -145 271q0 152 101 245.5t265 93.5t264.5 -93.5t100.5 -245.5z" />
    <glyph glyph-name="uni03BC" unicode="&#x3bc;" horiz-adv-x="617" 
d="M394 506h155v-495q-47 -21 -83 -21q-27 0 -44.5 19t-21.5 52q-45 -71 -121 -71q-34 0 -56 7v-227h-155v736h155v-298q0 -95 73 -95q48 0 73 32.5t25 107.5v253z" />
    <glyph glyph-name="pi" unicode="&#x3c0;" horiz-adv-x="687" 
d="M666 506v-116h-90v-390h-155v390h-155v-390h-155v390h-90v116h645z" />
    <glyph glyph-name="uni0400" unicode="&#x400;" horiz-adv-x="590" 
d="M409 861l-42 -74l-221 97l75 124zM237 124h310v-124h-472v720h461v-124h-299v-165h264v-124h-264v-183z" />
    <glyph glyph-name="uni0401" unicode="&#x401;" horiz-adv-x="590" 
d="M205 798q-40 0 -63 22t-23 61t23 60t63 21t63 -21t23 -60t-23 -61t-63 -22zM412 798q-40 0 -63 22t-23 61t23 60t63 21t63 -21t23 -60t-23 -61t-63 -22zM237 124h310v-124h-472v720h461v-124h-299v-165h264v-124h-264v-183z" />
    <glyph glyph-name="uni0402" unicode="&#x402;" horiz-adv-x="783" 
d="M544 507q100 0 155 -68t55 -191q0 -122 -74.5 -190t-209.5 -68v128q57 0 89.5 34t32.5 96q0 63 -26 97t-73 34q-69 0 -108.5 -56t-39.5 -166v-157h-162v596h-162v124h525v-124h-201v-199q70 110 199 110z" />
    <glyph glyph-name="uni0403" unicode="&#x403;" horiz-adv-x="515" 
d="M423 884l-221 -97l-42 74l188 147zM499 720v-124h-262v-596h-162v720h424z" />
    <glyph glyph-name="uni0404" unicode="&#x404;" horiz-adv-x="647" 
d="M567 184l63 -111q-44 -39 -112.5 -61t-145.5 -22q-156 0 -243.5 100t-87.5 270q0 169 83.5 269.5t230.5 100.5q174 0 257 -144l-150 -59q-38 75 -106 75q-56 0 -94.5 -44t-49.5 -130h247v-125h-248q12 -92 58.5 -138.5t118.5 -46.5q99 0 179 66z" />
    <glyph glyph-name="uni0405" unicode="&#x405;" horiz-adv-x="590" 
d="M302 730q129 0 232 -70l-68 -110q-72 52 -161 52q-42 0 -65 -16.5t-23 -45.5q0 -24 19.5 -43t42 -28.5t66.5 -24.5q38 -13 59.5 -22t53.5 -28.5t49.5 -40t31 -54.5t13.5 -76q0 -112 -72 -172.5t-203 -60.5q-147 0 -247 75l51 114q77 -61 204 -61q49 0 76 19t27 53
q0 17 -8 31t-16 22.5t-30 19t-31.5 14t-39.5 14.5q-37 12 -59.5 21t-54.5 28.5t-50.5 41t-32 56.5t-13.5 79q0 103 65 158t184 55z" />
    <glyph glyph-name="uni0406" unicode="&#x406;" horiz-adv-x="310" 
d="M237 0h-162v709q39 21 75 21q40 0 63.5 -23.5t23.5 -61.5v-645z" />
    <glyph glyph-name="uni0407" unicode="&#x407;" horiz-adv-x="310" 
d="M52 798q-40 0 -63 22t-23 61t23 60t63 21t63 -21t23 -60t-23 -61t-63 -22zM259 798q-40 0 -63 22t-23 61t23 60t63 21t63 -21t23 -60t-23 -61t-63 -22zM237 0h-162v709q39 21 75 21q40 0 63.5 -23.5t23.5 -61.5v-645z" />
    <glyph glyph-name="uni0408" unicode="&#x408;" horiz-adv-x="415" 
d="M184 204v505q38 21 75 21q40 0 63.5 -23.5t23.5 -61.5v-473q0 -87 -51 -134.5t-142 -47.5q-77 0 -140 27l20 120q37 -19 82 -19q33 0 51 23t18 63z" />
    <glyph glyph-name="uni0409" unicode="&#x409;" horiz-adv-x="1082" 
d="M770 433q138 0 213.5 -60.5t75.5 -171.5q0 -101 -75.5 -156t-213.5 -55q-93 0 -249 10v596h-245l-20 -364q-6 -100 -47 -155t-121 -87l-71 115q47 18 68.5 53t25.5 102l26 460h546v-289q58 2 87 2zM771 114q57 0 88.5 26t31.5 72t-31.5 71.5t-88.5 25.5q-30 0 -88 -2
v-191q66 -2 88 -2z" />
    <glyph glyph-name="uni040A" unicode="&#x40a;" horiz-adv-x="1089" 
d="M777 433q137 0 213 -60.5t76 -171.5q0 -101 -75.5 -156t-213.5 -55q-93 0 -249 10h-1v302h-290v-302h-162v709q39 21 75 21q40 0 63.5 -23.5t23.5 -61.5v-218h290v282q39 21 75 21h1q40 0 63.5 -23.5t23.5 -61.5v-214q58 2 87 2zM778 114q57 0 88.5 26t31.5 72
t-31.5 71.5t-88.5 25.5q-30 0 -88 -2v-191q66 -2 88 -2z" />
    <glyph glyph-name="uni040B" unicode="&#x40b;" horiz-adv-x="807" 
d="M557 507q99 0 153 -63t54 -175v-269h-162v235q0 67 -25.5 105.5t-72.5 38.5q-74 0 -116.5 -55.5t-42.5 -166.5v-157h-162v596h-162v124h525v-124h-201v-203q76 114 212 114z" />
    <glyph glyph-name="uni040C" unicode="&#x40c;" horiz-adv-x="673" 
d="M517 884l-221 -97l-42 74l188 147zM150 730q40 0 63.5 -23.5t23.5 -61.5v-645h-162v709q39 21 75 21zM415 379l269 -363q-31 -26 -86 -26q-51 0 -77.5 13.5t-48.5 43.5l-230 317l233 366l151 -26z" />
    <glyph glyph-name="uni040D" unicode="&#x40d;" horiz-adv-x="762" 
d="M482 861l-42 -74l-221 97l75 124zM602 730q40 0 63.5 -23.5t23.5 -61.5v-645h-162v400l-290 -303v-97h-162v709q39 21 75 21q40 0 63.5 -23.5t23.5 -61.5v-343l290 303v104q39 21 75 21z" />
    <glyph glyph-name="uni040E" unicode="&#x40e;" horiz-adv-x="589" 
d="M300 794q-81 0 -126 40.5t-45 112.5h109q0 -29 16.5 -45.5t45.5 -16.5q28 0 44 16.5t16 45.5h110q0 -72 -45 -112.5t-125 -40.5zM442 730l144 -26l-224 -528q-32 -76 -90 -127t-122 -59l-68 107q89 19 136 109l19 36q-28 15 -44 52l-182 410q31 26 82 26q46 0 73.5 -16
t46.5 -63l62 -149l36 -113z" />
    <glyph glyph-name="uni040F" unicode="&#x40f;" horiz-adv-x="723" 
d="M562 730q40 0 63.5 -23.5t23.5 -61.5v-645h-206v-99q-39 -21 -76 -21q-39 0 -62.5 23.5t-23.5 61.5v35h-206v709q39 21 75 21q40 0 63.5 -23.5t23.5 -61.5v-521h250v585q39 21 75 21z" />
    <glyph glyph-name="uni0410" unicode="&#x410;" horiz-adv-x="686" 
d="M517 0l-51 153h-263l-51 -153h-155l260 709q42 21 85 21q80 0 113 -88l234 -642h-172zM244 277h181l-90 290z" />
    <glyph glyph-name="uni0411" unicode="&#x411;" horiz-adv-x="637" 
d="M324 433q138 0 213.5 -60.5t75.5 -171.5q0 -101 -75.5 -156t-213.5 -55q-93 0 -249 10v720h464v-124h-302v-165q58 2 87 2zM325 114q57 0 88.5 26t31.5 72t-31.5 71.5t-88.5 25.5q-30 0 -88 -2v-191q66 -2 88 -2z" />
    <glyph glyph-name="uni0412" unicode="&#x412;" horiz-adv-x="658" 
d="M500 376q123 -51 123 -175q0 -101 -78.5 -156t-220.5 -55q-93 0 -249 10v720q176 10 229 10q137 0 213 -52.5t76 -146.5q0 -101 -93 -155zM305 606q-41 0 -68 -1v-172h68q120 0 120 87q0 86 -120 86zM325 114q62 0 96 26t34 72t-34 71.5t-96 25.5h-88v-193q66 -2 88 -2z
" />
    <glyph glyph-name="uni0413" unicode="&#x413;" horiz-adv-x="515" 
d="M499 720v-124h-262v-596h-162v720h424z" />
    <glyph glyph-name="uni0414" unicode="&#x414;" horiz-adv-x="801" 
d="M686 121h79v-220q-39 -21 -76 -21q-39 0 -62.5 23.5t-23.5 61.5v35h-431l-7 -99q-35 -21 -68 -21q-36 0 -57.5 23.5t-21.5 61.5v149q53 20 78.5 77.5t31.5 168.5l19 360h539v-599zM214 124h310v472h-237l-13 -264q-7 -137 -60 -208z" />
    <glyph glyph-name="uni0415" unicode="&#x415;" horiz-adv-x="590" 
d="M237 124h310v-124h-472v720h461v-124h-299v-165h264v-124h-264v-183z" />
    <glyph glyph-name="uni0416" unicode="&#x416;" horiz-adv-x="952" 
d="M124 730q42 0 65 -14t42 -50l161 -303l-205 -363h-181l214 376l-178 328q31 26 82 26zM472 730q40 0 63.5 -23.5t23.5 -61.5v-645h-162v709q39 21 75 21zM737 381l213 -365q-32 -26 -87 -26q-53 0 -80 15.5t-50 55.5l-169 303l184 366l156 -26z" />
    <glyph glyph-name="uni0417" unicode="&#x417;" horiz-adv-x="621" 
d="M91 552l-43 104q109 74 252 74q115 0 178.5 -48.5t63.5 -138.5q0 -60 -34 -102t-96 -56q83 -11 128 -57.5t45 -121.5q0 -103 -78 -159.5t-220 -56.5q-165 0 -277 103l59 99q79 -74 202 -74q69 0 107.5 26t38.5 75q0 48 -36 74.5t-99 26.5h-94v110h70q55 0 85.5 22
t30.5 64t-27 64t-78 22q-102 0 -178 -50z" />
    <glyph glyph-name="uni0418" unicode="&#x418;" horiz-adv-x="762" 
d="M602 730q40 0 63.5 -23.5t23.5 -61.5v-645h-162v400l-290 -303v-97h-162v709q39 21 75 21q40 0 63.5 -23.5t23.5 -61.5v-343l290 303v104q39 21 75 21z" />
    <glyph glyph-name="uni0419" unicode="&#x419;" horiz-adv-x="762" 
d="M382 794q-81 0 -126 40.5t-45 112.5h109q0 -29 16.5 -45.5t45.5 -16.5q28 0 44 16.5t16 45.5h110q0 -72 -45 -112.5t-125 -40.5zM602 730q40 0 63.5 -23.5t23.5 -61.5v-645h-162v400l-290 -303v-97h-162v709q39 21 75 21q40 0 63.5 -23.5t23.5 -61.5v-343l290 303v104
q39 21 75 21z" />
    <glyph glyph-name="uni041A" unicode="&#x41a;" horiz-adv-x="673" 
d="M150 730q40 0 63.5 -23.5t23.5 -61.5v-645h-162v709q39 21 75 21zM415 379l269 -363q-31 -26 -86 -26q-51 0 -77.5 13.5t-48.5 43.5l-230 317l233 366l151 -26z" />
    <glyph glyph-name="uni041B" unicode="&#x41b;" horiz-adv-x="757" 
d="M683 720v-720h-162v596h-245l-20 -364q-6 -100 -47 -155t-121 -87l-71 115q47 18 68.5 53t25.5 102l26 460h546z" />
    <glyph glyph-name="uni041C" unicode="&#x41c;" horiz-adv-x="940" 
d="M902 0h-165l-45 467l-155 -467h-148l-162 473l-39 -473h-148l80 709q40 21 79 21q93 0 115 -67l167 -498l171 542q32 23 76 23t65.5 -19.5t28.5 -71.5z" />
    <glyph glyph-name="uni041D" unicode="&#x41d;" horiz-adv-x="762" 
d="M602 730q40 0 63.5 -23.5t23.5 -61.5v-645h-162v302h-290v-302h-162v709q39 21 75 21q40 0 63.5 -23.5t23.5 -61.5v-218h290v282q39 21 75 21z" />
    <glyph glyph-name="uni041E" unicode="&#x41e;" horiz-adv-x="786" 
d="M394 -10q-166 0 -259.5 97.5t-93.5 272.5t93.5 272.5t259.5 97.5t259 -97.5t93 -272.5t-93 -272.5t-259 -97.5zM393 118q88 0 136 63.5t48 178.5t-48 178.5t-136 63.5t-136.5 -63.5t-48.5 -178.5t48.5 -178.5t136.5 -63.5z" />
    <glyph glyph-name="uni041F" unicode="&#x41f;" horiz-adv-x="744" 
d="M669 720v-720h-162v596h-270v-596h-162v720h594z" />
    <glyph glyph-name="uni0420" unicode="&#x420;" horiz-adv-x="640" 
d="M324 730q139 0 217 -60.5t78 -169.5q0 -112 -77.5 -173.5t-218.5 -61.5q-24 0 -86 2v-267h-162v720q142 10 249 10zM323 389q62 0 95 29.5t33 81.5q0 50 -33.5 78t-93.5 28q-21 0 -87 -2v-214q16 0 44.5 -0.5t41.5 -0.5z" />
    <glyph glyph-name="uni0421" unicode="&#x421;" horiz-adv-x="645" 
d="M568 184l63 -111q-96 -83 -259 -83q-156 0 -243.5 100t-87.5 270q0 169 83.5 269.5t231.5 100.5q175 0 256 -144l-149 -59q-40 75 -106 75t-107.5 -61.5t-41.5 -180.5t49.5 -180.5t131.5 -61.5q98 0 179 66z" />
    <glyph glyph-name="uni0422" unicode="&#x422;" horiz-adv-x="566" 
d="M546 720v-124h-182v-596h-162v596h-181v124h525z" />
    <glyph glyph-name="uni0423" unicode="&#x423;" horiz-adv-x="589" 
d="M442 730l144 -26l-224 -528q-32 -76 -90 -127t-122 -59l-68 107q89 19 136 109l19 36q-28 15 -44 52l-182 410q31 26 82 26q46 0 73.5 -16t46.5 -63l62 -149l36 -113z" />
    <glyph glyph-name="uni0424" unicode="&#x424;" horiz-adv-x="819" 
d="M786 360q0 -134 -77 -209.5t-218 -82.5v-68h-162v68q-141 6 -218.5 82t-77.5 210t77.5 210t218.5 82v57q39 21 75 21q38 0 61.5 -21t25.5 -57q141 -6 218 -82t77 -210zM200 360q0 -73 34 -116.5t95 -50.5v334q-61 -7 -95 -50.5t-34 -116.5zM491 527v-334q61 8 94.5 51.5
t33.5 115.5t-33.5 115.5t-94.5 51.5z" />
    <glyph glyph-name="uni0425" unicode="&#x425;" horiz-adv-x="661" 
d="M318 245l-152 -245h-168l237 370l-213 334q31 26 86 26q49 0 77.5 -12.5t48.5 -44.5l106 -176l140 233l158 -26l-212 -334l233 -354q-31 -26 -81 -26q-58 0 -86.5 12.5t-49.5 44.5z" />
    <glyph glyph-name="uni0426" unicode="&#x426;" horiz-adv-x="764" 
d="M649 121h80v-220q-39 -21 -76 -21q-39 0 -62.5 23.5t-23.5 61.5v35h-492v709q39 21 75 21q40 0 63.5 -23.5t23.5 -61.5v-521h250v585q39 21 75 21q40 0 63.5 -23.5t23.5 -61.5v-524z" />
    <glyph glyph-name="uni0427" unicode="&#x427;" horiz-adv-x="695" 
d="M458 720h162v-720h-162v326q-76 -113 -207 -113q-96 0 -149 63t-53 175v258q39 21 75 21q40 0 63.5 -23.5t23.5 -61.5v-160q0 -68 23 -106t67 -38q73 0 115 56t42 166v157z" />
    <glyph glyph-name="uni0428" unicode="&#x428;" horiz-adv-x="1056" 
d="M896 730q40 0 63.5 -23.5t23.5 -61.5v-645h-908v709q39 21 75 21q40 0 63.5 -23.5t23.5 -61.5v-521h210v585q39 21 75 21q40 0 63.5 -23.5t23.5 -61.5v-521h212v585q39 21 75 21z" />
    <glyph glyph-name="uni0429" unicode="&#x429;" horiz-adv-x="1098" 
d="M983 121h79v-220q-39 -21 -76 -21q-39 0 -62.5 23.5t-23.5 61.5v35h-825v709q39 21 75 21q40 0 63.5 -23.5t23.5 -61.5v-521h210v585q39 21 75 21q40 0 63.5 -23.5t23.5 -61.5v-521h212v585q39 21 75 21q40 0 63.5 -23.5t23.5 -61.5v-524z" />
    <glyph glyph-name="uni042A" unicode="&#x42a;" horiz-adv-x="728" 
d="M416 433q138 0 213.5 -60.5t75.5 -171.5q0 -101 -75.5 -156t-213.5 -55q-93 0 -249 10v596h-152v124h314v-289q58 2 87 2zM417 114q57 0 88.5 26t31.5 72t-31.5 71.5t-88.5 25.5q-30 0 -88 -2v-191q66 -2 88 -2z" />
    <glyph glyph-name="uni042B" unicode="&#x42b;" horiz-adv-x="946" 
d="M324 433q138 0 213.5 -60.5t75.5 -171.5q0 -101 -75.5 -156t-213.5 -55q-93 0 -249 10v709q39 21 75 21q40 0 63.5 -23.5t23.5 -61.5v-214q58 2 87 2zM786 730q40 0 63.5 -23.5t23.5 -61.5v-645h-162v709q39 21 75 21zM325 114q57 0 88.5 26t31.5 72t-31.5 71.5
t-88.5 25.5q-30 0 -88 -2v-191q66 -2 88 -2z" />
    <glyph glyph-name="uni042C" unicode="&#x42c;" horiz-adv-x="636" 
d="M324 433q138 0 213.5 -60.5t75.5 -171.5q0 -101 -75.5 -156t-213.5 -55q-93 0 -249 10v709q39 21 75 21q40 0 63.5 -23.5t23.5 -61.5v-214q58 2 87 2zM325 114q57 0 88.5 26t31.5 72t-31.5 71.5t-88.5 25.5q-30 0 -88 -2v-191q66 -2 88 -2z" />
    <glyph glyph-name="uni042D" unicode="&#x42d;" horiz-adv-x="647" 
d="M292 730q147 0 230.5 -100.5t83.5 -269.5q0 -170 -87.5 -270t-243.5 -100q-77 0 -145.5 22t-112.5 61l63 111q80 -66 179 -66q72 0 118.5 46.5t58.5 138.5h-248v125h247q-11 86 -49.5 130t-94.5 44q-68 0 -106 -75l-150 59q83 144 257 144z" />
    <glyph glyph-name="uni042E" unicode="&#x42e;" horiz-adv-x="1000" 
d="M636 730q152 0 237 -97.5t85 -272.5t-85 -272.5t-237 -97.5q-135 0 -216.5 81.5t-95.5 231.5h-87v-303h-162v709q39 21 75 21q40 0 63.5 -23.5t23.5 -61.5v-217h89q16 145 96 223.5t214 78.5zM636 118q72 0 113 64t41 178t-41 178t-113 64q-73 0 -113.5 -63.5
t-40.5 -178.5t40.5 -178.5t113.5 -63.5z" />
    <glyph glyph-name="uni042F" unicode="&#x42f;" horiz-adv-x="686" 
d="M374 730q127 0 237 -10v-720h-162v293q-32 -4 -69 -4h-9l-197 -289h-175l217 313q-149 54 -149 197q0 104 80.5 162t226.5 58zM449 405v197q-24 1 -71 1q-69 0 -106.5 -26.5t-37.5 -74.5t38 -74.5t108 -26.5q38 0 69 4z" />
    <glyph glyph-name="uni0430" unicode="&#x430;" horiz-adv-x="539" 
d="M269 516q103 0 160 -49.5t57 -140.5v-315q-47 -21 -83 -21q-29 0 -47 21t-20 57q-54 -78 -151 -78q-76 0 -119 41.5t-43 113.5q0 80 64 124t182 44q41 0 62 -1q-2 45 -21.5 66.5t-66.5 21.5q-68 0 -129 -40l-62 96q98 60 217 60zM228 104q44 0 73.5 29.5t29.5 89.5
q-21 1 -58 1q-103 0 -103 -65q0 -25 14.5 -40t43.5 -15z" />
    <glyph glyph-name="uni0431" unicode="&#x431;" horiz-adv-x="620" 
d="M353 516q109 0 170 -69.5t61 -193.5q0 -125 -71 -194t-199 -69t-198.5 78.5t-70.5 220.5q0 225 68.5 332.5t201.5 128.5l195 30q33 -37 33 -76q0 -23 -21.5 -40t-57.5 -23l-134 -23q-62 -11 -96.5 -48.5t-47.5 -130.5q55 77 167 77zM315 113q53 0 82.5 37t29.5 103
t-29.5 103.5t-82.5 37.5t-82.5 -37.5t-29.5 -103.5t29.5 -103t82.5 -37z" />
    <glyph glyph-name="uni0432" unicode="&#x432;" horiz-adv-x="546" 
d="M421 260q91 -31 91 -112q0 -75 -59.5 -116.5t-167.5 -41.5q-146 0 -226 10v506q74 10 213 10q105 0 163 -40t58 -112q0 -70 -72 -104zM274 404h-61v-109h61q32 0 50 15t18 40q0 24 -18 39t-50 15zM287 102q33 0 52.5 16t19.5 44q0 27 -19.5 42.5t-52.5 15.5h-74v-117
q23 -1 74 -1z" />
    <glyph glyph-name="uni0433" unicode="&#x433;" horiz-adv-x="440" 
d="M423 506v-116h-209v-390h-155v506h364z" />
    <glyph glyph-name="uni0434" unicode="&#x434;" horiz-adv-x="647" 
d="M544 114h73v-213q-47 -21 -83 -21q-34 0 -53 24.5t-19 63.5v32h-294l-7 -99q-44 -21 -76 -21q-31 0 -48 24t-17 64v140q45 20 68 58.5t28 111.5l15 228h413v-392zM203 114h186v277h-129l-9 -141q-6 -84 -48 -136z" />
    <glyph glyph-name="uni0435" unicode="&#x435;" horiz-adv-x="541" 
d="M299 106q84 0 143 40l61 -97q-95 -59 -215 -59t-186.5 66t-66.5 185q0 130 70 202.5t198 72.5q95 0 148 -45t53 -124q0 -76 -65.5 -118.5t-182.5 -42.5q-35 0 -66 4q17 -84 109 -84zM288 396q-42 0 -68.5 -31t-32.5 -88q34 -3 67 -3q100 0 100 66q0 56 -66 56z" />
    <glyph glyph-name="uni0436" unicode="&#x436;" horiz-adv-x="826" 
d="M115 516q66 0 95 -49l124 -202l-164 -265h-163l171 268l-147 225q38 23 84 23zM420 516q35 0 53.5 -19.5t18.5 -52.5v-444h-155v495q47 21 83 21zM653 278l169 -265q-34 -23 -84 -23q-81 0 -109 49l-134 227l155 250l138 -23z" />
    <glyph glyph-name="uni0437" unicode="&#x437;" horiz-adv-x="473" 
d="M80 370l-40 95q89 51 190 51q85 0 132.5 -35t47.5 -101q0 -39 -25 -68.5t-70 -41.5q60 -9 92.5 -42.5t32.5 -84.5q0 -72 -59.5 -112.5t-166.5 -40.5q-116 0 -202 74l54 89q54 -47 133 -47q40 0 62 14t22 39q0 53 -72 53h-70v97h52q60 0 60 45q0 46 -64 46q-62 0 -109 -30
z" />
    <glyph glyph-name="uni0438" unicode="&#x438;" horiz-adv-x="599" 
d="M468 516q35 0 53.5 -19.5t18.5 -52.5v-444h-155v250l-171 -154v-96h-155v495q47 21 83 21q35 0 53.5 -19.5t18.5 -52.5v-188l171 154v85q47 21 83 21z" />
    <glyph glyph-name="uni0439" unicode="&#x439;" horiz-adv-x="599" 
d="M301 580q-81 0 -126 40.5t-45 112.5h109q0 -29 16.5 -45.5t45.5 -16.5q28 0 44 16.5t16 45.5h110q0 -72 -45 -112.5t-125 -40.5zM468 516q35 0 53.5 -19.5t18.5 -52.5v-444h-155v250l-171 -154v-96h-155v495q47 21 83 21q35 0 53.5 -19.5t18.5 -52.5v-188l171 154v85
q47 21 83 21z" />
    <glyph glyph-name="uni043A" unicode="&#x43a;" horiz-adv-x="590" 
d="M142 516q35 0 53.5 -19.5t18.5 -52.5v-444h-155v495q47 21 83 21zM383 277l217 -264q-40 -23 -100 -23q-72 0 -109 49l-174 227l195 250l143 -23z" />
    <glyph glyph-name="uni043B" unicode="&#x43b;" horiz-adv-x="584" 
d="M525 506v-506h-155v391h-132l-13 -211q-6 -78 -41.5 -122t-100.5 -68l-69 104q68 24 73 114l20 298h418z" />
    <glyph glyph-name="uni043C" unicode="&#x43c;" horiz-adv-x="705" 
d="M673 0h-154l-30 318l-95 -318h-114l-92 316l-32 -316h-120l56 496q35 20 74 20q86 0 105 -56l91 -290l94 326q36 20 74 20q41 0 61 -17t26 -63z" />
    <glyph glyph-name="uni043D" unicode="&#x43d;" horiz-adv-x="599" 
d="M468 516q35 0 53.5 -19.5t18.5 -52.5v-444h-155v200h-171v-200h-155v495q47 21 83 21q35 0 53.5 -19.5t18.5 -52.5v-127h171v178q47 21 83 21z" />
    <glyph glyph-name="uni043E" unicode="&#x43e;" horiz-adv-x="610" 
d="M304 -10q-128 0 -198.5 69t-70.5 194t70.5 194t198.5 69t199 -69t71 -194t-71 -194t-199 -69zM305 113q53 0 82.5 37t29.5 103t-29.5 103.5t-82.5 37.5t-82.5 -37.5t-29.5 -103.5t29.5 -103t82.5 -37z" />
    <glyph glyph-name="uni043F" unicode="&#x43f;" horiz-adv-x="602" 
d="M543 506v-506h-155v390h-174v-390h-155v506h484z" />
    <glyph glyph-name="uni0440" unicode="&#x440;" horiz-adv-x="605" 
d="M374 516q88 0 141 -66t53 -181q0 -133 -73.5 -206t-205.5 -73q-17 0 -75 2v-222h-155v725q47 21 83 21q30 0 47.5 -21.5t19.5 -58.5q57 80 165 80zM274 105q64 0 100.5 43t36.5 121q0 60 -24.5 92.5t-69.5 32.5q-103 0 -103 -142v-146q23 -1 60 -1z" />
    <glyph glyph-name="uni0441" unicode="&#x441;" horiz-adv-x="514" 
d="M447 156l49 -108q-81 -58 -198 -58q-124 0 -193 69.5t-69 194.5q0 121 70 191.5t179 70.5q26 0 52.5 -6t55 -20.5t52 -44.5t34.5 -71l-113 -45q-22 65 -73 65q-48 0 -74 -37t-26 -103t31.5 -103.5t86.5 -37.5q80 0 136 43z" />
    <glyph glyph-name="uni0442" unicode="&#x442;" horiz-adv-x="464" 
d="M446 506v-116h-137v-390h-155v390h-135v116h427z" />
    <glyph glyph-name="uni0443" unicode="&#x443;" horiz-adv-x="552" 
d="M392 516l146 -23l-196 -547q-27 -77 -77 -127.5t-105 -58.5l-63 99q36 6 71 38.5t48 78.5l10 31q-37 14 -53 57l-156 429q44 23 89 23q69 0 93 -72l52 -165l37 -158l37 158z" />
    <glyph glyph-name="uni0444" unicode="&#x444;" horiz-adv-x="855" 
d="M645 516q81 0 127.5 -65.5t46.5 -181.5q0 -132 -68.5 -205.5t-190.5 -73.5q-32 0 -55 1v-221h-155v285q-53 -65 -139 -65q-81 0 -128 65.5t-47 181.5q0 133 68.5 206t191.5 73q27 0 54 -7v250q47 21 83 21q35 0 53.5 -19.5t18.5 -52.5v-259q51 67 140 67zM268 113
q82 0 82 140v143q-28 5 -39 5q-55 0 -86.5 -43t-31.5 -121q0 -59 19.5 -91.5t55.5 -32.5zM545 105q55 0 86 43t31 121q0 60 -19 92.5t-55 32.5q-83 0 -83 -142v-146q16 -1 40 -1z" />
    <glyph glyph-name="uni0445" unicode="&#x445;" horiz-adv-x="540" 
d="M262 160l-104 -160h-159l181 258l-155 235q48 23 94 23q35 0 57 -11t40 -39l65 -98l95 148l141 -23l-157 -233l174 -247q-33 -23 -82 -23q-81 0 -112 49z" />
    <glyph glyph-name="uni0446" unicode="&#x446;" horiz-adv-x="635" 
d="M533 114h72v-213q-47 -21 -83 -21q-34 0 -53 24.5t-19 63.5v32h-391v495q47 21 83 21q35 0 53.5 -19.5t18.5 -52.5v-328h164v379q47 21 83 21q35 0 53.5 -19.5t18.5 -52.5v-330z" />
    <glyph glyph-name="uni0447" unicode="&#x447;" horiz-adv-x="561" 
d="M347 506h155v-506h-155v207q-54 -70 -144 -70q-78 0 -120 44.5t-42 125.5v188q47 21 83 21q35 0 53.5 -19.5t18.5 -52.5v-110q0 -34 15 -54t42 -20q47 0 70.5 32t23.5 108v106z" />
    <glyph glyph-name="uni0448" unicode="&#x448;" horiz-adv-x="842" 
d="M711 516q35 0 53.5 -19.5t18.5 -52.5v-444h-724v495q47 21 83 21q35 0 53.5 -19.5t18.5 -52.5v-328h129v379q47 21 83 21q35 0 53.5 -19.5t18.5 -52.5v-328h130v379q47 21 83 21z" />
    <glyph glyph-name="uni0449" unicode="&#x449;" horiz-adv-x="885" 
d="M783 114h72v-213q-47 -21 -83 -21q-34 0 -53 24.5t-19 63.5v32h-641v495q47 21 83 21q35 0 53.5 -19.5t18.5 -52.5v-328h129v379q47 21 83 21q35 0 53.5 -19.5t18.5 -52.5v-328h130v379q47 21 83 21q35 0 53.5 -19.5t18.5 -52.5v-330z" />
    <glyph glyph-name="uni044A" unicode="&#x44a;" horiz-adv-x="581" 
d="M318 351q114 0 177 -48t63 -133t-62.5 -132.5t-174.5 -47.5q-119 0 -203 10v391h-98v115h253v-156q15 1 45 1zM273 96h48q39 0 61 19.5t22 54.5t-22.5 54.5t-63.5 19.5q-30 0 -45 -1v-147z" />
    <glyph glyph-name="uni044B" unicode="&#x44b;" horiz-adv-x="773" 
d="M259 351q114 0 177 -48t63 -133t-62.5 -132.5t-174.5 -47.5q-119 0 -203 10v495q47 21 83 21q35 0 53.5 -19.5t18.5 -52.5v-94q15 1 45 1zM643 516q35 0 53.5 -19.5t18.5 -52.5v-444h-155v495q47 21 83 21zM214 96h48q39 0 61 19.5t22 54.5t-22.5 54.5t-63.5 19.5
q-30 0 -45 -1v-147z" />
    <glyph glyph-name="uni044C" unicode="&#x44c;" horiz-adv-x="522" 
d="M259 351q114 0 177 -48t63 -133t-62.5 -132.5t-174.5 -47.5q-119 0 -203 10v495q47 21 83 21q35 0 53.5 -19.5t18.5 -52.5v-94q15 1 45 1zM214 96h48q39 0 61 19.5t22 54.5t-22.5 54.5t-63.5 19.5q-30 0 -45 -1v-147z" />
    <glyph glyph-name="uni044D" unicode="&#x44d;" horiz-adv-x="514" 
d="M214 516q115 0 189.5 -70.5t74.5 -191.5q0 -125 -69 -194.5t-193 -69.5q-118 0 -198 58l47 107q48 -42 125 -42q102 0 126 96h-123v94h122q-23 91 -121 91q-58 0 -112 -45l-47 102q80 65 179 65z" />
    <glyph glyph-name="uni044E" unicode="&#x44e;" horiz-adv-x="786" 
d="M506 516q115 0 179.5 -69.5t64.5 -193.5t-64.5 -193.5t-179.5 -69.5q-96 0 -155.5 52.5t-73.5 149.5h-63v-192h-155v495q47 21 83 21q35 0 53.5 -19.5t18.5 -52.5v-130h63q14 97 73.5 149.5t155.5 52.5zM506 113q42 0 64.5 37t22.5 103q0 67 -22.5 104t-64.5 37
t-64.5 -37t-22.5 -104q0 -66 22.5 -103t64.5 -37z" />
    <glyph glyph-name="uni044F" unicode="&#x44f;" horiz-adv-x="560" 
d="M295 516q88 0 206 -10v-506h-153v176q-16 -1 -48 -1h-20l-106 -175h-163l131 211q-81 48 -81 140q0 78 61.5 121.5t172.5 43.5zM348 277v134h-49q-40 0 -62.5 -18t-22.5 -50t22.5 -49.5t63.5 -17.5q32 0 48 1z" />
    <glyph glyph-name="uni0450" unicode="&#x450;" horiz-adv-x="541" 
d="M393 647l-42 -74l-221 97l75 124zM299 106q84 0 143 40l61 -97q-95 -59 -215 -59t-186.5 66t-66.5 185q0 130 70 202.5t198 72.5q95 0 148 -45t53 -124q0 -76 -65.5 -118.5t-182.5 -42.5q-35 0 -66 4q17 -84 109 -84zM288 396q-42 0 -68.5 -31t-32.5 -88q34 -3 67 -3
q100 0 100 66q0 56 -66 56z" />
    <glyph glyph-name="uni0451" unicode="&#x451;" horiz-adv-x="541" 
d="M189 584q-40 0 -63 22t-23 61t23 60t63 21t63 -21t23 -60t-23 -61t-63 -22zM396 584q-40 0 -63 22t-23 61t23 60t63 21t63 -21t23 -60t-23 -61t-63 -22zM299 106q84 0 143 40l61 -97q-95 -59 -215 -59t-186.5 66t-66.5 185q0 130 70 202.5t198 72.5q95 0 148 -45t53 -124
q0 -76 -65.5 -118.5t-182.5 -42.5q-35 0 -66 4q17 -84 109 -84zM288 396q-42 0 -68.5 -31t-32.5 -88q34 -3 67 -3q100 0 100 66q0 56 -66 56z" />
    <glyph glyph-name="uni0452" unicode="&#x452;" horiz-adv-x="605" 
d="M373 516q85 0 131 -49.5t46 -140.5v-376q0 -137 -139 -190l-69 111q53 19 53 107v321q0 45 -18.5 70t-53.5 25q-53 0 -81 -33t-28 -109v-252h-155v583h-60v117h60v59q47 21 83 21q35 0 53.5 -19.5t18.5 -52.5v-8h161v-117h-161v-142q58 75 159 75z" />
    <glyph glyph-name="uni0453" unicode="&#x453;" horiz-adv-x="440" 
d="M387 670l-221 -97l-42 74l188 147zM423 506v-116h-209v-390h-155v506h364z" />
    <glyph glyph-name="uni0454" unicode="&#x454;" horiz-adv-x="514" 
d="M449 155l47 -107q-80 -58 -198 -58q-124 0 -193 69.5t-69 194.5q0 121 74.5 191.5t189.5 70.5q99 0 179 -65l-47 -102q-54 45 -112 45q-98 0 -121 -91h122v-94h-123q24 -96 126 -96q77 0 125 42z" />
    <glyph glyph-name="uni0455" unicode="&#x455;" horiz-adv-x="493" 
d="M253 516q115 0 198 -58l-56 -86q-70 36 -137 36q-62 0 -62 -35q0 -20 21 -32.5t66 -26.5q39 -12 65.5 -23t55 -29.5t43 -46.5t14.5 -64q0 -75 -58 -118t-160 -43q-137 0 -215 62l41 97q70 -49 167 -49q74 0 74 40q0 19 -24 31t-73 26q-34 10 -59 20.5t-52.5 29t-42 46
t-14.5 62.5q0 76 55.5 118.5t152.5 42.5z" />
    <glyph glyph-name="uni0456" unicode="&#x456;" horiz-adv-x="273" 
d="M135 584q40 0 63 22t23 61t-23 60t-63 21t-63 -21t-23 -60t23 -61t63 -22zM59 0v506h155v-506h-155z" />
    <glyph glyph-name="uni0457" unicode="&#x457;" horiz-adv-x="273" 
d="M34 584q-40 0 -63 22t-23 61t23 60t63 21t63 -21t23 -60t-23 -61t-63 -22zM241 584q-40 0 -63 22t-23 61t23 60t63 21t63 -21t23 -60t-23 -61t-63 -22zM59 506h155v-506h-155v506z" />
    <glyph glyph-name="uni0458" unicode="&#x458;" horiz-adv-x="273" 
d="M136 584q40 0 63 22t23 61t-23 60t-63 21t-63 -21t-23 -60t23 -61t63 -22zM76 -240l-69 111q52 18 52 107v528h155v-556q0 -137 -138 -190z" />
    <glyph glyph-name="uni0459" unicode="&#x459;" horiz-adv-x="831" 
d="M570 351q114 0 177 -48t63 -133t-62.5 -132.5t-174.5 -47.5q-119 0 -203 10v391h-132l-13 -211q-6 -78 -41.5 -122t-100.5 -68l-69 104q68 24 73 114l20 298h418v-156q15 1 45 1zM525 96h48q39 0 61 19.5t22 54.5t-22.5 54.5t-63.5 19.5q-30 0 -45 -1v-147z" />
    <glyph glyph-name="uni045A" unicode="&#x45a;" horiz-adv-x="846" 
d="M585 351q114 0 177 -48t63 -133t-62.5 -132.5t-174.5 -47.5q-119 0 -203 10v200h-171v-200h-155v495q47 21 83 21q35 0 53.5 -19.5t18.5 -52.5v-127h171v178q47 21 83 21q35 0 53.5 -19.5t18.5 -52.5v-94q15 1 45 1zM540 96h48q39 0 61 19.5t22 54.5t-22.5 54.5
t-63.5 19.5q-30 0 -45 -1v-147z" />
    <glyph glyph-name="uni045B" unicode="&#x45b;" horiz-adv-x="605" 
d="M373 516q85 0 131 -49.5t46 -140.5v-326h-155v299q0 45 -18.5 70t-53.5 25q-53 0 -81 -33t-28 -109v-252h-155v583h-60v117h60v59q47 21 83 21q35 0 53.5 -19.5t18.5 -52.5v-8h161v-117h-161v-142q58 75 159 75z" />
    <glyph glyph-name="uni045C" unicode="&#x45c;" horiz-adv-x="590" 
d="M470 670l-221 -97l-42 74l188 147zM142 516q35 0 53.5 -19.5t18.5 -52.5v-444h-155v495q47 21 83 21zM383 277l217 -264q-40 -23 -100 -23q-72 0 -109 49l-174 227l195 250l143 -23z" />
    <glyph glyph-name="uni045D" unicode="&#x45d;" horiz-adv-x="599" 
d="M401 647l-42 -74l-221 97l75 124zM468 516q35 0 53.5 -19.5t18.5 -52.5v-444h-155v250l-171 -154v-96h-155v495q47 21 83 21q35 0 53.5 -19.5t18.5 -52.5v-188l171 154v85q47 21 83 21z" />
    <glyph glyph-name="uni045E" unicode="&#x45e;" horiz-adv-x="552" 
d="M279 580q-81 0 -126 40.5t-45 112.5h109q0 -29 16.5 -45.5t45.5 -16.5q28 0 44 16.5t16 45.5h110q0 -72 -45 -112.5t-125 -40.5zM392 516l146 -23l-196 -547q-27 -77 -77 -127.5t-105 -58.5l-63 99q36 6 71 38.5t48 78.5l10 31q-37 14 -53 57l-156 429q44 23 89 23
q69 0 93 -72l52 -165l37 -158l37 158z" />
    <glyph glyph-name="uni045F" unicode="&#x45f;" horiz-adv-x="592" 
d="M461 516q35 0 53.5 -19.5t18.5 -52.5v-444h-160v-99q-47 -21 -83 -21q-34 0 -53 24.5t-19 63.5v32h-159v495q47 21 83 21q35 0 53.5 -19.5t18.5 -52.5v-328h164v379q47 21 83 21z" />
    <glyph glyph-name="uni0490" unicode="&#x490;" horiz-adv-x="515" 
d="M413 840q39 0 62.5 -24.5t23.5 -63.5v-156h-262v-596h-162v720h261v99q39 21 77 21z" />
    <glyph glyph-name="uni0491" unicode="&#x491;" horiz-adv-x="436" 
d="M351 626q34 0 53 -24t19 -64v-148h-209v-390h-155v506h209v99q47 21 83 21z" />
    <glyph glyph-name="Wgrave" unicode="&#x1e80;" horiz-adv-x="1014" 
d="M606 861l-42 -74l-221 97l75 124zM856 730l147 -26l-203 -704h-173l-92 374l-30 161l-28 -160l-89 -375h-169l-212 704q31 26 82 26q45 0 70 -15t38 -64l97 -362l27 -132l23 143l94 404q31 26 87 26q37 0 64.5 -23.5t36.5 -63.5l80 -369l19 -123l26 133z" />
    <glyph glyph-name="wgrave" unicode="&#x1e81;" horiz-adv-x="832" 
d="M517 647l-42 -74l-221 97l75 124zM683 516l136 -23l-163 -493h-156l-72 261l-13 69l-12 -64l-67 -266h-158l-166 493q40 23 89 23q74 0 93 -72l52 -196l25 -129l30 136l61 238q29 23 67 23q59 0 79 -72l52 -197l23 -118l28 122z" />
    <glyph glyph-name="Wacute" unicode="&#x1e82;" horiz-adv-x="1014" 
d="M668 884l-221 -97l-42 74l188 147zM856 730l147 -26l-203 -704h-173l-92 374l-30 161l-28 -160l-89 -375h-169l-212 704q31 26 82 26q45 0 70 -15t38 -64l97 -362l27 -132l23 143l94 404q31 26 87 26q37 0 64.5 -23.5t36.5 -63.5l80 -369l19 -123l26 133z" />
    <glyph glyph-name="wacute" unicode="&#x1e83;" horiz-adv-x="832" 
d="M579 670l-221 -97l-42 74l188 147zM683 516l136 -23l-163 -493h-156l-72 261l-13 69l-12 -64l-67 -266h-158l-166 493q40 23 89 23q74 0 93 -72l52 -196l25 -129l30 136l61 238q29 23 67 23q59 0 79 -72l52 -197l23 -118l28 122z" />
    <glyph glyph-name="Wdieresis" unicode="&#x1e84;" horiz-adv-x="1014" 
d="M402 798q-40 0 -63 22t-23 61t23 60t63 21t63 -21t23 -60t-23 -61t-63 -22zM609 798q-40 0 -63 22t-23 61t23 60t63 21t63 -21t23 -60t-23 -61t-63 -22zM856 730l147 -26l-203 -704h-173l-92 374l-30 161l-28 -160l-89 -375h-169l-212 704q31 26 82 26q45 0 70 -15
t38 -64l97 -362l27 -132l23 143l94 404q31 26 87 26q37 0 64.5 -23.5t36.5 -63.5l80 -369l19 -123l26 133z" />
    <glyph glyph-name="wdieresis" unicode="&#x1e85;" horiz-adv-x="832" 
d="M313 584q-40 0 -63 22t-23 61t23 60t63 21t63 -21t23 -60t-23 -61t-63 -22zM520 584q-40 0 -63 22t-23 61t23 60t63 21t63 -21t23 -60t-23 -61t-63 -22zM683 516l136 -23l-163 -493h-156l-72 261l-13 69l-12 -64l-67 -266h-158l-166 493q40 23 89 23q74 0 93 -72l52 -196
l25 -129l30 136l61 238q29 23 67 23q59 0 79 -72l52 -197l23 -118l28 122z" />
    <glyph glyph-name="Germandbls" unicode="&#x1e9e;" horiz-adv-x="727" 
d="M662 599l-125 -187q158 -94 158 -218q0 -97 -65 -150.5t-182 -53.5q-97 0 -178 51l50 108q42 -31 112 -31q45 0 70 20t25 57q0 43 -43.5 80t-146.5 80l141 217q-42 30 -109 30q-70 0 -108.5 -38t-38.5 -107v-457h-154v468q0 125 79.5 193.5t221.5 68.5q91 0 171.5 -35
t121.5 -96z" />
    <glyph glyph-name="Ygrave" unicode="&#x1ef2;" horiz-adv-x="640" 
d="M424 861l-42 -74l-221 97l75 124zM632 704l-231 -424v-280h-162v279l-233 425q31 26 88 26q46 0 72 -12.5t43 -44.5l89 -176l37 -90l36 94l111 229z" />
    <glyph glyph-name="ygrave" unicode="&#x1ef3;" horiz-adv-x="552" 
d="M379 647l-42 -74l-221 97l75 124zM392 516l146 -23l-196 -547q-27 -77 -77 -127.5t-105 -58.5l-63 99q36 6 71 38.5t48 78.5l10 31q-37 14 -53 57l-156 429q44 23 89 23q69 0 93 -72l52 -165l37 -158l37 158z" />
    <glyph glyph-name="endash" unicode="&#x2013;" horiz-adv-x="615" 
d="M56 321h502v-129h-502v129z" />
    <glyph glyph-name="emdash" unicode="&#x2014;" horiz-adv-x="901" 
d="M56 321h788v-129h-788v129z" />
    <glyph glyph-name="quoteleft" unicode="&#x2018;" horiz-adv-x="265" 
d="M154 597q72 0 72 -85q0 -45 -24.5 -70t-69.5 -25q-44 0 -69 33.5t-25 92.5q0 70 38 120t113 67l21 -38q-49 -14 -72.5 -38.5t-32.5 -64.5q27 8 49 8z" />
    <glyph glyph-name="quoteright" unicode="&#x2019;" horiz-adv-x="264" 
d="M135 730q44 0 69 -33.5t25 -92.5q0 -70 -38 -120t-113 -67l-21 38q49 14 72.5 38.5t32.5 64.5q-27 -8 -49 -8q-72 0 -72 85q0 45 24.5 70t69.5 25z" />
    <glyph glyph-name="quotesinglbase" unicode="&#x201a;" horiz-adv-x="275" 
d="M138 170q44 0 69 -33.5t25 -92.5q0 -70 -38 -120t-113 -67l-21 38q49 14 72.5 38.5t32.5 64.5q-27 -8 -49 -8q-72 0 -72 85q0 45 24.5 70t69.5 25z" />
    <glyph glyph-name="quotedblleft" unicode="&#x201c;" horiz-adv-x="487" 
d="M153 597q72 0 72 -85q0 -45 -24.5 -70t-69.5 -25q-44 0 -69 33.5t-25 92.5q0 70 38 120t113 67l21 -38q-49 -14 -72.5 -38.5t-32.5 -64.5q27 8 49 8zM375 597q72 0 72 -85q0 -45 -24.5 -70t-69.5 -25q-44 0 -69 33.5t-25 92.5q0 70 38 120t113 67l21 -38
q-49 -14 -72.5 -38.5t-32.5 -64.5q27 8 49 8z" />
    <glyph glyph-name="quotedblright" unicode="&#x201d;" horiz-adv-x="486" 
d="M135 730q44 0 69 -33.5t25 -92.5q0 -70 -38 -120t-113 -67l-21 38q49 14 72.5 38.5t32.5 64.5q-27 -8 -49 -8q-72 0 -72 85q0 45 24.5 70t69.5 25zM357 730q44 0 69 -33.5t25 -92.5q0 -70 -38 -120t-113 -67l-21 38q49 14 72.5 38.5t32.5 64.5q-27 -8 -49 -8
q-72 0 -72 85q0 45 24.5 70t69.5 25z" />
    <glyph glyph-name="quotedblbase" unicode="&#x201e;" horiz-adv-x="496" 
d="M138 170q44 0 69 -33.5t25 -92.5q0 -70 -38 -120t-113 -67l-21 38q49 14 72.5 38.5t32.5 64.5q-27 -8 -49 -8q-72 0 -72 85q0 45 24.5 70t69.5 25zM360 170q44 0 69 -33.5t25 -92.5q0 -70 -38 -120t-113 -67l-21 38q49 14 72.5 38.5t32.5 64.5q-27 -8 -49 -8
q-72 0 -72 85q0 45 24.5 70t69.5 25z" />
    <glyph glyph-name="dagger" unicode="&#x2020;" horiz-adv-x="526" 
d="M483 506v-124h-139v-612h-162v612h-139v124h139v264h162v-264h139z" />
    <glyph glyph-name="daggerdbl" unicode="&#x2021;" horiz-adv-x="526" 
d="M483 382h-139v-176h139v-124h-139v-312h-162v312h-139v124h139v176h-139v124h139v264h162v-264h139v-124z" />
    <glyph glyph-name="bullet" unicode="&#x2022;" horiz-adv-x="399" 
d="M199 173q-63 0 -97 32t-34 90t34 90.5t97 32.5t97.5 -32.5t34.5 -90.5t-34.5 -90t-97.5 -32z" />
    <glyph glyph-name="ellipsis" unicode="&#x2026;" horiz-adv-x="741" 
d="M137 -10q-45 0 -69.5 24t-24.5 66t24.5 66t69.5 24q44 0 68.5 -24t24.5 -66t-24.5 -66t-68.5 -24zM371 -10q-45 0 -69.5 24t-24.5 66t24.5 66t69.5 24q44 0 68.5 -24t24.5 -66t-24.5 -66t-68.5 -24zM605 -10q-45 0 -69.5 24t-24.5 66t24.5 66t69.5 24q44 0 68.5 -24
t24.5 -66t-24.5 -66t-68.5 -24z" />
    <glyph glyph-name="perthousand" unicode="&#x2030;" horiz-adv-x="1039" 
d="M182 308q-69 0 -107.5 41.5t-38.5 116.5t38.5 117.5t107.5 42.5t107.5 -42.5t38.5 -117.5t-38.5 -116.5t-107.5 -41.5zM115 42l414 584l82 -51l-414 -585zM182 390q42 0 42 76q0 77 -42 77q-20 0 -31.5 -20.5t-11.5 -56.5q0 -76 43 -76zM546 -10q-69 0 -107.5 41.5
t-38.5 116.5t38.5 117.5t107.5 42.5t107.5 -42.5t38.5 -117.5t-38.5 -116.5t-107.5 -41.5zM863 -10q-69 0 -107.5 41.5t-38.5 116.5t38.5 117.5t107.5 42.5t107.5 -42.5t38.5 -117.5t-38.5 -116.5t-107.5 -41.5zM546 72q42 0 42 76t-42 76q-43 0 -43 -76t43 -76zM863 72
q42 0 42 76t-42 76q-43 0 -43 -76t43 -76z" />
    <glyph glyph-name="guilsinglleft" unicode="&#x2039;" horiz-adv-x="340" 
d="M31 250l161 247l111 -65l-104 -182l104 -182l-111 -65z" />
    <glyph glyph-name="guilsinglright" unicode="&#x203a;" horiz-adv-x="340" 
d="M309 250l-161 -247l-111 65l104 182l-104 182l111 65z" />
    <glyph glyph-name="fraction" unicode="&#x2044;" horiz-adv-x="246" 
d="M-152 43l461 687l87 -53l-461 -687z" />
    <glyph glyph-name="uni2070" unicode="&#x2070;" horiz-adv-x="424" 
d="M212 332q-86 0 -134 58t-48 164t48 164t134 58q85 0 133.5 -58.5t48.5 -163.5t-48.5 -163.5t-133.5 -58.5zM211 420q31 0 47.5 35.5t16.5 98.5t-16.5 98.5t-47.5 35.5t-47.5 -35.5t-16.5 -98.5t16.5 -98.5t47.5 -35.5z" />
    <glyph glyph-name="uni2074" unicode="&#x2074;" horiz-adv-x="388" 
d="M369 510v-86h-56v-86h-114v86h-182v74l151 278l98 -27l-135 -239h74v51l108 40v-91h56z" />
    <glyph glyph-name="uni2075" unicode="&#x2075;" horiz-adv-x="384" 
d="M169 618l32 -2q76 -5 117.5 -41t41.5 -94q0 -71 -47.5 -110t-135.5 -39q-95 0 -162 49l42 75q56 -36 114 -36q74 0 74 54q0 50 -72 55l-127 6l27 235h251v-86h-143z" />
    <glyph glyph-name="uni2076" unicode="&#x2076;" horiz-adv-x="395" 
d="M217 619q72 0 111 -36.5t39 -102.5q0 -70 -43.5 -109t-123.5 -39q-81 0 -125.5 56.5t-44.5 159.5q0 108 53.5 168t148.5 60q65 0 126 -34l-30 -82q-35 28 -82 28q-76 0 -96 -84q32 15 67 15zM204 420q47 0 47 58q0 30 -15 48t-41 18q-27 0 -51 -10q5 -114 60 -114z" />
    <glyph glyph-name="uni2077" unicode="&#x2077;" horiz-adv-x="339" 
d="M322 770v-73l-170 -376l-107 33l153 330h-178v86h302z" />
    <glyph glyph-name="uni2078" unicode="&#x2078;" horiz-adv-x="401" 
d="M313 565q59 -35 59 -105q0 -60 -45 -94t-126 -34q-83 0 -127.5 34t-44.5 94q0 72 59 105q-45 33 -45 92q0 57 41 88t117 31q74 0 115.5 -31t41.5 -88q0 -59 -45 -92zM200 690q-22 0 -34.5 -12t-12.5 -34q0 -21 12.5 -33t34.5 -12q21 0 34 12t13 33t-13 33.5t-34 12.5z
M200 419q26 0 42 14.5t16 39.5t-16 39.5t-42 14.5q-27 0 -42.5 -14.5t-15.5 -39.5t15.5 -39.5t42.5 -14.5z" />
    <glyph glyph-name="uni2079" unicode="&#x2079;" horiz-adv-x="395" 
d="M197 776q81 0 124.5 -59.5t43.5 -168.5q0 -103 -53 -159.5t-148 -56.5q-65 0 -126 34l32 82q31 -28 84 -28q82 0 96 92q-36 -17 -72 -17q-71 0 -110.5 36t-39.5 100q0 67 44.5 106t124.5 39zM145 633q0 -29 15 -46t41 -17q24 0 51 9q-4 52 -20 80.5t-41 28.5
q-21 0 -33.5 -14.5t-12.5 -40.5z" />
    <glyph glyph-name="uni2080" unicode="&#x2080;" horiz-adv-x="424" 
d="M212 -116q-86 0 -134 58t-48 164t48 164t134 58q85 0 133.5 -58.5t48.5 -163.5t-48.5 -163.5t-133.5 -58.5zM211 -28q31 0 47.5 35.5t16.5 98.5t-16.5 98.5t-47.5 35.5t-47.5 -35.5t-16.5 -98.5t16.5 -98.5t47.5 -35.5z" />
    <glyph glyph-name="uni2081" unicode="&#x2081;" horiz-adv-x="276" 
d="M227 322v-432h-111v303l-67 -32l-43 92l135 69h86z" />
    <glyph glyph-name="uni2082" unicode="&#x2082;" horiz-adv-x="365" 
d="M135 -24h201v-86h-312v48q0 34 10 62t31 50.5t35.5 34t42.5 31.5q49 36 60 52q10 14 10 31q0 41 -47 41q-41 0 -92 -37l-39 74q67 51 148 51q71 0 109 -34.5t38 -97.5q0 -30 -19.5 -57.5t-35 -39.5t-53.5 -37q-7 -5 -10 -7q-56 -37 -67 -52q-10 -13 -10 -27z" />
    <glyph glyph-name="uni2083" unicode="&#x2083;" horiz-adv-x="362" 
d="M313 253l-89 -97q111 -39 111 -136q0 -63 -48 -99.5t-133 -36.5q-74 0 -137 35l36 78q37 -25 90 -25q35 0 55 14.5t20 39.5q0 60 -154 81l107 129h-131v86h273v-69z" />
    <glyph glyph-name="uni2084" unicode="&#x2084;" horiz-adv-x="388" 
d="M369 62v-86h-56v-86h-114v86h-182v74l151 278l98 -27l-135 -239h74v51l108 40v-91h56z" />
    <glyph glyph-name="uni2085" unicode="&#x2085;" horiz-adv-x="384" 
d="M169 170l32 -2q76 -5 117.5 -41t41.5 -94q0 -71 -47.5 -110t-135.5 -39q-95 0 -162 49l42 75q56 -36 114 -36q74 0 74 54q0 50 -72 55l-127 6l27 235h251v-86h-143z" />
    <glyph glyph-name="uni2086" unicode="&#x2086;" horiz-adv-x="395" 
d="M217 171q72 0 111 -36.5t39 -102.5q0 -70 -43.5 -109t-123.5 -39q-81 0 -125.5 56.5t-44.5 159.5q0 108 53.5 168t148.5 60q65 0 126 -34l-30 -82q-35 28 -82 28q-76 0 -96 -84q32 15 67 15zM204 -28q47 0 47 58q0 30 -15 48t-41 18q-27 0 -51 -10q5 -114 60 -114z" />
    <glyph glyph-name="uni2087" unicode="&#x2087;" horiz-adv-x="339" 
d="M322 322v-73l-170 -376l-107 33l153 330h-178v86h302z" />
    <glyph glyph-name="uni2088" unicode="&#x2088;" horiz-adv-x="401" 
d="M313 117q59 -35 59 -105q0 -60 -45 -94t-126 -34q-83 0 -127.5 34t-44.5 94q0 72 59 105q-45 33 -45 92q0 57 41 88t117 31q74 0 115.5 -31t41.5 -88q0 -59 -45 -92zM200 242q-22 0 -34.5 -12t-12.5 -34q0 -21 12.5 -33t34.5 -12q21 0 34 12t13 33t-13 33.5t-34 12.5z
M200 -29q26 0 42 14.5t16 39.5t-16 39.5t-42 14.5q-27 0 -42.5 -14.5t-15.5 -39.5t15.5 -39.5t42.5 -14.5z" />
    <glyph glyph-name="uni2089" unicode="&#x2089;" horiz-adv-x="395" 
d="M197 328q81 0 124.5 -59.5t43.5 -168.5q0 -103 -53 -159.5t-148 -56.5q-65 0 -126 34l32 82q31 -28 84 -28q82 0 96 92q-36 -17 -72 -17q-71 0 -110.5 36t-39.5 100q0 67 44.5 106t124.5 39zM145 185q0 -29 15 -46t41 -17q24 0 51 9q-4 52 -20 80.5t-41 28.5
q-21 0 -33.5 -14.5t-12.5 -40.5z" />
    <glyph glyph-name="Euro" unicode="&#x20ac;" horiz-adv-x="616" 
d="M393 113q79 0 131 34l50 -108q-74 -49 -192 -49q-123 0 -196 68t-87 194h-66v114h66q14 125 87 192.5t196 67.5q106 0 192 -48l-59 -104q-55 30 -122 30q-55 0 -89.5 -35t-45.5 -100h188l-65 -117h-124q11 -67 46 -103t90 -36z" />
    <glyph glyph-name="uni20B9" unicode="&#x20b9;" horiz-adv-x="543" 
d="M503 616v-92h-93q28 -25 37 -65h56v-89h-64q-23 -57 -88 -89q105 -42 105 -137v-62q0 -48 17 -70q-48 -21 -88 -21q-39 0 -61.5 22.5t-22.5 59.5v64q0 41 -26 63.5t-72 22.5h-140v85h120q79 0 99 62h-219v89h219q-19 58 -105 58h-114v99h440z" />
    <glyph glyph-name="uni20BD" unicode="&#x20bd;" horiz-adv-x="622" 
d="M337 259h-66v-44h149v-93h-149v-122h-155v122h-64v93h64v44h-64v102h64v255q118 10 223 10q118 0 184.5 -50.5t66.5 -140.5q0 -82 -66.5 -129t-186.5 -47zM271 506v-145h66q47 0 72.5 20t25.5 54q0 73 -99 73q-15 0 -65 -2z" />
    <glyph glyph-name="trademark" unicode="&#x2122;" horiz-adv-x="815" 
d="M765 360h-98l-23 197l-75 -197h-63l-80 187l-19 -187h-89l40 352q17 13 41 13q22 0 35 -8t22 -30l93 -219l90 243q20 14 39 14q22 0 32.5 -11t14.5 -42zM32 646v74h272v-74h-87v-286h-98v286h-87z" />
    <glyph glyph-name="oneeighth" unicode="&#x215b;" horiz-adv-x="912" 
d="M585 730l87 -53l-461 -687l-87 53zM227 288h-111v303l-67 -32l-43 92l135 69h86v-432zM824 227q59 -35 59 -105q0 -60 -45 -94t-126 -34q-83 0 -127.5 34t-44.5 94q0 72 59 105q-45 33 -45 92q0 57 41 88t117 31q74 0 115.5 -31t41.5 -88q0 -59 -45 -92zM711 352
q-22 0 -34.5 -12t-12.5 -34q0 -21 12.5 -33t34.5 -12q21 0 34 12t13 33t-13 33.5t-34 12.5zM711 81q26 0 42 14.5t16 39.5t-16 39.5t-42 14.5q-27 0 -42.5 -14.5t-15.5 -39.5t15.5 -39.5t42.5 -14.5z" />
    <glyph glyph-name="threeeighths" unicode="&#x215c;" horiz-adv-x="998" 
d="M671 730l87 -53l-461 -687l-87 53zM335 418q0 -63 -48 -99.5t-133 -36.5q-74 0 -137 35l36 78q37 -25 90 -25q35 0 55 14.5t20 39.5q0 60 -154 81l107 129h-131v86h273v-69l-89 -97q111 -39 111 -136zM910 227q59 -35 59 -105q0 -60 -45 -94t-126 -34q-83 0 -127.5 34
t-44.5 94q0 72 59 105q-45 33 -45 92q0 57 41 88t117 31q74 0 115.5 -31t41.5 -88q0 -59 -45 -92zM797 352q-22 0 -34.5 -12t-12.5 -34q0 -21 12.5 -33t34.5 -12q21 0 34 12t13 33t-13 33.5t-34 12.5zM797 81q26 0 42 14.5t16 39.5t-16 39.5t-42 14.5q-27 0 -42.5 -14.5
t-15.5 -39.5t15.5 -39.5t42.5 -14.5z" />
    <glyph glyph-name="fiveeighths" unicode="&#x215d;" horiz-adv-x="1020" 
d="M693 730l87 -53l-461 -687l-87 53zM360 431q0 -71 -47.5 -110t-135.5 -39q-95 0 -162 49l42 75q56 -36 114 -36q74 0 74 54q0 50 -72 55l-127 6l27 235h251v-86h-143l-12 -66l32 -2q76 -5 117.5 -41t41.5 -94zM932 227q59 -35 59 -105q0 -60 -45 -94t-126 -34
q-83 0 -127.5 34t-44.5 94q0 72 59 105q-45 33 -45 92q0 57 41 88t117 31q74 0 115.5 -31t41.5 -88q0 -59 -45 -92zM819 352q-22 0 -34.5 -12t-12.5 -34q0 -21 12.5 -33t34.5 -12q21 0 34 12t13 33t-13 33.5t-34 12.5zM819 81q26 0 42 14.5t16 39.5t-16 39.5t-42 14.5
q-27 0 -42.5 -14.5t-15.5 -39.5t15.5 -39.5t42.5 -14.5z" />
    <glyph glyph-name="seveneighths" unicode="&#x215e;" horiz-adv-x="928" 
d="M601 730l87 -53l-461 -687l-87 53zM152 271l-107 33l153 330h-178v86h302v-73zM840 227q59 -35 59 -105q0 -60 -45 -94t-126 -34q-83 0 -127.5 34t-44.5 94q0 72 59 105q-45 33 -45 92q0 57 41 88t117 31q74 0 115.5 -31t41.5 -88q0 -59 -45 -92zM727 352
q-22 0 -34.5 -12t-12.5 -34q0 -21 12.5 -33t34.5 -12q21 0 34 12t13 33t-13 33.5t-34 12.5zM727 81q26 0 42 14.5t16 39.5t-16 39.5t-42 14.5q-27 0 -42.5 -14.5t-15.5 -39.5t15.5 -39.5t42.5 -14.5z" />
    <glyph glyph-name="partialdiff" unicode="&#x2202;" horiz-adv-x="685" 
d="M312 750q152 0 244.5 -103.5t92.5 -274.5q0 -172 -97.5 -277t-255.5 -105q-122 0 -196 61t-74 160q0 110 122 182t324 80q-18 70 -60 109.5t-101 39.5q-47 0 -85.5 -22.5t-59.5 -61.5l-102 78q88 134 248 134zM297 118q80 0 130 61.5t56 166.5q-131 -2 -210.5 -39.5
t-79.5 -98.5q0 -40 28 -65t76 -25z" />
    <glyph glyph-name="emptyset" unicode="&#x2205;" horiz-adv-x="610" 
d="M557 458l-40 -40q48 -64 48 -167q0 -123 -68 -191.5t-191 -68.5q-105 0 -171 51l-41 -40l-41 39l42 41q-50 65 -50 169q0 123 68.5 191t192.5 68q105 0 171 -51l39 39zM113 251q0 -72 29 -122l289 285q-47 40 -125 40q-91 0 -142 -53.5t-51 -149.5zM306 45q91 0 141 53.5
t50 152.5q0 70 -29 120l-289 -286q49 -40 127 -40z" />
    <glyph glyph-name="product" unicode="&#x220f;" horiz-adv-x="769" 
d="M733 770v-142h-65v-858h-155v858h-258v-858h-155v858h-65v142h698z" />
    <glyph glyph-name="summation" unicode="&#x2211;" horiz-adv-x="704" 
d="M671 -106v-124h-642v98l262 405l-251 399v98h621v-124h-438l244 -373l-257 -379h461z" />
    <glyph glyph-name="minus" unicode="&#x2212;" horiz-adv-x="542" 
d="M59 310h424v-116h-424v116z" />
    <glyph glyph-name="radical" unicode="&#x221a;" horiz-adv-x="739" 
d="M569 770h171l-290 -802q-33 -88 -112 -88q-44 0 -86 21l-99 270h-140v124h266l60 -211z" />
    <glyph glyph-name="infinity" unicode="&#x221e;" horiz-adv-x="821" 
d="M571 451q99 0 153 -52.5t54 -147.5t-54 -147.5t-153 -52.5q-109 0 -160 71q-53 -71 -161 -71q-98 0 -152.5 52.5t-54.5 147.5t54.5 147.5t152.5 52.5q108 0 161 -71q51 71 160 71zM267 174q30 0 47.5 20.5t17.5 56.5t-17.5 56.5t-47.5 20.5q-31 0 -48.5 -20t-17.5 -57
t17.5 -57t48.5 -20zM555 174q30 0 47.5 20.5t17.5 56.5t-17.5 56.5t-47.5 20.5q-31 0 -48.5 -20t-17.5 -57t17.5 -57t48.5 -20z" />
    <glyph glyph-name="integral" unicode="&#x222b;" horiz-adv-x="316" 
d="M219 780l68 -111q-52 -18 -52 -107v-612q0 -137 -138 -190l-69 111q52 18 52 107v612q0 139 139 190z" />
    <glyph glyph-name="approxequal" unicode="&#x2248;" horiz-adv-x="607" 
d="M91 257l-41 53q18 46 57.5 76t82.5 30q52 0 134.5 -21t115.5 -21q48 0 79 49l39 -53q-54 -106 -149 -106q-52 0 -129 22.5t-110 22.5q-45 0 -79 -52zM91 73l-41 53q18 46 57.5 76t82.5 30q52 0 134.5 -21t115.5 -21q48 0 79 49l39 -53q-54 -106 -149 -106
q-52 0 -129 22.5t-110 22.5q-45 0 -79 -52z" />
    <glyph glyph-name="notequal" unicode="&#x2260;" horiz-adv-x="542" 
d="M483 286h-175l-20 -68h195v-116h-228l-30 -102h-57l30 102h-139v116h172l20 68h-192v116h226l30 104h57l-30 -104h141v-116z" />
    <glyph glyph-name="lessequal" unicode="&#x2264;" horiz-adv-x="535" 
d="M476 511v-116l-258 -63l258 -63v-116l-424 125v107zM52 0v116h424v-116h-424z" />
    <glyph glyph-name="greaterequal" unicode="&#x2265;" horiz-adv-x="535" 
d="M59 511l424 -126v-107l-424 -125v116l258 63l-258 63v116zM59 0v116h424v-116h-424z" />
    <glyph glyph-name="lozenge" unicode="&#x25ca;" horiz-adv-x="522" 
d="M25 253l236 263l237 -263l-237 -263zM184 253l78 -94l76 94l-76 94z" />
    <glyph glyph-name="a.ss01" horiz-adv-x="603" 
d="M316 516q85 0 229 -10v-495q-47 -21 -83 -21q-29 0 -47 21.5t-20 57.5q-57 -79 -165 -79q-88 0 -141 65.5t-53 180.5q0 134 73.5 207t206.5 73zM390 253v147q-23 1 -60 1q-63 0 -100 -44t-37 -121q0 -59 24.5 -91.5t70.5 -32.5q102 0 102 141z" />
    <glyph glyph-name="aacute.ss01" horiz-adv-x="603" 
d="M476 670l-221 -97l-42 74l188 147zM316 516q85 0 229 -10v-495q-47 -21 -83 -21q-29 0 -47 21.5t-20 57.5q-57 -79 -165 -79q-88 0 -141 65.5t-53 180.5q0 134 73.5 207t206.5 73zM390 253v147q-23 1 -60 1q-63 0 -100 -44t-37 -121q0 -59 24.5 -91.5t70.5 -32.5
q102 0 102 141z" />
    <glyph glyph-name="abreve.ss01" horiz-adv-x="603" 
d="M314 580q-81 0 -126 40.5t-45 112.5h109q0 -29 16.5 -45.5t45.5 -16.5q28 0 44 16.5t16 45.5h110q0 -72 -45 -112.5t-125 -40.5zM316 516q85 0 229 -10v-495q-47 -21 -83 -21q-29 0 -47 21.5t-20 57.5q-57 -79 -165 -79q-88 0 -141 65.5t-53 180.5q0 134 73.5 207
t206.5 73zM390 253v147q-23 1 -60 1q-63 0 -100 -44t-37 -121q0 -59 24.5 -91.5t70.5 -32.5q102 0 102 141z" />
    <glyph glyph-name="acircumflex.ss01" horiz-adv-x="603" 
d="M168 573l-42 74l186 137l1 2h1l1 -2l186 -137l-42 -74l-145 74zM316 516q85 0 229 -10v-495q-47 -21 -83 -21q-29 0 -47 21.5t-20 57.5q-57 -79 -165 -79q-88 0 -141 65.5t-53 180.5q0 134 73.5 207t206.5 73zM390 253v147q-23 1 -60 1q-63 0 -100 -44t-37 -121
q0 -59 24.5 -91.5t70.5 -32.5q102 0 102 141z" />
    <glyph glyph-name="adieresis.ss01" horiz-adv-x="603" 
d="M210 584q-40 0 -63 22t-23 61t23 60t63 21t63 -21t23 -60t-23 -61t-63 -22zM417 584q-40 0 -63 22t-23 61t23 60t63 21t63 -21t23 -60t-23 -61t-63 -22zM316 516q85 0 229 -10v-495q-47 -21 -83 -21q-29 0 -47 21.5t-20 57.5q-57 -79 -165 -79q-88 0 -141 65.5t-53 180.5
q0 134 73.5 207t206.5 73zM390 253v147q-23 1 -60 1q-63 0 -100 -44t-37 -121q0 -59 24.5 -91.5t70.5 -32.5q102 0 102 141z" />
    <glyph glyph-name="agrave.ss01" horiz-adv-x="603" 
d="M414 647l-42 -74l-221 97l75 124zM316 516q85 0 229 -10v-495q-47 -21 -83 -21q-29 0 -47 21.5t-20 57.5q-57 -79 -165 -79q-88 0 -141 65.5t-53 180.5q0 134 73.5 207t206.5 73zM390 253v147q-23 1 -60 1q-63 0 -100 -44t-37 -121q0 -59 24.5 -91.5t70.5 -32.5
q102 0 102 141z" />
    <glyph glyph-name="amacron.ss01" horiz-adv-x="603" 
d="M462 720v-112h-298v112h298zM316 516q85 0 229 -10v-495q-47 -21 -83 -21q-29 0 -47 21.5t-20 57.5q-57 -79 -165 -79q-88 0 -141 65.5t-53 180.5q0 134 73.5 207t206.5 73zM390 253v147q-23 1 -60 1q-63 0 -100 -44t-37 -121q0 -59 24.5 -91.5t70.5 -32.5q102 0 102 141
z" />
    <glyph glyph-name="aogonek.ss01" horiz-adv-x="603" 
d="M540 -158l16 -57q-52 -25 -107 -25q-46 0 -71.5 22.5t-25.5 63.5q0 68 96 146q-48 11 -53 77q-57 -79 -165 -79q-88 0 -141 65.5t-53 180.5q0 134 73.5 207t206.5 73q85 0 229 -10v-495q-106 -97 -106 -154q0 -32 37 -32q32 0 64 17zM288 112q102 0 102 141v147
q-23 1 -60 1q-63 0 -100 -44t-37 -121q0 -59 24.5 -91.5t70.5 -32.5z" />
    <glyph glyph-name="aring.ss01" horiz-adv-x="603" 
d="M312 559q-63 0 -99 32t-36 89q0 58 36 90t99 32q64 0 99.5 -32t35.5 -90q0 -57 -35.5 -89t-99.5 -32zM313 733q-23 0 -36 -14t-13 -39q0 -24 13 -38t36 -14q48 0 48 52q0 53 -48 53zM316 516q85 0 229 -10v-495q-47 -21 -83 -21q-29 0 -47 21.5t-20 57.5
q-57 -79 -165 -79q-88 0 -141 65.5t-53 180.5q0 134 73.5 207t206.5 73zM390 253v147q-23 1 -60 1q-63 0 -100 -44t-37 -121q0 -59 24.5 -91.5t70.5 -32.5q102 0 102 141z" />
    <glyph glyph-name="atilde.ss01" horiz-adv-x="603" 
d="M233 629q-40 0 -73 -35l-38 49q16 42 53 70.5t75 28.5q29 0 75.5 -18.5t67.5 -18.5q44 0 75 34l38 -49q-54 -99 -139 -99q-29 0 -72 19t-62 19zM316 516q85 0 229 -10v-495q-47 -21 -83 -21q-29 0 -47 21.5t-20 57.5q-57 -79 -165 -79q-88 0 -141 65.5t-53 180.5
q0 134 73.5 207t206.5 73zM390 253v147q-23 1 -60 1q-63 0 -100 -44t-37 -121q0 -59 24.5 -91.5t70.5 -32.5q102 0 102 141z" />
    <glyph glyph-name="i.loclTRK" horiz-adv-x="273" 
d="M137 584q-40 0 -63 22t-23 61t23 60t63 21t63 -21t23 -60t-23 -61t-63 -22zM59 506h155v-506h-155v506z" />
    <glyph glyph-name="j.ss01" horiz-adv-x="281" 
d="M143 584q40 0 63 22t23 61t-23 60t-63 21t-63 -21t-23 -60t23 -61t63 -22zM47 -240q-74 0 -131 27l20 113q31 -17 66 -17q65 0 65 77v546h155v-574q0 -82 -45.5 -127t-129.5 -45z" />
    <glyph glyph-name="y.ss01" horiz-adv-x="593" 
d="M464 516q33 0 52 -19.5t19 -52.5v-494q0 -91 -62 -140.5t-175 -49.5q-130 0 -237 59l50 100q81 -43 161 -43q60 0 84 25.5t24 76.5v84q-54 -72 -149 -72q-85 0 -131 49.5t-46 140.5v315q47 21 83 21q35 0 53.5 -19.5t18.5 -52.5v-236q0 -45 18.5 -70t53.5 -25
q49 0 74 32.5t25 107.5v242q49 21 84 21z" />
    <glyph glyph-name="yacute.ss01" horiz-adv-x="593" 
d="M459 670l-221 -97l-42 74l188 147zM464 516q33 0 52 -19.5t19 -52.5v-494q0 -91 -62 -140.5t-175 -49.5q-130 0 -237 59l50 100q81 -43 161 -43q60 0 84 25.5t24 76.5v84q-54 -72 -149 -72q-85 0 -131 49.5t-46 140.5v315q47 21 83 21q35 0 53.5 -19.5t18.5 -52.5v-236
q0 -45 18.5 -70t53.5 -25q49 0 74 32.5t25 107.5v242q49 21 84 21z" />
    <glyph glyph-name="ycircumflex.ss01" horiz-adv-x="593" 
d="M151 573l-42 74l186 137l1 2h1l1 -2l186 -137l-42 -74l-145 74zM464 516q33 0 52 -19.5t19 -52.5v-494q0 -91 -62 -140.5t-175 -49.5q-130 0 -237 59l50 100q81 -43 161 -43q60 0 84 25.5t24 76.5v84q-54 -72 -149 -72q-85 0 -131 49.5t-46 140.5v315q47 21 83 21
q35 0 53.5 -19.5t18.5 -52.5v-236q0 -45 18.5 -70t53.5 -25q49 0 74 32.5t25 107.5v242q49 21 84 21z" />
    <glyph glyph-name="ydieresis.ss01" horiz-adv-x="593" 
d="M193 584q-40 0 -63 22t-23 61t23 60t63 21t63 -21t23 -60t-23 -61t-63 -22zM400 584q-40 0 -63 22t-23 61t23 60t63 21t63 -21t23 -60t-23 -61t-63 -22zM464 516q33 0 52 -19.5t19 -52.5v-494q0 -91 -62 -140.5t-175 -49.5q-130 0 -237 59l50 100q81 -43 161 -43
q60 0 84 25.5t24 76.5v84q-54 -72 -149 -72q-85 0 -131 49.5t-46 140.5v315q47 21 83 21q35 0 53.5 -19.5t18.5 -52.5v-236q0 -45 18.5 -70t53.5 -25q49 0 74 32.5t25 107.5v242q49 21 84 21z" />
    <glyph glyph-name="ygrave.ss01" horiz-adv-x="593" 
d="M397 647l-42 -74l-221 97l75 124zM464 516q33 0 52 -19.5t19 -52.5v-494q0 -91 -62 -140.5t-175 -49.5q-130 0 -237 59l50 100q81 -43 161 -43q60 0 84 25.5t24 76.5v84q-54 -72 -149 -72q-85 0 -131 49.5t-46 140.5v315q47 21 83 21q35 0 53.5 -19.5t18.5 -52.5v-236
q0 -45 18.5 -70t53.5 -25q49 0 74 32.5t25 107.5v242q49 21 84 21z" />
    <glyph glyph-name="f_b" horiz-adv-x="1017" 
d="M786 516q88 0 141 -66t53 -181q0 -133 -73.5 -206t-205.5 -73q-86 0 -230 10v390h-215v-390h-155v390h-74v116h74v102q0 82 49.5 127t140.5 45q64 0 115 -17l-19 -114q-26 8 -56 8q-35 0 -55 -20.5t-20 -55.5v-75h215v253q47 21 83 21q35 0 53.5 -19.5t18.5 -52.5v-265
q57 73 160 73zM686 105q64 0 100.5 43t36.5 121q0 60 -24.5 92.5t-69.5 32.5q-103 0 -103 -142v-146q23 -1 60 -1z" />
    <glyph glyph-name="f_f_j" horiz-adv-x="1041" 
d="M982 506v-556q0 -137 -138 -190l-69 111q52 18 52 107v412h-219v-390h-155v390h-197v-390h-155v390h-74v116h74v102q0 82 49.5 127t140.5 45q64 0 115 -17l-19 -114q-26 8 -56 8q-35 0 -55 -20.5t-20 -55.5v-75h197v102q0 82 49.5 127t140.5 45q68 0 128 -17l-20 -115
q-30 9 -68 9q-35 0 -55 -20.5t-20 -55.5v-75h374zM904 584q-40 0 -63 22t-23 61t23 60t63 21t63 -21t23 -60t-23 -61t-63 -22z" />
    <glyph glyph-name="f_f_j.ss01" horiz-adv-x="1041" 
d="M983 506v-574q0 -82 -45.5 -127t-129.5 -45q-74 0 -131 27l20 113q31 -17 66 -17q65 0 65 77v430h-220v-390h-155v390h-197v-390h-155v390h-74v116h74v102q0 82 49.5 127t140.5 45q64 0 115 -17l-19 -114q-26 8 -56 8q-35 0 -55 -20.5t-20 -55.5v-75h197v102
q0 82 49.5 127t140.5 45q68 0 128 -17l-20 -115q-30 9 -68 9q-35 0 -55 -20.5t-20 -55.5v-75h375zM904 584q-40 0 -63 22t-23 61t23 60t63 21t63 -21t23 -60t-23 -61t-63 -22z" />
    <glyph glyph-name="f_f_t" horiz-adv-x="1166" 
d="M1129 132l20 -115q-58 -27 -136 -27q-86 0 -133 45t-47 127v228h-226v-390h-155v390h-196v-390h-155v390h-74v116h74v102q0 82 49.5 127t140.5 45q64 0 115 -17l-19 -114q-26 8 -56 8q-35 0 -55 -20.5t-20 -55.5v-75h196v102q0 82 49.5 127t140.5 45q83 0 146 -27
l-20 -115q-37 19 -85 19q-36 0 -56 -20.5t-20 -55.5v-75h231v114q47 21 83 21q32 0 49.5 -19.5t17.5 -52.5v-63h152v-116h-152v-202q0 -36 17.5 -55.5t50.5 -19.5q42 0 73 19z" />
    <glyph glyph-name="f_h" horiz-adv-x="1017" 
d="M785 516q85 0 131 -49.5t46 -140.5v-326h-155v299q0 45 -18.5 70t-53.5 25q-53 0 -81 -33t-28 -109v-252h-155v390h-215v-390h-155v390h-74v116h74v102q0 82 49.5 127t140.5 45q64 0 115 -17l-19 -114q-26 8 -56 8q-35 0 -55 -20.5t-20 -55.5v-75h215v253q47 21 83 21
q35 0 53.5 -19.5t18.5 -52.5v-267q58 75 159 75z" />
    <glyph glyph-name="f_iacute" horiz-adv-x="690" 
d="M717 670l-221 -97l-42 74l188 147zM631 506v-506h-155v390h-220v-390h-155v390h-74v116h74v102q0 82 49.5 127t140.5 45q68 0 128 -17l-20 -115q-30 9 -68 9q-35 0 -55 -20.5t-20 -55.5v-75h375z" />
    <glyph glyph-name="f_j" horiz-adv-x="689" 
d="M631 506v-556q0 -137 -138 -190l-69 111q52 18 52 107v412h-220v-390h-155v390h-74v116h74v102q0 82 49.5 127t140.5 45q68 0 128 -17l-20 -115q-30 9 -68 9q-35 0 -55 -20.5t-20 -55.5v-75h375zM553 584q-40 0 -63 22t-23 61t23 60t63 21t63 -21t23 -60t-23 -61t-63 -22
z" />
    <glyph glyph-name="f_j.ss01" horiz-adv-x="689" 
d="M631 506v-574q0 -82 -45.5 -127t-129.5 -45q-74 0 -131 27l20 113q31 -17 66 -17q65 0 65 77v430h-220v-390h-155v390h-74v116h74v102q0 82 49.5 127t140.5 45q68 0 128 -17l-20 -115q-30 9 -68 9q-35 0 -55 -20.5t-20 -55.5v-75h375zM552 584q-40 0 -63 22t-23 61t23 60
t63 21t63 -21t23 -60t-23 -61t-63 -22z" />
    <glyph glyph-name="f_k" horiz-adv-x="1001" 
d="M554 780q35 0 53.5 -19.5t18.5 -52.5v-708h-155v390h-215v-390h-155v390h-74v116h74v102q0 82 49.5 127t140.5 45q64 0 115 -17l-19 -114q-26 8 -56 8q-35 0 -55 -20.5t-20 -55.5v-75h215v253q47 21 83 21zM795 277l217 -264q-40 -23 -98 -23q-74 0 -111 49l-174 227
l195 250l143 -23z" />
    <glyph glyph-name="f_t" horiz-adv-x="815" 
d="M778 132l20 -115q-58 -27 -136 -27q-86 0 -133 45t-47 127v228h-226v-390h-155v390h-74v116h74v102q0 82 49.5 127t140.5 45q83 0 146 -27l-20 -115q-37 19 -85 19q-36 0 -56 -20.5t-20 -55.5v-75h231v114q47 21 83 21q32 0 49.5 -19.5t17.5 -52.5v-63h152v-116h-152
v-202q0 -36 17.5 -55.5t50.5 -19.5q42 0 73 19z" />
    <glyph glyph-name="t_t" horiz-adv-x="815" 
d="M777 132l20 -115q-58 -27 -136 -27q-86 0 -133 45t-47 127v228h-230v-202q0 -36 17.5 -55.5t50.5 -19.5q42 0 73 19l20 -115q-58 -27 -136 -27q-86 0 -133 45t-47 127v228h-74v116h79v114q47 21 83 21q32 0 49.5 -19.5t17.5 -52.5v-63h235v114q47 21 83 21
q32 0 49.5 -19.5t17.5 -52.5v-63h152v-116h-152v-202q0 -36 17.5 -55.5t50.5 -19.5q42 0 73 19z" />
    <glyph glyph-name="ordfeminine.case" horiz-adv-x="468" 
d="M239 730q95 0 166 -7v-347q-41 -16 -67 -16q-21 0 -34 14t-17 38q-40 -52 -113 -52q-62 0 -99 46t-37 126q0 94 52.5 146t148.5 52zM281 552v87h-30q-40 0 -63 -28t-23 -79q0 -75 56 -75q30 0 45 21.5t15 73.5z" />
    <glyph glyph-name="ordfeminine.lf" horiz-adv-x="468" 
d="M239 730q95 0 166 -7v-347q-41 -16 -67 -16q-21 0 -34 14t-17 38q-40 -52 -113 -52q-62 0 -99 46t-37 126q0 94 52.5 146t148.5 52zM281 552v87h-30q-40 0 -63 -28t-23 -79q0 -75 56 -75q30 0 45 21.5t15 73.5z" />
    <glyph glyph-name="ordmasculine.case" horiz-adv-x="463" 
d="M232 360q-93 0 -144 48.5t-51 136.5t51 136.5t144 48.5q92 0 143 -48.5t51 -136.5t-51 -136.5t-143 -48.5zM231 457q32 0 50.5 23t18.5 65q0 41 -18.5 64.5t-50.5 23.5t-50 -23.5t-18 -64.5q0 -42 18 -65t50 -23z" />
    <glyph glyph-name="ordmasculine.lf" horiz-adv-x="463" 
d="M232 360q-93 0 -144 48.5t-51 136.5t51 136.5t144 48.5q92 0 143 -48.5t51 -136.5t-51 -136.5t-143 -48.5zM231 457q32 0 50.5 23t18.5 65q0 41 -18.5 64.5t-50.5 23.5t-50 -23.5t-18 -64.5q0 -42 18 -65t50 -23z" />
    <glyph glyph-name="uni0414.loclBGR" horiz-adv-x="757" 
d="M676 121h66v-220q-39 -21 -76 -21q-39 0 -62.5 23.5t-23.5 61.5v35h-409l-7 -99q-34 -21 -68 -21q-36 0 -57.5 23.5t-21.5 61.5v156h55l216 588q42 21 85 21q80 0 113 -88zM226 124h279l-139 406z" />
    <glyph glyph-name="uni041B.loclBGR" horiz-adv-x="686" 
d="M689 0h-172l-182 530l-183 -530h-155l260 709q42 21 85 21q80 0 113 -88z" />
    <glyph glyph-name="uni0424.loclBGR" horiz-adv-x="865" 
d="M825 360q0 -153 -82 -249t-230 -116v-105h-162v105q-150 21 -230.5 115.5t-80.5 249.5t80.5 249.5t230.5 115.5v94q39 21 75 21q40 0 63.5 -23.5t23.5 -61.5v-30q148 -20 230 -116t82 -249zM513 591v-462q69 22 106.5 81.5t37.5 149.5t-37.5 149.5t-106.5 81.5zM208 360
q0 -90 37 -149t106 -81v460q-69 -22 -106 -81t-37 -149z" />
    <glyph glyph-name="uni0430.ss01" horiz-adv-x="603" 
d="M316 516q85 0 229 -10v-495q-47 -21 -83 -21q-29 0 -47 21.5t-20 57.5q-57 -79 -165 -79q-88 0 -141 65.5t-53 180.5q0 134 73.5 207t206.5 73zM390 253v147q-23 1 -60 1q-63 0 -100 -44t-37 -121q0 -59 24.5 -91.5t70.5 -32.5q102 0 102 141z" />
    <glyph glyph-name="uni0431.loclSRB" horiz-adv-x="607" 
d="M225 565q0 -17 23 -30t72 -31q32 -12 47 -18.5t47 -22t49.5 -28.5t41.5 -35t36.5 -45.5t22 -56t9.5 -69.5q0 -112 -71 -175.5t-199 -63.5t-198.5 60t-70.5 166q0 126 146 210q-59 26 -91.5 60t-32.5 89q0 65 55.5 110t192.5 65l195 30q33 -37 33 -76q0 -23 -21.5 -40
t-57.5 -23l-134 -23q-94 -15 -94 -53zM303 113q53 0 82.5 30.5t29.5 85.5q0 54 -29 87.5t-82 59.5q-113 -63 -113 -147q0 -54 30 -85t82 -31z" />
    <glyph glyph-name="uni0432.loclBGR" horiz-adv-x="591" 
d="M420 403q66 -23 101.5 -72t35.5 -119q0 -103 -69.5 -162.5t-191.5 -59.5q-115 0 -178.5 50t-63.5 141v415q0 88 60 136t169 48q121 0 188 -53.5t67 -150.5q0 -123 -118 -173zM283 665q-34 0 -53.5 -20.5t-19.5 -58.5v-137h57q54 0 83.5 31t29.5 85q0 46 -26 73t-71 27z
M296 105q48 0 75.5 31.5t27.5 85.5q0 62 -31 96.5t-88 34.5h-70v-162q0 -42 22.5 -64t63.5 -22z" />
    <glyph glyph-name="uni0433.loclBGR" horiz-adv-x="491" 
d="M239 516q97 0 152.5 -38t55.5 -107q0 -34 -14 -60.5t-39.5 -44.5t-49.5 -29.5t-57 -24.5q-7 -3 -11 -4q-65 -25 -78 -39q-10 -11 -10 -24q0 -40 71 -40q94 0 162 49l43 -102q-75 -62 -214 -62q-105 0 -162 38.5t-57 109.5q0 32 12.5 56.5t39.5 43.5t46.5 29t56.5 25
q4 2 6.5 3t5.5 2q68 28 83 43q10 11 10 25q0 18 -17.5 28t-44.5 10q-66 0 -128 -35l-59 90q83 58 197 58z" />
    <glyph glyph-name="uni0434.loclBGR" horiz-adv-x="604" 
d="M316 516q85 0 229 -10v-536q0 -100 -62 -155t-175 -55q-130 0 -237 59l62 97q70 -40 149 -40q60 0 84 30.5t24 91.5v64q-56 -72 -160 -72q-88 0 -141 65.5t-53 180.5q0 134 73.5 207t206.5 73zM390 253v147q-23 1 -60 1q-63 0 -100 -44t-37 -121q0 -59 24.5 -91.5
t70.5 -32.5q102 0 102 141z" />
    <glyph glyph-name="uni0436.loclBGR" horiz-adv-x="826" 
d="M420 780q35 0 53.5 -19.5t18.5 -52.5v-708h-155v759q47 21 83 21zM115 516q66 0 95 -49l124 -202l-164 -265h-163l171 268l-147 225q38 23 84 23zM653 278l169 -265q-34 -23 -84 -23q-81 0 -109 49l-134 227l155 250l138 -23z" />
    <glyph glyph-name="uni0437.loclBGR" horiz-adv-x="511" 
d="M69 343l-41 97q101 76 217 76q99 0 153 -50t54 -142q0 -58 -30 -101.5t-83 -60.5q71 -14 110 -63.5t39 -124.5q0 -101 -68 -157.5t-189 -56.5q-135 0 -235 106l55 93q66 -79 166 -79q54 0 83.5 29.5t29.5 81.5q0 53 -30.5 81t-85.5 28h-68v103h47q48 0 74.5 26t26.5 73
q0 46 -22.5 70.5t-66.5 24.5q-73 0 -136 -54z" />
    <glyph glyph-name="uni0438.loclBGR" horiz-adv-x="592" 
d="M463 516q35 0 53.5 -19.5t18.5 -52.5v-433q-47 -21 -83 -21q-29 0 -47 22t-20 58q-53 -80 -154 -80q-85 0 -131 49.5t-46 140.5v315q47 21 83 21q35 0 53.5 -19.5t18.5 -52.5v-236q0 -45 18.5 -70t53.5 -25q49 0 74 32.5t25 107.5v242q47 21 83 21z" />
    <glyph glyph-name="uni0439.loclBGR" horiz-adv-x="592" 
d="M297 580q-81 0 -126 40.5t-45 112.5h109q0 -29 16.5 -45.5t45.5 -16.5q28 0 44 16.5t16 45.5h110q0 -72 -45 -112.5t-125 -40.5zM463 516q35 0 53.5 -19.5t18.5 -52.5v-433q-47 -21 -83 -21q-29 0 -47 22t-20 58q-53 -80 -154 -80q-85 0 -131 49.5t-46 140.5v315
q47 21 83 21q35 0 53.5 -19.5t18.5 -52.5v-236q0 -45 18.5 -70t53.5 -25q49 0 74 32.5t25 107.5v242q47 21 83 21z" />
    <glyph glyph-name="uni045D.loclBGR" horiz-adv-x="592" 
d="M397 647l-42 -74l-221 97l75 124zM463 516q35 0 53.5 -19.5t18.5 -52.5v-433q-47 -21 -83 -21q-29 0 -47 22t-20 58q-53 -80 -154 -80q-85 0 -131 49.5t-46 140.5v315q47 21 83 21q35 0 53.5 -19.5t18.5 -52.5v-236q0 -45 18.5 -70t53.5 -25q49 0 74 32.5t25 107.5v242
q47 21 83 21z" />
    <glyph glyph-name="uni043A.loclBGR" horiz-adv-x="589" 
d="M142 780q35 0 53.5 -19.5t18.5 -52.5v-708h-155v759q47 21 83 21zM383 277l217 -264q-40 -23 -98 -23q-74 0 -111 49l-174 227l195 250l143 -23z" />
    <glyph glyph-name="uni043B.loclBGR" horiz-adv-x="538" 
d="M534 0h-169l-104 360l-111 -360h-145l177 495q32 21 83 21q85 0 107 -63z" />
    <glyph glyph-name="uni043F.loclBGR" horiz-adv-x="605" 
d="M373 516q85 0 131 -49.5t46 -140.5v-326h-155v299q0 45 -18.5 70t-53.5 25q-53 0 -81 -33t-28 -109v-252h-155v495q47 21 83 21q29 0 47 -22.5t20 -59.5q58 82 164 82z" />
    <glyph glyph-name="uni0442.loclBGR" horiz-adv-x="861" 
d="M648 516q75 0 116.5 -49.5t41.5 -140.5v-326h-155v299q0 95 -54 95q-87 0 -87 -142v-252h-155v299q0 95 -54 95q-87 0 -87 -142v-252h-155v495q47 21 83 21q29 0 46.5 -20.5t20.5 -56.5q53 77 144 77q90 0 132 -75q59 75 163 75z" />
    <glyph glyph-name="uni0443.ss01" horiz-adv-x="593" 
d="M464 516q33 0 52 -19.5t19 -52.5v-494q0 -91 -62 -140.5t-175 -49.5q-130 0 -237 59l50 100q81 -43 161 -43q60 0 84 25.5t24 76.5v84q-54 -72 -149 -72q-85 0 -131 49.5t-46 140.5v315q47 21 83 21q35 0 53.5 -19.5t18.5 -52.5v-236q0 -45 18.5 -70t53.5 -25
q49 0 74 32.5t25 107.5v242q49 21 84 21z" />
    <glyph glyph-name="uni045E.ss01" horiz-adv-x="593" 
d="M297 580q-81 0 -126 40.5t-45 112.5h109q0 -29 16.5 -45.5t45.5 -16.5q28 0 44 16.5t16 45.5h110q0 -72 -45 -112.5t-125 -40.5zM464 516q33 0 52 -19.5t19 -52.5v-494q0 -91 -62 -140.5t-175 -49.5q-130 0 -237 59l50 100q81 -43 161 -43q60 0 84 25.5t24 76.5v84
q-54 -72 -149 -72q-85 0 -131 49.5t-46 140.5v315q47 21 83 21q35 0 53.5 -19.5t18.5 -52.5v-236q0 -45 18.5 -70t53.5 -25q49 0 74 32.5t25 107.5v242q49 21 84 21z" />
    <glyph glyph-name="uni0446.loclBGR" horiz-adv-x="637" 
d="M535 114h73v-213q-47 -21 -83 -21q-34 0 -53 24.5t-19 63.5v22h-1q-29 0 -47 22t-20 58q-53 -80 -154 -80q-85 0 -131 49.5t-46 140.5v315q47 21 83 21q35 0 53.5 -19.5t18.5 -52.5v-236q0 -45 18.5 -70t53.5 -25q49 0 74 32.5t25 107.5v242q47 21 83 21q35 0 53.5 -19.5
t18.5 -52.5v-330z" />
    <glyph glyph-name="uni0448.loclBGR" horiz-adv-x="860" 
d="M730 516q35 0 53.5 -19.5t18.5 -52.5v-433q-47 -21 -83 -21q-29 0 -46.5 21t-20.5 56q-53 -77 -144 -77q-93 0 -133 76q-59 -76 -163 -76q-75 0 -116 49.5t-41 140.5v315q47 21 83 21q35 0 53.5 -19.5t18.5 -52.5v-236q0 -95 54 -95q87 0 87 140v242q47 21 83 21
q35 0 53.5 -19.5t18.5 -52.5v-236q0 -95 54 -95q87 0 87 140v242q47 21 83 21z" />
    <glyph glyph-name="uni0449.loclBGR" horiz-adv-x="903" 
d="M802 114h71v-213q-47 -21 -83 -21q-34 0 -53 24.5t-19 63.5v22q-59 2 -66 77q-53 -77 -144 -77q-93 0 -133 76q-59 -76 -163 -76q-75 0 -116 49.5t-41 140.5v315q47 21 83 21q35 0 53.5 -19.5t18.5 -52.5v-236q0 -95 54 -95q87 0 87 140v242q47 21 83 21q35 0 53.5 -19.5
t18.5 -52.5v-236q0 -95 54 -95q87 0 87 140v242q47 21 83 21q35 0 53.5 -19.5t18.5 -52.5v-330z" />
    <glyph glyph-name="uni044C.loclBGR" horiz-adv-x="517" 
d="M254 351q114 0 177 -48t63 -133t-59.5 -132.5t-167.5 -47.5q-100 0 -156.5 47.5t-56.5 132.5v325q47 21 83 21q35 0 53.5 -19.5t18.5 -52.5v-94q15 1 45 1zM269 96q35 0 54 18t19 51q0 37 -23 58.5t-65 21.5q-30 0 -45 -1v-74q0 -35 16 -54.5t44 -19.5z" />
    <glyph glyph-name="uni044A.loclBGR" horiz-adv-x="580" 
d="M317 351q114 0 177 -48t63 -133t-59.5 -132.5t-167.5 -47.5q-100 0 -156.5 47.5t-56.5 132.5v221h-97v115h252v-156q15 1 45 1zM332 96q35 0 54 18t19 51q0 37 -23 58.5t-65 21.5q-30 0 -45 -1v-74q0 -35 16 -54.5t44 -19.5z" />
    <glyph glyph-name="uni0458.ss01" horiz-adv-x="281" 
d="M143 584q40 0 63 22t23 61t-23 60t-63 21t-63 -21t-23 -60t23 -61t63 -22zM47 -240q-74 0 -131 27l20 113q31 -17 66 -17q65 0 65 77v546h155v-574q0 -82 -45.5 -127t-129.5 -45z" />
    <glyph glyph-name="uni044E.loclBGR" horiz-adv-x="786" 
d="M506 516q115 0 179.5 -69.5t64.5 -193.5t-64.5 -193.5t-179.5 -69.5q-96 0 -155.5 52.5t-73.5 149.5h-63v-192h-155v759q47 21 83 21q35 0 53.5 -19.5t18.5 -52.5v-394h63q14 97 73.5 149.5t155.5 52.5zM506 113q42 0 64.5 37t22.5 103q0 67 -22.5 104t-64.5 37
t-64.5 -37t-22.5 -104q0 -66 22.5 -103t64.5 -37z" />
    <glyph glyph-name="zero.case" horiz-adv-x="671" 
d="M335 -10q-137 0 -214.5 97.5t-77.5 272.5t77.5 272.5t214.5 97.5t214.5 -97.5t77.5 -272.5t-77.5 -272.5t-214.5 -97.5zM336 118q58 0 91 64t33 178t-33 178t-91 64q-59 0 -92 -63.5t-33 -178.5t33 -178.5t92 -63.5z" />
    <glyph glyph-name="one.case" horiz-adv-x="414" 
d="M340 720v-720h-162v536l-112 -56l-62 133l210 107h126z" />
    <glyph glyph-name="two.case" horiz-adv-x="572" 
d="M193 124h338v-124h-499v71q0 44 13 84t29 67t47.5 57.5t51 45.5t55.5 42q61 42 93.5 78t32.5 79q0 37 -22.5 57.5t-66.5 20.5q-79 0 -158 -62l-57 106q112 84 238 84q111 0 172.5 -54.5t61.5 -153.5q0 -41 -15.5 -76.5t-49.5 -68.5t-59 -52t-71 -50q-66 -44 -100 -78
t-34 -73z" />
    <glyph glyph-name="three.case" horiz-adv-x="572" 
d="M497 619l-162 -178q200 -66 200 -228q0 -106 -76.5 -164.5t-213.5 -58.5q-123 0 -223 61l52 112q42 -24 75 -34.5t80 -10.5q66 0 102 26.5t36 74.5q0 55 -63.5 92t-200.5 60l190 225h-233v124h437v-101z" />
    <glyph glyph-name="four.case" horiz-adv-x="610" 
d="M588 278v-125h-96v-153h-162v153h-310v106l258 471l144 -39l-233 -413h145v106l158 57v-163h96z" />
    <glyph glyph-name="five.case" horiz-adv-x="602" 
d="M245 460l68 -5q123 -9 190.5 -67t67.5 -157q0 -115 -77 -178t-217 -63q-66 0 -136 21t-122 59l62 108q87 -60 188 -60q64 0 99 27t35 78q0 48 -34 76.5t-95 31.5l-206 9l44 380h400v-124h-245z" />
    <glyph glyph-name="six.case" horiz-adv-x="625" 
d="M339 465q117 0 181.5 -61t64.5 -169q0 -115 -71 -180t-198 -65q-128 0 -200 95t-72 265q0 179 85.5 279.5t235.5 100.5q105 0 203 -56l-45 -118q-58 46 -139 46q-66 0 -109.5 -42.5t-59.5 -121.5q55 27 124 27zM322 118q45 0 70 29.5t25 82.5q0 57 -28.5 89.5t-79.5 32.5
q-49 0 -102 -29q4 -97 34 -151t81 -54z" />
    <glyph glyph-name="seven.case" horiz-adv-x="530" 
d="M512 720v-104l-288 -645l-154 47l265 578h-313v124h490z" />
    <glyph glyph-name="eight.case" horiz-adv-x="634" 
d="M488 378q104 -54 104 -177q0 -100 -72 -155.5t-203 -55.5t-203 55.5t-72 155.5q0 123 104 177q-80 53 -80 156q0 93 66 144.5t185 51.5t185 -51.5t66 -144.5q0 -103 -80 -156zM317 602q-40 0 -62.5 -22.5t-22.5 -63.5q0 -40 22.5 -62.5t62.5 -22.5t62.5 22.5t22.5 62.5
q0 41 -22.5 63.5t-62.5 22.5zM317 118q51 0 79 26.5t28 74.5q0 47 -28 73.5t-79 26.5t-79.5 -26.5t-28.5 -73.5q0 -48 28.5 -74.5t79.5 -26.5z" />
    <glyph glyph-name="nine.case" horiz-adv-x="625" 
d="M310 730q128 0 200 -100t72 -280q0 -170 -85.5 -265t-237.5 -95q-108 0 -201 56l45 118q58 -46 143 -46q72 0 115.5 46t54.5 131q-52 -30 -130 -30q-116 0 -180.5 59.5t-64.5 165.5q0 114 70.5 177t198.5 63zM208 495q0 -55 29 -86t80 -31t100 28q-7 94 -36.5 145
t-77.5 51q-45 0 -70 -28t-25 -79z" />
    <glyph glyph-name="zero.lf" horiz-adv-x="671" 
d="M335 -10q-137 0 -214.5 97.5t-77.5 272.5t77.5 272.5t214.5 97.5t214.5 -97.5t77.5 -272.5t-77.5 -272.5t-214.5 -97.5zM336 118q58 0 91 64t33 178t-33 178t-91 64q-59 0 -92 -63.5t-33 -178.5t33 -178.5t92 -63.5z" />
    <glyph glyph-name="one.lf" horiz-adv-x="414" 
d="M340 720v-720h-162v536l-112 -56l-62 133l210 107h126z" />
    <glyph glyph-name="two.lf" horiz-adv-x="572" 
d="M193 124h338v-124h-499v71q0 44 13 84t29 67t47.5 57.5t51 45.5t55.5 42q61 42 93.5 78t32.5 79q0 37 -22.5 57.5t-66.5 20.5q-79 0 -158 -62l-57 106q112 84 238 84q111 0 172.5 -54.5t61.5 -153.5q0 -41 -15.5 -76.5t-49.5 -68.5t-59 -52t-71 -50q-66 -44 -100 -78
t-34 -73z" />
    <glyph glyph-name="three.lf" horiz-adv-x="572" 
d="M497 619l-162 -178q200 -66 200 -228q0 -106 -76.5 -164.5t-213.5 -58.5q-123 0 -223 61l52 112q42 -24 75 -34.5t80 -10.5q66 0 102 26.5t36 74.5q0 55 -63.5 92t-200.5 60l190 225h-233v124h437v-101z" />
    <glyph glyph-name="four.lf" horiz-adv-x="610" 
d="M588 278v-125h-96v-153h-162v153h-310v106l258 471l144 -39l-233 -413h145v106l158 57v-163h96z" />
    <glyph glyph-name="five.lf" horiz-adv-x="602" 
d="M245 460l68 -5q123 -9 190.5 -67t67.5 -157q0 -115 -77 -178t-217 -63q-66 0 -136 21t-122 59l62 108q87 -60 188 -60q64 0 99 27t35 78q0 48 -34 76.5t-95 31.5l-206 9l44 380h400v-124h-245z" />
    <glyph glyph-name="six.lf" horiz-adv-x="625" 
d="M339 465q117 0 181.5 -61t64.5 -169q0 -115 -71 -180t-198 -65q-128 0 -200 95t-72 265q0 179 85.5 279.5t235.5 100.5q105 0 203 -56l-45 -118q-58 46 -139 46q-66 0 -109.5 -42.5t-59.5 -121.5q55 27 124 27zM322 118q45 0 70 29.5t25 82.5q0 57 -28.5 89.5t-79.5 32.5
q-49 0 -102 -29q4 -97 34 -151t81 -54z" />
    <glyph glyph-name="seven.lf" horiz-adv-x="530" 
d="M512 720v-104l-288 -645l-154 47l265 578h-313v124h490z" />
    <glyph glyph-name="eight.lf" horiz-adv-x="634" 
d="M488 378q104 -54 104 -177q0 -100 -72 -155.5t-203 -55.5t-203 55.5t-72 155.5q0 123 104 177q-80 53 -80 156q0 93 66 144.5t185 51.5t185 -51.5t66 -144.5q0 -103 -80 -156zM317 602q-40 0 -62.5 -22.5t-22.5 -63.5q0 -40 22.5 -62.5t62.5 -22.5t62.5 22.5t22.5 62.5
q0 41 -22.5 63.5t-62.5 22.5zM317 118q51 0 79 26.5t28 74.5q0 47 -28 73.5t-79 26.5t-79.5 -26.5t-28.5 -73.5q0 -48 28.5 -74.5t79.5 -26.5z" />
    <glyph glyph-name="nine.lf" horiz-adv-x="625" 
d="M310 730q128 0 200 -100t72 -280q0 -170 -85.5 -265t-237.5 -95q-108 0 -201 56l45 118q58 -46 143 -46q72 0 115.5 46t54.5 131q-52 -30 -130 -30q-116 0 -180.5 59.5t-64.5 165.5q0 114 70.5 177t198.5 63zM208 495q0 -55 29 -86t80 -31t100 28q-7 94 -36.5 145
t-77.5 51q-45 0 -70 -28t-25 -79z" />
    <glyph glyph-name="zero.osf" horiz-adv-x="631" 
d="M316 -10q-131 0 -202.5 83.5t-71.5 234.5t71.5 234.5t202.5 83.5q130 0 202 -83.5t72 -234.5t-72 -234.5t-202 -83.5zM316 113q54 0 84.5 51t30.5 144t-30.5 144.5t-84.5 51.5q-56 0 -86.5 -51.5t-30.5 -144.5t30.5 -144t86.5 -51z" />
    <glyph glyph-name="one.osf" horiz-adv-x="402" 
d="M334 616v-616h-155v447l-112 -57l-62 119l203 107h126z" />
    <glyph glyph-name="two.osf" horiz-adv-x="571" 
d="M189 116h343v-116h-499v79q0 36 15 67.5t48 60t56.5 44.5t69.5 44q41 26 54 34.5t39.5 29.5t35.5 38.5t9 37.5q0 69 -94 69q-77 0 -158 -64l-57 101q109 85 238 85q108 0 168 -49.5t60 -137.5q0 -38 -17.5 -71t-55 -63.5t-63 -47t-73.5 -44.5q-53 -30 -82.5 -52
t-36.5 -45z" />
    <glyph glyph-name="three.osf" horiz-adv-x="562" 
d="M493 522l-170 -196q203 -62 203 -223q0 -106 -73 -164.5t-206 -58.5q-127 0 -230 64l58 104q42 -24 75.5 -34.5t80.5 -10.5q66 0 101.5 28t35.5 79q0 54 -61.5 91t-197.5 60l194 239h-242v116h432v-94z" />
    <glyph glyph-name="four.osf" horiz-adv-x="604" 
d="M588 116v-116h-96v-110h-155v110h-317v102l263 524l139 -39l-243 -471h162v128l151 57v-185h96z" />
    <glyph glyph-name="five.osf" horiz-adv-x="586" 
d="M235 353l74 -5q117 -8 182 -68.5t65 -160.5q0 -114 -74 -176.5t-209 -62.5q-66 0 -136 21t-122 59l62 103q87 -60 188 -60q63 0 98.5 30t35.5 84q0 51 -34 81.5t-95 33.5l-206 9l44 375h400v-116h-251z" />
    <glyph glyph-name="six.osf" horiz-adv-x="608" 
d="M329 465q114 0 176.5 -61t62.5 -170q0 -115 -68.5 -179.5t-192.5 -64.5q-127 0 -196.5 94.5t-69.5 265.5q0 179 83.5 279.5t230.5 100.5q105 0 203 -56l-45 -113q-58 46 -139 46q-68 0 -112.5 -44.5t-60.5 -126.5q55 29 128 29zM313 113q45 0 71.5 31t26.5 85
q0 60 -30 94t-82 34q-59 0 -105 -30q4 -102 35 -158t84 -56z" />
    <glyph glyph-name="seven.osf" horiz-adv-x="535" 
d="M513 616v-95l-289 -660l-144 47l265 592h-321v116h489z" />
    <glyph glyph-name="eight.osf" horiz-adv-x="618" 
d="M477 378q102 -53 102 -176q0 -100 -71.5 -156t-198.5 -56t-198.5 56t-71.5 156q0 123 102 176q-78 54 -78 154q0 94 65 146t181 52t181 -52t65 -146q0 -100 -78 -154zM309 607q-42 0 -66 -23.5t-24 -66.5q0 -42 24 -65.5t66 -23.5t66 23.5t24 65.5q0 43 -24 66.5
t-66 23.5zM309 113q53 0 82 27.5t29 75.5q0 50 -29 78t-82 28q-54 0 -83.5 -28t-29.5 -78q0 -48 29.5 -75.5t83.5 -27.5z" />
    <glyph glyph-name="nine.osf" horiz-adv-x="607" 
d="M301 626q125 0 195 -96t70 -270q0 -179 -83.5 -279.5t-230.5 -100.5q-105 0 -203 56l45 113q58 -46 139 -46q68 0 112.5 44.5t60.5 126.5q-55 -29 -128 -29q-113 0 -176 62.5t-63 171.5q0 112 70 179.5t192 67.5zM196 384q0 -61 30 -96t82 -35q54 0 105 30
q-4 105 -35 163t-84 58q-45 0 -71.5 -31.5t-26.5 -88.5z" />
    <glyph glyph-name="zero.dnom" horiz-adv-x="424" 
d="M212 -6q-86 0 -134 58t-48 164t48 164t134 58q85 0 133.5 -58.5t48.5 -163.5t-48.5 -163.5t-133.5 -58.5zM211 82q31 0 47.5 35.5t16.5 98.5t-16.5 98.5t-47.5 35.5t-47.5 -35.5t-16.5 -98.5t16.5 -98.5t47.5 -35.5z" />
    <glyph glyph-name="one.dnom" horiz-adv-x="276" 
d="M227 432v-432h-111v303l-67 -32l-43 92l135 69h86z" />
    <glyph glyph-name="two.dnom" horiz-adv-x="365" 
d="M135 86h201v-86h-312v48q0 34 10 62t31 50.5t35.5 34t42.5 31.5q49 36 60 52q10 14 10 31q0 41 -47 41q-41 0 -92 -37l-39 74q67 51 148 51q71 0 109 -34.5t38 -97.5q0 -30 -19.5 -57.5t-35 -39.5t-53.5 -37q-7 -5 -10 -7q-56 -37 -67 -52q-10 -13 -10 -27z" />
    <glyph glyph-name="three.dnom" horiz-adv-x="362" 
d="M313 363l-89 -97q111 -39 111 -136q0 -63 -48 -99.5t-133 -36.5q-74 0 -137 35l36 78q37 -25 90 -25q35 0 55 14.5t20 39.5q0 60 -154 81l107 129h-131v86h273v-69z" />
    <glyph glyph-name="four.dnom" horiz-adv-x="388" 
d="M369 172v-86h-56v-86h-114v86h-182v74l151 278l98 -27l-135 -239h74v51l108 40v-91h56z" />
    <glyph glyph-name="five.dnom" horiz-adv-x="384" 
d="M169 280l32 -2q76 -5 117.5 -41t41.5 -94q0 -71 -47.5 -110t-135.5 -39q-95 0 -162 49l42 75q56 -36 114 -36q74 0 74 54q0 50 -72 55l-127 6l27 235h251v-86h-143z" />
    <glyph glyph-name="six.dnom" horiz-adv-x="395" 
d="M217 281q72 0 111 -36.5t39 -102.5q0 -70 -43.5 -109t-123.5 -39q-81 0 -125.5 56.5t-44.5 159.5q0 108 53.5 168t148.5 60q65 0 126 -34l-30 -82q-35 28 -82 28q-76 0 -96 -84q32 15 67 15zM204 82q47 0 47 58q0 30 -15 48t-41 18q-27 0 -51 -10q5 -114 60 -114z" />
    <glyph glyph-name="seven.dnom" horiz-adv-x="339" 
d="M322 432v-73l-170 -376l-107 33l153 330h-178v86h302z" />
    <glyph glyph-name="eight.dnom" horiz-adv-x="401" 
d="M313 227q59 -35 59 -105q0 -60 -45 -94t-126 -34q-83 0 -127.5 34t-44.5 94q0 72 59 105q-45 33 -45 92q0 57 41 88t117 31q74 0 115.5 -31t41.5 -88q0 -59 -45 -92zM200 352q-22 0 -34.5 -12t-12.5 -34q0 -21 12.5 -33t34.5 -12q21 0 34 12t13 33t-13 33.5t-34 12.5z
M200 81q26 0 42 14.5t16 39.5t-16 39.5t-42 14.5q-27 0 -42.5 -14.5t-15.5 -39.5t15.5 -39.5t42.5 -14.5z" />
    <glyph glyph-name="nine.dnom" horiz-adv-x="395" 
d="M197 438q81 0 124.5 -59.5t43.5 -168.5q0 -103 -53 -159.5t-148 -56.5q-65 0 -126 34l32 82q31 -28 84 -28q82 0 96 92q-36 -17 -72 -17q-71 0 -110.5 36t-39.5 100q0 67 44.5 106t124.5 39zM145 295q0 -29 15 -46t41 -17q24 0 51 9q-4 52 -20 80.5t-41 28.5
q-21 0 -33.5 -14.5t-12.5 -40.5z" />
    <glyph glyph-name="zero.numr" horiz-adv-x="424" 
d="M212 282q-86 0 -134 58t-48 164t48 164t134 58q85 0 133.5 -58.5t48.5 -163.5t-48.5 -163.5t-133.5 -58.5zM211 370q31 0 47.5 35.5t16.5 98.5t-16.5 98.5t-47.5 35.5t-47.5 -35.5t-16.5 -98.5t16.5 -98.5t47.5 -35.5z" />
    <glyph glyph-name="one.numr" horiz-adv-x="276" 
d="M227 720v-432h-111v303l-67 -32l-43 92l135 69h86z" />
    <glyph glyph-name="two.numr" horiz-adv-x="365" 
d="M135 374h201v-86h-312v48q0 34 10 62t31 50.5t35.5 34t42.5 31.5q49 36 60 52q10 14 10 31q0 41 -47 41q-41 0 -92 -37l-39 74q67 51 148 51q71 0 109 -34.5t38 -97.5q0 -30 -19.5 -57.5t-35 -39.5t-53.5 -37q-7 -5 -10 -7q-56 -37 -67 -52q-10 -13 -10 -27z" />
    <glyph glyph-name="three.numr" horiz-adv-x="362" 
d="M313 651l-89 -97q111 -39 111 -136q0 -63 -48 -99.5t-133 -36.5q-74 0 -137 35l36 78q37 -25 90 -25q35 0 55 14.5t20 39.5q0 60 -154 81l107 129h-131v86h273v-69z" />
    <glyph glyph-name="four.numr" horiz-adv-x="388" 
d="M369 460v-86h-56v-86h-114v86h-182v74l151 278l98 -27l-135 -239h74v51l108 40v-91h56z" />
    <glyph glyph-name="five.numr" horiz-adv-x="384" 
d="M169 568l32 -2q76 -5 117.5 -41t41.5 -94q0 -71 -47.5 -110t-135.5 -39q-95 0 -162 49l42 75q56 -36 114 -36q74 0 74 54q0 50 -72 55l-127 6l27 235h251v-86h-143z" />
    <glyph glyph-name="six.numr" horiz-adv-x="395" 
d="M217 569q72 0 111 -36.5t39 -102.5q0 -70 -43.5 -109t-123.5 -39q-81 0 -125.5 56.5t-44.5 159.5q0 108 53.5 168t148.5 60q65 0 126 -34l-30 -82q-35 28 -82 28q-76 0 -96 -84q32 15 67 15zM204 370q47 0 47 58q0 30 -15 48t-41 18q-27 0 -51 -10q5 -114 60 -114z" />
    <glyph glyph-name="seven.numr" horiz-adv-x="339" 
d="M322 720v-73l-170 -376l-107 33l153 330h-178v86h302z" />
    <glyph glyph-name="eight.numr" horiz-adv-x="401" 
d="M313 515q59 -35 59 -105q0 -60 -45 -94t-126 -34q-83 0 -127.5 34t-44.5 94q0 72 59 105q-45 33 -45 92q0 57 41 88t117 31q74 0 115.5 -31t41.5 -88q0 -59 -45 -92zM200 640q-22 0 -34.5 -12t-12.5 -34q0 -21 12.5 -33t34.5 -12q21 0 34 12t13 33t-13 33.5t-34 12.5z
M200 369q26 0 42 14.5t16 39.5t-16 39.5t-42 14.5q-27 0 -42.5 -14.5t-15.5 -39.5t15.5 -39.5t42.5 -14.5z" />
    <glyph glyph-name="nine.numr" horiz-adv-x="395" 
d="M197 726q81 0 124.5 -59.5t43.5 -168.5q0 -103 -53 -159.5t-148 -56.5q-65 0 -126 34l32 82q31 -28 84 -28q82 0 96 92q-36 -17 -72 -17q-71 0 -110.5 36t-39.5 100q0 67 44.5 106t124.5 39zM145 583q0 -29 15 -46t41 -17q24 0 51 9q-4 52 -20 80.5t-41 28.5
q-21 0 -33.5 -14.5t-12.5 -40.5z" />
    <glyph glyph-name="backslash.case" horiz-adv-x="369" 
d="M132 730l208 -709l-103 -31l-207 709z" />
    <glyph glyph-name="exclamdown.case" horiz-adv-x="306" 
d="M246 640q0 42 -24.5 66t-68.5 24q-45 0 -69.5 -24t-24.5 -66t24.5 -66t69.5 -24q44 0 68.5 24t24.5 66zM79 475h149l5 -475h-159z" />
    <glyph glyph-name="numbersign.case" horiz-adv-x="809" 
d="M760 449h-103l-18 -165h105l-14 -121h-105l-18 -163h-160l18 163h-168l-18 -163h-160l19 163h-103l13 121h104l19 165h-104l13 121h105l17 150h160l-19 -150h168l16 150h160l-17 -150h104zM307 280h172l20 172h-172z" />
    <glyph glyph-name="questiondown.case" horiz-adv-x="511" 
d="M296 730q45 0 69.5 -24t24.5 -66t-24.5 -66t-69.5 -24q-44 0 -68.5 24t-24.5 66t24.5 66t68.5 24zM427 180l58 -106q-100 -84 -219 -84q-110 0 -172 51.5t-62 139.5q0 31 8.5 57.5t28.5 51.5t32 37t40 37q7 6 10 9q26 23 37.5 34.5t22.5 30.5t11 37h149
q0 -44 -18.5 -82.5t-37.5 -57.5t-51 -46q-64 -55 -64 -100q0 -71 89 -71q68 0 138 62z" />
    <glyph glyph-name="slash.case" horiz-adv-x="369" 
d="M237 730l102 -31l-207 -709l-103 31z" />
    <glyph glyph-name="numbersign.lf" horiz-adv-x="809" 
d="M760 449h-103l-18 -165h105l-14 -121h-105l-18 -163h-160l18 163h-168l-18 -163h-160l19 163h-103l13 121h104l19 165h-104l13 121h105l17 150h160l-19 -150h168l16 150h160l-17 -150h104zM307 280h172l20 172h-172z" />
    <glyph glyph-name="braceleft.case" horiz-adv-x="352" 
d="M263 249v-91q0 -88 53 -107l-76 -111q-138 53 -138 190v107q0 28 -18 44t-50 16v128q32 0 50 15.5t18 43.5v106q0 137 138 190l76 -111q-53 -19 -53 -107v-91q0 -71 -63 -111q63 -38 63 -111z" />
    <glyph glyph-name="braceright.case" horiz-adv-x="352" 
d="M250 590v-106q0 -28 18 -43.5t50 -15.5v-128q-32 0 -50 -16t-18 -44v-107q0 -137 -138 -190l-76 111q53 19 53 107v91q0 73 63 111q-63 40 -63 111v91q0 88 -53 107l76 111q138 -53 138 -190z" />
    <glyph glyph-name="bracketleft.case" horiz-adv-x="378" 
d="M337 646h-100v-572h100v-124h-262v820h262v-124z" />
    <glyph glyph-name="bracketright.case" horiz-adv-x="378" 
d="M303 770v-820h-262v124h100v572h-100v124h262z" />
    <glyph glyph-name="parenleft.case" horiz-adv-x="343" 
d="M313 -5l-128 -55q-143 183 -143 420t143 420l128 -55q-104 -148 -104 -362q0 -95 25.5 -193.5t78.5 -174.5z" />
    <glyph glyph-name="parenright.case" horiz-adv-x="343" 
d="M158 -60l-128 55q54 74 79 173t25 195q0 219 -104 362l128 55q143 -183 143 -420t-143 -420z" />
    <glyph glyph-name="emdash.case" horiz-adv-x="907" 
d="M59 421h788v-129h-788v129z" />
    <glyph glyph-name="endash.case" horiz-adv-x="622" 
d="M59 421h502v-129h-502v129z" />
    <glyph glyph-name="hyphen.case" horiz-adv-x="439" 
d="M59 421h320v-129h-320v129z" />
    <glyph glyph-name="uni00AD.case" horiz-adv-x="439" 
d="M59 421h320v-129h-320v129z" />
    <glyph glyph-name="guillemotleft.case" horiz-adv-x="586" 
d="M38 350l161 247l111 -65l-104 -182l104 -182l-111 -65zM268 350l161 247l111 -65l-104 -182l104 -182l-111 -65z" />
    <glyph glyph-name="guillemotright.case" horiz-adv-x="586" 
d="M319 350l-161 -247l-111 65l104 182l-104 182l111 65zM549 350l-161 -247l-111 65l104 182l-104 182l111 65z" />
    <glyph glyph-name="guilsinglleft.case" horiz-adv-x="357" 
d="M38 350l161 247l111 -65l-104 -182l104 -182l-111 -65z" />
    <glyph glyph-name="guilsinglright.case" horiz-adv-x="357" 
d="M319 350l-161 -247l-111 65l104 182l-104 182l111 65z" />
    <glyph glyph-name="dollar.case" horiz-adv-x="595" 
d="M561 218q0 -93 -56.5 -151.5t-159.5 -72.5v-106h-75v102q-142 5 -236 75l51 114q71 -55 185 -61v172q-118 43 -168 95.5t-50 138.5q0 90 57 143.5t161 61.5v101h75v-102q106 -11 192 -68l-68 -110q-53 38 -124 49v-147q120 -42 168 -93.5t48 -140.5zM196 541
q0 -27 17.5 -42.5t56.5 -27.5v129q-74 -9 -74 -59zM345 271v-149q74 15 74 71q0 27 -18.5 44.5t-55.5 33.5z" />
    <glyph glyph-name="Euro.case" horiz-adv-x="722" 
d="M623 176l67 -105q-46 -39 -109.5 -60t-117.5 -21q-135 0 -222 65.5t-116 186.5h-87v91h74v50h-74v91h86q28 123 115 189.5t224 66.5q111 0 211 -56l-62 -105q-70 33 -149 33q-123 0 -166 -122h252l-54 -97h-216v-44h193l-54 -97h-121q20 -60 63 -92t103 -32q80 0 160 58z
" />
    <glyph glyph-name="uni20BD.case" horiz-adv-x="706" 
d="M380 265h-87v-48h177v-97h-177v-120h-162v120h-81v97h81v48h-81v124h81v331q142 10 250 10q139 0 216.5 -60.5t77.5 -169.5q0 -112 -77.5 -173.5t-217.5 -61.5zM293 604v-215h86q62 0 95.5 29.5t33.5 81.5q0 50 -33.5 78t-94.5 28q-21 0 -87 -2z" />
    <glyph glyph-name="uni20B9.case" horiz-adv-x="629" 
d="M595 720v-97h-115q36 -33 46 -73h69v-97h-73q-24 -77 -116 -118q134 -48 134 -167v-81q0 -52 18 -76q-50 -21 -93 -21q-41 0 -64 24t-23 64v83q0 55 -34.5 86t-93.5 31h-193v97h168q108 0 131 78h-299v97h298q-30 73 -135 73h-163v97h538z" />
    <glyph glyph-name="sterling.case" horiz-adv-x="577" 
d="M278 303v-110q0 -38 -13 -64h267v-129h-486v122h18q52 0 52 101v80h-67v130h67v96q0 96 59.5 148.5t167.5 52.5q113 0 191 -38l-20 -117q-56 27 -131 27q-105 0 -105 -100v-69h191v-130h-191z" />
    <glyph glyph-name="yen.case" horiz-adv-x="672" 
d="M649 704l-213 -392h110v-129h-128v-183h-162v183h-130v129h112l-215 392q31 26 88 26q46 0 72 -12.5t43 -44.5l89 -176l37 -90l36 94l111 229z" />
    <glyph glyph-name="dollar.lf" horiz-adv-x="595" 
d="M561 218q0 -93 -56.5 -151.5t-159.5 -72.5v-106h-75v102q-142 5 -236 75l51 114q71 -55 185 -61v172q-118 43 -168 95.5t-50 138.5q0 90 57 143.5t161 61.5v101h75v-102q106 -11 192 -68l-68 -110q-53 38 -124 49v-147q120 -42 168 -93.5t48 -140.5zM196 541
q0 -27 17.5 -42.5t56.5 -27.5v129q-74 -9 -74 -59zM345 271v-149q74 15 74 71q0 27 -18.5 44.5t-55.5 33.5z" />
    <glyph glyph-name="Euro.lf" horiz-adv-x="722" 
d="M623 176l67 -105q-46 -39 -109.5 -60t-117.5 -21q-135 0 -222 65.5t-116 186.5h-87v91h74v50h-74v91h86q28 123 115 189.5t224 66.5q111 0 211 -56l-62 -105q-70 33 -149 33q-123 0 -166 -122h252l-54 -97h-216v-44h193l-54 -97h-121q20 -60 63 -92t103 -32q80 0 160 58z
" />
    <glyph glyph-name="uni20BD.lf" horiz-adv-x="706" 
d="M380 265h-87v-48h177v-97h-177v-120h-162v120h-81v97h81v48h-81v124h81v331q142 10 250 10q139 0 216.5 -60.5t77.5 -169.5q0 -112 -77.5 -173.5t-217.5 -61.5zM293 604v-215h86q62 0 95.5 29.5t33.5 81.5q0 50 -33.5 78t-94.5 28q-21 0 -87 -2z" />
    <glyph glyph-name="uni20B9.lf" horiz-adv-x="629" 
d="M595 720v-97h-115q36 -33 46 -73h69v-97h-73q-24 -77 -116 -118q134 -48 134 -167v-81q0 -52 18 -76q-50 -21 -93 -21q-41 0 -64 24t-23 64v83q0 55 -34.5 86t-93.5 31h-193v97h168q108 0 131 78h-299v97h298q-30 73 -135 73h-163v97h538z" />
    <glyph glyph-name="sterling.lf" horiz-adv-x="577" 
d="M278 303v-110q0 -38 -13 -64h267v-129h-486v122h18q52 0 52 101v80h-67v130h67v96q0 96 59.5 148.5t167.5 52.5q113 0 191 -38l-20 -117q-56 27 -131 27q-105 0 -105 -100v-69h191v-130h-191z" />
    <glyph glyph-name="yen.lf" horiz-adv-x="672" 
d="M649 704l-213 -392h110v-129h-128v-183h-162v183h-130v129h112l-215 392q31 26 88 26q46 0 72 -12.5t43 -44.5l89 -176l37 -90l36 94l111 229z" />
    <glyph glyph-name="divide.case" horiz-adv-x="512" 
d="M256 448q-40 0 -63 22t-23 61t23 60.5t63 21.5t63 -21.5t23 -60.5t-23 -61t-63 -22zM44 410h424v-116h-424v116zM256 91q-40 0 -63 22t-23 61t23 60.5t63 21.5t63 -21.5t23 -60.5t-23 -61t-63 -22z" />
    <glyph glyph-name="equal.case" horiz-adv-x="542" 
d="M59 502h424v-116h-424v116zM59 318h424v-116h-424v116z" />
    <glyph glyph-name="greater.case" horiz-adv-x="524" 
d="M65 582l424 -176v-107l-424 -175v123l290 106l-290 106v123z" />
    <glyph glyph-name="greaterequal.case" horiz-adv-x="556" 
d="M71 611l424 -126v-107l-424 -125v116l258 63l-258 63v116zM71 100v116h424v-116h-424z" />
    <glyph glyph-name="less.case" horiz-adv-x="524" 
d="M459 582v-123l-290 -106l290 -106v-123l-424 175v107z" />
    <glyph glyph-name="lessequal.case" horiz-adv-x="556" 
d="M485 611v-116l-258 -63l258 -63v-116l-424 125v107zM61 100v116h424v-116h-424z" />
    <glyph glyph-name="logicalnot.case" horiz-adv-x="533" 
d="M47 486h424v-259h-155v143h-269v116z" />
    <glyph glyph-name="minus.case" horiz-adv-x="542" 
d="M59 410h424v-116h-424v116z" />
    <glyph glyph-name="multiply.case" horiz-adv-x="528" 
d="M482 473l-117 -117l117 -118l-101 -101l-117 118l-118 -118l-101 101l118 118l-118 117l101 101l118 -117l117 117z" />
    <glyph glyph-name="notequal.case" horiz-adv-x="542" 
d="M483 386h-175l-20 -68h195v-116h-228l-30 -102h-57l30 102h-139v116h172l20 68h-192v116h226l30 104h57l-30 -104h141v-116z" />
    <glyph glyph-name="percent.case" horiz-adv-x="797" 
d="M193 360q-75 0 -117 48.5t-42 136.5t42 136.5t117 48.5t117 -48.5t42 -136.5t-42 -136.5t-117 -48.5zM123 43l461 687l87 -53l-461 -687zM194 448q46 0 46 97t-46 97q-47 0 -47 -97t47 -97zM605 -10q-75 0 -117 48.5t-42 136.5t42 136.5t117 48.5t117 -48.5t42 -136.5
t-42 -136.5t-117 -48.5zM605 78q46 0 46 97t-46 97q-47 0 -47 -97t47 -97z" />
    <glyph glyph-name="perthousand.case" horiz-adv-x="1139" 
d="M193 360q-75 0 -117 48.5t-42 136.5t42 136.5t117 48.5t117 -48.5t42 -136.5t-42 -136.5t-117 -48.5zM123 43l461 687l87 -53l-461 -687zM194 448q46 0 46 97t-46 97q-47 0 -47 -97t47 -97zM605 -10q-75 0 -117 48.5t-42 136.5t42 136.5t117 48.5t117 -48.5t42 -136.5
t-42 -136.5t-117 -48.5zM951 -10q-75 0 -117 48.5t-42 136.5t42 136.5t117 48.5t117 -48.5t42 -136.5t-42 -136.5t-117 -48.5zM605 78q46 0 46 97t-46 97q-47 0 -47 -97t47 -97zM951 78q21 0 33.5 25t12.5 72t-12.5 72t-33.5 25t-34 -25.5t-13 -71.5t13 -71.5t34 -25.5z" />
    <glyph glyph-name="plus.case" horiz-adv-x="503" 
d="M464 410v-116h-135v-154h-154v154h-135v116h134v154h155v-154h135z" />
    <glyph glyph-name="plusminus.case" horiz-adv-x="554" 
d="M354 503h135v-116h-135v-106h-154v106h-135v116h134v106h155v-106zM65 100v116h424v-116h-424z" />
    <glyph glyph-name="brevecombcy" 
d="M-124 733h110q0 -72 -45 -112.5t-125 -40.5q-81 0 -126 40.5t-45 112.5h109q0 -29 16.5 -45.5t45.5 -16.5q28 0 44 16.5t16 45.5z" />
    <glyph glyph-name="brevecy" horiz-adv-x="369" 
d="M245 733h110q0 -72 -45 -112.5t-125 -40.5q-81 0 -126 40.5t-45 112.5h109q0 -29 16.5 -45.5t45.5 -16.5q28 0 44 16.5t16 45.5z" />
    </font>
</defs>
</svg>
