<?xml version="1.0" standalone="no"?>
<!DOCTYPE svg PUBLIC "-//W3C//DTD SVG 1.1//EN" "http://www.w3.org/Graphics/SVG/1.1/DTD/svg11.dtd" >
<svg xmlns="http://www.w3.org/2000/svg" xmlns:xlink="http://www.w3.org/1999/xlink" version="1.1">
<metadata>
Created by FontForge 20170731 at Mon Aug  4 22:29:19 2014
 By Aleksey,,,
Copyright (c) 2016 by Alberto Romanos. All rights reserved.
</metadata>
<defs>
<font id="BwSurco-Book" horiz-adv-x="575" >
  <font-face 
    font-family="Bw Surco Book"
    font-weight="400"
    font-stretch="normal"
    units-per-em="1000"
    panose-1="0 0 4 0 0 0 0 0 0 0"
    ascent="770"
    descent="-230"
    x-height="493"
    cap-height="720"
    bbox="-715 -241 1220 1016"
    underline-thickness="50"
    underline-position="-250"
    unicode-range="U+000D-FB02"
  />
<missing-glyph horiz-adv-x="1274" 
d="M1214 369l-368 -372q-7 -7 -17 -7q-20 0 -20 23v324l-339 -340q-7 -7 -17 -7q-20 0 -20 23v324l-340 -340q-7 -7 -17 -7q-17 0 -17 18q0 10 5 15l342 341h-324q-23 0 -23 19q0 9 7 16l340 342h-327q-20 0 -20 19v1q0 19 20 19h370q23 0 23 -20q0 -9 -8 -17l-341 -340h330
q8 0 14 -6t6 -14v-327l339 338q9 8 17 8q18 0 18 -22v-324l340 338q8 8 16 8q17 0 17 -19q0 -7 -6 -14z" />
    <glyph glyph-name="fi" unicode="fi" horiz-adv-x="573" 
d="M492 493v-493h-61v444h-261v-444h-61v444h-82v49h82v130q0 75 39 116t108 41q63 0 108 -18l-9 -48q-36 14 -81 14q-51 0 -77.5 -31t-26.5 -89v-115h322zM461 678q41 0 41 -40q0 -38 -41 -38t-41 38q0 40 41 40z" />
    <glyph glyph-name="fl" unicode="fl" horiz-adv-x="606" 
d="M570 49l9 -40q-25 -19 -64 -19q-34 0 -53 18.5t-19 52.5v383h-273v-444h-61v444h-82v49h82v130q0 75 39 116t108 41q61 0 106 -18l-9 -48q-36 14 -79 14q-51 0 -77.5 -31t-26.5 -89v-115h273v279q13 8 27 8q34 0 34 -45v-661q0 -32 27 -32q24 0 39 7z" />
    <glyph glyph-name="f_f" unicode="ff" horiz-adv-x="674" 
d="M585 728q-51 0 -77.5 -31t-26.5 -89v-115h175v-49h-175v-444h-61v444h-250v-444h-61v444h-82v49h82v130q0 75 39 116t108 41q61 0 106 -18l-9 -48q-36 14 -79 14q-51 0 -77.5 -31t-26.5 -89v-115h250v130q0 75 39 116t108 41q67 0 111 -19l-9 -49q-36 16 -84 16z" />
    <glyph glyph-name="f_f_i" unicode="ffi" horiz-adv-x="884" 
d="M803 493v-493h-61v444h-262v-444h-61v444h-249v-444h-61v444h-82v49h82v130q0 75 39 116t108 41q61 0 106 -18l-9 -48q-36 14 -79 14q-51 0 -77.5 -31t-26.5 -89v-115h249v130q0 75 39 116t108 41q63 0 108 -18l-9 -48q-36 14 -81 14q-51 0 -77.5 -31t-26.5 -89v-115h323
zM772 678q41 0 41 -40q0 -38 -41 -38t-41 38q0 40 41 40z" />
    <glyph glyph-name="f_f_l" unicode="ffl" horiz-adv-x="917" 
d="M881 49l9 -40q-25 -19 -64 -19q-34 0 -53 18.5t-19 52.5v383h-274v-444h-61v444h-249v-444h-61v444h-82v49h82v130q0 75 39 116t108 41q61 0 106 -18l-9 -48q-36 14 -79 14q-51 0 -77.5 -31t-26.5 -89v-115h249v130q0 75 39 116t108 41q61 0 106 -18l-9 -48
q-36 14 -79 14q-51 0 -77.5 -31t-26.5 -89v-115h274v279q13 8 27 8q34 0 34 -45v-661q0 -32 27 -32q24 0 39 7z" />
    <glyph glyph-name=".notdef" horiz-adv-x="1274" 
d="M1214 369l-368 -372q-7 -7 -17 -7q-20 0 -20 23v324l-339 -340q-7 -7 -17 -7q-20 0 -20 23v324l-340 -340q-7 -7 -17 -7q-17 0 -17 18q0 10 5 15l342 341h-324q-23 0 -23 19q0 9 7 16l340 342h-327q-20 0 -20 19v1q0 19 20 19h370q23 0 23 -20q0 -9 -8 -17l-341 -340h330
q8 0 14 -6t6 -14v-327l339 338q9 8 17 8q18 0 18 -22v-324l340 338q8 8 16 8q17 0 17 -19q0 -7 -6 -14z" />
    <glyph glyph-name="uni0000" horiz-adv-x="0" 
 />
    <glyph glyph-name="uni0000" horiz-adv-x="0" 
 />
    <glyph glyph-name="uni000D" unicode="&#xd;" horiz-adv-x="248" 
 />
    <glyph glyph-name="space" unicode=" " horiz-adv-x="248" 
 />
    <glyph glyph-name="exclam" unicode="!" horiz-adv-x="246" 
d="M156 720l-5 -542h-55l-5 542h65zM123 -10q45 0 45 43t-45 43q-21 0 -33 -11.5t-12 -31.5t12 -31.5t33 -11.5z" />
    <glyph glyph-name="quotedbl" unicode="&#x22;" horiz-adv-x="292" 
d="M60 770h65l-9 -173h-45zM165 770h65l-9 -173h-45z" />
    <glyph glyph-name="numbersign" unicode="#" horiz-adv-x="634" 
d="M580 406h-102l-20 -192h101l-6 -49h-100l-18 -165h-62l18 165h-181l-18 -165h-62l18 165h-101l5 49h101l21 192h-100l5 48h101l16 149h62l-16 -149h179l16 149h62l-16 -149h103zM216 214h179l21 192h-179z" />
    <glyph glyph-name="dollar" unicode="$" horiz-adv-x="473" 
d="M430 154q0 -71 -43 -113t-124 -50v-101h-43v100q-115 2 -175 44l19 43q54 -37 156 -39v244q-77 28 -117.5 66.5t-40.5 107.5q0 68 41.5 109t116.5 47v108h43v-107q75 -4 137 -37l-27 -44q-58 28 -110 32v-235q37 -13 62 -25.5t51.5 -32.5t40 -49.5t13.5 -67.5zM121 464
q0 -45 25.5 -72.5t73.5 -46.5v219q-47 -5 -73 -31t-26 -69zM263 267v-227q52 8 80.5 36.5t28.5 73.5q0 42 -26.5 68t-82.5 49z" />
    <glyph glyph-name="percent" unicode="%" horiz-adv-x="662" 
d="M172 301q-58 0 -90 41t-32 115q0 73 32 114.5t90 41.5q57 0 89 -41.5t32 -114.5q0 -74 -32 -115t-89 -41zM102 16l421 597l37 -26l-421 -597zM172 341q35 0 54 30.5t19 85.5q0 54 -19 84.5t-54 30.5q-34 0 -53 -30.5t-19 -84.5q0 -55 19 -85.5t53 -30.5zM489 -10
q-58 0 -90 41t-32 114q0 74 32 115t90 41q57 0 89 -41t32 -115q0 -73 -32 -114t-89 -41zM489 30q35 0 54 30.5t19 84.5q0 55 -19 85.5t-54 30.5q-34 0 -53 -30.5t-19 -85.5q0 -54 19 -84.5t53 -30.5z" />
    <glyph glyph-name="ampersand" unicode="&#x26;" horiz-adv-x="641" 
d="M476 136q55 -52 140 -128q-14 -18 -39 -18q-33 0 -62 28q-36 32 -74 70q-86 -98 -222 -98q-79 0 -122.5 38t-43.5 107q0 145 115 277q-47 86 -47 151q0 78 52 122.5t145 44.5q116 0 208 -83l-25 -46q-75 72 -177 72q-66 0 -102 -29t-36 -83q0 -132 251 -387q52 89 80 248
l55 -15q-31 -169 -96 -271zM225 45q108 0 178 81q-126 124 -202 233q-85 -105 -85 -221q0 -45 28.5 -69t80.5 -24z" />
    <glyph glyph-name="quotesingle" unicode="'" horiz-adv-x="187" 
d="M60 770h65l-9 -173h-45z" />
    <glyph glyph-name="parenleft" unicode="(" horiz-adv-x="273" 
d="M235 -218l-53 -22q-125 235 -125 510t125 510l53 -22q-113 -219 -113 -488t113 -488z" />
    <glyph glyph-name="parenright" unicode=")" horiz-adv-x="273" 
d="M91 -240l-53 22q113 219 113 488t-113 488l53 22q125 -235 125 -510t-125 -510z" />
    <glyph glyph-name="asterisk" unicode="*" horiz-adv-x="378" 
d="M326 654l-106 -30l67 -85l-38 -28l-60 92l-60 -90l-38 27l68 86l-104 29l14 44l102 -38l-4 109h47l-5 -109l103 37z" />
    <glyph glyph-name="plus" unicode="+" horiz-adv-x="473" 
d="M421 276v-48h-154v-161h-62v161h-154v48h154v161h61v-161h155z" />
    <glyph glyph-name="comma" unicode="," horiz-adv-x="222" 
d="M112 76q46 0 46 -66q0 -40 -16 -69t-56 -55l-14 24q46 32 50 82q-14 -2 -20 -2q-35 0 -35 40q0 22 12 34t33 12z" />
    <glyph glyph-name="hyphen" unicode="-" horiz-adv-x="397" 
d="M72 276h253v-51h-253v51z" />
    <glyph glyph-name="period" unicode="." horiz-adv-x="224" 
d="M112 -10q-21 0 -33 11.5t-12 31.5t12 31.5t33 11.5q45 0 45 -43t-45 -43z" />
    <glyph glyph-name="slash" unicode="/" horiz-adv-x="378" 
d="M293 780l50 -15l-258 -885l-50 15z" />
    <glyph glyph-name="zero" unicode="0" horiz-adv-x="592" 
d="M296 -10q-112 0 -174 81.5t-62 229.5t62 230t174 82t174 -82.5t62 -229.5t-62 -229t-174 -82zM296 42q82 0 128 68t46 191t-46 191.5t-128 68.5t-128 -68.5t-46 -191.5t46 -191t128 -68z" />
    <glyph glyph-name="one" unicode="1" horiz-adv-x="316" 
d="M224 603v-603h-61v534l-115 -62l-25 48l152 83h49z" />
    <glyph glyph-name="two" unicode="2" horiz-adv-x="520" 
d="M109 49h360v-49h-423v34q0 30 12 58t26.5 48t44 45t48 38t55.5 38q34 23 50 34.5t42.5 33t39 38t22.5 39t10 45.5q0 52 -33.5 81t-95.5 29q-102 0 -177 -72l-25 40q87 84 208 84q88 0 136.5 -42.5t48.5 -118.5q0 -29 -12.5 -57.5t-26.5 -47t-46.5 -45.5t-48 -38
t-56.5 -39q-51 -34 -78.5 -55t-53 -54.5t-27.5 -66.5z" />
    <glyph glyph-name="three" unicode="3" horiz-adv-x="528" 
d="M450 564l-232 -245q127 -35 195 -89.5t68 -141.5q0 -99 -63 -153.5t-177 -54.5q-121 0 -206 68l24 43q75 -59 179 -59q86 0 133.5 41t47.5 116q0 77 -69 122t-226 83l246 260h-294v49h374v-39z" />
    <glyph glyph-name="four" unicode="4" horiz-adv-x="535" 
d="M513 49v-49h-96v-110h-61v110h-333v37l278 576l54 -15l-266 -549h268v190l60 24v-214h96z" />
    <glyph glyph-name="five" unicode="5" horiz-adv-x="541" 
d="M147 323l126 -4q104 -3 162 -60t58 -156q0 -106 -64.5 -164.5t-181.5 -58.5q-127 0 -213 73l31 43q82 -64 181 -64q87 0 135 44.5t48 124.5q0 78 -43.5 123t-120.5 47l-185 4l36 328h330v-49h-272z" />
    <glyph glyph-name="six" unicode="6" horiz-adv-x="561" 
d="M286 443q106 0 165 -56.5t59 -159.5q0 -112 -58.5 -174.5t-163.5 -62.5q-108 0 -168.5 95t-60.5 265q0 179 70 279.5t195 100.5q100 0 171 -51l-20 -48q-61 47 -148 47t-140 -70t-64 -199q72 34 163 34zM289 42q75 0 116.5 48.5t41.5 135.5q0 80 -44 124t-124 44
q-87 0 -158 -34v-10q0 -146 44 -227t124 -81z" />
    <glyph glyph-name="seven" unicode="7" horiz-adv-x="499" 
d="M470 603v-39l-313 -703l-57 18l304 675h-370v49h436z" />
    <glyph glyph-name="eight" unicode="8" horiz-adv-x="576" 
d="M390 376q130 -42 130 -185q0 -95 -60.5 -148t-171.5 -53q-110 0 -171 53t-61 148q0 69 34 117t97 68q-107 42 -107 168q0 88 54.5 137t153.5 49t153.5 -49t54.5 -137q0 -126 -106 -168zM142 539q0 -67 38.5 -103.5t107.5 -36.5t107.5 36.5t38.5 103.5q0 66 -38.5 102.5
t-107.5 36.5t-107.5 -36.5t-38.5 -102.5zM288 42q81 0 125.5 40t44.5 114t-44.5 114.5t-125.5 40.5t-125.5 -40.5t-44.5 -114.5t44.5 -114t125.5 -40z" />
    <glyph glyph-name="nine" unicode="9" horiz-adv-x="560" 
d="M273 613q108 0 168.5 -93.5t60.5 -259.5q0 -179 -70 -279.5t-195 -100.5q-98 0 -172 51l21 48q61 -47 148 -47t140 70t64 199q-75 -34 -163 -34q-106 0 -165 56t-59 156q0 109 58.5 171.5t163.5 62.5zM281 216q87 0 159 35v9q0 142 -44.5 221.5t-123.5 79.5
q-75 0 -117 -48t-42 -133q0 -78 44 -121t124 -43z" />
    <glyph glyph-name="colon" unicode=":" horiz-adv-x="233" 
d="M117 417q-21 0 -33 11.5t-12 31.5t12 31.5t33 11.5q45 0 45 -43t-45 -43zM117 -10q-21 0 -33 11.5t-12 31.5t12 31.5t33 11.5q45 0 45 -43t-45 -43z" />
    <glyph glyph-name="semicolon" unicode=";" horiz-adv-x="234" 
d="M117 417q-21 0 -33 11.5t-12 31.5t12 31.5t33 11.5q45 0 45 -43t-45 -43zM117 76q46 0 46 -66q0 -40 -16 -69t-56 -55l-14 24q46 32 50 82q-14 -2 -20 -2q-35 0 -35 40q0 22 12 34t33 12z" />
    <glyph glyph-name="less" unicode="&#x3c;" horiz-adv-x="489" 
d="M416 448v-51l-320 -144l320 -144v-51l-370 170v49z" />
    <glyph glyph-name="equal" unicode="=" horiz-adv-x="520" 
d="M75 341h370v-48h-370v48zM75 211h370v-48h-370v48z" />
    <glyph glyph-name="greater" unicode="&#x3e;" horiz-adv-x="489" 
d="M73 448l370 -171v-49l-370 -170v51l320 144l-320 144v51z" />
    <glyph glyph-name="question" unicode="?" horiz-adv-x="445" 
d="M54 601l-25 46q81 83 188 83q89 0 138 -46.5t49 -128.5q0 -17 -3 -33.5t-6 -28.5t-11.5 -28t-13 -24.5t-17 -24.5t-16.5 -21t-19 -22.5t-18 -20.5q-33 -37 -46 -53.5t-29 -51t-16 -69.5h-55q0 46 17 88t34 63.5t50 58.5q40 43 61.5 80.5t21.5 85.5q0 57 -33 88t-93 31
q-92 0 -158 -72zM182 -10q-21 0 -33 11.5t-12 31.5t12 31.5t33 11.5q45 0 45 -43t-45 -43z" />
    <glyph glyph-name="at" unicode="@" horiz-adv-x="1034" 
d="M515 780q217 0 338.5 -130t121.5 -361q0 -111 -47.5 -172t-133.5 -61q-128 0 -167 120q-19 -57 -63 -88.5t-107 -31.5q-69 0 -108 53.5t-39 150.5q0 106 52 165.5t145 59.5q73 0 166 -11v-204q0 -78 32 -120.5t89 -42.5t88.5 48t31.5 134q0 207 -105.5 323.5
t-293.5 116.5t-293 -121t-105 -338t105 -338t293 -121q134 0 238 67l24 -47q-118 -71 -262 -71q-217 0 -338.5 134.5t-121.5 375.5t121.5 375.5t338.5 134.5zM470 106q68 0 106 45t38 125v153q-60 5 -104 5q-64 0 -101.5 -46.5t-37.5 -127.5q0 -73 25.5 -113.5t73.5 -40.5z
" />
    <glyph glyph-name="A" unicode="A" horiz-adv-x="629" 
d="M536 0l-65 192h-316l-65 -192h-68l256 722q21 8 36 8q33 0 48 -39l245 -691h-71zM173 246h280l-140 417z" />
    <glyph glyph-name="B" unicode="B" horiz-adv-x="600" 
d="M392 382q155 -42 155 -188q0 -97 -68 -150.5t-190 -53.5q-96 0 -192 10v720q120 10 172 10q118 0 183 -49t65 -137q0 -120 -125 -162zM270 676q-57 0 -109 -4v-266h109q85 0 133 35.5t48 98.5q0 64 -48 100t-133 36zM290 44q90 0 140.5 41t50.5 114q0 72 -50 112.5
t-141 40.5h-129v-303q72 -5 129 -5z" />
    <glyph glyph-name="C" unicode="C" horiz-adv-x="604" 
d="M544 103l29 -48q-85 -65 -223 -65t-214.5 94.5t-76.5 275.5q0 182 75.5 276t212.5 94q136 0 205 -106l-59 -27q-49 76 -147 76q-108 0 -165 -86t-57 -227t58.5 -227t169.5 -86q122 0 192 56z" />
    <glyph glyph-name="D" unicode="D" horiz-adv-x="671" 
d="M265 730q165 0 257 -97.5t92 -272.5t-92 -272.5t-257 -97.5q-88 0 -168 10v720q107 10 168 10zM265 44q134 0 208.5 83.5t74.5 232.5t-74.5 232.5t-208.5 83.5q-42 0 -104 -6v-621q48 -5 104 -5z" />
    <glyph glyph-name="E" unicode="E" horiz-adv-x="542" 
d="M161 54h328v-54h-392v720h381v-54h-317v-266h282v-54h-282v-292z" />
    <glyph glyph-name="F" unicode="F" horiz-adv-x="494" 
d="M461 666h-300v-289h248v-55h-248v-322h-64v720h364v-54z" />
    <glyph glyph-name="G" unicode="G" horiz-adv-x="664" 
d="M347 385h252v-387q-13 -8 -26 -8q-37 0 -37 51v41q-60 -92 -191 -92q-135 0 -210.5 94.5t-75.5 275.5q0 182 78.5 276t219.5 94q136 0 205 -106l-59 -27q-49 76 -147 76q-113 0 -172.5 -86t-59.5 -227t59.5 -227t172.5 -86q72 0 125.5 41.5t53.5 115.5v127h-188v54z" />
    <glyph glyph-name="H" unicode="H" horiz-adv-x="719" 
d="M585 730q17 0 27.5 -13t10.5 -38v-679h-64v339h-398v-339h-64v722q11 8 26 8q17 0 27.5 -13t10.5 -38v-286h398v329q11 8 26 8z" />
    <glyph glyph-name="I" unicode="I" horiz-adv-x="257" 
d="M161 0h-64v722q11 8 26 8q17 0 27.5 -13t10.5 -38v-679z" />
    <glyph glyph-name="J" unicode="J" horiz-adv-x="364" 
d="M208 177v545q11 8 26 8q17 0 27.5 -13t10.5 -38v-522q0 -79 -38.5 -123t-106.5 -44q-64 0 -106 19l9 54q33 -16 80 -16q98 0 98 130z" />
    <glyph glyph-name="K" unicode="K" horiz-adv-x="597" 
d="M123 730q17 0 27.5 -13t10.5 -38v-679h-64v722q11 8 26 8zM245 368l350 -365q-14 -13 -36 -13q-36 0 -66 33l-327 341l326 366l66 -13z" />
    <glyph glyph-name="L" unicode="L" horiz-adv-x="468" 
d="M161 55h282v-55h-346v722q11 8 26 8q17 0 27.5 -13t10.5 -38v-624z" />
    <glyph glyph-name="M" unicode="M" horiz-adv-x="881" 
d="M823 0h-64l-68 626l-217 -626h-68l-219 626l-65 -626h-62l80 722q18 8 34 8q41 0 54 -38l217 -628l224 658q14 8 30 8q39 0 44 -44z" />
    <glyph glyph-name="N" unicode="N" horiz-adv-x="719" 
d="M560 720h63v-720h-50l-416 601l3 -601h-63v722q11 8 24 8q24 0 46 -34l396 -576z" />
    <glyph glyph-name="O" unicode="O" horiz-adv-x="740" 
d="M370 -10q-147 0 -229 97.5t-82 272.5t82 272.5t229 97.5t229.5 -97.5t82.5 -272.5t-82.5 -272.5t-229.5 -97.5zM369 47q116 0 181.5 82.5t65.5 230.5t-65.5 230.5t-181.5 82.5t-180.5 -82.5t-64.5 -230.5t64.5 -230.5t180.5 -82.5z" />
    <glyph glyph-name="P" unicode="P" horiz-adv-x="587" 
d="M290 730q125 0 193.5 -57t68.5 -160q0 -105 -69 -163t-194 -58q-60 0 -128 5v-297h-64v720q109 10 193 10zM290 346q93 0 144.5 44t51.5 123q0 77 -51 120t-144 43q-58 0 -130 -5v-320q67 -5 129 -5z" />
    <glyph glyph-name="Q" unicode="Q" horiz-adv-x="740" 
d="M682 360q0 -164 -72.5 -260t-203.5 -108l28 -57q33 -68 134 -90l-29 -48q-124 30 -173 134l-29 60q-132 12 -205 108.5t-73 260.5q0 175 82 272.5t229 97.5t229.5 -97.5t82.5 -272.5zM369 47q116 0 181.5 82.5t65.5 230.5t-65.5 230.5t-181.5 82.5t-180.5 -82.5
t-64.5 -230.5t64.5 -230.5t180.5 -82.5z" />
    <glyph glyph-name="R" unicode="R" horiz-adv-x="625" 
d="M553 172l10 -128q2 -25 11 -46q-18 -8 -38 -8q-34 0 -37 48l-10 130q-5 73 -48.5 112.5t-123.5 39.5h-156v-320h-64v720q103 10 183 10q129 0 200.5 -53t71.5 -148q0 -135 -142 -178q132 -37 143 -179zM281 676q-55 0 -120 -5v-297h119q98 0 152 40t54 111
q0 72 -53.5 111.5t-151.5 39.5z" />
    <glyph glyph-name="S" unicode="S" horiz-adv-x="539" 
d="M275 730q104 0 197 -63l-28 -52q-80 58 -172 58q-66 0 -103.5 -31t-37.5 -88q0 -32 12 -57t38 -43t48 -29t61 -26q39 -16 57.5 -24t50.5 -28t47 -39.5t27.5 -51.5t12.5 -72q0 -92 -58 -143t-163 -51q-136 0 -218 63l22 54q69 -60 194 -60q75 0 116.5 34t41.5 96
q0 28 -10 51.5t-22 38t-39 30t-42.5 22.5t-50.5 21q-32 13 -46.5 19.5t-42.5 21t-41.5 28t-29.5 33.5t-23 46t-7 58q0 88 55 136t154 48z" />
    <glyph glyph-name="T" unicode="T" horiz-adv-x="518" 
d="M494 720v-54h-203v-666h-64v666h-203v54h470z" />
    <glyph glyph-name="U" unicode="U" horiz-adv-x="687" 
d="M535 266v456q11 8 26 8q37 0 37 -51v-417q0 -129 -67 -200.5t-188 -71.5q-120 0 -186.5 71.5t-66.5 200.5v460q11 8 26 8q17 0 27.5 -13t10.5 -38v-413q0 -104 49.5 -161.5t139.5 -57.5q91 0 141.5 57.5t50.5 161.5z" />
    <glyph glyph-name="V" unicode="V" horiz-adv-x="637" 
d="M546 730l64 -13l-254 -717h-75l-254 717q13 13 34 13q31 0 45 -36l186 -550l29 -90l29 93z" />
    <glyph glyph-name="W" unicode="W" horiz-adv-x="985" 
d="M893 730l64 -13l-211 -717h-76l-163 562l-16 60l-14 -58l-159 -564h-77l-213 717q14 13 37 13q32 0 41 -36l158 -564l18 -73l18 75l161 585q10 13 32 13q35 0 46 -38l152 -557l19 -77l20 80z" />
    <glyph glyph-name="X" unicode="X" horiz-adv-x="594" 
d="M294 316l-208 -316h-70l241 365l-226 352q13 13 35 13q32 0 53 -33l179 -283l200 316l63 -13l-226 -352l240 -362q-10 -13 -33 -13q-35 0 -56 33z" />
    <glyph glyph-name="Y" unicode="Y" horiz-adv-x="606" 
d="M579 717l-244 -409v-308h-64v306l-244 411q10 13 32 13q37 0 56 -33l150 -256l42 -79l43 83l166 285z" />
    <glyph glyph-name="Z" unicode="Z" horiz-adv-x="544" 
d="M159 133l-52 -79h397v-54h-474v42l344 554l45 70h-366v54h444q7 -11 7 -22q0 -14 -22 -48z" />
    <glyph glyph-name="bracketleft" unicode="[" horiz-adv-x="288" 
d="M252 716h-95v-892h95v-54h-159v1000h159v-54z" />
    <glyph glyph-name="backslash" unicode="\" horiz-adv-x="378" 
d="M85 780l258 -885l-50 -15l-258 885z" />
    <glyph glyph-name="bracketright" unicode="]" horiz-adv-x="288" 
d="M195 770v-1000h-159v54h95v892h-95v54h159z" />
    <glyph glyph-name="asciicircum" unicode="^" horiz-adv-x="428" 
d="M382 353h-62l-106 287l-106 -287h-61l143 367h48z" />
    <glyph glyph-name="underscore" unicode="_" horiz-adv-x="555" 
d="M50 -67h455v-43h-455v43z" />
    <glyph glyph-name="grave" unicode="`" horiz-adv-x="220" 
d="M52 739l151 -107l-20 -36l-167 83z" />
    <glyph glyph-name="a" unicode="a" horiz-adv-x="505" 
d="M251 503q84 0 130.5 -46.5t46.5 -130.5v-328q-11 -8 -27 -8q-33 0 -33 48v56q-28 -47 -78 -75.5t-104 -28.5q-72 0 -111.5 39t-39.5 109q0 72 53.5 111.5t150.5 39.5q53 0 128 -7v29q0 67 -32.5 104t-92.5 37q-86 0 -144 -43l-25 42q75 52 178 52zM199 40
q63 0 115.5 45.5t52.5 118.5v32q-65 6 -127 6q-69 0 -106.5 -26.5t-37.5 -74.5t27 -74.5t76 -26.5z" />
    <glyph glyph-name="b" unicode="b" horiz-adv-x="576" 
d="M327 503q95 0 145.5 -66.5t50.5 -187.5q0 -123 -66 -191t-185 -68q-104 0 -190 10v772q13 8 27 8q34 0 34 -45v-334q29 47 79 74.5t105 27.5zM270 40q91 0 141 55t50 154q0 97 -38 149.5t-112 52.5q-63 0 -115.5 -45t-52.5 -117v-244q72 -5 127 -5z" />
    <glyph glyph-name="c" unicode="c" horiz-adv-x="490" 
d="M431 95l23 -50q-70 -55 -176 -55t-165 67.5t-59 189.5q0 120 59.5 188t163.5 68q51 0 94 -24.5t66 -75.5l-50 -20q-38 68 -109 68q-76 0 -119 -54t-43 -150q0 -97 43 -151t121 -54q90 0 151 53z" />
    <glyph glyph-name="d" unicode="d" horiz-adv-x="576" 
d="M461 780q34 0 34 -45v-737q-13 -8 -27 -8q-33 0 -33 48v56q-29 -48 -79 -76t-106 -28q-95 0 -145.5 66.5t-50.5 187.5q0 122 66 190.5t185 68.5q54 0 129 -5v274q13 8 27 8zM434 204v243q-72 5 -127 5q-90 0 -140.5 -55t-50.5 -153q0 -96 39 -149t111 -53q64 0 116 43.5
t52 118.5z" />
    <glyph glyph-name="e" unicode="e" horiz-adv-x="509" 
d="M265 41q99 0 166 42l25 -42q-81 -51 -193 -51q-100 0 -155 63t-55 176q0 130 61.5 202t173.5 72q80 0 124.5 -41.5t44.5 -115.5q0 -73 -55.5 -114t-154.5 -41q-60 0 -132 15q5 -79 43.5 -122t106.5 -43zM280 451q-75 0 -117.5 -52.5t-47.5 -148.5q72 -13 132 -13
q71 0 110 28.5t39 79.5t-30.5 78.5t-85.5 27.5z" />
    <glyph glyph-name="f" unicode="f" horiz-adv-x="363" 
d="M274 728q-51 0 -77.5 -31t-26.5 -89v-115h175v-49h-175v-444h-61v444h-82v49h82v130q0 75 39 116t108 41q67 0 111 -19l-9 -49q-36 16 -84 16z" />
    <glyph glyph-name="g" unicode="g" horiz-adv-x="576" 
d="M304 503q104 0 190 -10v-536q0 -94 -51.5 -145.5t-145.5 -51.5q-114 0 -198 51l25 42q68 -42 164 -42q71 0 108 41.5t37 119.5v120q-29 -47 -79 -74.5t-105 -27.5q-95 0 -145.5 66.5t-50.5 187.5q0 122 66 190.5t185 68.5zM433 204v243q-72 5 -127 5q-90 0 -140.5 -55
t-50.5 -153q0 -96 39 -149t111 -53q63 0 115.5 44.5t52.5 117.5z" />
    <glyph glyph-name="h" unicode="h" horiz-adv-x="573" 
d="M336 503q76 0 118.5 -46.5t42.5 -130.5v-326h-61v311q0 66 -30 103t-84 37q-79 0 -129 -43.5t-50 -118.5v-289h-61v772q13 8 27 8q34 0 34 -45v-328q60 96 193 96z" />
    <glyph glyph-name="i" unicode="i" horiz-adv-x="224" 
d="M112 600q41 0 41 38q0 40 -41 40t-41 -40q0 -38 41 -38zM82 0v493h61v-493h-61z" />
    <glyph glyph-name="j" unicode="j" horiz-adv-x="224" 
d="M112 600q41 0 41 38q0 40 -41 40t-41 -40q0 -38 41 -38zM57 -240l-29 46q54 29 54 121v566h61v-582q0 -114 -86 -151z" />
    <glyph glyph-name="k" unicode="k" horiz-adv-x="505" 
d="M109 780q34 0 34 -45v-735h-61v772q13 8 27 8zM222 263l278 -261q-16 -12 -40 -12q-31 0 -62 31l-252 240l265 242l62 -13z" />
    <glyph glyph-name="l" unicode="l" horiz-adv-x="243" 
d="M152 -10q-34 0 -53 18.5t-19 52.5v711q13 8 27 8q34 0 34 -45v-661q0 -32 27 -32q24 0 39 7l9 -40q-25 -19 -64 -19z" />
    <glyph glyph-name="m" unicode="m" horiz-adv-x="847" 
d="M629 503q67 0 104.5 -46.5t37.5 -130.5v-326h-61v311q0 66 -25 103t-70 37q-70 0 -114 -43t-44 -119v-289h-61v311q0 66 -24.5 103t-69.5 37q-70 0 -114.5 -43.5t-44.5 -118.5v-289h-61v495q14 8 27 8q33 0 33 -48v-47q53 95 174 95q100 0 131 -100q62 100 182 100z" />
    <glyph glyph-name="n" unicode="n" horiz-adv-x="573" 
d="M336 503q76 0 118.5 -46.5t42.5 -130.5v-326h-61v311q0 66 -30 103t-84 37q-79 0 -129 -43.5t-50 -118.5v-289h-61v495q14 8 27 8q33 0 33 -48v-50q60 98 194 98z" />
    <glyph glyph-name="o" unicode="o" 
d="M288 -10q-112 0 -173.5 67.5t-61.5 188.5t62 189t173 68t172.5 -68t61.5 -189t-61.5 -188.5t-172.5 -67.5zM287 42q82 0 127.5 53.5t45.5 150.5t-45.5 151t-127.5 54q-81 0 -126.5 -54t-45.5 -151t45.5 -150.5t126.5 -53.5z" />
    <glyph glyph-name="p" unicode="p" horiz-adv-x="576" 
d="M327 503q95 0 145.5 -66.5t50.5 -187.5q0 -123 -66 -191t-185 -68q-54 0 -129 5v-225h-61v725q14 8 27 8q33 0 33 -48v-56q29 48 79 76t106 28zM270 40q91 0 141 55t50 154q0 97 -38 149.5t-112 52.5q-63 0 -115.5 -45t-52.5 -117v-244q72 -5 127 -5z" />
    <glyph glyph-name="q" unicode="q" horiz-adv-x="576" 
d="M305 503q104 0 190 -10v-723h-61v322q-29 -47 -79 -74.5t-105 -27.5q-95 0 -145.5 66.5t-50.5 187.5q0 122 66 190.5t185 68.5zM434 204v243q-72 5 -127 5q-90 0 -140.5 -55t-50.5 -153q0 -96 39 -149t111 -53q63 0 115.5 44.5t52.5 117.5z" />
    <glyph glyph-name="r" unicode="r" horiz-adv-x="398" 
d="M319 503q35 0 67 -15l-19 -61q-28 18 -63 18q-72 0 -117 -52t-45 -144v-249h-61v495q14 8 27 8q33 0 33 -48v-69q57 117 178 117z" />
    <glyph glyph-name="s" unicode="s" horiz-adv-x="450" 
d="M232 503q87 0 154 -37l-27 -45q-62 32 -133 32q-51 0 -79 -19.5t-28 -55.5q0 -19 8 -34t17.5 -24.5t31 -20.5t33 -15.5t40.5 -14.5q37 -13 58.5 -22.5t47.5 -26.5t38.5 -41t12.5 -55q0 -63 -49 -98.5t-139 -35.5q-120 0 -177 44l19 44q55 -38 155 -38q62 0 96 21t34 60
q0 35 -30.5 54.5t-91.5 39.5q-39 14 -60 23t-49.5 27.5t-42 44.5t-13.5 61q0 62 46 97t128 35z" />
    <glyph glyph-name="t" unicode="t" horiz-adv-x="368" 
d="M346 444h-178v-282q0 -120 94 -120q42 0 74 16l9 -49q-39 -19 -101 -19q-65 0 -101 41t-36 116v297h-82v49h83v127q14 8 27 8q33 0 33 -46v-89h178v-49z" />
    <glyph glyph-name="u" unicode="u" horiz-adv-x="562" 
d="M447 503q34 0 34 -46v-459q-13 -8 -27 -8q-33 0 -33 48v48q-57 -96 -184 -96q-76 0 -118.5 46.5t-42.5 130.5v328q14 8 27 8q34 0 34 -46v-275q0 -66 30 -103t84 -37q74 0 121.5 43t47.5 119v291q14 8 27 8z" />
    <glyph glyph-name="v" unicode="v" horiz-adv-x="514" 
d="M430 503l57 -13l-195 -490h-70l-195 490q17 13 34 13q26 0 41 -36l121 -315l37 -101l38 106z" />
    <glyph glyph-name="w" unicode="w" horiz-adv-x="784" 
d="M700 503l56 -13l-163 -490h-67l-113 342l-23 73l-21 -73l-109 -342h-68l-164 490q15 13 33 13q30 0 42 -36l102 -325l24 -83l25 86l110 345q13 13 31 13q28 0 40 -36l99 -317l27 -90l27 93z" />
    <glyph glyph-name="x" unicode="x" horiz-adv-x="484" 
d="M240 207l-152 -207h-66l184 249l-173 241q15 13 36 13q14 0 23 -6.5t24 -26.5l128 -178l149 211l57 -13l-172 -241l182 -247q-12 -12 -30 -12q-27 0 -52 31z" />
    <glyph glyph-name="y" unicode="y" horiz-adv-x="518" 
d="M431 503l57 -13l-220 -577q-46 -120 -135 -153l-26 42q69 26 106 114l34 84q-23 3 -32 26l-185 464q15 13 33 13q27 0 42 -36l119 -306l41 -117l40 117z" />
    <glyph glyph-name="z" unicode="z" horiz-adv-x="455" 
d="M103 49h313v-49h-383v39l256 348l45 57h-284v49h358q7 -11 7 -19q0 -13 -22 -42l-242 -324z" />
    <glyph glyph-name="braceleft" unicode="{" horiz-adv-x="282" 
d="M181 166v-239q0 -92 54 -121l-31 -46q-86 37 -86 151v248q0 39 -22.5 60.5t-61.5 21.5v57q39 0 61.5 22t22.5 61v248q0 114 86 151l31 -46q-54 -29 -54 -121v-240q0 -74 -65 -103q65 -29 65 -104z" />
    <glyph glyph-name="bar" unicode="|" horiz-adv-x="243" 
d="M93 770h56v-1000h-56v1000z" />
    <glyph glyph-name="braceright" unicode="}" horiz-adv-x="282" 
d="M164 629v-248q0 -39 22.5 -61t61.5 -22v-57q-39 0 -61.5 -21.5t-22.5 -60.5v-248q0 -114 -86 -151l-31 46q54 29 54 121v239q0 75 65 104q-65 29 -65 103v240q0 92 -54 121l31 46q86 -37 86 -151z" />
    <glyph glyph-name="asciitilde" unicode="~" horiz-adv-x="602" 
d="M95 202l-23 29q21 30 51 48t60 18q50 0 128.5 -18.5t116.5 -18.5q42 0 79 44l24 -29q-52 -66 -113 -66q-50 0 -128.5 18.5t-115.5 18.5q-42 0 -79 -44z" />
    <glyph glyph-name="uni00A0" unicode="&#xa0;" horiz-adv-x="248" 
 />
    <glyph glyph-name="exclamdown" unicode="&#xa1;" horiz-adv-x="232" 
d="M116 503q-21 0 -33 -11.5t-12 -31.5q0 -43 45 -43t45 43t-45 43zM89 315h55l5 -545h-65z" />
    <glyph glyph-name="cent" unicode="&#xa2;" horiz-adv-x="504" 
d="M437 95l23 -50q-64 -52 -164 -55v-62h-43v64q-92 10 -142.5 76t-50.5 179q0 111 51 177.5t142 76.5v64h43v-62q105 -7 147 -100l-50 -20q-35 62 -97 68v-409q84 5 141 53zM122 247q0 -87 34 -139t97 -63v403q-63 -11 -97 -63t-34 -138z" />
    <glyph glyph-name="sterling" unicode="&#xa3;" horiz-adv-x="502" 
d="M163 49h277v-49h-386v46h18q52 0 52 98v141h-67v47h67v115q0 78 41.5 122t116.5 44q86 0 152 -29l-6 -49q-60 26 -128 26q-56 0 -85.5 -33.5t-29.5 -95.5v-100h195v-47h-195v-159q0 -48 -22 -77z" />
    <glyph glyph-name="currency" unicode="&#xa4;" horiz-adv-x="588" 
d="M493 337q0 -75 -33 -123l58 -60l-39 -40l-58 59q-52 -36 -127 -36t-127 36l-58 -58l-40 39l59 60q-33 48 -33 123q0 72 32 122l-58 61l39 40l59 -59q49 36 127 36t126 -36l59 58l40 -39l-59 -60q33 -48 33 -123zM294 186q67 0 104.5 39.5t37.5 111.5t-37.5 111.5
t-104.5 39.5t-104.5 -39.5t-37.5 -111.5t37.5 -111.5t104.5 -39.5z" />
    <glyph glyph-name="yen" unicode="&#xa5;" horiz-adv-x="540" 
d="M507 601l-200 -337h119v-47h-125v-217h-61v217h-126v47h119l-200 337q12 12 31 12q33 0 52 -30l158 -271l174 301z" />
    <glyph glyph-name="brokenbar" unicode="&#xa6;" horiz-adv-x="242" 
d="M93 770h56v-400h-56v400zM93 170h56v-400h-56v400z" />
    <glyph glyph-name="section" unicode="&#xa7;" horiz-adv-x="547" 
d="M431 93q57 -50 57 -139q0 -92 -58 -143t-163 -51q-136 0 -218 63l22 54q69 -60 194 -60q75 0 116.5 34t41.5 96q0 28 -10 51.5t-22 38t-39 30t-42.5 22.5t-50.5 21q-32 13 -46.5 19.5t-42.5 21t-41.5 28t-29.5 33.5t-23 46t-7 58q0 96 64 142q-64 51 -64 138q0 88 55 136
t154 48q103 0 196 -63l-27 -52q-80 58 -173 58q-66 0 -103 -31t-37 -88q0 -33 11.5 -57.5t37.5 -43t48 -29t61 -25.5q39 -16 57.5 -24t50.5 -28t47 -39.5t27.5 -51.5t12.5 -72q0 -90 -56 -141zM132 323q0 -33 12 -58t39 -43.5t48.5 -29t61.5 -25.5q55 -21 88 -39
q44 33 44 99q0 29 -10.5 53t-22.5 38.5t-39.5 30.5t-42.5 22.5t-51 21.5q-9 4 -24 10t-27 11.5t-22 10.5q-54 -31 -54 -102z" />
    <glyph glyph-name="dieresis" unicode="&#xa8;" horiz-adv-x="343" 
d="M99 600q-41 0 -41 38q0 40 41 40t41 -40q0 -38 -41 -38zM244 600q-41 0 -41 38q0 40 41 40t41 -40q0 -38 -41 -38z" />
    <glyph glyph-name="copyright" unicode="&#xa9;" horiz-adv-x="869" 
d="M435 -10q-178 0 -277.5 97.5t-99.5 272.5t99.5 272.5t277.5 97.5t277.5 -97.5t99.5 -272.5t-99.5 -272.5t-277.5 -97.5zM435 38q150 0 234.5 85t84.5 237t-84.5 237t-234.5 85q-151 0 -235 -85t-84 -237t84 -237t235 -85zM553 252l21 -44q-53 -41 -134 -41
q-82 0 -127.5 50.5t-45.5 141.5t45.5 142t124.5 51q93 0 125 -80l-46 -18q-26 51 -77 51q-54 0 -84 -38.5t-30 -107.5t31 -107.5t86 -38.5q67 0 111 39z" />
    <glyph glyph-name="ordfeminine" unicode="&#xaa;" horiz-adv-x="453" 
d="M236 613q61 0 138 -7v-347q-11 -7 -26 -7q-27 0 -27 38v31q-45 -69 -127 -69q-66 0 -101.5 46t-35.5 131q0 87 47 135.5t132 48.5zM320 408v158q-42 3 -81 3q-60 0 -93 -37t-33 -103q0 -64 24.5 -98t72.5 -34q42 0 76 30t34 81z" />
    <glyph glyph-name="guillemotleft" unicode="&#xab;" horiz-adv-x="452" 
d="M45 250l150 216l41 -25l-109 -191l109 -191l-41 -25zM208 250l150 216l41 -25l-109 -191l109 -191l-41 -25z" />
    <glyph glyph-name="logicalnot" unicode="&#xac;" horiz-adv-x="523" 
d="M78 339h370v-172h-61v123h-309v49z" />
    <glyph glyph-name="uni00AD" unicode="&#xad;" horiz-adv-x="397" 
d="M72 276h253v-51h-253v51z" />
    <glyph glyph-name="registered" unicode="&#xae;" horiz-adv-x="512" 
d="M256 730q95 0 147.5 -50t52.5 -140t-52.5 -140t-147.5 -50q-94 0 -146.5 50t-52.5 140t52.5 140t146.5 50zM256 378q78 0 121 42.5t43 119.5t-43 119.5t-121 42.5q-77 0 -120 -42.5t-43 -119.5t43 -119.5t120 -42.5zM328 489l2 -26q1 -13 4 -18q-13 -5 -20 -5
q-18 0 -19 21l-2 26q-3 34 -37 34h-32v-78h-36v194q19 3 60 3q38 0 59 -15t21 -42q0 -33 -32 -47q29 -14 32 -47zM248 612h-24v-63h24q43 0 43 32q0 31 -43 31z" />
    <glyph glyph-name="overscore" unicode="&#xaf;" horiz-adv-x="305" 
d="M24 664h258v-48h-258v48z" />
    <glyph glyph-name="degree" unicode="&#xb0;" horiz-adv-x="301" 
d="M151 588q-47 0 -73.5 25t-26.5 71q0 45 26.5 70.5t73.5 25.5t73.5 -25.5t26.5 -70.5q0 -46 -26.5 -71t-73.5 -25zM150 629q24 0 37.5 14.5t13.5 40.5t-13.5 40.5t-37.5 14.5q-23 0 -36.5 -14.5t-13.5 -40.5t13.5 -40.5t36.5 -14.5z" />
    <glyph glyph-name="plusminus" unicode="&#xb1;" horiz-adv-x="511" 
d="M285 340h155v-49h-154v-153h-62v153h-154v49h154v153h61v-153zM70 0v48h370v-48h-370z" />
    <glyph glyph-name="twosuperior" unicode="&#xb2;" horiz-adv-x="341" 
d="M89 382h211v-44h-265v28q0 29 9 54t28.5 48t34 36.5t41.5 35.5q44 35 68 64t24 65q0 29 -18.5 45.5t-52.5 16.5q-57 0 -102 -42l-21 37q59 50 130 50q57 0 88.5 -28.5t31.5 -79.5q0 -34 -19 -66t-38.5 -50t-56.5 -46q-31 -24 -47 -38.5t-31 -38t-15 -47.5z" />
    <glyph glyph-name="threesuperior" unicode="&#xb3;" horiz-adv-x="344" 
d="M289 735l-125 -137q145 -39 145 -139q0 -60 -40.5 -93.5t-112.5 -33.5t-126 39l18 40q44 -34 104 -34q48 0 75 22t27 62q0 43 -40 68t-132 46l133 151h-161v44h235v-35z" />
    <glyph glyph-name="acute" unicode="&#xb4;" horiz-adv-x="222" 
d="M168 739l36 -60l-167 -83l-20 36z" />
    <glyph glyph-name="paragraph" unicode="&#xb6;" horiz-adv-x="508" 
d="M409 770v-1000h-56v951h-98v-951h-56v662q-80 0 -124.5 44t-44.5 125t44.5 125t124.5 44h210z" />
    <glyph glyph-name="middot" unicode="&#xb7;" horiz-adv-x="233" 
d="M117 211q-21 0 -33 11.5t-12 31.5t12 31.5t33 11.5q45 0 45 -43t-45 -43z" />
    <glyph glyph-name="cedilla" unicode="&#xb8;" horiz-adv-x="245" 
d="M167 12l-43 -64q100 -29 100 -98q0 -43 -29 -66.5t-83 -23.5q-52 0 -90 27l16 34q31 -22 70 -22q32 0 49 14.5t17 38.5q0 29 -27 45.5t-89 29.5l54 85h55z" />
    <glyph glyph-name="onesuperior" unicode="&#xb9;" horiz-adv-x="229" 
d="M163 770v-432h-54v370l-69 -36l-21 44l101 54h43z" />
    <glyph glyph-name="ordmasculine" unicode="&#xba;" horiz-adv-x="448" 
d="M224 252q-80 0 -124.5 47.5t-44.5 132.5t44.5 133t124.5 48q79 0 123.5 -48t44.5 -133t-44.5 -132.5t-123.5 -47.5zM224 297q54 0 83.5 35.5t29.5 99.5t-29.5 100t-83.5 36t-83.5 -36t-29.5 -100t29.5 -99.5t83.5 -35.5z" />
    <glyph glyph-name="guillemotright" unicode="&#xbb;" horiz-adv-x="452" 
d="M244 250l-150 -216l-41 25l109 191l-109 191l41 25zM407 250l-150 -216l-41 25l109 191l-109 191l41 25z" />
    <glyph glyph-name="onequarter" unicode="&#xbc;" horiz-adv-x="728" 
d="M530 730l40 -29l-468 -711l-40 29zM108 288v370l-69 -36l-21 44l101 54h43v-432h-54zM702 152v-44h-58v-108h-54v108h-194v36l162 294l48 -13l-152 -273h138v85l52 20v-105h58z" />
    <glyph glyph-name="onehalf" unicode="&#xbd;" horiz-adv-x="744" 
d="M530 730l40 -29l-468 -711l-40 29zM108 288v370l-69 -36l-21 44l101 54h43v-432h-54zM492 44h211v-44h-265v28q0 29 9 54t28.5 48t34 36.5t41.5 35.5q44 35 68 64t24 65q0 29 -18.5 45.5t-52.5 16.5q-57 0 -102 -42l-21 37q59 50 130 50q57 0 88.5 -28.5t31.5 -79.5
q0 -34 -19 -66t-38.5 -50t-56.5 -46q-31 -24 -47 -38.5t-31 -38t-15 -47.5z" />
    <glyph glyph-name="threequarters" unicode="&#xbe;" horiz-adv-x="843" 
d="M645 730l40 -29l-468 -711l-40 29zM308 409q0 -60 -40.5 -93.5t-112.5 -33.5t-126 39l18 40q44 -34 104 -34q48 0 75 22t27 62q0 43 -40 68t-132 46l133 151h-161v44h235v-35l-125 -137q145 -39 145 -139zM817 152v-44h-58v-108h-54v108h-194v36l162 294l48 -13
l-152 -273h138v85l52 20v-105h58z" />
    <glyph glyph-name="questiondown" unicode="&#xbf;" horiz-adv-x="438" 
d="M259 503q45 0 45 -43t-45 -43t-45 43q0 20 12 31.5t33 11.5zM388 -111l25 -46q-81 -83 -188 -83q-89 0 -138 46.5t-49 128.5q0 32 7.5 60t27 57t30.5 42.5t39 44.5q30 34 45.5 53.5t30.5 53.5t15 69h55q0 -47 -17 -89t-34 -64.5t-50 -58.5q-27 -31 -42 -50t-28.5 -51.5
t-13.5 -65.5q0 -57 33.5 -88t93.5 -31q92 0 158 72z" />
    <glyph glyph-name="Agrave" unicode="&#xc0;" horiz-adv-x="629" 
d="M369 859l-20 -36l-167 83l36 60zM536 0l-65 192h-316l-65 -192h-68l256 722q21 8 36 8q33 0 48 -39l245 -691h-71zM173 246h280l-140 417z" />
    <glyph glyph-name="Aacute" unicode="&#xc1;" horiz-adv-x="629" 
d="M445 906l-167 -83l-20 36l151 107zM536 0l-65 192h-316l-65 -192h-68l256 722q21 8 36 8q33 0 48 -39l245 -691h-71zM173 246h280l-140 417z" />
    <glyph glyph-name="Acircumflex" unicode="&#xc2;" horiz-adv-x="629" 
d="M314 890l-131 -67l-20 36l151 105l151 -105l-20 -36zM536 0l-65 192h-316l-65 -192h-68l256 722q21 8 36 8q33 0 48 -39l245 -691h-71zM173 246h280l-140 417z" />
    <glyph glyph-name="Atilde" unicode="&#xc3;" horiz-adv-x="629" 
d="M245 871q-42 0 -78 -33l-20 27q19 26 48.5 42t61.5 16q24 0 64.5 -18t59.5 -18q41 0 78 33l20 -26q-43 -59 -111 -59q-23 0 -63 18t-60 18zM536 0l-65 192h-316l-65 -192h-68l256 722q21 8 36 8q33 0 48 -39l245 -691h-71zM173 246h280l-140 417z" />
    <glyph glyph-name="Adieresis" unicode="&#xc4;" horiz-adv-x="629" 
d="M241 827q-41 0 -41 38q0 40 41 40t41 -40q0 -38 -41 -38zM386 827q-41 0 -41 38q0 40 41 40t41 -40q0 -38 -41 -38zM536 0l-65 192h-316l-65 -192h-68l256 722q21 8 36 8q33 0 48 -39l245 -691h-71zM173 246h280l-140 417z" />
    <glyph glyph-name="Aring" unicode="&#xc5;" horiz-adv-x="629" 
d="M313 789q-53 0 -82.5 27.5t-29.5 78.5t29.5 79t82.5 28q54 0 83.5 -28t29.5 -79t-29.5 -78.5t-83.5 -27.5zM314 963q-31 0 -48 -18t-17 -50t17 -49.5t48 -17.5t48 17.5t17 49.5t-17 50t-48 18zM536 0l-65 192h-316l-65 -192h-68l256 722q21 8 36 8q33 0 48 -39l245 -691
h-71zM173 246h280l-140 417z" />
    <glyph glyph-name="AE" unicode="&#xc6;" horiz-adv-x="926" 
d="M553 54h318v-54h-378l-32 192h-303l-92 -192h-68l354 720h508v-54h-417l48 -266h334v-54h-324zM184 246h268l-69 413z" />
    <glyph glyph-name="Ccedilla" unicode="&#xc7;" horiz-adv-x="604" 
d="M362 -10l-28 -42q100 -29 100 -98q0 -43 -29 -66.5t-83 -23.5q-52 0 -90 27l16 34q31 -22 70 -22q32 0 49 14.5t17 38.5q0 29 -27 45.5t-89 29.5l41 65q-120 15 -185 107.5t-65 260.5q0 182 75.5 276t212.5 94q136 0 205 -106l-59 -27q-49 76 -147 76q-108 0 -165 -86
t-57 -227t58.5 -227t169.5 -86q122 0 192 56l29 -48q-78 -60 -211 -65z" />
    <glyph glyph-name="Egrave" unicode="&#xc8;" horiz-adv-x="542" 
d="M335 859l-20 -36l-167 83l36 60zM161 54h328v-54h-392v720h381v-54h-317v-266h282v-54h-282v-292z" />
    <glyph glyph-name="Eacute" unicode="&#xc9;" horiz-adv-x="542" 
d="M411 906l-167 -83l-20 36l151 107zM161 54h328v-54h-392v720h381v-54h-317v-266h282v-54h-282v-292z" />
    <glyph glyph-name="Ecircumflex" unicode="&#xca;" horiz-adv-x="542" 
d="M280 890l-131 -67l-20 36l151 105l151 -105l-20 -36zM161 54h328v-54h-392v720h381v-54h-317v-266h282v-54h-282v-292z" />
    <glyph glyph-name="Edieresis" unicode="&#xcb;" horiz-adv-x="542" 
d="M207 827q-41 0 -41 38q0 40 41 40t41 -40q0 -38 -41 -38zM352 827q-41 0 -41 38q0 40 41 40t41 -40q0 -38 -41 -38zM161 54h328v-54h-392v720h381v-54h-317v-266h282v-54h-282v-292z" />
    <glyph glyph-name="Igrave" unicode="&#xcc;" horiz-adv-x="257" 
d="M33 966l151 -107l-20 -36l-167 83zM161 0h-64v722q11 8 26 8q17 0 27.5 -13t10.5 -38v-679z" />
    <glyph glyph-name="Iacute" unicode="&#xcd;" horiz-adv-x="257" 
d="M224 966l36 -60l-167 -83l-20 36zM161 0h-64v722q11 8 26 8q17 0 27.5 -13t10.5 -38v-679z" />
    <glyph glyph-name="Icircumflex" unicode="&#xce;" horiz-adv-x="257" 
d="M129 964l151 -105l-20 -36l-131 67l-131 -67l-20 36zM123 730q17 0 27.5 -13t10.5 -38v-679h-64v722q11 8 26 8z" />
    <glyph glyph-name="Idieresis" unicode="&#xcf;" horiz-adv-x="257" 
d="M56 827q-41 0 -41 38q0 40 41 40t41 -40q0 -38 -41 -38zM201 827q-41 0 -41 38q0 40 41 40t41 -40q0 -38 -41 -38zM161 0h-64v722q11 8 26 8q17 0 27.5 -13t10.5 -38v-679z" />
    <glyph glyph-name="Eth" unicode="&#xd0;" horiz-adv-x="671" 
d="M265 730q165 0 257 -97.5t92 -272.5t-92 -272.5t-257 -97.5q-88 0 -168 10v341h-81v49h81v330q107 10 168 10zM265 44q134 0 208.5 83.5t74.5 232.5t-74.5 232.5t-208.5 83.5q-42 0 -104 -6v-280h163v-49h-163v-292q48 -5 104 -5z" />
    <glyph glyph-name="Ntilde" unicode="&#xd1;" horiz-adv-x="719" 
d="M291 871q-42 0 -78 -33l-20 27q19 26 48.5 42t61.5 16q24 0 64.5 -18t59.5 -18q41 0 78 33l20 -26q-43 -59 -111 -59q-23 0 -63 18t-60 18zM560 720h63v-720h-50l-416 601l3 -601h-63v722q11 8 24 8q24 0 46 -34l396 -576z" />
    <glyph glyph-name="Ograve" unicode="&#xd2;" horiz-adv-x="740" 
d="M274 966l151 -107l-20 -36l-167 83zM370 -10q-147 0 -229 97.5t-82 272.5t82 272.5t229 97.5t229.5 -97.5t82.5 -272.5t-82.5 -272.5t-229.5 -97.5zM369 47q116 0 181.5 82.5t65.5 230.5t-65.5 230.5t-181.5 82.5t-180.5 -82.5t-64.5 -230.5t64.5 -230.5t180.5 -82.5z
" />
    <glyph glyph-name="Oacute" unicode="&#xd3;" horiz-adv-x="740" 
d="M465 966l36 -60l-167 -83l-20 36zM370 -10q-147 0 -229 97.5t-82 272.5t82 272.5t229 97.5t229.5 -97.5t82.5 -272.5t-82.5 -272.5t-229.5 -97.5zM369 47q116 0 181.5 82.5t65.5 230.5t-65.5 230.5t-181.5 82.5t-180.5 -82.5t-64.5 -230.5t64.5 -230.5t180.5 -82.5z" />
    <glyph glyph-name="Ocircumflex" unicode="&#xd4;" horiz-adv-x="740" 
d="M370 890l-131 -67l-20 36l151 105l151 -105l-20 -36zM370 730q147 0 229.5 -97.5t82.5 -272.5t-82.5 -272.5t-229.5 -97.5t-229 97.5t-82 272.5t82 272.5t229 97.5zM369 47q116 0 181.5 82.5t65.5 230.5t-65.5 230.5t-181.5 82.5t-180.5 -82.5t-64.5 -230.5t64.5 -230.5
t180.5 -82.5z" />
    <glyph glyph-name="Otilde" unicode="&#xd5;" horiz-adv-x="740" 
d="M223 838l-20 27q19 26 48.5 42t61.5 16q24 0 64.5 -18t59.5 -18q41 0 78 33l20 -26q-43 -59 -111 -59q-23 0 -63 18t-60 18q-42 0 -78 -33zM370 -10q-147 0 -229 97.5t-82 272.5t82 272.5t229 97.5t229.5 -97.5t82.5 -272.5t-82.5 -272.5t-229.5 -97.5zM369 47
q116 0 181.5 82.5t65.5 230.5t-65.5 230.5t-181.5 82.5t-180.5 -82.5t-64.5 -230.5t64.5 -230.5t180.5 -82.5z" />
    <glyph glyph-name="Odieresis" unicode="&#xd6;" horiz-adv-x="740" 
d="M297 827q-41 0 -41 38q0 40 41 40t41 -40q0 -38 -41 -38zM442 827q-41 0 -41 38q0 40 41 40t41 -40q0 -38 -41 -38zM370 -10q-147 0 -229 97.5t-82 272.5t82 272.5t229 97.5t229.5 -97.5t82.5 -272.5t-82.5 -272.5t-229.5 -97.5zM369 47q116 0 181.5 82.5t65.5 230.5
t-65.5 230.5t-181.5 82.5t-180.5 -82.5t-64.5 -230.5t64.5 -230.5t180.5 -82.5z" />
    <glyph glyph-name="multiply" unicode="&#xd7;" horiz-adv-x="497" 
d="M432 391l-143 -143l143 -144l-40 -40l-143 144l-144 -144l-40 40l144 144l-144 143l40 40l144 -143l143 143z" />
    <glyph glyph-name="Oslash" unicode="&#xd8;" horiz-adv-x="740" 
d="M644 699l-46 -65q84 -98 84 -274q0 -175 -82.5 -272.5t-229.5 -97.5q-111 0 -185 56l-41 -59l-47 34l46 65q-84 96 -84 274q0 175 82 272.5t229 97.5q111 0 185 -56l42 59zM124 360q0 -138 57 -220l338 483q-61 50 -150 50q-116 0 -180.5 -82.5t-64.5 -230.5zM369 47
q116 0 181.5 82.5t65.5 230.5q0 136 -57 219l-338 -483q59 -49 148 -49z" />
    <glyph glyph-name="Ugrave" unicode="&#xd9;" horiz-adv-x="687" 
d="M248 966l151 -107l-20 -36l-167 83zM535 266v456q11 8 26 8q37 0 37 -51v-417q0 -129 -67 -200.5t-188 -71.5q-120 0 -186.5 71.5t-66.5 200.5v460q11 8 26 8q17 0 27.5 -13t10.5 -38v-413q0 -104 49.5 -161.5t139.5 -57.5q91 0 141.5 57.5t50.5 161.5z" />
    <glyph glyph-name="Uacute" unicode="&#xda;" horiz-adv-x="687" 
d="M439 966l36 -60l-167 -83l-20 36zM535 266v456q11 8 26 8q37 0 37 -51v-417q0 -129 -67 -200.5t-188 -71.5q-120 0 -186.5 71.5t-66.5 200.5v460q11 8 26 8q17 0 27.5 -13t10.5 -38v-413q0 -104 49.5 -161.5t139.5 -57.5q91 0 141.5 57.5t50.5 161.5z" />
    <glyph glyph-name="Ucircumflex" unicode="&#xdb;" horiz-adv-x="687" 
d="M344 890l-131 -67l-20 36l151 105l151 -105l-20 -36zM561 730q37 0 37 -51v-417q0 -129 -67 -200.5t-188 -71.5q-120 0 -186.5 71.5t-66.5 200.5v460q11 8 26 8q17 0 27.5 -13t10.5 -38v-413q0 -104 49.5 -161.5t139.5 -57.5q91 0 141.5 57.5t50.5 161.5v456q11 8 26 8z
" />
    <glyph glyph-name="Udieresis" unicode="&#xdc;" horiz-adv-x="687" 
d="M271 827q-41 0 -41 38q0 40 41 40t41 -40q0 -38 -41 -38zM416 827q-41 0 -41 38q0 40 41 40t41 -40q0 -38 -41 -38zM535 266v456q11 8 26 8q37 0 37 -51v-417q0 -129 -67 -200.5t-188 -71.5q-120 0 -186.5 71.5t-66.5 200.5v460q11 8 26 8q17 0 27.5 -13t10.5 -38v-413
q0 -104 49.5 -161.5t139.5 -57.5q91 0 141.5 57.5t50.5 161.5z" />
    <glyph glyph-name="Yacute" unicode="&#xdd;" horiz-adv-x="606" 
d="M435 906l-167 -83l-20 36l151 107zM579 717l-244 -409v-308h-64v306l-244 411q10 13 32 13q37 0 56 -33l150 -256l42 -79l43 83l166 285z" />
    <glyph glyph-name="Thorn" unicode="&#xde;" horiz-adv-x="596" 
d="M297 586q121 0 188 -56.5t67 -159.5q0 -105 -67.5 -163.5t-188.5 -58.5q-62 0 -135 5v-153h-64v722q11 8 26 8q17 0 27.5 -13t10.5 -38v-99q76 6 136 6zM297 203q90 0 139.5 44t49.5 123q0 77 -49 119.5t-139 42.5q-62 0 -137 -5v-319q72 -5 136 -5z" />
    <glyph glyph-name="germandbls" unicode="&#xdf;" horiz-adv-x="571" 
d="M362 -10q-87 0 -154 41l20 44q54 -33 127 -33q52 0 80.5 27.5t28.5 77.5q0 71 -48.5 132t-148.5 137q48 61 70 108.5t22 100.5q0 49 -29 76t-81 27q-50 0 -78 -29t-28 -81v-618h-61v626q0 73 44 113.5t123 40.5q81 0 126.5 -39.5t45.5 -111.5q0 -103 -89 -205
q89 -61 142 -128.5t53 -149.5q0 -75 -43.5 -115.5t-121.5 -40.5z" />
    <glyph glyph-name="agrave" unicode="&#xe0;" horiz-adv-x="505" 
d="M306 632l-20 -36l-167 83l36 60zM251 503q84 0 130.5 -46.5t46.5 -130.5v-328q-11 -8 -27 -8q-33 0 -33 48v56q-28 -47 -78 -75.5t-104 -28.5q-72 0 -111.5 39t-39.5 109q0 72 53.5 111.5t150.5 39.5q53 0 128 -7v29q0 67 -32.5 104t-92.5 37q-86 0 -144 -43l-25 42
q75 52 178 52zM199 40q63 0 115.5 45.5t52.5 118.5v32q-65 6 -127 6q-69 0 -106.5 -26.5t-37.5 -74.5t27 -74.5t76 -26.5z" />
    <glyph glyph-name="aacute" unicode="&#xe1;" horiz-adv-x="505" 
d="M382 679l-167 -83l-20 36l151 107zM251 503q84 0 130.5 -46.5t46.5 -130.5v-328q-11 -8 -27 -8q-33 0 -33 48v56q-28 -47 -78 -75.5t-104 -28.5q-72 0 -111.5 39t-39.5 109q0 72 53.5 111.5t150.5 39.5q53 0 128 -7v29q0 67 -32.5 104t-92.5 37q-86 0 -144 -43l-25 42
q75 52 178 52zM199 40q63 0 115.5 45.5t52.5 118.5v32q-65 6 -127 6q-69 0 -106.5 -26.5t-37.5 -74.5t27 -74.5t76 -26.5z" />
    <glyph glyph-name="acircumflex" unicode="&#xe2;" horiz-adv-x="505" 
d="M251 663l-131 -67l-20 36l151 105l151 -105l-20 -36zM251 503q84 0 130.5 -46.5t46.5 -130.5v-328q-11 -8 -27 -8q-33 0 -33 48v56q-28 -47 -78 -75.5t-104 -28.5q-72 0 -111.5 39t-39.5 109q0 72 53.5 111.5t150.5 39.5q53 0 128 -7v29q0 67 -32.5 104t-92.5 37
q-86 0 -144 -43l-25 42q75 52 178 52zM199 40q63 0 115.5 45.5t52.5 118.5v32q-65 6 -127 6q-69 0 -106.5 -26.5t-37.5 -74.5t27 -74.5t76 -26.5z" />
    <glyph glyph-name="atilde" unicode="&#xe3;" horiz-adv-x="505" 
d="M182 644q-42 0 -78 -33l-20 27q19 26 48.5 42t61.5 16q24 0 64.5 -18t59.5 -18q41 0 78 33l20 -26q-43 -59 -111 -59q-23 0 -63 18t-60 18zM251 503q84 0 130.5 -46.5t46.5 -130.5v-328q-11 -8 -27 -8q-33 0 -33 48v56q-28 -47 -78 -75.5t-104 -28.5q-72 0 -111.5 39
t-39.5 109q0 72 53.5 111.5t150.5 39.5q53 0 128 -7v29q0 67 -32.5 104t-92.5 37q-86 0 -144 -43l-25 42q75 52 178 52zM199 40q63 0 115.5 45.5t52.5 118.5v32q-65 6 -127 6q-69 0 -106.5 -26.5t-37.5 -74.5t27 -74.5t76 -26.5z" />
    <glyph glyph-name="adieresis" unicode="&#xe4;" horiz-adv-x="505" 
d="M178 600q-41 0 -41 38q0 40 41 40t41 -40q0 -38 -41 -38zM323 600q-41 0 -41 38q0 40 41 40t41 -40q0 -38 -41 -38zM251 503q84 0 130.5 -46.5t46.5 -130.5v-328q-11 -8 -27 -8q-33 0 -33 48v56q-28 -47 -78 -75.5t-104 -28.5q-72 0 -111.5 39t-39.5 109q0 72 53.5 111.5
t150.5 39.5q53 0 128 -7v29q0 67 -32.5 104t-92.5 37q-86 0 -144 -43l-25 42q75 52 178 52zM199 40q63 0 115.5 45.5t52.5 118.5v32q-65 6 -127 6q-69 0 -106.5 -26.5t-37.5 -74.5t27 -74.5t76 -26.5z" />
    <glyph glyph-name="aring" unicode="&#xe5;" horiz-adv-x="505" 
d="M250 562q-53 0 -82.5 27.5t-29.5 78.5t29.5 79t82.5 28q54 0 83.5 -28t29.5 -79t-29.5 -78.5t-83.5 -27.5zM251 736q-31 0 -48 -18t-17 -50t17 -49.5t48 -17.5t48 17.5t17 49.5t-17 50t-48 18zM251 503q84 0 130.5 -46.5t46.5 -130.5v-328q-11 -8 -27 -8q-33 0 -33 48v56
q-28 -47 -78 -75.5t-104 -28.5q-72 0 -111.5 39t-39.5 109q0 72 53.5 111.5t150.5 39.5q53 0 128 -7v29q0 67 -32.5 104t-92.5 37q-86 0 -144 -43l-25 42q75 52 178 52zM199 40q63 0 115.5 45.5t52.5 118.5v32q-65 6 -127 6q-69 0 -106.5 -26.5t-37.5 -74.5t27 -74.5
t76 -26.5z" />
    <glyph glyph-name="ae" unicode="&#xe6;" horiz-adv-x="815" 
d="M575 41q94 0 160 42l25 -42q-79 -51 -192 -51q-130 0 -172 132q-26 -58 -85.5 -95t-123.5 -37q-72 0 -111.5 39t-39.5 111t53.5 112t150.5 40q56 0 128 -7v26q0 67 -32.5 104t-92.5 37q-86 0 -144 -43l-25 42q75 52 178 52q63 0 104 -31t55 -88q55 119 191 119
q76 0 118.5 -40t42.5 -112q0 -71 -54.5 -110.5t-151.5 -39.5q-55 0 -127 7q5 -80 42.5 -123.5t102.5 -43.5zM595 451q-74 0 -117 -52t-48 -146q64 -6 126 -6q69 0 107 27t38 76q0 48 -27.5 74.5t-78.5 26.5zM200 41q63 0 115.5 45t52.5 118v35q-64 6 -127 6
q-69 0 -106 -26.5t-37 -75.5q0 -48 27 -75t75 -27z" />
    <glyph glyph-name="ccedilla" unicode="&#xe7;" horiz-adv-x="490" 
d="M291 -10l-28 -42q100 -29 100 -98q0 -43 -29 -66.5t-83 -23.5q-52 0 -90 27l16 34q31 -22 70 -22q32 0 49 14.5t17 38.5q0 29 -27 45.5t-89 29.5l42 66q-88 12 -136.5 78t-48.5 176q0 120 59.5 188t163.5 68q51 0 94 -24.5t66 -75.5l-50 -20q-38 68 -109 68
q-76 0 -119 -54t-43 -150q0 -97 43 -151t121 -54q90 0 151 53l23 -50q-64 -52 -163 -55z" />
    <glyph glyph-name="egrave" unicode="&#xe8;" horiz-adv-x="509" 
d="M333 632l-20 -36l-167 83l36 60zM265 41q99 0 166 42l25 -42q-81 -51 -193 -51q-100 0 -155 63t-55 176q0 130 61.5 202t173.5 72q80 0 124.5 -41.5t44.5 -115.5q0 -73 -55.5 -114t-154.5 -41q-60 0 -132 15q5 -79 43.5 -122t106.5 -43zM280 451q-75 0 -117.5 -52.5
t-47.5 -148.5q72 -13 132 -13q71 0 110 28.5t39 79.5t-30.5 78.5t-85.5 27.5z" />
    <glyph glyph-name="eacute" unicode="&#xe9;" horiz-adv-x="509" 
d="M409 679l-167 -83l-20 36l151 107zM265 41q99 0 166 42l25 -42q-81 -51 -193 -51q-100 0 -155 63t-55 176q0 130 61.5 202t173.5 72q80 0 124.5 -41.5t44.5 -115.5q0 -73 -55.5 -114t-154.5 -41q-60 0 -132 15q5 -79 43.5 -122t106.5 -43zM280 451q-75 0 -117.5 -52.5
t-47.5 -148.5q72 -13 132 -13q71 0 110 28.5t39 79.5t-30.5 78.5t-85.5 27.5z" />
    <glyph glyph-name="ecircumflex" unicode="&#xea;" horiz-adv-x="509" 
d="M278 663l-131 -67l-20 36l151 105l151 -105l-20 -36zM265 41q99 0 166 42l25 -42q-81 -51 -193 -51q-100 0 -155 63t-55 176q0 130 61.5 202t173.5 72q80 0 124.5 -41.5t44.5 -115.5q0 -73 -55.5 -114t-154.5 -41q-60 0 -132 15q5 -79 43.5 -122t106.5 -43zM280 451
q-75 0 -117.5 -52.5t-47.5 -148.5q72 -13 132 -13q71 0 110 28.5t39 79.5t-30.5 78.5t-85.5 27.5z" />
    <glyph glyph-name="edieresis" unicode="&#xeb;" horiz-adv-x="509" 
d="M205 600q-41 0 -41 38q0 40 41 40t41 -40q0 -38 -41 -38zM350 600q-41 0 -41 38q0 40 41 40t41 -40q0 -38 -41 -38zM265 41q99 0 166 42l25 -42q-81 -51 -193 -51q-100 0 -155 63t-55 176q0 130 61.5 202t173.5 72q80 0 124.5 -41.5t44.5 -115.5q0 -73 -55.5 -114
t-154.5 -41q-60 0 -132 15q5 -79 43.5 -122t106.5 -43zM280 451q-75 0 -117.5 -52.5t-47.5 -148.5q72 -13 132 -13q71 0 110 28.5t39 79.5t-30.5 78.5t-85.5 27.5z" />
    <glyph glyph-name="igrave" unicode="&#xec;" horiz-adv-x="224" 
d="M17 739l151 -107l-20 -36l-167 83zM82 493h61v-493h-61v493z" />
    <glyph glyph-name="iacute" unicode="&#xed;" horiz-adv-x="224" 
d="M208 739l36 -60l-167 -83l-20 36zM82 493h61v-493h-61v493z" />
    <glyph glyph-name="icircumflex" unicode="&#xee;" horiz-adv-x="224" 
d="M113 737l151 -105l-20 -36l-131 67l-131 -67l-20 36zM82 0v493h61v-493h-61z" />
    <glyph glyph-name="idieresis" unicode="&#xef;" horiz-adv-x="224" 
d="M40 600q-41 0 -41 38q0 40 41 40t41 -40q0 -38 -41 -38zM185 600q-41 0 -41 38q0 40 41 40t41 -40q0 -38 -41 -38zM82 493h61v-493h-61v493z" />
    <glyph glyph-name="eth" unicode="&#xf0;" horiz-adv-x="584" 
d="M409 742l-101 -52q115 -72 164.5 -174.5t49.5 -256.5q0 -128 -61.5 -198.5t-172.5 -70.5q-112 0 -173.5 67t-61.5 188t60 188t168 67q122 0 177 -90q-20 85 -68 145.5t-134 108.5l-137 -71l-23 38l112 58q-64 27 -112 45l17 46q88 -32 149 -64l124 64zM287 42
q82 0 127.5 53t45.5 150t-45.5 150t-127.5 53q-81 0 -126.5 -53.5t-45.5 -149.5t45.5 -149.5t126.5 -53.5z" />
    <glyph glyph-name="ntilde" unicode="&#xf1;" horiz-adv-x="573" 
d="M220 644q-42 0 -78 -33l-20 27q19 26 48.5 42t61.5 16q24 0 64.5 -18t59.5 -18q41 0 78 33l20 -26q-43 -59 -111 -59q-23 0 -63 18t-60 18zM336 503q76 0 118.5 -46.5t42.5 -130.5v-326h-61v311q0 66 -30 103t-84 37q-79 0 -129 -43.5t-50 -118.5v-289h-61v495q14 8 27 8
q33 0 33 -48v-50q60 98 194 98z" />
    <glyph glyph-name="ograve" unicode="&#xf2;" 
d="M191 739l151 -107l-20 -36l-167 83zM288 -10q-112 0 -173.5 67.5t-61.5 188.5t62 189t173 68t172.5 -68t61.5 -189t-61.5 -188.5t-172.5 -67.5zM287 42q82 0 127.5 53.5t45.5 150.5t-45.5 151t-127.5 54q-81 0 -126.5 -54t-45.5 -151t45.5 -150.5t126.5 -53.5z" />
    <glyph glyph-name="oacute" unicode="&#xf3;" 
d="M382 739l36 -60l-167 -83l-20 36zM288 -10q-112 0 -173.5 67.5t-61.5 188.5t62 189t173 68t172.5 -68t61.5 -189t-61.5 -188.5t-172.5 -67.5zM287 42q82 0 127.5 53.5t45.5 150.5t-45.5 151t-127.5 54q-81 0 -126.5 -54t-45.5 -151t45.5 -150.5t126.5 -53.5z" />
    <glyph glyph-name="ocircumflex" unicode="&#xf4;" 
d="M287 663l-131 -67l-20 36l151 105l151 -105l-20 -36zM288 503q111 0 172.5 -68t61.5 -189t-61.5 -188.5t-172.5 -67.5q-112 0 -173.5 67.5t-61.5 188.5t62 189t173 68zM287 42q82 0 127.5 53.5t45.5 150.5t-45.5 151t-127.5 54q-81 0 -126.5 -54t-45.5 -151t45.5 -150.5
t126.5 -53.5z" />
    <glyph glyph-name="otilde" unicode="&#xf5;" 
d="M140 611l-20 27q19 26 48.5 42t61.5 16q24 0 64.5 -18t59.5 -18q41 0 78 33l20 -26q-43 -59 -111 -59q-23 0 -63 18t-60 18q-42 0 -78 -33zM288 -10q-112 0 -173.5 67.5t-61.5 188.5t62 189t173 68t172.5 -68t61.5 -189t-61.5 -188.5t-172.5 -67.5zM287 42
q82 0 127.5 53.5t45.5 150.5t-45.5 151t-127.5 54q-81 0 -126.5 -54t-45.5 -151t45.5 -150.5t126.5 -53.5z" />
    <glyph glyph-name="odieresis" unicode="&#xf6;" 
d="M214 600q-41 0 -41 38q0 40 41 40t41 -40q0 -38 -41 -38zM359 600q-41 0 -41 38q0 40 41 40t41 -40q0 -38 -41 -38zM288 -10q-112 0 -173.5 67.5t-61.5 188.5t62 189t173 68t172.5 -68t61.5 -189t-61.5 -188.5t-172.5 -67.5zM287 42q82 0 127.5 53.5t45.5 150.5
t-45.5 151t-127.5 54q-81 0 -126.5 -54t-45.5 -151t45.5 -150.5t126.5 -53.5z" />
    <glyph glyph-name="divide" unicode="&#xf7;" horiz-adv-x="516" 
d="M258 341q-41 0 -41 39q0 40 41 40t41 -40q0 -39 -41 -39zM73 276h370v-48h-370v48zM258 84q-41 0 -41 39q0 40 41 40t41 -40q0 -39 -41 -39z" />
    <glyph glyph-name="oslash" unicode="&#xf8;" 
d="M501 475l-37 -45q58 -67 58 -184q0 -121 -61.5 -188.5t-172.5 -67.5q-89 0 -145 43l-35 -43l-35 28l37 45q-57 67 -57 183q0 121 62 189t173 68q88 0 144 -43l35 43zM115 246q0 -84 34 -134l247 303q-42 36 -109 36q-81 0 -126.5 -54t-45.5 -151zM287 42q82 0 127.5 53.5
t45.5 150.5q0 84 -34 136l-247 -304q42 -36 108 -36z" />
    <glyph glyph-name="ugrave" unicode="&#xf9;" horiz-adv-x="562" 
d="M334 632l-20 -36l-167 83l36 60zM447 503q34 0 34 -46v-459q-13 -8 -27 -8q-33 0 -33 48v48q-57 -96 -184 -96q-76 0 -118.5 46.5t-42.5 130.5v328q14 8 27 8q34 0 34 -46v-275q0 -66 30 -103t84 -37q74 0 121.5 43t47.5 119v291q14 8 27 8z" />
    <glyph glyph-name="uacute" unicode="&#xfa;" horiz-adv-x="562" 
d="M410 679l-167 -83l-20 36l151 107zM447 503q34 0 34 -46v-459q-13 -8 -27 -8q-33 0 -33 48v48q-57 -96 -184 -96q-76 0 -118.5 46.5t-42.5 130.5v328q14 8 27 8q34 0 34 -46v-275q0 -66 30 -103t84 -37q74 0 121.5 43t47.5 119v291q14 8 27 8z" />
    <glyph glyph-name="ucircumflex" unicode="&#xfb;" horiz-adv-x="562" 
d="M279 663l-131 -67l-20 36l151 105l151 -105l-20 -36zM447 503q34 0 34 -46v-459q-13 -8 -27 -8q-33 0 -33 48v48q-57 -96 -184 -96q-76 0 -118.5 46.5t-42.5 130.5v328q14 8 27 8q34 0 34 -46v-275q0 -66 30 -103t84 -37q74 0 121.5 43t47.5 119v291q14 8 27 8z" />
    <glyph glyph-name="udieresis" unicode="&#xfc;" horiz-adv-x="562" 
d="M206 600q-41 0 -41 38q0 40 41 40t41 -40q0 -38 -41 -38zM351 600q-41 0 -41 38q0 40 41 40t41 -40q0 -38 -41 -38zM447 503q34 0 34 -46v-459q-13 -8 -27 -8q-33 0 -33 48v48q-57 -96 -184 -96q-76 0 -118.5 46.5t-42.5 130.5v328q14 8 27 8q34 0 34 -46v-275
q0 -66 30 -103t84 -37q74 0 121.5 43t47.5 119v291q14 8 27 8z" />
    <glyph glyph-name="yacute" unicode="&#xfd;" horiz-adv-x="518" 
d="M391 679l-167 -83l-20 36l151 107zM431 503l57 -13l-220 -577q-46 -120 -135 -153l-26 42q69 26 106 114l34 84q-23 3 -32 26l-185 464q15 13 33 13q27 0 42 -36l119 -306l41 -117l40 117z" />
    <glyph glyph-name="thorn" unicode="&#xfe;" horiz-adv-x="576" 
d="M327 503q95 0 145.5 -66.5t50.5 -187.5q0 -123 -66 -191t-185 -68q-54 0 -129 5v-225h-61v1002q13 8 27 8q34 0 34 -45v-334q29 47 79 74.5t105 27.5zM270 40q91 0 141 55t50 154q0 97 -38 149.5t-112 52.5q-63 0 -115.5 -45t-52.5 -117v-244q72 -5 127 -5z" />
    <glyph glyph-name="ydieresis" unicode="&#xff;" horiz-adv-x="518" 
d="M187 600q-41 0 -41 38q0 40 41 40t41 -40q0 -38 -41 -38zM332 600q-41 0 -41 38q0 40 41 40t41 -40q0 -38 -41 -38zM431 503l57 -13l-220 -577q-46 -120 -135 -153l-26 42q69 26 106 114l34 84q-23 3 -32 26l-185 464q15 13 33 13q27 0 42 -36l119 -306l41 -117l40 117z
" />
    <glyph glyph-name="Amacron" unicode="&#x100;" horiz-adv-x="629" 
d="M443 891v-48h-258v48h258zM536 0l-65 192h-316l-65 -192h-68l256 722q21 8 36 8q33 0 48 -39l245 -691h-71zM173 246h280l-140 417z" />
    <glyph glyph-name="amacron" unicode="&#x101;" horiz-adv-x="505" 
d="M380 664v-48h-258v48h258zM251 503q84 0 130.5 -46.5t46.5 -130.5v-328q-11 -8 -27 -8q-33 0 -33 48v56q-28 -47 -78 -75.5t-104 -28.5q-72 0 -111.5 39t-39.5 109q0 72 53.5 111.5t150.5 39.5q53 0 128 -7v29q0 67 -32.5 104t-92.5 37q-86 0 -144 -43l-25 42
q75 52 178 52zM199 40q63 0 115.5 45.5t52.5 118.5v32q-65 6 -127 6q-69 0 -106.5 -26.5t-37.5 -74.5t27 -74.5t76 -26.5z" />
    <glyph glyph-name="Abreve" unicode="&#x102;" horiz-adv-x="629" 
d="M313 813q-66 0 -102 32t-36 91h49q0 -36 23.5 -56.5t65.5 -20.5q43 0 66.5 20.5t23.5 56.5h48q0 -59 -36 -91t-102 -32zM536 0l-65 192h-316l-65 -192h-68l256 722q21 8 36 8q33 0 48 -39l245 -691h-71zM173 246h280l-140 417z" />
    <glyph glyph-name="abreve" unicode="&#x103;" horiz-adv-x="505" 
d="M250 586q-66 0 -102 32t-36 91h49q0 -36 23.5 -56.5t65.5 -20.5q43 0 66.5 20.5t23.5 56.5h48q0 -59 -36 -91t-102 -32zM251 503q84 0 130.5 -46.5t46.5 -130.5v-328q-11 -8 -27 -8q-33 0 -33 48v56q-28 -47 -78 -75.5t-104 -28.5q-72 0 -111.5 39t-39.5 109
q0 72 53.5 111.5t150.5 39.5q53 0 128 -7v29q0 67 -32.5 104t-92.5 37q-86 0 -144 -43l-25 42q75 52 178 52zM199 40q63 0 115.5 45.5t52.5 118.5v32q-65 6 -127 6q-69 0 -106.5 -26.5t-37.5 -74.5t27 -74.5t76 -26.5z" />
    <glyph glyph-name="Aogonek" unicode="&#x104;" horiz-adv-x="629" 
d="M605 -182l13 -34q-44 -24 -93 -24q-36 0 -56.5 17t-20.5 49q0 36 26.5 76t86.5 98h-25l-65 192h-316l-65 -192h-68l256 722q21 8 36 8q33 0 48 -39l245 -691q-109 -105 -109 -167q0 -34 36 -34q38 0 71 19zM173 246h280l-140 417z" />
    <glyph glyph-name="aogonek" unicode="&#x105;" horiz-adv-x="505" 
d="M426 -182l13 -34q-44 -24 -93 -24q-77 0 -77 66q0 65 112 171q-13 13 -13 41v56q-28 -47 -78 -75.5t-104 -28.5q-72 0 -111.5 39t-39.5 109q0 72 53.5 111.5t150.5 39.5q53 0 128 -7v29q0 67 -32.5 104t-92.5 37q-86 0 -144 -43l-25 42q75 52 178 52q84 0 130.5 -46.5
t46.5 -130.5v-328q-109 -104 -109 -165q0 -34 36 -34q38 0 71 19zM199 40q63 0 115.5 45.5t52.5 118.5v32q-65 6 -127 6q-69 0 -106.5 -26.5t-37.5 -74.5t27 -74.5t76 -26.5z" />
    <glyph glyph-name="Cacute" unicode="&#x106;" horiz-adv-x="604" 
d="M443 966l36 -60l-167 -83l-20 36zM544 103l29 -48q-85 -65 -223 -65t-214.5 94.5t-76.5 275.5q0 182 75.5 276t212.5 94q136 0 205 -106l-59 -27q-49 76 -147 76q-108 0 -165 -86t-57 -227t58.5 -227t169.5 -86q122 0 192 56z" />
    <glyph glyph-name="cacute" unicode="&#x107;" horiz-adv-x="490" 
d="M371 739l36 -60l-167 -83l-20 36zM431 95l23 -50q-70 -55 -176 -55t-165 67.5t-59 189.5q0 120 59.5 188t163.5 68q51 0 94 -24.5t66 -75.5l-50 -20q-38 68 -109 68q-76 0 -119 -54t-43 -150q0 -97 43 -151t121 -54q90 0 151 53z" />
    <glyph glyph-name="Cdotaccent" unicode="&#x10a;" horiz-adv-x="604" 
d="M348 827q-41 0 -41 38q0 40 41 40t41 -40q0 -38 -41 -38zM544 103l29 -48q-85 -65 -223 -65t-214.5 94.5t-76.5 275.5q0 182 75.5 276t212.5 94q136 0 205 -106l-59 -27q-49 76 -147 76q-108 0 -165 -86t-57 -227t58.5 -227t169.5 -86q122 0 192 56z" />
    <glyph glyph-name="cdotaccent" unicode="&#x10b;" horiz-adv-x="490" 
d="M276 600q-41 0 -41 38q0 40 41 40t41 -40q0 -38 -41 -38zM431 95l23 -50q-70 -55 -176 -55t-165 67.5t-59 189.5q0 120 59.5 188t163.5 68q51 0 94 -24.5t66 -75.5l-50 -20q-38 68 -109 68q-76 0 -119 -54t-43 -150q0 -97 43 -151t121 -54q90 0 151 53z" />
    <glyph glyph-name="Ccaron" unicode="&#x10c;" horiz-adv-x="604" 
d="M499 929l-151 -105l-151 105l20 36l131 -67l131 67zM544 103l29 -48q-85 -65 -223 -65t-214.5 94.5t-76.5 275.5q0 182 75.5 276t212.5 94q136 0 205 -106l-59 -27q-49 76 -147 76q-108 0 -165 -86t-57 -227t58.5 -227t169.5 -86q122 0 192 56z" />
    <glyph glyph-name="ccaron" unicode="&#x10d;" horiz-adv-x="490" 
d="M427 702l-151 -105l-151 105l20 36l131 -67l131 67zM431 95l23 -50q-70 -55 -176 -55t-165 67.5t-59 189.5q0 120 59.5 188t163.5 68q51 0 94 -24.5t66 -75.5l-50 -20q-38 68 -109 68q-76 0 -119 -54t-43 -150q0 -97 43 -151t121 -54q90 0 151 53z" />
    <glyph glyph-name="Dcaron" unicode="&#x10e;" horiz-adv-x="671" 
d="M442 929l-151 -105l-151 105l20 36l131 -67l131 67zM265 730q165 0 257 -97.5t92 -272.5t-92 -272.5t-257 -97.5q-88 0 -168 10v720q107 10 168 10zM265 44q134 0 208.5 83.5t74.5 232.5t-74.5 232.5t-208.5 83.5q-42 0 -104 -6v-621q48 -5 104 -5z" />
    <glyph glyph-name="dcaron" unicode="&#x10f;" horiz-adv-x="596" 
d="M461 780q34 0 34 -45v-737q-13 -8 -27 -8q-33 0 -33 48v56q-29 -48 -79 -76t-106 -28q-95 0 -145.5 66.5t-50.5 187.5q0 122 66 190.5t185 68.5q54 0 129 -5v274q13 8 27 8zM582 780l66 -17l-59 -201l-41 12zM434 204v243q-72 5 -127 5q-90 0 -140.5 -55t-50.5 -153
q0 -96 39 -149t111 -53q64 0 116 43.5t52 118.5z" />
    <glyph glyph-name="Dcroat" unicode="&#x110;" horiz-adv-x="671" 
d="M265 730q165 0 257 -97.5t92 -272.5t-92 -272.5t-257 -97.5q-88 0 -168 10v341h-81v49h81v330q107 10 168 10zM265 44q134 0 208.5 83.5t74.5 232.5t-74.5 232.5t-208.5 83.5q-42 0 -104 -6v-280h163v-49h-163v-292q48 -5 104 -5z" />
    <glyph glyph-name="dslash" unicode="&#x111;" horiz-adv-x="576" 
d="M568 660v-48h-73v-614q-13 -8 -27 -8q-33 0 -33 48v56q-29 -48 -79 -76t-106 -28q-95 0 -145.5 66.5t-50.5 187.5q0 122 66 190.5t185 68.5q54 0 129 -5v114h-174v48h174v112q13 8 27 8q34 0 34 -45v-75h73zM434 204v243q-72 5 -127 5q-90 0 -140.5 -55t-50.5 -153
q0 -96 39 -149t111 -53q64 0 116 43.5t52 118.5z" />
    <glyph glyph-name="Emacron" unicode="&#x112;" horiz-adv-x="542" 
d="M409 891v-48h-258v48h258zM161 54h328v-54h-392v720h381v-54h-317v-266h282v-54h-282v-292z" />
    <glyph glyph-name="emacron" unicode="&#x113;" horiz-adv-x="509" 
d="M407 664v-48h-258v48h258zM265 41q99 0 166 42l25 -42q-81 -51 -193 -51q-100 0 -155 63t-55 176q0 130 61.5 202t173.5 72q80 0 124.5 -41.5t44.5 -115.5q0 -73 -55.5 -114t-154.5 -41q-60 0 -132 15q5 -79 43.5 -122t106.5 -43zM280 451q-75 0 -117.5 -52.5
t-47.5 -148.5q72 -13 132 -13q71 0 110 28.5t39 79.5t-30.5 78.5t-85.5 27.5z" />
    <glyph glyph-name="Edotaccent" unicode="&#x116;" horiz-adv-x="542" 
d="M280 827q-41 0 -41 38q0 40 41 40t41 -40q0 -38 -41 -38zM161 54h328v-54h-392v720h381v-54h-317v-266h282v-54h-282v-292z" />
    <glyph glyph-name="edotaccent" unicode="&#x117;" horiz-adv-x="509" 
d="M278 600q-41 0 -41 38q0 40 41 40t41 -40q0 -38 -41 -38zM265 41q99 0 166 42l25 -42q-81 -51 -193 -51q-100 0 -155 63t-55 176q0 130 61.5 202t173.5 72q80 0 124.5 -41.5t44.5 -115.5q0 -73 -55.5 -114t-154.5 -41q-60 0 -132 15q5 -79 43.5 -122t106.5 -43zM280 451
q-75 0 -117.5 -52.5t-47.5 -148.5q72 -13 132 -13q71 0 110 28.5t39 79.5t-30.5 78.5t-85.5 27.5z" />
    <glyph glyph-name="Eogonek" unicode="&#x118;" horiz-adv-x="542" 
d="M487 -182l13 -34q-44 -24 -93 -24q-36 0 -56.5 17t-20.5 49q0 36 26.5 76t86.5 98h-346v720h381v-54h-317v-266h282v-54h-282v-292h328v-54q-109 -105 -109 -167q0 -34 36 -34q38 0 71 19z" />
    <glyph glyph-name="eogonek" unicode="&#x119;" horiz-adv-x="509" 
d="M431 83l25 -42q-93 -70 -134.5 -119.5t-41.5 -88.5q0 -34 36 -34q38 0 71 19l13 -34q-44 -24 -93 -24q-77 0 -77 66q0 38 29 78.5t92 94.5q-42 -9 -88 -9q-100 0 -155 63t-55 176q0 130 61.5 202t173.5 72q80 0 124.5 -41.5t44.5 -115.5q0 -73 -55.5 -114t-154.5 -41
q-60 0 -132 15q5 -79 43.5 -122t106.5 -43q99 0 166 42zM280 451q-75 0 -117.5 -52.5t-47.5 -148.5q72 -13 132 -13q71 0 110 28.5t39 79.5t-30.5 78.5t-85.5 27.5z" />
    <glyph glyph-name="Ecaron" unicode="&#x11a;" horiz-adv-x="542" 
d="M431 929l-151 -105l-151 105l20 36l131 -67l131 67zM161 54h328v-54h-392v720h381v-54h-317v-266h282v-54h-282v-292z" />
    <glyph glyph-name="ecaron" unicode="&#x11b;" horiz-adv-x="509" 
d="M429 702l-151 -105l-151 105l20 36l131 -67l131 67zM265 41q99 0 166 42l25 -42q-81 -51 -193 -51q-100 0 -155 63t-55 176q0 130 61.5 202t173.5 72q80 0 124.5 -41.5t44.5 -115.5q0 -73 -55.5 -114t-154.5 -41q-60 0 -132 15q5 -79 43.5 -122t106.5 -43zM280 451
q-75 0 -117.5 -52.5t-47.5 -148.5q72 -13 132 -13q71 0 110 28.5t39 79.5t-30.5 78.5t-85.5 27.5z" />
    <glyph glyph-name="Gbreve" unicode="&#x11e;" horiz-adv-x="664" 
d="M357 813q-66 0 -102 32t-36 91h49q0 -36 23.5 -56.5t65.5 -20.5q43 0 66.5 20.5t23.5 56.5h48q0 -59 -36 -91t-102 -32zM347 385h252v-387q-13 -8 -26 -8q-37 0 -37 51v41q-60 -92 -191 -92q-135 0 -210.5 94.5t-75.5 275.5q0 182 78.5 276t219.5 94q136 0 205 -106
l-59 -27q-49 76 -147 76q-113 0 -172.5 -86t-59.5 -227t59.5 -227t172.5 -86q72 0 125.5 41.5t53.5 115.5v127h-188v54z" />
    <glyph glyph-name="gbreve" unicode="&#x11f;" horiz-adv-x="576" 
d="M296 586q-66 0 -102 32t-36 91h49q0 -36 23.5 -56.5t65.5 -20.5q43 0 66.5 20.5t23.5 56.5h48q0 -59 -36 -91t-102 -32zM304 503q104 0 190 -10v-536q0 -94 -51.5 -145.5t-145.5 -51.5q-114 0 -198 51l25 42q68 -42 164 -42q71 0 108 41.5t37 119.5v120
q-29 -47 -79 -74.5t-105 -27.5q-95 0 -145.5 66.5t-50.5 187.5q0 122 66 190.5t185 68.5zM433 204v243q-72 5 -127 5q-90 0 -140.5 -55t-50.5 -153q0 -96 39 -149t111 -53q63 0 115.5 44.5t52.5 117.5z" />
    <glyph glyph-name="Gdotaccent" unicode="&#x120;" horiz-adv-x="664" 
d="M358 827q-41 0 -41 38q0 40 41 40t41 -40q0 -38 -41 -38zM347 385h252v-387q-13 -8 -26 -8q-37 0 -37 51v41q-60 -92 -191 -92q-135 0 -210.5 94.5t-75.5 275.5q0 182 78.5 276t219.5 94q136 0 205 -106l-59 -27q-49 76 -147 76q-113 0 -172.5 -86t-59.5 -227t59.5 -227
t172.5 -86q72 0 125.5 41.5t53.5 115.5v127h-188v54z" />
    <glyph glyph-name="gdotaccent" unicode="&#x121;" horiz-adv-x="576" 
d="M297 600q-41 0 -41 38q0 40 41 40t41 -40q0 -38 -41 -38zM304 503q104 0 190 -10v-536q0 -94 -51.5 -145.5t-145.5 -51.5q-114 0 -198 51l25 42q68 -42 164 -42q71 0 108 41.5t37 119.5v120q-29 -47 -79 -74.5t-105 -27.5q-95 0 -145.5 66.5t-50.5 187.5q0 122 66 190.5
t185 68.5zM433 204v243q-72 5 -127 5q-90 0 -140.5 -55t-50.5 -153q0 -96 39 -149t111 -53q63 0 115.5 44.5t52.5 117.5z" />
    <glyph glyph-name="uni0122" unicode="&#x122;" horiz-adv-x="664" 
d="M347 385h252v-387q-13 -8 -26 -8q-37 0 -37 51v41q-60 -92 -191 -92q-135 0 -210.5 94.5t-75.5 275.5q0 182 78.5 276t219.5 94q136 0 205 -106l-59 -27q-49 76 -147 76q-113 0 -172.5 -86t-59.5 -227t59.5 -227t172.5 -86q72 0 125.5 41.5t53.5 115.5v127h-188v54z
M333 -73q39 0 39 -50q0 -83 -62 -117l-10 18q39 27 43 82q-9 -3 -19 -3q-30 0 -30 33q0 37 39 37z" />
    <glyph glyph-name="uni0123" unicode="&#x123;" horiz-adv-x="576" 
d="M297 600q-39 0 -39 52q0 63 62 93l11 -19q-39 -17 -44 -58q9 3 19 3q30 0 30 -33q0 -38 -39 -38zM304 503q104 0 190 -10v-536q0 -94 -51.5 -145.5t-145.5 -51.5q-114 0 -198 51l25 42q68 -42 164 -42q71 0 108 41.5t37 119.5v120q-29 -47 -79 -74.5t-105 -27.5
q-95 0 -145.5 66.5t-50.5 187.5q0 122 66 190.5t185 68.5zM433 204v243q-72 5 -127 5q-90 0 -140.5 -55t-50.5 -153q0 -96 39 -149t111 -53q63 0 115.5 44.5t52.5 117.5z" />
    <glyph glyph-name="Hbar" unicode="&#x126;" horiz-adv-x="719" 
d="M686 597v-49h-63v-548h-64v339h-398v-339h-64v548h-64v49h64v125q11 8 26 8q17 0 27.5 -13t10.5 -38v-82h398v125q11 8 26 8q17 0 27.5 -13t10.5 -38v-82h63zM559 393v155h-398v-155h398z" />
    <glyph glyph-name="hbar" unicode="&#x127;" horiz-adv-x="573" 
d="M336 503q76 0 118.5 -46.5t42.5 -130.5v-326h-61v311q0 66 -30 103t-84 37q-79 0 -129 -43.5t-50 -118.5v-289h-61v612h-74v49h74v111q13 8 27 8q34 0 34 -45v-74h173v-49h-173v-205q60 96 193 96z" />
    <glyph glyph-name="Imacron" unicode="&#x12a;" horiz-adv-x="257" 
d="M0 891h258v-48h-258v48zM161 0h-64v722q11 8 26 8q17 0 27.5 -13t10.5 -38v-679z" />
    <glyph glyph-name="imacron" unicode="&#x12b;" horiz-adv-x="224" 
d="M-16 664h258v-48h-258v48zM82 493h61v-493h-61v493z" />
    <glyph glyph-name="Iogonek" unicode="&#x12e;" horiz-adv-x="257" 
d="M159 -182l13 -34q-44 -24 -93 -24q-36 0 -56.5 17t-20.5 49q0 36 26.5 76t86.5 98h-18v722q11 8 26 8q17 0 27.5 -13t10.5 -38v-679q-109 -105 -109 -167q0 -34 36 -34q38 0 71 19z" />
    <glyph glyph-name="iogonek" unicode="&#x12f;" horiz-adv-x="224" 
d="M113 600q-41 0 -41 38q0 40 41 40t41 -40q0 -38 -41 -38zM70 -201q38 0 71 19l13 -34q-44 -24 -93 -24q-36 0 -56.5 17t-20.5 49q0 36 26.5 76t86.5 98h-15v493h61v-493q-109 -105 -109 -167q0 -34 36 -34z" />
    <glyph glyph-name="Idot" unicode="&#x130;" horiz-adv-x="257" 
d="M129 827q-41 0 -41 38q0 40 41 40t41 -40q0 -38 -41 -38zM161 0h-64v722q11 8 26 8q17 0 27.5 -13t10.5 -38v-679z" />
    <glyph glyph-name="dotlessi" unicode="&#x131;" horiz-adv-x="224" 
d="M82 493h61v-493h-61v493z" />
    <glyph glyph-name="uni0136" unicode="&#x136;" horiz-adv-x="597" 
d="M123 730q17 0 27.5 -13t10.5 -38v-679h-64v722q11 8 26 8zM245 368l350 -365q-14 -13 -36 -13q-36 0 -66 33l-327 341l326 366l66 -13zM310 -73q39 0 39 -50q0 -83 -62 -117l-10 18q39 27 43 82q-9 -3 -19 -3q-30 0 -30 33q0 37 39 37z" />
    <glyph glyph-name="uni0137" unicode="&#x137;" horiz-adv-x="505" 
d="M109 780q34 0 34 -45v-735h-61v772q13 8 27 8zM222 263l278 -261q-16 -12 -40 -12q-31 0 -62 31l-252 240l265 242l62 -13zM262 -73q39 0 39 -50q0 -83 -62 -117l-10 18q39 27 43 82q-9 -3 -19 -3q-30 0 -30 33q0 37 39 37z" />
    <glyph glyph-name="Lacute" unicode="&#x139;" horiz-adv-x="468" 
d="M224 966l36 -60l-167 -83l-20 36zM161 55h282v-55h-346v722q11 8 26 8q17 0 27.5 -13t10.5 -38v-624z" />
    <glyph glyph-name="lacute" unicode="&#x13a;" horiz-adv-x="243" 
d="M206 1016l36 -60l-167 -83l-20 36zM152 -10q-34 0 -53 18.5t-19 52.5v711q13 8 27 8q34 0 34 -45v-661q0 -32 27 -32q24 0 39 7l9 -40q-25 -19 -64 -19z" />
    <glyph glyph-name="uni013B" unicode="&#x13b;" horiz-adv-x="468" 
d="M161 55h282v-55h-346v722q11 8 26 8q17 0 27.5 -13t10.5 -38v-624zM262 -73q39 0 39 -50q0 -83 -62 -117l-10 18q39 27 43 82q-9 -3 -19 -3q-30 0 -30 33q0 37 39 37z" />
    <glyph glyph-name="uni013C" unicode="&#x13c;" horiz-adv-x="243" 
d="M152 -10q-34 0 -53 18.5t-19 52.5v711q13 8 27 8q34 0 34 -45v-661q0 -32 27 -32q24 0 39 7l9 -40q-25 -19 -64 -19zM125 -73q39 0 39 -50q0 -83 -62 -117l-10 18q39 27 43 82q-9 -3 -19 -3q-30 0 -30 33q0 37 39 37z" />
    <glyph glyph-name="Lcaron" unicode="&#x13d;" horiz-adv-x="472" 
d="M161 55h282v-55h-346v722q11 8 26 8q17 0 27.5 -13t10.5 -38v-624zM337 713l-59 -201l-41 12l34 206z" />
    <glyph glyph-name="lcaron" unicode="&#x13e;" horiz-adv-x="263" 
d="M152 -10q-34 0 -53 18.5t-19 52.5v711q13 8 27 8q34 0 34 -45v-661q0 -32 27 -32q24 0 39 7l9 -40q-25 -19 -64 -19zM228 780l66 -17l-59 -201l-41 12z" />
    <glyph glyph-name="Lslash" unicode="&#x141;" horiz-adv-x="479" 
d="M171 55h282v-55h-346v316l-77 -49v56l77 49v350q11 8 26 8q17 0 27.5 -13t10.5 -38v-270l147 94v-57l-147 -93v-298z" />
    <glyph glyph-name="lslash" unicode="&#x142;" horiz-adv-x="291" 
d="M255 446l-83 -73v-299q0 -32 27 -32q24 0 39 7l9 -40q-25 -19 -64 -19q-34 0 -53 18.5t-19 52.5v261l-62 -55v56l62 56v393q13 8 27 8q34 0 34 -45v-306l83 74v-57z" />
    <glyph glyph-name="Nacute" unicode="&#x143;" horiz-adv-x="719" 
d="M491 906l-167 -83l-20 36l151 107zM560 720h63v-720h-50l-416 601l3 -601h-63v722q11 8 24 8q24 0 46 -34l396 -576z" />
    <glyph glyph-name="nacute" unicode="&#x144;" horiz-adv-x="573" 
d="M420 679l-167 -83l-20 36l151 107zM336 503q76 0 118.5 -46.5t42.5 -130.5v-326h-61v311q0 66 -30 103t-84 37q-79 0 -129 -43.5t-50 -118.5v-289h-61v495q14 8 27 8q33 0 33 -48v-50q60 98 194 98z" />
    <glyph glyph-name="uni0145" unicode="&#x145;" horiz-adv-x="719" 
d="M560 720h63v-720h-50l-416 601l3 -601h-63v722q11 8 24 8q24 0 46 -34l396 -576zM360 -73q39 0 39 -50q0 -83 -62 -117l-10 18q39 27 43 82q-9 -3 -19 -3q-30 0 -30 33q0 37 39 37z" />
    <glyph glyph-name="uni0146" unicode="&#x146;" horiz-adv-x="573" 
d="M336 503q76 0 118.5 -46.5t42.5 -130.5v-326h-61v311q0 66 -30 103t-84 37q-79 0 -129 -43.5t-50 -118.5v-289h-61v495q14 8 27 8q33 0 33 -48v-50q60 98 194 98zM289 -73q39 0 39 -50q0 -83 -62 -117l-10 18q39 27 43 82q-9 -3 -19 -3q-30 0 -30 33q0 37 39 37z" />
    <glyph glyph-name="Ncaron" unicode="&#x147;" horiz-adv-x="719" 
d="M511 929l-151 -105l-151 105l20 36l131 -67l131 67zM560 720h63v-720h-50l-416 601l3 -601h-63v722q11 8 24 8q24 0 46 -34l396 -576z" />
    <glyph glyph-name="ncaron" unicode="&#x148;" horiz-adv-x="573" 
d="M440 702l-151 -105l-151 105l20 36l131 -67l131 67zM336 503q76 0 118.5 -46.5t42.5 -130.5v-326h-61v311q0 66 -30 103t-84 37q-79 0 -129 -43.5t-50 -118.5v-289h-61v495q14 8 27 8q33 0 33 -48v-50q60 98 194 98z" />
    <glyph glyph-name="Eng" unicode="&#x14a;" horiz-adv-x="719" 
d="M560 720h63v-794q0 -78 -38.5 -122t-106.5 -44q-64 0 -106 19l9 54q33 -16 80 -16q100 0 100 131v69l-404 584l3 -601h-63v722q11 8 24 8q24 0 46 -34l394 -573z" />
    <glyph glyph-name="eng" unicode="&#x14b;" horiz-adv-x="573" 
d="M336 503q76 0 118.5 -46.5t42.5 -130.5v-415q0 -114 -86 -151l-29 46q54 29 54 121v384q0 66 -30 103t-84 37q-79 0 -129 -43.5t-50 -118.5v-289h-61v495q14 8 27 8q33 0 33 -48v-50q60 98 194 98z" />
    <glyph glyph-name="Omacron" unicode="&#x14c;" horiz-adv-x="740" 
d="M241 891h258v-48h-258v48zM370 -10q-147 0 -229 97.5t-82 272.5t82 272.5t229 97.5t229.5 -97.5t82.5 -272.5t-82.5 -272.5t-229.5 -97.5zM369 47q116 0 181.5 82.5t65.5 230.5t-65.5 230.5t-181.5 82.5t-180.5 -82.5t-64.5 -230.5t64.5 -230.5t180.5 -82.5z" />
    <glyph glyph-name="omacron" unicode="&#x14d;" 
d="M158 664h258v-48h-258v48zM288 -10q-112 0 -173.5 67.5t-61.5 188.5t62 189t173 68t172.5 -68t61.5 -189t-61.5 -188.5t-172.5 -67.5zM287 42q82 0 127.5 53.5t45.5 150.5t-45.5 151t-127.5 54q-81 0 -126.5 -54t-45.5 -151t45.5 -150.5t126.5 -53.5z" />
    <glyph glyph-name="Ohungarumlaut" unicode="&#x150;" horiz-adv-x="740" 
d="M390 978l51 -48l-140 -124l-29 30zM513 978l51 -48l-140 -124l-29 30zM370 -10q-147 0 -229 97.5t-82 272.5t82 272.5t229 97.5t229.5 -97.5t82.5 -272.5t-82.5 -272.5t-229.5 -97.5zM369 47q116 0 181.5 82.5t65.5 230.5t-65.5 230.5t-181.5 82.5t-180.5 -82.5
t-64.5 -230.5t64.5 -230.5t180.5 -82.5z" />
    <glyph glyph-name="ohungarumlaut" unicode="&#x151;" 
d="M307 751l51 -48l-140 -124l-29 30zM430 751l51 -48l-140 -124l-29 30zM288 -10q-112 0 -173.5 67.5t-61.5 188.5t62 189t173 68t172.5 -68t61.5 -189t-61.5 -188.5t-172.5 -67.5zM287 42q82 0 127.5 53.5t45.5 150.5t-45.5 151t-127.5 54q-81 0 -126.5 -54t-45.5 -151
t45.5 -150.5t126.5 -53.5z" />
    <glyph glyph-name="OE" unicode="&#x152;" horiz-adv-x="1021" 
d="M660 54h308v-54h-372v151q-70 -161 -245 -161q-137 0 -214.5 97.5t-77.5 272.5t77.5 272.5t214.5 97.5q175 0 245 -161v151h361v-54h-297v-266h262v-54h-262v-292zM359 47q112 0 174.5 82.5t62.5 230.5t-62.5 230.5t-174.5 82.5t-173.5 -82t-61.5 -231t61.5 -231
t173.5 -82z" />
    <glyph glyph-name="oe" unicode="&#x153;" horiz-adv-x="897" 
d="M652 41q98 0 166 42l25 -42q-79 -51 -192 -51q-138 0 -181 128q-49 -128 -191 -128q-107 0 -166 67.5t-59 188.5t59 189t166 68q147 0 195 -141q51 141 202 141q79 0 124 -40t45 -112q0 -71 -55.5 -110.5t-154.5 -39.5q-58 0 -133 7q5 -80 43.5 -123.5t106.5 -43.5z
M278 42q78 0 120.5 53.5t42.5 150.5t-42.5 151t-120.5 54q-77 0 -119.5 -54t-42.5 -151t42.5 -150.5t119.5 -53.5zM667 451q-74 0 -117 -51.5t-48 -146.5q66 -6 132 -6q71 0 110 27t39 76q0 48 -30.5 74.5t-85.5 26.5z" />
    <glyph glyph-name="Racute" unicode="&#x154;" horiz-adv-x="625" 
d="M419 906l-167 -83l-20 36l151 107zM553 172l10 -128q2 -25 11 -46q-18 -8 -38 -8q-34 0 -37 48l-10 130q-5 73 -48.5 112.5t-123.5 39.5h-156v-320h-64v720q103 10 183 10q129 0 200.5 -53t71.5 -148q0 -135 -142 -178q132 -37 143 -179zM281 676q-55 0 -120 -5v-297h119
q98 0 152 40t54 111q0 72 -53.5 111.5t-151.5 39.5z" />
    <glyph glyph-name="racute" unicode="&#x155;" horiz-adv-x="398" 
d="M325 679l-167 -83l-20 36l151 107zM319 503q35 0 67 -15l-19 -61q-28 18 -63 18q-72 0 -117 -52t-45 -144v-249h-61v495q14 8 27 8q33 0 33 -48v-69q57 117 178 117z" />
    <glyph glyph-name="uni0156" unicode="&#x156;" horiz-adv-x="625" 
d="M553 172l10 -128q2 -25 11 -46q-18 -8 -38 -8q-34 0 -37 48l-10 130q-5 73 -48.5 112.5t-123.5 39.5h-156v-320h-64v720q103 10 183 10q129 0 200.5 -53t71.5 -148q0 -135 -142 -178q132 -37 143 -179zM281 676q-55 0 -120 -5v-297h119q98 0 152 40t54 111
q0 72 -53.5 111.5t-151.5 39.5zM318 -73q39 0 39 -50q0 -83 -62 -117l-10 18q39 27 43 82q-9 -3 -19 -3q-30 0 -30 33q0 37 39 37z" />
    <glyph glyph-name="uni0157" unicode="&#x157;" horiz-adv-x="398" 
d="M319 503q35 0 67 -15l-19 -61q-28 18 -63 18q-72 0 -117 -52t-45 -144v-249h-61v495q14 8 27 8q33 0 33 -48v-69q57 117 178 117zM114 -73q39 0 39 -50q0 -83 -62 -117l-10 18q39 27 43 82q-9 -3 -19 -3q-30 0 -30 33q0 37 39 37z" />
    <glyph glyph-name="Rcaron" unicode="&#x158;" horiz-adv-x="625" 
d="M439 929l-151 -105l-151 105l20 36l131 -67l131 67zM553 172l10 -128q2 -25 11 -46q-18 -8 -38 -8q-34 0 -37 48l-10 130q-5 73 -48.5 112.5t-123.5 39.5h-156v-320h-64v720q103 10 183 10q129 0 200.5 -53t71.5 -148q0 -135 -142 -178q132 -37 143 -179zM281 676
q-55 0 -120 -5v-297h119q98 0 152 40t54 111q0 72 -53.5 111.5t-151.5 39.5z" />
    <glyph glyph-name="rcaron" unicode="&#x159;" horiz-adv-x="398" 
d="M345 702l-151 -105l-151 105l20 36l131 -67l131 67zM319 503q35 0 67 -15l-19 -61q-28 18 -63 18q-72 0 -117 -52t-45 -144v-249h-61v495q14 8 27 8q33 0 33 -48v-69q57 117 178 117z" />
    <glyph glyph-name="Sacute" unicode="&#x15a;" horiz-adv-x="539" 
d="M361 966l36 -60l-167 -83l-20 36zM275 730q104 0 197 -63l-28 -52q-80 58 -172 58q-66 0 -103.5 -31t-37.5 -88q0 -32 12 -57t38 -43t48 -29t61 -26q39 -16 57.5 -24t50.5 -28t47 -39.5t27.5 -51.5t12.5 -72q0 -92 -58 -143t-163 -51q-136 0 -218 63l22 54
q69 -60 194 -60q75 0 116.5 34t41.5 96q0 28 -10 51.5t-22 38t-39 30t-42.5 22.5t-50.5 21q-32 13 -46.5 19.5t-42.5 21t-41.5 28t-29.5 33.5t-23 46t-7 58q0 88 55 136t154 48z" />
    <glyph glyph-name="sacute" unicode="&#x15b;" horiz-adv-x="450" 
d="M320 739l36 -60l-167 -83l-20 36zM232 503q87 0 154 -37l-27 -45q-62 32 -133 32q-51 0 -79 -19.5t-28 -55.5q0 -19 8 -34t17.5 -24.5t31 -20.5t33 -15.5t40.5 -14.5q37 -13 58.5 -22.5t47.5 -26.5t38.5 -41t12.5 -55q0 -63 -49 -98.5t-139 -35.5q-120 0 -177 44l19 44
q55 -38 155 -38q62 0 96 21t34 60q0 35 -30.5 54.5t-91.5 39.5q-39 14 -60 23t-49.5 27.5t-42 44.5t-13.5 61q0 62 46 97t128 35z" />
    <glyph glyph-name="Scedilla" unicode="&#x15e;" horiz-adv-x="539" 
d="M485 184q0 -85 -49 -135t-140 -58l-29 -43q100 -29 100 -98q0 -43 -29 -66.5t-83 -23.5q-52 0 -90 27l16 34q31 -22 70 -22q32 0 49 14.5t17 38.5q0 29 -27 45.5t-89 29.5l40 63q-121 6 -195 63l22 54q69 -60 194 -60q75 0 116.5 34t41.5 96q0 28 -10 51.5t-22 38t-39 30
t-42.5 22.5t-50.5 21q-32 13 -46.5 19.5t-42.5 21t-41.5 28t-29.5 33.5t-23 46t-7 58q0 88 55 136t154 48q104 0 197 -63l-28 -52q-80 58 -172 58q-66 0 -103.5 -31t-37.5 -88q0 -32 12 -57t38 -43t48 -29t61 -26q39 -16 57.5 -24t50.5 -28t47 -39.5t27.5 -51.5t12.5 -72z
" />
    <glyph glyph-name="scedilla" unicode="&#x15f;" horiz-adv-x="450" 
d="M406 124q0 -57 -39.5 -91t-112.5 -41l-29 -44q100 -29 100 -98q0 -43 -29 -66.5t-83 -23.5q-52 0 -90 27l16 34q31 -22 70 -22q32 0 49 14.5t17 38.5q0 29 -27 45.5t-89 29.5l40 63q-106 5 -158 44l19 44q55 -38 155 -38q62 0 96 21t34 60q0 35 -30.5 54.5t-91.5 39.5
q-39 14 -60 23t-49.5 27.5t-42 44.5t-13.5 61q0 62 46 97t128 35q87 0 154 -37l-27 -45q-62 32 -133 32q-51 0 -79 -19.5t-28 -55.5q0 -19 8 -34t17.5 -24.5t31 -20.5t33 -15.5t40.5 -14.5q37 -13 58.5 -22.5t47.5 -26.5t38.5 -41t12.5 -55z" />
    <glyph glyph-name="Scaron" unicode="&#x160;" horiz-adv-x="539" 
d="M417 929l-151 -105l-151 105l20 36l131 -67l131 67zM290 399q39 -16 57.5 -24t50.5 -28t47 -39.5t27.5 -51.5t12.5 -72q0 -92 -58 -143t-163 -51q-136 0 -218 63l22 54q69 -60 194 -60q75 0 116.5 34t41.5 96q0 28 -10 51.5t-22 38t-39 30t-42.5 22.5t-50.5 21
q-32 13 -46.5 19.5t-42.5 21t-41.5 28t-29.5 33.5t-23 46t-7 58q0 88 55 136t154 48q104 0 197 -63l-28 -52q-80 58 -172 58q-66 0 -103.5 -31t-37.5 -88q0 -32 12 -57t38 -43t48 -29t61 -26z" />
    <glyph glyph-name="scaron" unicode="&#x161;" horiz-adv-x="450" 
d="M376 702l-151 -105l-151 105l20 36l131 -67l131 67zM249 269q37 -13 58.5 -22.5t47.5 -26.5t38.5 -41t12.5 -55q0 -63 -49 -98.5t-139 -35.5q-120 0 -177 44l19 44q55 -38 155 -38q62 0 96 21t34 60q0 35 -30.5 54.5t-91.5 39.5q-39 14 -60 23t-49.5 27.5t-42 44.5
t-13.5 61q0 62 46 97t128 35q87 0 154 -37l-27 -45q-62 32 -133 32q-51 0 -79 -19.5t-28 -55.5q0 -19 8 -34t17.5 -24.5t31 -20.5t33 -15.5t40.5 -14.5z" />
    <glyph glyph-name="uni0162" unicode="&#x162;" horiz-adv-x="518" 
d="M291 0h-5l-29 -51q103 -29 103 -99q0 -43 -29 -66.5t-83 -23.5q-52 0 -90 27l16 34q32 -22 70 -22q32 0 49 14.5t17 38.5q0 29 -27 45.5t-89 29.5l39 73h-6v666h-203v54h470v-54h-203v-666z" />
    <glyph glyph-name="uni0163" unicode="&#x163;" horiz-adv-x="368" 
d="M346 444h-178v-282q0 -120 94 -120q42 0 74 16l9 -49q-39 -19 -101 -19q-11 0 -29 2l-30 -44q100 -29 100 -98q0 -43 -29 -66.5t-83 -23.5q-52 0 -90 27l16 34q31 -22 70 -22q32 0 49 14.5t17 38.5q0 29 -27 45.5t-89 29.5l52 81q-64 39 -64 139v297h-82v49h83v127
q14 8 27 8q33 0 33 -46v-89h178v-49z" />
    <glyph glyph-name="Tcaron" unicode="&#x164;" horiz-adv-x="518" 
d="M410 929l-151 -105l-151 105l20 36l131 -67l131 67zM494 720v-54h-203v-666h-64v666h-203v54h470z" />
    <glyph glyph-name="tcaron" unicode="&#x165;" horiz-adv-x="368" 
d="M321 763l-59 -201l-41 12l34 206zM346 444h-178v-282q0 -120 94 -120q42 0 74 16l9 -49q-39 -19 -101 -19q-65 0 -101 41t-36 116v297h-82v49h83v127q14 8 27 8q33 0 33 -46v-89h178v-49z" />
    <glyph glyph-name="Tbar" unicode="&#x166;" horiz-adv-x="518" 
d="M494 666h-203v-281h121v-49h-121v-336h-64v336h-123v49h123v281h-203v54h470v-54z" />
    <glyph glyph-name="tbar" unicode="&#x167;" horiz-adv-x="368" 
d="M346 444h-178v-171h171v-49h-171v-62q0 -120 94 -120q42 0 74 16l9 -49q-39 -19 -101 -19q-65 0 -101 41t-36 116v77h-76v49h76v171h-82v49h83v127q14 8 27 8q33 0 33 -46v-89h178v-49z" />
    <glyph glyph-name="Umacron" unicode="&#x16a;" horiz-adv-x="687" 
d="M215 891h258v-48h-258v48zM535 266v456q11 8 26 8q37 0 37 -51v-417q0 -129 -67 -200.5t-188 -71.5q-120 0 -186.5 71.5t-66.5 200.5v460q11 8 26 8q17 0 27.5 -13t10.5 -38v-413q0 -104 49.5 -161.5t139.5 -57.5q91 0 141.5 57.5t50.5 161.5z" />
    <glyph glyph-name="umacron" unicode="&#x16b;" horiz-adv-x="562" 
d="M408 664v-48h-258v48h258zM447 503q34 0 34 -46v-459q-13 -8 -27 -8q-33 0 -33 48v48q-57 -96 -184 -96q-76 0 -118.5 46.5t-42.5 130.5v328q14 8 27 8q34 0 34 -46v-275q0 -66 30 -103t84 -37q74 0 121.5 43t47.5 119v291q14 8 27 8z" />
    <glyph glyph-name="Uring" unicode="&#x16e;" horiz-adv-x="687" 
d="M343 789q-53 0 -82.5 27.5t-29.5 78.5t29.5 79t82.5 28q54 0 83.5 -28t29.5 -79t-29.5 -78.5t-83.5 -27.5zM344 828q31 0 48 17.5t17 49.5t-17 50t-48 18t-48 -18t-17 -50t17 -49.5t48 -17.5zM535 266v456q11 8 26 8q37 0 37 -51v-417q0 -129 -67 -200.5t-188 -71.5
q-120 0 -186.5 71.5t-66.5 200.5v460q11 8 26 8q17 0 27.5 -13t10.5 -38v-413q0 -104 49.5 -161.5t139.5 -57.5q91 0 141.5 57.5t50.5 161.5z" />
    <glyph glyph-name="uring" unicode="&#x16f;" horiz-adv-x="562" 
d="M278 562q-53 0 -82.5 27.5t-29.5 78.5t29.5 79t82.5 28q54 0 83.5 -28t29.5 -79t-29.5 -78.5t-83.5 -27.5zM279 736q-31 0 -48 -18t-17 -50t17 -49.5t48 -17.5t48 17.5t17 49.5t-17 50t-48 18zM447 503q34 0 34 -46v-459q-13 -8 -27 -8q-33 0 -33 48v48q-57 -96 -184 -96
q-76 0 -118.5 46.5t-42.5 130.5v328q14 8 27 8q34 0 34 -46v-275q0 -66 30 -103t84 -37q74 0 121.5 43t47.5 119v291q14 8 27 8z" />
    <glyph glyph-name="Uhungarumlaut" unicode="&#x170;" horiz-adv-x="687" 
d="M364 978l51 -48l-140 -124l-29 30zM487 978l51 -48l-140 -124l-29 30zM535 266v456q11 8 26 8q37 0 37 -51v-417q0 -129 -67 -200.5t-188 -71.5q-120 0 -186.5 71.5t-66.5 200.5v460q11 8 26 8q17 0 27.5 -13t10.5 -38v-413q0 -104 49.5 -161.5t139.5 -57.5
q91 0 141.5 57.5t50.5 161.5z" />
    <glyph glyph-name="uhungarumlaut" unicode="&#x171;" horiz-adv-x="562" 
d="M350 703l-140 -124l-29 30l118 142zM333 579l-29 30l118 142l51 -48zM447 503q34 0 34 -46v-459q-13 -8 -27 -8q-33 0 -33 48v48q-57 -96 -184 -96q-76 0 -118.5 46.5t-42.5 130.5v328q14 8 27 8q34 0 34 -46v-275q0 -66 30 -103t84 -37q74 0 121.5 43t47.5 119v291
q14 8 27 8z" />
    <glyph glyph-name="Uogonek" unicode="&#x172;" horiz-adv-x="687" 
d="M561 730q37 0 37 -51v-417q0 -159 -101 -229q-184 -127 -184 -200q0 -34 36 -34q38 0 71 19l13 -34q-44 -24 -93 -24q-77 0 -77 66q0 69 126 167q-23 -3 -46 -3q-120 0 -186.5 71.5t-66.5 200.5v460q11 8 26 8q17 0 27.5 -13t10.5 -38v-413q0 -104 49.5 -161.5
t139.5 -57.5q91 0 141.5 57.5t50.5 161.5v456q11 8 26 8z" />
    <glyph glyph-name="uogonek" unicode="&#x173;" horiz-adv-x="562" 
d="M479 -182l13 -34q-44 -24 -93 -24q-77 0 -77 66q0 65 112 171q-13 13 -13 41v48q-57 -96 -184 -96q-76 0 -118.5 46.5t-42.5 130.5v328q14 8 27 8q34 0 34 -46v-275q0 -66 30 -103t84 -37q74 0 121.5 43t47.5 119v291q14 8 27 8q34 0 34 -46v-459q-109 -104 -109 -165
q0 -34 36 -34q38 0 71 19z" />
    <glyph glyph-name="Wcircumflex" unicode="&#x174;" horiz-adv-x="985" 
d="M492 890l-131 -67l-20 36l151 105l151 -105l-20 -36zM893 730l64 -13l-211 -717h-76l-163 562l-16 60l-14 -58l-159 -564h-77l-213 717q14 13 37 13q32 0 41 -36l158 -564l18 -73l18 75l161 585q10 13 32 13q35 0 46 -38l152 -557l19 -77l20 80z" />
    <glyph glyph-name="wcircumflex" unicode="&#x175;" horiz-adv-x="784" 
d="M392 663l-131 -67l-20 36l151 105l151 -105l-20 -36zM700 503l56 -13l-163 -490h-67l-113 342l-23 73l-21 -73l-109 -342h-68l-164 490q15 13 33 13q30 0 42 -36l102 -325l24 -83l25 86l110 345q13 13 31 13q28 0 40 -36l99 -317l27 -90l27 93z" />
    <glyph glyph-name="Ycircumflex" unicode="&#x176;" horiz-adv-x="606" 
d="M304 890l-131 -67l-20 36l151 105l151 -105l-20 -36zM579 717l-244 -409v-308h-64v306l-244 411q10 13 32 13q37 0 56 -33l150 -256l42 -79l43 83l166 285z" />
    <glyph glyph-name="ycircumflex" unicode="&#x177;" horiz-adv-x="518" 
d="M260 663l-131 -67l-20 36l151 105l151 -105l-20 -36zM431 503l57 -13l-220 -577q-46 -120 -135 -153l-26 42q69 26 106 114l34 84q-23 3 -32 26l-185 464q15 13 33 13q27 0 42 -36l119 -306l41 -117l40 117z" />
    <glyph glyph-name="Ydieresis" unicode="&#x178;" horiz-adv-x="606" 
d="M231 827q-41 0 -41 38q0 40 41 40t41 -40q0 -38 -41 -38zM376 827q-41 0 -41 38q0 40 41 40t41 -40q0 -38 -41 -38zM579 717l-244 -409v-308h-64v306l-244 411q10 13 32 13q37 0 56 -33l150 -256l42 -79l43 83l166 285z" />
    <glyph glyph-name="Zacute" unicode="&#x179;" horiz-adv-x="544" 
d="M399 906l-167 -83l-20 36l151 107zM159 133l-52 -79h397v-54h-474v42l344 554l45 70h-366v54h444q7 -11 7 -22q0 -14 -22 -48z" />
    <glyph glyph-name="zacute" unicode="&#x17a;" horiz-adv-x="455" 
d="M356 679l-167 -83l-20 36l151 107zM103 49h313v-49h-383v39l256 348l45 57h-284v49h358q7 -11 7 -19q0 -13 -22 -42l-242 -324z" />
    <glyph glyph-name="Zdotaccent" unicode="&#x17b;" horiz-adv-x="544" 
d="M268 827q-41 0 -41 38q0 40 41 40t41 -40q0 -38 -41 -38zM159 133l-52 -79h397v-54h-474v42l344 554l45 70h-366v54h444q7 -11 7 -22q0 -14 -22 -48z" />
    <glyph glyph-name="zdotaccent" unicode="&#x17c;" horiz-adv-x="455" 
d="M225 600q-41 0 -41 38q0 40 41 40t41 -40q0 -38 -41 -38zM103 49h313v-49h-383v39l256 348l45 57h-284v49h358q7 -11 7 -19q0 -13 -22 -42l-242 -324z" />
    <glyph glyph-name="Zcaron" unicode="&#x17d;" horiz-adv-x="544" 
d="M419 929l-151 -105l-151 105l20 36l131 -67l131 67zM159 133l-52 -79h397v-54h-474v42l344 554l45 70h-366v54h444q7 -11 7 -22q0 -14 -22 -48z" />
    <glyph glyph-name="zcaron" unicode="&#x17e;" horiz-adv-x="455" 
d="M376 702l-151 -105l-151 105l20 36l131 -67l131 67zM103 49h313v-49h-383v39l256 348l45 57h-284v49h358q7 -11 7 -19q0 -13 -22 -42l-242 -324z" />
    <glyph glyph-name="uni018F" unicode="&#x18f;" horiz-adv-x="658" 
d="M319 730q133 0 206.5 -89.5t73.5 -252.5q0 -188 -84 -293t-233 -105q-106 0 -166 59t-60 165t74.5 164.5t206.5 58.5q93 0 197 -26q-5 125 -61.5 193.5t-154.5 68.5q-138 0 -233 -62l-26 47q105 72 260 72zM292 47q109 0 172.5 82t68.5 231q-96 23 -195 23
q-103 0 -160 -44.5t-57 -123.5t45 -123.5t126 -44.5z" />
    <glyph glyph-name="florin" unicode="&#x192;" horiz-adv-x="479" 
d="M379 728q-49 0 -79.5 -32.5t-40.5 -90.5l-37 -212h168v-49h-177l-77 -435q-21 -114 -110 -150l-24 49q62 32 77 121l73 415h-80v49h89l41 233q13 75 57 114.5t113 39.5q60 0 110 -21l-15 -46q-37 15 -88 15z" />
    <glyph glyph-name="uni0218" unicode="&#x218;" horiz-adv-x="539" 
d="M290 399q39 -16 57.5 -24t50.5 -28t47 -39.5t27.5 -51.5t12.5 -72q0 -92 -58 -143t-163 -51q-136 0 -218 63l22 54q69 -60 194 -60q75 0 116.5 34t41.5 96q0 28 -10 51.5t-22 38t-39 30t-42.5 22.5t-50.5 21q-32 13 -46.5 19.5t-42.5 21t-41.5 28t-29.5 33.5t-23 46
t-7 58q0 88 55 136t154 48q104 0 197 -63l-28 -52q-80 58 -172 58q-66 0 -103.5 -31t-37.5 -88q0 -32 12 -57t38 -43t48 -29t61 -26zM266 -73q39 0 39 -50q0 -83 -62 -117l-10 18q39 27 43 82q-9 -3 -19 -3q-30 0 -30 33q0 37 39 37z" />
    <glyph glyph-name="uni0219" unicode="&#x219;" horiz-adv-x="450" 
d="M249 269q37 -13 58.5 -22.5t47.5 -26.5t38.5 -41t12.5 -55q0 -63 -49 -98.5t-139 -35.5q-120 0 -177 44l19 44q55 -38 155 -38q62 0 96 21t34 60q0 35 -30.5 54.5t-91.5 39.5q-39 14 -60 23t-49.5 27.5t-42 44.5t-13.5 61q0 62 46 97t128 35q87 0 154 -37l-27 -45
q-62 32 -133 32q-51 0 -79 -19.5t-28 -55.5q0 -19 8 -34t17.5 -24.5t31 -20.5t33 -15.5t40.5 -14.5zM224 -73q39 0 39 -50q0 -83 -62 -117l-10 18q39 27 43 82q-9 -3 -19 -3q-30 0 -30 33q0 37 39 37z" />
    <glyph glyph-name="uni021A" unicode="&#x21a;" horiz-adv-x="518" 
d="M24 720h470v-54h-203v-666h-64v666h-203v54zM259 -73q39 0 39 -50q0 -83 -62 -117l-10 18q39 27 43 82q-9 -3 -19 -3q-30 0 -30 33q0 37 39 37z" />
    <glyph glyph-name="uni021B" unicode="&#x21b;" horiz-adv-x="368" 
d="M346 444h-178v-282q0 -120 94 -120q42 0 74 16l9 -49q-39 -19 -101 -19q-65 0 -101 41t-36 116v297h-82v49h83v127q14 8 27 8q33 0 33 -46v-89h178v-49zM184 -73q39 0 39 -50q0 -83 -62 -117l-10 18q39 27 43 82q-9 -3 -19 -3q-30 0 -30 33q0 37 39 37z" />
    <glyph glyph-name="uni0259" unicode="&#x259;" horiz-adv-x="509" 
d="M246 503q100 0 155 -63t55 -177q0 -130 -61.5 -201.5t-173.5 -71.5q-79 0 -124 41t-45 115t55 115t155 41q63 0 133 -14q-5 78 -44 121t-107 43q-98 0 -165 -43l-25 42q81 52 192 52zM229 41q75 0 118.5 52.5t48.5 148.5q-73 14 -133 14q-71 0 -110.5 -28.5t-39.5 -79.5
t30.5 -79t85.5 -28z" />
    <glyph glyph-name="circumflex" unicode="&#x2c6;" horiz-adv-x="337" 
d="M319 632l-20 -36l-131 67l-131 -67l-20 36l151 105z" />
    <glyph glyph-name="caron" unicode="&#x2c7;" horiz-adv-x="337" 
d="M299 738l20 -36l-151 -105l-151 105l20 36l131 -67z" />
    <glyph glyph-name="breve" unicode="&#x2d8;" horiz-adv-x="331" 
d="M255 709h48q0 -59 -36 -91t-102 -32t-102 32t-36 91h49q0 -36 23.5 -56.5t65.5 -20.5q43 0 66.5 20.5t23.5 56.5z" />
    <glyph glyph-name="dotaccent" unicode="&#x2d9;" horiz-adv-x="196" 
d="M98 600q-41 0 -41 38q0 40 41 40t41 -40q0 -38 -41 -38z" />
    <glyph glyph-name="ring" unicode="&#x2da;" horiz-adv-x="271" 
d="M135 562q-53 0 -82.5 27.5t-29.5 78.5t29.5 79t82.5 28q54 0 83.5 -28t29.5 -79t-29.5 -78.5t-83.5 -27.5zM136 601q31 0 48 17.5t17 49.5t-17 50t-48 18t-48 -18t-17 -50t17 -49.5t48 -17.5z" />
    <glyph glyph-name="ogonek" unicode="&#x2db;" horiz-adv-x="204" 
d="M174 -182l13 -34q-44 -24 -93 -24q-36 0 -56.5 17t-20.5 49q0 39 32 84t103 111l24 -21q-109 -105 -109 -167q0 -34 36 -34q38 0 71 19z" />
    <glyph glyph-name="tilde" unicode="&#x2dc;" horiz-adv-x="399" 
d="M53 613l-20 27q19 26 48.5 42t61.5 16q24 0 64.5 -18t59.5 -18q41 0 78 33l20 -26q-43 -59 -111 -59q-23 0 -63 18t-60 18q-42 0 -78 -33z" />
    <glyph glyph-name="hungarumlaut" unicode="&#x2dd;" horiz-adv-x="352" 
d="M148 751l51 -48l-140 -124l-29 30zM271 751l51 -48l-140 -124l-29 30z" />
    <glyph glyph-name="gravecomb" unicode="&#x300;" horiz-adv-x="0" 
d="M-168 739l151 -107l-20 -36l-167 83z" />
    <glyph glyph-name="acutecomb" unicode="&#x301;" horiz-adv-x="0" 
d="M-54 739l36 -60l-167 -83l-20 36z" />
    <glyph glyph-name="uni0302" unicode="&#x302;" horiz-adv-x="0" 
d="M-18 632l-20 -36l-131 67l-131 -67l-20 36l151 105z" />
    <glyph glyph-name="tildecomb" unicode="&#x303;" horiz-adv-x="0" 
d="M-345 611l-20 27q19 26 48.5 42t61.5 16q24 0 64.5 -18t59.5 -18q41 0 78 33l20 -26q-43 -59 -111 -59q-23 0 -63 18t-60 18q-42 0 -78 -33z" />
    <glyph glyph-name="uni0304" unicode="&#x304;" horiz-adv-x="0" 
d="M-281 664h258v-48h-258v48z" />
    <glyph glyph-name="uni0306" unicode="&#x306;" horiz-adv-x="0" 
d="M-76 709h48q0 -59 -36 -91t-102 -32t-102 32t-36 91h49q0 -36 23.5 -56.5t65.5 -20.5q43 0 66.5 20.5t23.5 56.5z" />
    <glyph glyph-name="uni0307" unicode="&#x307;" horiz-adv-x="0" 
d="M-98 600q-41 0 -41 38q0 40 41 40t41 -40q0 -38 -41 -38z" />
    <glyph glyph-name="uni0308" unicode="&#x308;" horiz-adv-x="0" 
d="M-244 600q-41 0 -41 38q0 40 41 40t41 -40q0 -38 -41 -38zM-99 600q-41 0 -41 38q0 40 41 40t41 -40q0 -38 -41 -38z" />
    <glyph glyph-name="uni030A" unicode="&#x30a;" horiz-adv-x="0" 
d="M-136 562q-53 0 -82.5 27.5t-29.5 78.5t29.5 79t82.5 28q54 0 83.5 -28t29.5 -79t-29.5 -78.5t-83.5 -27.5zM-135 601q31 0 48 17.5t17 49.5t-17 50t-48 18t-48 -18t-17 -50t17 -49.5t48 -17.5z" />
    <glyph glyph-name="uni030B" unicode="&#x30b;" horiz-adv-x="0" 
d="M-204 751l51 -48l-140 -124l-29 30zM-81 751l51 -48l-140 -124l-29 30z" />
    <glyph glyph-name="uni030C" unicode="&#x30c;" horiz-adv-x="0" 
d="M-38 738l20 -36l-151 -105l-151 105l20 36l131 -67z" />
    <glyph glyph-name="uni0312" unicode="&#x312;" horiz-adv-x="0" 
d="M-40 671q30 0 30 -33q0 -38 -39 -38t-39 52q0 63 62 93l11 -19q-39 -17 -44 -58q9 3 19 3z" />
    <glyph glyph-name="uni0326" unicode="&#x326;" horiz-adv-x="0" 
d="M-62 -73q39 0 39 -50q0 -83 -62 -117l-10 18q39 27 43 82q-9 -3 -19 -3q-30 0 -30 33q0 37 39 37z" />
    <glyph glyph-name="uni0327" unicode="&#x327;" horiz-adv-x="0" 
d="M-78 12l-43 -64q100 -29 100 -98q0 -43 -29 -66.5t-83 -23.5q-52 0 -90 27l16 34q31 -22 70 -22q32 0 49 14.5t17 38.5q0 29 -27 45.5t-89 29.5l54 85h55z" />
    <glyph glyph-name="uni0328" unicode="&#x328;" horiz-adv-x="0" 
d="M-30 -182l13 -34q-44 -24 -93 -24q-36 0 -56.5 17t-20.5 49q0 39 32 84t103 111l24 -21q-109 -105 -109 -167q0 -34 36 -34q38 0 71 19z" />
    <glyph glyph-name="uni0335" unicode="&#x335;" horiz-adv-x="0" 
d="M-369 374h308v-49h-308v49z" />
    <glyph glyph-name="uni0336" unicode="&#x336;" horiz-adv-x="0" 
d="M-715 325v49h653v-49h-653z" />
    <glyph glyph-name="uni0337" unicode="&#x337;" horiz-adv-x="0" 
d="M-29 503l34 -28l-393 -485l-35 28z" />
    <glyph glyph-name="uni0338" unicode="&#x338;" horiz-adv-x="0" 
d="M-62 733l47 -34l-500 -712l-47 34z" />
    <glyph glyph-name="uni0394" unicode="&#x394;" horiz-adv-x="640" 
d="M367 691l245 -691h-584l256 722q21 8 35 8q33 0 48 -39zM114 54h409l-205 600z" />
    <glyph glyph-name="uni03A9" unicode="&#x3a9;" horiz-adv-x="765" 
d="M701 368q0 -107 -39.5 -187t-112.5 -126l142 1v-56h-242v54q87 25 136.5 106t49.5 201q0 141 -69.5 226.5t-183.5 85.5t-184 -85.5t-70 -226.5q0 -119 50 -201t137 -106v-54h-242v56l143 -1q-73 46 -113 126t-40 187q0 163 88 262.5t231 99.5t231 -99.5t88 -262.5z" />
    <glyph glyph-name="uni03BC" unicode="&#x3bc;" horiz-adv-x="584" 
d="M434 493h61v-495q-13 -8 -27 -8q-33 0 -33 48v46q-54 -94 -172 -94q-71 0 -112 45v-265h-61v723h61v-311q0 -66 30 -103t84 -37q74 0 121.5 43t47.5 119v289z" />
    <glyph glyph-name="pi" unicode="&#x3c0;" horiz-adv-x="601" 
d="M576 493v-49h-90v-444h-61v444h-249v-444h-61v444h-90v49h551z" />
    <glyph glyph-name="uni0400" unicode="&#x400;" horiz-adv-x="542" 
d="M335 859l-20 -36l-167 83l36 60zM161 54h328v-54h-392v720h381v-54h-317v-266h282v-54h-282v-292z" />
    <glyph glyph-name="uni0401" unicode="&#x401;" horiz-adv-x="542" 
d="M207 827q-41 0 -41 38q0 40 41 40t41 -40q0 -38 -41 -38zM352 827q-41 0 -41 38q0 40 41 40t41 -40q0 -38 -41 -38zM161 54h328v-54h-392v720h381v-54h-317v-266h282v-54h-282v-292z" />
    <glyph glyph-name="uni0402" unicode="&#x402;" horiz-adv-x="744" 
d="M502 469q94 0 146 -63t52 -176q0 -114 -63.5 -177t-178.5 -63v57q85 0 131.5 48t46.5 135q0 86 -38.5 134.5t-107.5 48.5q-95 0 -157 -66.5t-62 -177.5v-169h-64v666h-183v54h470v-54h-223v-336q34 63 93.5 101t137.5 38z" />
    <glyph glyph-name="uni0403" unicode="&#x403;" horiz-adv-x="460" 
d="M370 906l-167 -83l-20 36l151 107zM435 720v-54h-274v-666h-64v720h338z" />
    <glyph glyph-name="uni0404" unicode="&#x404;" horiz-adv-x="606" 
d="M545 103l29 -48q-85 -65 -224 -65q-137 0 -213.5 94.5t-76.5 275.5q0 182 75.5 276t212.5 94q136 0 205 -106l-60 -27q-48 76 -146 76q-102 0 -158.5 -75.5t-62.5 -203.5h281v-54h-282q4 -134 62 -213.5t165 -79.5q123 0 193 56z" />
    <glyph glyph-name="uni0405" unicode="&#x405;" horiz-adv-x="539" 
d="M275 730q104 0 197 -63l-28 -52q-80 58 -172 58q-66 0 -103.5 -31t-37.5 -88q0 -32 12 -57t38 -43t48 -29t61 -26q39 -16 57.5 -24t50.5 -28t47 -39.5t27.5 -51.5t12.5 -72q0 -92 -58 -143t-163 -51q-136 0 -218 63l22 54q69 -60 194 -60q75 0 116.5 34t41.5 96
q0 28 -10 51.5t-22 38t-39 30t-42.5 22.5t-50.5 21q-32 13 -46.5 19.5t-42.5 21t-41.5 28t-29.5 33.5t-23 46t-7 58q0 88 55 136t154 48z" />
    <glyph glyph-name="uni0406" unicode="&#x406;" horiz-adv-x="257" 
d="M161 0h-64v722q11 8 26 8q17 0 27.5 -13t10.5 -38v-679z" />
    <glyph glyph-name="uni0407" unicode="&#x407;" horiz-adv-x="257" 
d="M56 827q-41 0 -41 38q0 40 41 40t41 -40q0 -38 -41 -38zM201 827q-41 0 -41 38q0 40 41 40t41 -40q0 -38 -41 -38zM161 0h-64v722q11 8 26 8q17 0 27.5 -13t10.5 -38v-679z" />
    <glyph glyph-name="uni0408" unicode="&#x408;" horiz-adv-x="364" 
d="M208 177v545q11 8 26 8q17 0 27.5 -13t10.5 -38v-522q0 -79 -38.5 -123t-106.5 -44q-64 0 -106 19l9 54q33 -16 80 -16q98 0 98 130z" />
    <glyph glyph-name="uni0409" unicode="&#x409;" horiz-adv-x="1001" 
d="M716 406q118 0 183 -55.5t65 -156.5q0 -97 -65 -150.5t-183 -53.5q-96 0 -192 10v666h-322l-25 -499q-7 -131 -111 -177l-29 47q73 39 79 145l28 538h444v-319q72 5 128 5zM717 44q87 0 134 41t47 114q0 72 -47 112.5t-134 40.5q-57 0 -129 -5v-298q72 -5 129 -5z" />
    <glyph glyph-name="uni040A" unicode="&#x40a;" horiz-adv-x="1036" 
d="M751 406q118 0 183 -55.5t65 -156.5q0 -97 -65 -150.5t-183 -53.5q-96 0 -192 10v339h-398v-339h-64v722q11 8 26 8q17 0 27.5 -13t10.5 -38v-286h398v329q11 8 26 8q17 0 27.5 -13t10.5 -38v-278q72 5 128 5zM752 44q87 0 134 41t47 114q0 72 -47 112.5t-134 40.5
q-57 0 -129 -5v-298q72 -5 129 -5z" />
    <glyph glyph-name="uni040B" unicode="&#x40b;" horiz-adv-x="766" 
d="M518 469q91 0 141.5 -59t50.5 -167v-243h-64v223q0 90 -37 140t-103 50q-102 0 -168.5 -66.5t-66.5 -177.5v-169h-64v666h-183v54h470v-54h-223v-339q35 65 98.5 103.5t148.5 38.5z" />
    <glyph glyph-name="uni040C" unicode="&#x40c;" horiz-adv-x="597" 
d="M441 906l-167 -83l-20 36l151 107zM123 730q17 0 27.5 -13t10.5 -38v-679h-64v722q11 8 26 8zM245 368l350 -365q-14 -13 -36 -13q-36 0 -66 33l-327 341l326 366l66 -13z" />
    <glyph glyph-name="uni040D" unicode="&#x40d;" horiz-adv-x="719" 
d="M414 859l-20 -36l-167 83l36 60zM585 730q17 0 27.5 -13t10.5 -38v-679h-64v548l-398 -463v-85h-64v722q11 8 26 8q17 0 27.5 -13t10.5 -38v-508l398 464v87q11 8 26 8z" />
    <glyph glyph-name="uni040E" unicode="&#x40e;" horiz-adv-x="557" 
d="M282 813q-66 0 -102 32t-36 91h49q0 -36 23.5 -56.5t65.5 -20.5q43 0 66.5 20.5t23.5 56.5h48q0 -59 -36 -91t-102 -32zM479 730l63 -13l-250 -574q-52 -118 -165 -153l-28 47q89 27 129 109l39 85q-18 3 -28 25l-215 461q13 13 35 13q31 0 47 -36l149 -328l36 -85z" />
    <glyph glyph-name="uni040F" unicode="&#x40f;" horiz-adv-x="668" 
d="M533 730q17 0 27.5 -13t10.5 -38v-679h-205v-112q-13 -8 -27 -8q-37 0 -37 51v69h-205v722q11 8 26 8q17 0 27.5 -13t10.5 -38v-625h346v668q11 8 26 8z" />
    <glyph glyph-name="uni0410" unicode="&#x410;" horiz-adv-x="629" 
d="M536 0l-65 192h-316l-65 -192h-68l256 722q21 8 36 8q33 0 48 -39l245 -691h-71zM173 246h280l-140 417z" />
    <glyph glyph-name="uni0411" unicode="&#x411;" horiz-adv-x="577" 
d="M289 406q118 0 183 -55.5t65 -156.5q0 -97 -65 -150.5t-183 -53.5q-96 0 -192 10v720h364v-54h-300v-265q72 5 128 5zM290 44q87 0 134 41t47 114q0 72 -47 112.5t-134 40.5q-57 0 -129 -5v-298q72 -5 129 -5z" />
    <glyph glyph-name="uni0412" unicode="&#x412;" horiz-adv-x="600" 
d="M392 382q155 -42 155 -188q0 -97 -68 -150.5t-190 -53.5q-96 0 -192 10v720q120 10 172 10q118 0 183 -49t65 -137q0 -120 -125 -162zM270 676q-57 0 -109 -4v-266h109q85 0 133 35.5t48 98.5q0 64 -48 100t-133 36zM290 44q90 0 140.5 41t50.5 114q0 72 -50 112.5
t-141 40.5h-129v-303q72 -5 129 -5z" />
    <glyph glyph-name="uni0413" unicode="&#x413;" horiz-adv-x="460" 
d="M435 720v-54h-274v-666h-64v720h338z" />
    <glyph glyph-name="uni0414" unicode="&#x414;" horiz-adv-x="695" 
d="M590 54h40v-166q-13 -8 -27 -8q-37 0 -37 51v69h-465l-2 -112q-10 -8 -25 -8q-36 0 -36 51v120q82 63 92 254l21 415h439v-666zM116 54h410v612h-317l-18 -377q-7 -159 -75 -235z" />
    <glyph glyph-name="uni0415" unicode="&#x415;" horiz-adv-x="542" 
d="M161 54h328v-54h-392v720h381v-54h-317v-266h282v-54h-282v-292z" />
    <glyph glyph-name="uni0416" unicode="&#x416;" horiz-adv-x="857" 
d="M74 730q35 0 61 -34l256 -332l-308 -364h-78l305 363l-271 354q13 13 35 13zM422 730q17 0 27.5 -13t10.5 -38v-679h-64v722q11 8 26 8zM545 366l306 -363q-13 -13 -36 -13q-38 0 -67 35l-283 339l285 366l66 -13z" />
    <glyph glyph-name="uni0417" unicode="&#x417;" horiz-adv-x="584" 
d="M81 606l-19 46q40 36 98.5 57t118.5 21q99 0 153.5 -47.5t54.5 -134.5q0 -60 -35.5 -102.5t-99.5 -59.5q85 -8 131.5 -58.5t46.5 -133.5q0 -97 -65 -150.5t-183 -53.5q-156 0 -253 104l30 46q83 -93 219 -93q88 0 137.5 41t49.5 113q0 73 -49 113t-138 40h-86v54h67
q78 0 120.5 35.5t42.5 98.5t-39.5 97t-109.5 34q-119 0 -192 -67z" />
    <glyph glyph-name="uni0418" unicode="&#x418;" horiz-adv-x="719" 
d="M585 730q17 0 27.5 -13t10.5 -38v-679h-64v548l-398 -463v-85h-64v722q11 8 26 8q17 0 27.5 -13t10.5 -38v-508l398 464v87q11 8 26 8z" />
    <glyph glyph-name="uni0419" unicode="&#x419;" horiz-adv-x="719" 
d="M358 813q-66 0 -102 32t-36 91h49q0 -36 23.5 -56.5t65.5 -20.5q43 0 66.5 20.5t23.5 56.5h48q0 -59 -36 -91t-102 -32zM585 730q17 0 27.5 -13t10.5 -38v-679h-64v548l-398 -463v-85h-64v722q11 8 26 8q17 0 27.5 -13t10.5 -38v-508l398 464v87q11 8 26 8z" />
    <glyph glyph-name="uni041A" unicode="&#x41a;" horiz-adv-x="597" 
d="M123 730q17 0 27.5 -13t10.5 -38v-679h-64v722q11 8 26 8zM245 368l350 -365q-14 -13 -36 -13q-36 0 -66 33l-327 341l326 366l66 -13z" />
    <glyph glyph-name="uni041B" unicode="&#x41b;" horiz-adv-x="685" 
d="M588 720v-720h-64v666h-322l-25 -499q-7 -131 -111 -177l-29 47q73 39 79 145l28 538h444z" />
    <glyph glyph-name="uni041C" unicode="&#x41c;" horiz-adv-x="881" 
d="M823 0h-64l-68 626l-217 -626h-68l-219 626l-65 -626h-62l80 722q18 8 34 8q41 0 54 -38l217 -628l224 658q14 8 30 8q39 0 44 -44z" />
    <glyph glyph-name="uni041D" unicode="&#x41d;" horiz-adv-x="719" 
d="M585 730q17 0 27.5 -13t10.5 -38v-679h-64v339h-398v-339h-64v722q11 8 26 8q17 0 27.5 -13t10.5 -38v-286h398v329q11 8 26 8z" />
    <glyph glyph-name="uni041E" unicode="&#x41e;" horiz-adv-x="740" 
d="M370 -10q-147 0 -229 97.5t-82 272.5t82 272.5t229 97.5t229.5 -97.5t82.5 -272.5t-82.5 -272.5t-229.5 -97.5zM369 47q116 0 181.5 82.5t65.5 230.5t-65.5 230.5t-181.5 82.5t-180.5 -82.5t-64.5 -230.5t64.5 -230.5t180.5 -82.5z" />
    <glyph glyph-name="uni041F" unicode="&#x41f;" horiz-adv-x="688" 
d="M591 720v-720h-64v666h-366v-666h-64v720h494z" />
    <glyph glyph-name="uni0420" unicode="&#x420;" horiz-adv-x="587" 
d="M290 730q125 0 193.5 -57t68.5 -160q0 -105 -69 -163t-194 -58q-60 0 -128 5v-297h-64v720q109 10 193 10zM290 346q93 0 144.5 44t51.5 123q0 77 -51 120t-144 43q-58 0 -130 -5v-320q67 -5 129 -5z" />
    <glyph glyph-name="uni0421" unicode="&#x421;" horiz-adv-x="604" 
d="M544 103l29 -48q-85 -65 -223 -65t-214.5 94.5t-76.5 275.5q0 182 75.5 276t212.5 94q136 0 205 -106l-59 -27q-49 76 -147 76q-108 0 -165 -86t-57 -227t58.5 -227t169.5 -86q122 0 192 56z" />
    <glyph glyph-name="uni0422" unicode="&#x422;" horiz-adv-x="518" 
d="M494 720v-54h-203v-666h-64v666h-203v54h470z" />
    <glyph glyph-name="uni0423" unicode="&#x423;" horiz-adv-x="557" 
d="M479 730l63 -13l-250 -574q-52 -118 -165 -153l-28 47q89 27 129 109l39 85q-18 3 -28 25l-215 461q13 13 35 13q31 0 47 -36l149 -328l36 -85z" />
    <glyph glyph-name="uni0424" unicode="&#x424;" horiz-adv-x="735" 
d="M685 360q0 -138 -75 -216t-210 -83v-61h-64v61q-136 5 -210.5 83t-74.5 216t74.5 216t210.5 83v63q11 8 26 8q17 0 27.5 -13t10.5 -38v-20q135 -5 210 -83t75 -216zM116 360q0 -111 57.5 -175t162.5 -69v488q-105 -5 -162.5 -69t-57.5 -175zM400 604v-488
q104 5 161.5 68.5t57.5 175.5t-57.5 175.5t-161.5 68.5z" />
    <glyph glyph-name="uni0425" unicode="&#x425;" horiz-adv-x="594" 
d="M294 316l-208 -316h-70l241 365l-226 352q13 13 35 13q32 0 53 -33l179 -283l200 316l63 -13l-226 -352l240 -362q-10 -13 -33 -13q-35 0 -56 33z" />
    <glyph glyph-name="uni0426" unicode="&#x426;" horiz-adv-x="677" 
d="M571 54h41v-166q-13 -8 -27 -8q-37 0 -37 51v69h-451v722q11 8 26 8q17 0 27.5 -13t10.5 -38v-625h346v668q11 8 26 8q17 0 27.5 -13t10.5 -38v-625z" />
    <glyph glyph-name="uni0427" unicode="&#x427;" horiz-adv-x="651" 
d="M491 720h64v-720h-64v392q-35 -64 -97 -102.5t-145 -38.5q-89 0 -138 59t-49 167v245q11 8 26 8q17 0 27.5 -13t10.5 -38v-182q0 -90 35 -140t99 -50q101 0 166 66.5t65 177.5v169z" />
    <glyph glyph-name="uni0428" unicode="&#x428;" horiz-adv-x="998" 
d="M864 730q17 0 27.5 -13t10.5 -38v-679h-805v722q11 8 26 8q17 0 27.5 -13t10.5 -38v-625h306v668q11 8 26 8q17 0 27.5 -13t10.5 -38v-625h307v668q11 8 26 8z" />
    <glyph glyph-name="uni0429" unicode="&#x429;" horiz-adv-x="1007" 
d="M902 54h40v-166q-13 -8 -27 -8q-37 0 -37 51v69h-781v722q11 8 26 8q17 0 27.5 -13t10.5 -38v-625h306v668q11 8 26 8q17 0 27.5 -13t10.5 -38v-625h307v668q11 8 26 8q17 0 27.5 -13t10.5 -38v-625z" />
    <glyph glyph-name="uni042A" unicode="&#x42a;" horiz-adv-x="633" 
d="M348 406q118 0 183 -55.5t65 -156.5q0 -97 -65 -150.5t-183 -53.5q-96 0 -192 10v666h-138v54h202v-319q72 5 128 5zM349 44q87 0 134 41t47 114q0 72 -47 112.5t-134 40.5q-57 0 -129 -5v-298q72 -5 129 -5z" />
    <glyph glyph-name="uni042B" unicode="&#x42b;" horiz-adv-x="831" 
d="M289 406q118 0 183 -55.5t65 -156.5q0 -97 -65 -150.5t-183 -53.5q-96 0 -192 10v722q11 8 26 8q17 0 27.5 -13t10.5 -38v-278q72 5 128 5zM697 730q17 0 27.5 -13t10.5 -38v-679h-64v722q11 8 26 8zM290 44q87 0 134 41t47 114q0 72 -47 112.5t-134 40.5q-57 0 -129 -5
v-298q72 -5 129 -5z" />
    <glyph glyph-name="uni042C" unicode="&#x42c;" horiz-adv-x="574" 
d="M289 406q118 0 183 -55.5t65 -156.5q0 -97 -65 -150.5t-183 -53.5q-96 0 -192 10v722q11 8 26 8q17 0 27.5 -13t10.5 -38v-278q72 5 128 5zM290 44q87 0 134 41t47 114q0 72 -47 112.5t-134 40.5q-57 0 -129 -5v-298q72 -5 129 -5z" />
    <glyph glyph-name="uni042D" unicode="&#x42d;" horiz-adv-x="606" 
d="M258 730q137 0 212.5 -94t75.5 -276q0 -181 -76.5 -275.5t-213.5 -94.5q-139 0 -224 65l29 48q70 -56 193 -56q107 0 165 79.5t62 213.5h-282v54h281q-6 128 -62.5 203.5t-158.5 75.5q-98 0 -146 -76l-60 27q69 106 205 106z" />
    <glyph glyph-name="uni042E" unicode="&#x42e;" horiz-adv-x="931" 
d="M590 730q132 0 206.5 -97.5t74.5 -272.5t-74.5 -272.5t-206.5 -97.5q-128 0 -201 91t-79 256h-149v-337h-64v722q11 8 26 8q17 0 27.5 -13t10.5 -38v-288h150q7 161 79.5 250t199.5 89zM590 47q103 0 159.5 82t56.5 231t-56.5 231t-159.5 82q-101 0 -158 -82.5
t-57 -230.5t57 -230.5t158 -82.5z" />
    <glyph glyph-name="uni042F" unicode="&#x42f;" horiz-adv-x="638" 
d="M359 730q95 0 182 -10v-720h-64v317q-59 -8 -118 -8h-10l-265 -309h-78l273 315q-97 15 -150.5 68t-53.5 136q0 100 74.5 155.5t209.5 55.5zM477 372v297q-52 4 -118 4q-103 0 -161 -41t-58 -114q0 -74 58 -114t161 -40q59 0 118 8z" />
    <glyph glyph-name="uni0430" unicode="&#x430;" horiz-adv-x="505" 
d="M251 503q84 0 130.5 -46.5t46.5 -130.5v-328q-11 -8 -27 -8q-33 0 -33 48v56q-28 -47 -78 -75.5t-104 -28.5q-72 0 -111.5 39t-39.5 109q0 72 53.5 111.5t150.5 39.5q53 0 128 -7v29q0 67 -32.5 104t-92.5 37q-86 0 -144 -43l-25 42q75 52 178 52zM199 40
q63 0 115.5 45.5t52.5 118.5v32q-65 6 -127 6q-69 0 -106.5 -26.5t-37.5 -74.5t27 -74.5t76 -26.5z" />
    <glyph glyph-name="uni0431" unicode="&#x431;" horiz-adv-x="591" 
d="M312 503q107 0 166.5 -68t59.5 -189t-61.5 -188.5t-172.5 -67.5q-112 0 -173.5 73.5t-61.5 205.5q0 134 13 223t41.5 139.5t63.5 73.5t89 34l203 41q12 -12 12 -27q0 -25 -42 -34l-169 -34q-68 -13 -107 -79t-50 -219q49 116 189 116zM303 42q82 0 127.5 53.5t45.5 150.5
t-45.5 151t-127.5 54q-81 0 -126.5 -54t-45.5 -151t45.5 -150.5t126.5 -53.5z" />
    <glyph glyph-name="uni0432" unicode="&#x432;" horiz-adv-x="514" 
d="M352 255q54 -13 83 -45t29 -80q0 -66 -48.5 -103t-136.5 -37q-111 0 -197 10v493q80 10 179 10q86 0 133.5 -35.5t47.5 -98.5q0 -85 -90 -114zM262 453q-71 0 -119 -4v-175h119q57 0 88 23.5t31 65.5t-31 66t-88 24zM279 40q59 0 91 25.5t32 70.5t-32 70.5t-91 25.5h-136
v-188q57 -4 136 -4z" />
    <glyph glyph-name="uni0433" unicode="&#x433;" horiz-adv-x="402" 
d="M378 493v-49h-235v-444h-61v493h296z" />
    <glyph glyph-name="uni0434" unicode="&#x434;" horiz-adv-x="558" 
d="M466 49h38v-161q-13 -8 -27 -8q-34 0 -34 48v72h-360l-1 -112q-13 -8 -26 -8q-33 0 -33 48v120q80 38 87 179l15 266h341v-444zM104 48h301v394h-225l-12 -231q-6 -111 -64 -163z" />
    <glyph glyph-name="uni0435" unicode="&#x435;" horiz-adv-x="509" 
d="M265 41q99 0 166 42l25 -42q-81 -51 -193 -51q-100 0 -155 63t-55 176q0 130 61.5 202t173.5 72q80 0 124.5 -41.5t44.5 -115.5q0 -73 -55.5 -114t-154.5 -41q-60 0 -132 15q5 -79 43.5 -122t106.5 -43zM280 451q-75 0 -117.5 -52.5t-47.5 -148.5q72 -13 132 -13
q71 0 110 28.5t39 79.5t-30.5 78.5t-85.5 27.5z" />
    <glyph glyph-name="uni0436" unicode="&#x436;" horiz-adv-x="721" 
d="M76 503q32 0 59 -31l192 -212l-236 -260h-76l239 261l-215 229q16 13 37 13zM357 503q34 0 34 -46v-457h-61v495q14 8 27 8zM467 260l239 -258q-15 -12 -38 -12q-34 0 -62 31l-212 240l223 242l63 -13z" />
    <glyph glyph-name="uni0437" unicode="&#x437;" horiz-adv-x="441" 
d="M72 408l-17 41q62 54 156 54q72 0 111 -34t39 -94q0 -42 -24.5 -71.5t-69.5 -40.5q59 -6 91.5 -40t32.5 -91q0 -67 -47.5 -104.5t-133.5 -37.5q-111 0 -179 71l25 41q58 -61 150 -61q58 0 90.5 25.5t32.5 72.5t-32 72t-89 25h-61v46h47q50 0 77.5 22.5t27.5 62.5
q0 41 -26 63t-72 22q-79 0 -129 -44z" />
    <glyph glyph-name="uni0438" unicode="&#x438;" horiz-adv-x="577" 
d="M461 503q34 0 34 -46v-457h-61v345l-291 -269v-76h-61v495q14 8 27 8q34 0 34 -46v-308l291 269v77q14 8 27 8z" />
    <glyph glyph-name="uni0439" unicode="&#x439;" horiz-adv-x="577" 
d="M288 586q-66 0 -102 32t-36 91h49q0 -36 23.5 -56.5t65.5 -20.5q43 0 66.5 20.5t23.5 56.5h48q0 -59 -36 -91t-102 -32zM461 503q34 0 34 -46v-457h-61v345l-291 -269v-76h-61v495q14 8 27 8q34 0 34 -46v-308l291 269v77q14 8 27 8z" />
    <glyph glyph-name="uni043A" unicode="&#x43a;" horiz-adv-x="508" 
d="M109 503q34 0 34 -46v-457h-61v495q14 8 27 8zM222 263l278 -261q-16 -12 -40 -12q-31 0 -62 31l-252 240l265 242l62 -13z" />
    <glyph glyph-name="uni043B" unicode="&#x43b;" horiz-adv-x="545" 
d="M464 493v-493h-61v442h-230l-17 -301q-6 -117 -103 -151l-29 45q68 29 74 122l20 336h346z" />
    <glyph glyph-name="uni043C" unicode="&#x43c;" horiz-adv-x="660" 
d="M606 0h-61l-46 411l-141 -411h-61l-140 411l-46 -411h-55l56 495q16 8 32 8q37 0 48 -31l141 -413l148 436q14 8 28 8q36 0 41 -38z" />
    <glyph glyph-name="uni043D" unicode="&#x43d;" horiz-adv-x="577" 
d="M461 503q34 0 34 -46v-457h-61v231h-291v-231h-61v495q14 8 27 8q34 0 34 -46v-177h291v215q14 8 27 8z" />
    <glyph glyph-name="uni043E" unicode="&#x43e;" 
d="M288 -10q-112 0 -173.5 67.5t-61.5 188.5t62 189t173 68t172.5 -68t61.5 -189t-61.5 -188.5t-172.5 -67.5zM287 42q82 0 127.5 53.5t45.5 150.5t-45.5 151t-127.5 54q-81 0 -126.5 -54t-45.5 -151t45.5 -150.5t126.5 -53.5z" />
    <glyph glyph-name="uni043F" unicode="&#x43f;" horiz-adv-x="573" 
d="M491 493v-493h-61v444h-287v-444h-61v493h409z" />
    <glyph glyph-name="uni0440" unicode="&#x440;" horiz-adv-x="576" 
d="M327 503q95 0 145.5 -66.5t50.5 -187.5q0 -123 -66 -191t-185 -68q-54 0 -129 5v-225h-61v725q14 8 27 8q33 0 33 -48v-56q29 48 79 76t106 28zM270 40q91 0 141 55t50 154q0 97 -38 149.5t-112 52.5q-63 0 -115.5 -45t-52.5 -117v-244q72 -5 127 -5z" />
    <glyph glyph-name="uni0441" unicode="&#x441;" horiz-adv-x="490" 
d="M431 95l23 -50q-70 -55 -176 -55t-165 67.5t-59 189.5q0 120 59.5 188t163.5 68q51 0 94 -24.5t66 -75.5l-50 -20q-38 68 -109 68q-76 0 -119 -54t-43 -150q0 -97 43 -151t121 -54q90 0 151 53z" />
    <glyph glyph-name="uni0442" unicode="&#x442;" horiz-adv-x="419" 
d="M395 493v-49h-156v-444h-61v444h-154v49h371z" />
    <glyph glyph-name="uni0443" unicode="&#x443;" horiz-adv-x="518" 
d="M431 503l57 -13l-220 -577q-46 -120 -135 -153l-26 42q69 26 106 114l34 84q-23 3 -32 26l-185 464q15 13 33 13q27 0 42 -36l119 -306l41 -117l40 117z" />
    <glyph glyph-name="uni0444" unicode="&#x444;" horiz-adv-x="848" 
d="M619 503q84 0 130 -66.5t46 -187.5q0 -123 -61 -191t-170 -68q-47 0 -109 5v-225h-61v318q-26 -45 -70.5 -71.5t-93.5 -26.5q-84 0 -130 66.5t-46 187.5q0 122 61 190.5t170 68.5q56 0 109 -28v297q13 8 27 8q34 0 34 -45v-331q26 45 70.5 72t93.5 27zM246 42
q55 0 101.5 44.5t46.5 117.5v221q-51 27 -107 27q-81 0 -126 -54.5t-45 -153.5q0 -96 33.5 -149t96.5 -53zM562 40q81 0 126 55t45 154q0 97 -33.5 149.5t-96.5 52.5q-55 0 -101.5 -45t-46.5 -117v-245q47 -4 107 -4z" />
    <glyph glyph-name="uni0445" unicode="&#x445;" horiz-adv-x="484" 
d="M240 207l-152 -207h-66l184 249l-173 241q15 13 36 13q14 0 23 -6.5t24 -26.5l128 -178l149 211l57 -13l-172 -241l182 -247q-12 -12 -30 -12q-27 0 -52 31z" />
    <glyph glyph-name="uni0446" unicode="&#x446;" horiz-adv-x="573" 
d="M481 49h38v-161q-13 -8 -27 -8q-34 0 -34 48v72h-376v495q14 8 27 8q34 0 34 -46v-408h277v446q14 8 27 8q34 0 34 -46v-408z" />
    <glyph glyph-name="uni0447" unicode="&#x447;" horiz-adv-x="520" 
d="M378 493h61v-493h-61v260q-58 -94 -178 -94q-69 0 -107.5 41t-38.5 116v172q14 8 27 8q34 0 34 -46v-119q0 -57 26 -88.5t73 -31.5q72 0 118 43.5t46 118.5v113z" />
    <glyph glyph-name="uni0448" unicode="&#x448;" horiz-adv-x="809" 
d="M694 503q34 0 34 -46v-457h-646v495q14 8 27 8q34 0 34 -46v-408h231v446q14 8 27 8q34 0 34 -46v-408h232v446q14 8 27 8z" />
    <glyph glyph-name="uni0449" unicode="&#x449;" horiz-adv-x="819" 
d="M728 49h37v-161q-13 -8 -27 -8q-34 0 -34 48v72h-622v495q14 8 27 8q34 0 34 -46v-408h231v446q14 8 27 8q34 0 34 -46v-408h232v446q14 8 27 8q34 0 34 -46v-408z" />
    <glyph glyph-name="uni044A" unicode="&#x44a;" horiz-adv-x="521" 
d="M284 309q95 0 147.5 -42t52.5 -117q0 -76 -52.5 -118t-147.5 -42q-99 0 -166 10v442h-92v51h153v-188q41 4 105 4zM284 39q66 0 102 29t36 82q0 52 -36 81t-102 29q-64 0 -105 -4v-214q48 -3 105 -3z" />
    <glyph glyph-name="uni044B" unicode="&#x44b;" horiz-adv-x="674" 
d="M248 309q95 0 147.5 -42t52.5 -117q0 -76 -52.5 -118t-147.5 -42q-99 0 -166 10v495q14 8 27 8q34 0 34 -46v-152q41 4 105 4zM558 503q34 0 34 -46v-457h-61v495q14 8 27 8zM248 39q66 0 102 29t36 82q0 52 -36 81t-102 29q-64 0 -105 -4v-214q48 -3 105 -3z" />
    <glyph glyph-name="uni044C" unicode="&#x44c;" horiz-adv-x="485" 
d="M248 309q95 0 147.5 -42t52.5 -117q0 -76 -52.5 -118t-147.5 -42q-99 0 -166 10v495q14 8 27 8q34 0 34 -46v-152q41 4 105 4zM248 39q66 0 102 29t36 82q0 52 -36 81t-102 29q-64 0 -105 -4v-214q48 -3 105 -3z" />
    <glyph glyph-name="uni044D" unicode="&#x44d;" horiz-adv-x="489" 
d="M210 503q105 0 165.5 -68t60.5 -188q0 -122 -59 -189.5t-166 -67.5q-108 0 -175 55l23 50q59 -53 148 -53q75 0 118 48.5t48 138.5h-162v45h161q-6 85 -49 131t-116 46q-79 0 -140 -57l-13 48q67 61 156 61z" />
    <glyph glyph-name="uni044E" unicode="&#x44e;" horiz-adv-x="729" 
d="M466 503q99 0 154 -68t55 -189t-55 -188.5t-154 -67.5q-96 0 -150 63t-58 177h-115v-230h-61v495q14 8 27 8q34 0 34 -46v-177h116q8 106 62 164.5t145 58.5zM465 42q70 0 109 53.5t39 150.5t-39 151t-109 54q-69 0 -108 -54t-39 -151t39 -150.5t108 -53.5z" />
    <glyph glyph-name="uni044F" unicode="&#x44f;" horiz-adv-x="515" 
d="M267 503q99 0 166 -10v-493h-61v208q-41 -4 -105 -4l-174 -204h-76l182 210q-63 13 -97.5 50t-34.5 94q0 70 52.5 109.5t147.5 39.5zM372 256v195q-48 3 -105 3q-65 0 -101.5 -27t-36.5 -75t36.5 -74t101.5 -26q64 0 105 4z" />
    <glyph glyph-name="uni0450" unicode="&#x450;" horiz-adv-x="509" 
d="M333 632l-20 -36l-167 83l36 60zM265 41q99 0 166 42l25 -42q-81 -51 -193 -51q-100 0 -155 63t-55 176q0 130 61.5 202t173.5 72q80 0 124.5 -41.5t44.5 -115.5q0 -73 -55.5 -114t-154.5 -41q-60 0 -132 15q5 -79 43.5 -122t106.5 -43zM280 451q-75 0 -117.5 -52.5
t-47.5 -148.5q72 -13 132 -13q71 0 110 28.5t39 79.5t-30.5 78.5t-85.5 27.5z" />
    <glyph glyph-name="uni0451" unicode="&#x451;" horiz-adv-x="509" 
d="M205 600q-41 0 -41 38q0 40 41 40t41 -40q0 -38 -41 -38zM350 600q-41 0 -41 38q0 40 41 40t41 -40q0 -38 -41 -38zM265 41q99 0 166 42l25 -42q-81 -51 -193 -51q-100 0 -155 63t-55 176q0 130 61.5 202t173.5 72q80 0 124.5 -41.5t44.5 -115.5q0 -73 -55.5 -114
t-154.5 -41q-60 0 -132 15q5 -79 43.5 -122t106.5 -43zM280 451q-75 0 -117.5 -52.5t-47.5 -148.5q72 -13 132 -13q71 0 110 28.5t39 79.5t-30.5 78.5t-85.5 27.5z" />
    <glyph glyph-name="uni0452" unicode="&#x452;" horiz-adv-x="573" 
d="M336 503q76 0 118.5 -46.5t42.5 -130.5v-415q0 -114 -86 -151l-29 46q54 29 54 121v384q0 66 -30 103t-84 37q-79 0 -129 -43.5t-50 -118.5v-289h-61v612h-74v49h74v111q13 8 27 8q34 0 34 -45v-74h173v-49h-173v-205q60 96 193 96z" />
    <glyph glyph-name="uni0453" unicode="&#x453;" horiz-adv-x="402" 
d="M344 679l-167 -83l-20 36l151 107zM378 493v-49h-235v-444h-61v493h296z" />
    <glyph glyph-name="uni0454" unicode="&#x454;" horiz-adv-x="489" 
d="M430 95l23 -50q-67 -55 -175 -55q-107 0 -166 67.5t-59 189.5q0 120 60.5 188t165.5 68q89 0 156 -61l-13 -48q-62 57 -140 57q-73 0 -116 -46t-49 -131h161v-45h-162q5 -90 48 -138.5t118 -48.5q89 0 148 53z" />
    <glyph glyph-name="uni0455" unicode="&#x455;" horiz-adv-x="450" 
d="M232 503q87 0 154 -37l-27 -45q-62 32 -133 32q-51 0 -79 -19.5t-28 -55.5q0 -19 8 -34t17.5 -24.5t31 -20.5t33 -15.5t40.5 -14.5q37 -13 58.5 -22.5t47.5 -26.5t38.5 -41t12.5 -55q0 -63 -49 -98.5t-139 -35.5q-120 0 -177 44l19 44q55 -38 155 -38q62 0 96 21t34 60
q0 35 -30.5 54.5t-91.5 39.5q-39 14 -60 23t-49.5 27.5t-42 44.5t-13.5 61q0 62 46 97t128 35z" />
    <glyph glyph-name="uni0456" unicode="&#x456;" horiz-adv-x="224" 
d="M112 600q41 0 41 38q0 40 -41 40t-41 -40q0 -38 41 -38zM82 0v493h61v-493h-61z" />
    <glyph glyph-name="uni0457" unicode="&#x457;" horiz-adv-x="224" 
d="M40 600q-41 0 -41 38q0 40 41 40t41 -40q0 -38 -41 -38zM185 600q-41 0 -41 38q0 40 41 40t41 -40q0 -38 -41 -38zM82 493h61v-493h-61v493z" />
    <glyph glyph-name="uni0458" unicode="&#x458;" horiz-adv-x="224" 
d="M112 600q41 0 41 38q0 40 -41 40t-41 -40q0 -38 41 -38zM57 -240l-29 46q54 29 54 121v566h61v-582q0 -114 -86 -151z" />
    <glyph glyph-name="uni0459" unicode="&#x459;" horiz-adv-x="804" 
d="M569 309q95 0 147.5 -42t52.5 -117q0 -76 -52.5 -118t-147.5 -42q-99 0 -166 10v442h-230l-17 -301q-6 -117 -103 -151l-29 45q68 29 74 122l20 336h346v-188q41 4 105 4zM569 39q66 0 102 29t36 82q0 52 -36 81t-102 29q-64 0 -105 -4v-214q48 -3 105 -3z" />
    <glyph glyph-name="uni045A" unicode="&#x45a;" horiz-adv-x="836" 
d="M600 309q95 0 147.5 -42t52.5 -117q0 -76 -52.5 -118t-147.5 -42q-99 0 -166 10v231h-291v-231h-61v495q14 8 27 8q34 0 34 -46v-177h291v215q14 8 27 8q34 0 34 -46v-152q41 4 105 4zM600 39q66 0 102 29t36 82q0 52 -36 81t-102 29q-64 0 -105 -4v-214q48 -3 105 -3z
" />
    <glyph glyph-name="uni045B" unicode="&#x45b;" horiz-adv-x="573" 
d="M336 503q76 0 118.5 -46.5t42.5 -130.5v-326h-61v311q0 66 -30 103t-84 37q-79 0 -129 -43.5t-50 -118.5v-289h-61v612h-74v49h74v111q13 8 27 8q34 0 34 -45v-74h173v-49h-173v-205q60 96 193 96z" />
    <glyph glyph-name="uni045C" unicode="&#x45c;" horiz-adv-x="508" 
d="M393 679l-167 -83l-20 36l151 107zM109 503q34 0 34 -46v-457h-61v495q14 8 27 8zM222 263l278 -261q-16 -12 -40 -12q-31 0 -62 31l-252 240l265 242l62 -13z" />
    <glyph glyph-name="uni045D" unicode="&#x45d;" horiz-adv-x="577" 
d="M344 632l-20 -36l-167 83l36 60zM461 503q34 0 34 -46v-457h-61v345l-291 -269v-76h-61v495q14 8 27 8q34 0 34 -46v-308l291 269v77q14 8 27 8z" />
    <glyph glyph-name="uni045E" unicode="&#x45e;" horiz-adv-x="518" 
d="M259 586q-66 0 -102 32t-36 91h49q0 -36 23.5 -56.5t65.5 -20.5q43 0 66.5 20.5t23.5 56.5h48q0 -59 -36 -91t-102 -32zM431 503l57 -13l-220 -577q-46 -120 -135 -153l-26 42q69 26 106 114l34 84q-23 3 -32 26l-185 464q15 13 33 13q27 0 42 -36l119 -306l41 -117
l40 117z" />
    <glyph glyph-name="uni045F" unicode="&#x45f;" horiz-adv-x="563" 
d="M447 503q34 0 34 -46v-457h-168v-112q-13 -8 -27 -8q-34 0 -34 48v72h-170v495q14 8 27 8q34 0 34 -46v-408h277v446q14 8 27 8z" />
    <glyph glyph-name="uni0490" unicode="&#x490;" horiz-adv-x="460" 
d="M399 840q36 0 36 -48v-126h-274v-666h-64v720h276v112q11 8 26 8z" />
    <glyph glyph-name="uni0491" unicode="&#x491;" horiz-adv-x="396" 
d="M344 613q34 0 34 -48v-121h-235v-444h-61v493h235v112q14 8 27 8z" />
    <glyph glyph-name="Wgrave" unicode="&#x1e80;" horiz-adv-x="985" 
d="M547 859l-20 -36l-167 83l36 60zM893 730l64 -13l-211 -717h-76l-163 562l-16 60l-14 -58l-159 -564h-77l-213 717q14 13 37 13q32 0 41 -36l158 -564l18 -73l18 75l161 585q10 13 32 13q35 0 46 -38l152 -557l19 -77l20 80z" />
    <glyph glyph-name="wgrave" unicode="&#x1e81;" horiz-adv-x="784" 
d="M447 632l-20 -36l-167 83l36 60zM700 503l56 -13l-163 -490h-67l-113 342l-23 73l-21 -73l-109 -342h-68l-164 490q15 13 33 13q30 0 42 -36l102 -325l24 -83l25 86l110 345q13 13 31 13q28 0 40 -36l99 -317l27 -90l27 93z" />
    <glyph glyph-name="Wacute" unicode="&#x1e82;" horiz-adv-x="985" 
d="M623 906l-167 -83l-20 36l151 107zM893 730l64 -13l-211 -717h-76l-163 562l-16 60l-14 -58l-159 -564h-77l-213 717q14 13 37 13q32 0 41 -36l158 -564l18 -73l18 75l161 585q10 13 32 13q35 0 46 -38l152 -557l19 -77l20 80z" />
    <glyph glyph-name="wacute" unicode="&#x1e83;" horiz-adv-x="784" 
d="M523 679l-167 -83l-20 36l151 107zM700 503l56 -13l-163 -490h-67l-113 342l-23 73l-21 -73l-109 -342h-68l-164 490q15 13 33 13q30 0 42 -36l102 -325l24 -83l25 86l110 345q13 13 31 13q28 0 40 -36l99 -317l27 -90l27 93z" />
    <glyph glyph-name="Wdieresis" unicode="&#x1e84;" horiz-adv-x="985" 
d="M419 827q-41 0 -41 38q0 40 41 40t41 -40q0 -38 -41 -38zM564 827q-41 0 -41 38q0 40 41 40t41 -40q0 -38 -41 -38zM893 730l64 -13l-211 -717h-76l-163 562l-16 60l-14 -58l-159 -564h-77l-213 717q14 13 37 13q32 0 41 -36l158 -564l18 -73l18 75l161 585q10 13 32 13
q35 0 46 -38l152 -557l19 -77l20 80z" />
    <glyph glyph-name="wdieresis" unicode="&#x1e85;" horiz-adv-x="784" 
d="M319 600q-41 0 -41 38q0 40 41 40t41 -40q0 -38 -41 -38zM464 600q-41 0 -41 38q0 40 41 40t41 -40q0 -38 -41 -38zM700 503l56 -13l-163 -490h-67l-113 342l-23 73l-21 -73l-109 -342h-68l-164 490q15 13 33 13q30 0 42 -36l102 -325l24 -83l25 86l110 345q13 13 31 13
q28 0 40 -36l99 -317l27 -90l27 93z" />
    <glyph glyph-name="Germandbls" unicode="&#x1e9e;" horiz-adv-x="674" 
d="M599 615l-184 -208q107 -52 160.5 -108.5t53.5 -137.5t-56 -126t-157 -45q-105 0 -179 58l23 47q60 -48 152 -48q72 0 112 30t40 84q0 67 -60.5 119t-184.5 106l199 227q-57 60 -156 60q-100 0 -154.5 -56.5t-54.5 -159.5v-457h-63v460q0 128 71 199t201 71
q157 0 237 -115z" />
    <glyph glyph-name="Ygrave" unicode="&#x1ef2;" horiz-adv-x="606" 
d="M359 859l-20 -36l-167 83l36 60zM579 717l-244 -409v-308h-64v306l-244 411q10 13 32 13q37 0 56 -33l150 -256l42 -79l43 83l166 285z" />
    <glyph glyph-name="ygrave" unicode="&#x1ef3;" horiz-adv-x="518" 
d="M315 632l-20 -36l-167 83l36 60zM431 503l57 -13l-220 -577q-46 -120 -135 -153l-26 42q69 26 106 114l34 84q-23 3 -32 26l-185 464q15 13 33 13q27 0 42 -36l119 -306l41 -117l40 117z" />
    <glyph glyph-name="endash" unicode="&#x2013;" horiz-adv-x="574" 
d="M72 276h430v-51h-430v51z" />
    <glyph glyph-name="emdash" unicode="&#x2014;" horiz-adv-x="858" 
d="M72 276h714v-51h-714v51z" />
    <glyph glyph-name="quoteleft" unicode="&#x2018;" horiz-adv-x="207" 
d="M112 626q35 0 35 -40q0 -22 -12 -34t-33 -12q-46 0 -46 66q0 40 16 69t56 55l14 -24q-46 -32 -50 -82q14 2 20 2z" />
    <glyph glyph-name="quoteright" unicode="&#x2019;" horiz-adv-x="204" 
d="M105 730q46 0 46 -66q0 -40 -16 -69t-56 -55l-14 24q46 32 50 82q-14 -2 -20 -2q-35 0 -35 40q0 22 12 34t33 12z" />
    <glyph glyph-name="quotesinglbase" unicode="&#x201a;" horiz-adv-x="222" 
d="M112 76q46 0 46 -66q0 -40 -16 -69t-56 -55l-14 24q46 32 50 82q-14 -2 -20 -2q-35 0 -35 40q0 22 12 34t33 12z" />
    <glyph glyph-name="quotedblleft" unicode="&#x201c;" horiz-adv-x="336" 
d="M112 626q35 0 35 -40q0 -22 -12 -34t-33 -12q-46 0 -46 66q0 40 16 69t56 55l14 -24q-46 -32 -50 -82q14 2 20 2zM241 626q35 0 35 -40q0 -22 -12 -34t-33 -12q-46 0 -46 66q0 40 16 69t56 55l14 -24q-46 -32 -50 -82q14 2 20 2z" />
    <glyph glyph-name="quotedblright" unicode="&#x201d;" horiz-adv-x="332" 
d="M105 730q46 0 46 -66q0 -40 -16 -69t-56 -55l-14 24q46 32 50 82q-14 -2 -20 -2q-35 0 -35 40q0 22 12 34t33 12zM234 730q46 0 46 -66q0 -40 -16 -69t-56 -55l-14 24q46 32 50 82q-14 -2 -20 -2q-35 0 -35 40q0 22 12 34t33 12z" />
    <glyph glyph-name="quotedblbase" unicode="&#x201e;" horiz-adv-x="351" 
d="M112 76q46 0 46 -66q0 -40 -16 -69t-56 -55l-14 24q46 32 50 82q-14 -2 -20 -2q-35 0 -35 40q0 22 12 34t33 12zM241 76q46 0 46 -66q0 -40 -16 -69t-56 -55l-14 24q46 32 50 82q-14 -2 -20 -2q-35 0 -35 40q0 22 12 34t33 12z" />
    <glyph glyph-name="dagger" unicode="&#x2020;" horiz-adv-x="461" 
d="M417 493v-55h-154v-668h-64v668h-154v55h154v277h64v-277h154z" />
    <glyph glyph-name="daggerdbl" unicode="&#x2021;" horiz-adv-x="461" 
d="M417 438h-154v-245h154v-55h-154v-368h-64v368h-154v55h154v245h-154v55h154v277h64v-277h154v-55z" />
    <glyph glyph-name="bullet" unicode="&#x2022;" horiz-adv-x="356" 
d="M178 216q-41 0 -63.5 20.5t-22.5 58.5t22.5 59t63.5 21q40 0 63 -21t23 -59t-23 -58.5t-63 -20.5z" />
    <glyph glyph-name="ellipsis" unicode="&#x2026;" horiz-adv-x="584" 
d="M112 -10q-21 0 -33 11.5t-12 31.5t12 31.5t33 11.5q45 0 45 -43t-45 -43zM292 -10q-21 0 -33 11.5t-12 31.5t12 31.5t33 11.5q45 0 45 -43t-45 -43zM473 -10q-21 0 -33 11.5t-12 31.5t12 31.5t33 11.5q45 0 45 -43t-45 -43z" />
    <glyph glyph-name="perthousand" unicode="&#x2030;" horiz-adv-x="932" 
d="M172 301q-58 0 -90 41t-32 115q0 73 32 114.5t90 41.5q57 0 89 -41.5t32 -114.5q0 -74 -32 -115t-89 -41zM102 16l421 597l37 -26l-421 -597zM172 341q35 0 54 30.5t19 85.5q0 54 -19 84.5t-54 30.5q-34 0 -53 -30.5t-19 -84.5q0 -55 19 -85.5t53 -30.5zM489 -10
q-58 0 -90 41t-32 114q0 74 32 115t90 41q57 0 89 -41t32 -115q0 -73 -32 -114t-89 -41zM773 -10q-58 0 -90 41t-32 114q0 74 32 115t90 41q57 0 89 -41t32 -115q0 -73 -32 -114t-89 -41zM489 30q35 0 54 30.5t19 84.5q0 55 -19 85.5t-54 30.5q-34 0 -53 -30.5t-19 -85.5
q0 -54 19 -84.5t53 -30.5zM772 30q35 0 54 30.5t19 84.5q0 55 -19 85.5t-54 30.5q-34 0 -53 -30.5t-19 -85.5q0 -54 19 -84.5t53 -30.5z" />
    <glyph glyph-name="guilsinglleft" unicode="&#x2039;" horiz-adv-x="289" 
d="M45 250l150 216l41 -25l-109 -191l109 -191l-41 -25z" />
    <glyph glyph-name="guilsinglright" unicode="&#x203a;" horiz-adv-x="289" 
d="M244 250l-150 -216l-41 25l109 191l-109 191l41 25z" />
    <glyph glyph-name="fraction" unicode="&#x2044;" horiz-adv-x="174" 
d="M-167 19l468 711l40 -29l-468 -711z" />
    <glyph glyph-name="uni2070" unicode="&#x2070;" horiz-adv-x="400" 
d="M201 332q-75 0 -116.5 58t-41.5 164t41.5 164t116.5 58q74 0 115.5 -58t41.5 -164t-41.5 -164t-115.5 -58zM200 377q48 0 75 46.5t27 130.5t-27 130.5t-75 46.5t-75 -46.5t-27 -130.5t27 -130.5t75 -46.5z" />
    <glyph glyph-name="uni2074" unicode="&#x2074;" horiz-adv-x="357" 
d="M331 490v-44h-58v-108h-54v108h-194v36l162 294l48 -13l-152 -273h138v85l52 20v-105h58z" />
    <glyph glyph-name="uni2075" unicode="&#x2075;" horiz-adv-x="355" 
d="M115 603l65 -2q66 -2 102.5 -36.5t36.5 -94.5q0 -66 -41 -102t-115 -36q-79 0 -135 45l24 39q50 -39 109 -39q48 0 75 24t27 66t-24 65.5t-69 25.5l-114 3l23 209h209v-44h-157z" />
    <glyph glyph-name="uni2076" unicode="&#x2076;" horiz-adv-x="369" 
d="M191 607q66 0 103 -34.5t37 -97.5q0 -68 -37.5 -105.5t-104.5 -37.5q-69 0 -107.5 56.5t-38.5 159.5q0 108 44.5 168t124.5 60q61 0 108 -31l-16 -43q-38 29 -88 29q-49 0 -79.5 -37.5t-37.5 -106.5q45 20 92 20zM190 377q40 0 62.5 25.5t22.5 71.5q0 43 -24.5 67.5
t-66.5 24.5q-48 0 -87 -19q0 -80 24.5 -125t68.5 -45z" />
    <glyph glyph-name="uni2077" unicode="&#x2077;" horiz-adv-x="317" 
d="M295 770v-36l-184 -413l-51 15l176 390h-211v44h270z" />
    <glyph glyph-name="uni2078" unicode="&#x2078;" horiz-adv-x="377" 
d="M264 564q72 -29 72 -109q0 -59 -38.5 -91t-107.5 -32q-71 0 -109.5 32t-38.5 91q0 80 72 109q-58 28 -58 98q0 55 35 84.5t99 29.5q63 0 97.5 -29.5t34.5 -84.5q0 -70 -58 -98zM189 731q-37 0 -58 -19.5t-21 -54.5t21 -54.5t58 -19.5t57.5 19.5t20.5 54.5t-20.5 54.5
t-57.5 19.5zM189 377q44 0 68 22t24 61t-24 60.5t-68 21.5t-68 -21.5t-24 -60.5t24 -61t68 -22z" />
    <glyph glyph-name="uni2079" unicode="&#x2079;" horiz-adv-x="369" 
d="M181 776q69 0 107.5 -59.5t38.5 -168.5q0 -103 -45 -159.5t-125 -56.5q-61 0 -108 31l17 43q35 -29 88 -29q52 0 82.5 39.5t34.5 110.5q-45 -20 -93 -20q-66 0 -102.5 34t-36.5 95q0 66 37.5 103t104.5 37zM95 637q0 -42 23.5 -65.5t67.5 -23.5q51 0 86 19q-3 78 -27 121
t-66 43q-40 0 -62 -24.5t-22 -69.5z" />
    <glyph glyph-name="uni2080" unicode="&#x2080;" horiz-adv-x="400" 
d="M201 -116q-75 0 -116.5 58t-41.5 164t41.5 164t116.5 58q74 0 115.5 -58t41.5 -164t-41.5 -164t-115.5 -58zM200 -71q48 0 75 46.5t27 130.5t-27 130.5t-75 46.5t-75 -46.5t-27 -130.5t27 -130.5t75 -46.5z" />
    <glyph glyph-name="uni2081" unicode="&#x2081;" horiz-adv-x="229" 
d="M163 322v-432h-54v370l-69 -36l-21 44l101 54h43z" />
    <glyph glyph-name="uni2082" unicode="&#x2082;" horiz-adv-x="341" 
d="M89 -66h211v-44h-265v28q0 29 9 54t28.5 48t34 36.5t41.5 35.5q44 35 68 64t24 65q0 29 -18.5 45.5t-52.5 16.5q-57 0 -102 -42l-21 37q59 50 130 50q57 0 88.5 -28.5t31.5 -79.5q0 -34 -19 -66t-38.5 -50t-56.5 -46q-31 -24 -47 -38.5t-31 -38t-15 -47.5z" />
    <glyph glyph-name="uni2083" unicode="&#x2083;" horiz-adv-x="344" 
d="M289 287l-125 -137q145 -39 145 -139q0 -60 -40.5 -93.5t-112.5 -33.5t-126 39l18 40q44 -34 104 -34q48 0 75 22t27 62q0 43 -40 68t-132 46l133 151h-161v44h235v-35z" />
    <glyph glyph-name="uni2084" unicode="&#x2084;" horiz-adv-x="357" 
d="M331 42v-44h-58v-108h-54v108h-194v36l162 294l48 -13l-152 -273h138v85l52 20v-105h58z" />
    <glyph glyph-name="uni2085" unicode="&#x2085;" horiz-adv-x="355" 
d="M115 155l65 -2q66 -2 102.5 -36.5t36.5 -94.5q0 -66 -41 -102t-115 -36q-79 0 -135 45l24 39q50 -39 109 -39q48 0 75 24t27 66t-24 65.5t-69 25.5l-114 3l23 209h209v-44h-157z" />
    <glyph glyph-name="uni2086" unicode="&#x2086;" horiz-adv-x="369" 
d="M191 159q66 0 103 -34.5t37 -97.5q0 -68 -37.5 -105.5t-104.5 -37.5q-69 0 -107.5 56.5t-38.5 159.5q0 108 44.5 168t124.5 60q61 0 108 -31l-16 -43q-38 29 -88 29q-49 0 -79.5 -37.5t-37.5 -106.5q45 20 92 20zM190 -71q40 0 62.5 25.5t22.5 71.5q0 43 -24.5 67.5
t-66.5 24.5q-48 0 -87 -19q0 -80 24.5 -125t68.5 -45z" />
    <glyph glyph-name="uni2087" unicode="&#x2087;" horiz-adv-x="317" 
d="M295 322v-36l-184 -413l-51 15l176 390h-211v44h270z" />
    <glyph glyph-name="uni2088" unicode="&#x2088;" horiz-adv-x="377" 
d="M264 116q72 -29 72 -109q0 -59 -38.5 -91t-107.5 -32q-71 0 -109.5 32t-38.5 91q0 80 72 109q-58 28 -58 98q0 55 35 84.5t99 29.5q63 0 97.5 -29.5t34.5 -84.5q0 -70 -58 -98zM189 283q-37 0 -58 -19.5t-21 -54.5t21 -54.5t58 -19.5t57.5 19.5t20.5 54.5t-20.5 54.5
t-57.5 19.5zM189 -71q44 0 68 22t24 61t-24 60.5t-68 21.5t-68 -21.5t-24 -60.5t24 -61t68 -22z" />
    <glyph glyph-name="uni2089" unicode="&#x2089;" horiz-adv-x="369" 
d="M181 328q69 0 107.5 -59.5t38.5 -168.5q0 -103 -45 -159.5t-125 -56.5q-61 0 -108 31l17 43q35 -29 88 -29q52 0 82.5 39.5t34.5 110.5q-45 -20 -93 -20q-66 0 -102.5 34t-36.5 95q0 66 37.5 103t104.5 37zM95 189q0 -42 23.5 -65.5t67.5 -23.5q51 0 86 19q-3 78 -27 121
t-66 43q-40 0 -62 -24.5t-22 -69.5z" />
    <glyph glyph-name="Euro" unicode="&#x20ac;" horiz-adv-x="590" 
d="M512 93l23 -49q-72 -54 -183 -54q-116 0 -181.5 75t-71.5 213h-58v48h59q5 137 71 212t181 75q98 0 174 -42l-26 -46q-64 36 -146 36q-87 0 -137 -61t-55 -173h220l-27 -49h-194q5 -112 55.5 -174t137.5 -62q96 0 158 51z" />
    <glyph glyph-name="uni20B9" unicode="&#x20b9;" horiz-adv-x="497" 
d="M446 603v-45h-134q63 -35 69 -98h65v-45h-67q-17 -84 -115 -116q128 -32 128 -154v-105q0 -25 10 -41q-14 -7 -36 -7q-15 0 -25 11t-10 31v107q0 62 -40 96.5t-112 34.5h-101v45h71q72 0 115 25.5t53 72.5h-239v45h241q-8 45 -50.5 70t-113.5 25h-77v48h368z" />
    <glyph glyph-name="uni20BD" unicode="&#x20bd;" horiz-adv-x="561" 
d="M295 264h-106v-71h181v-45h-181v-148h-61v148h-71v45h71v71h-71v48h71v292q115 9 167 9q107 0 166 -45.5t59 -128.5t-59 -129t-166 -46zM189 558v-246h106q77 0 120 33.5t43 93.5q0 58 -42.5 90.5t-119.5 32.5q-59 0 -107 -4z" />
    <glyph glyph-name="trademark" unicode="&#x2122;" horiz-adv-x="786" 
d="M719 360h-51l-30 274l-100 -274h-41l-102 268l-29 -268h-47l40 359q14 6 21 6q24 0 34 -25l108 -284l111 303q9 6 19 6q23 0 27 -30zM37 680v40h245v-40h-98v-320h-49v320h-98z" />
    <glyph glyph-name="oneeighth" unicode="&#x215b;" horiz-adv-x="778" 
d="M530 730l40 -29l-468 -711l-40 29zM108 288v370l-69 -36l-21 44l101 54h43v-432h-54zM665 226q72 -29 72 -109q0 -59 -38.5 -91t-107.5 -32q-71 0 -109.5 32t-38.5 91q0 80 72 109q-58 28 -58 98q0 55 35 84.5t99 29.5q63 0 97.5 -29.5t34.5 -84.5q0 -70 -58 -98z
M590 393q-37 0 -58 -19.5t-21 -54.5t21 -54.5t58 -19.5t57.5 19.5t20.5 54.5t-20.5 54.5t-57.5 19.5zM590 39q44 0 68 22t24 61t-24 60.5t-68 21.5t-68 -21.5t-24 -60.5t24 -61t68 -22z" />
    <glyph glyph-name="threeeighths" unicode="&#x215c;" horiz-adv-x="893" 
d="M645 730l40 -29l-468 -711l-40 29zM308 409q0 -60 -40.5 -93.5t-112.5 -33.5t-126 39l18 40q44 -34 104 -34q48 0 75 22t27 62q0 43 -40 68t-132 46l133 151h-161v44h235v-35l-125 -137q145 -39 145 -139zM780 226q72 -29 72 -109q0 -59 -38.5 -91t-107.5 -32
q-71 0 -109.5 32t-38.5 91q0 80 72 109q-58 28 -58 98q0 55 35 84.5t99 29.5q63 0 97.5 -29.5t34.5 -84.5q0 -70 -58 -98zM705 393q-37 0 -58 -19.5t-21 -54.5t21 -54.5t58 -19.5t57.5 19.5t20.5 54.5t-20.5 54.5t-57.5 19.5zM705 39q44 0 68 22t24 61t-24 60.5t-68 21.5
t-68 -21.5t-24 -60.5t24 -61t68 -22z" />
    <glyph glyph-name="fiveeighths" unicode="&#x215d;" horiz-adv-x="904" 
d="M656 730l40 -29l-468 -711l-40 29zM319 420q0 -66 -41 -102t-115 -36q-79 0 -135 45l24 39q50 -39 109 -39q48 0 75 24t27 66t-24 65.5t-69 25.5l-114 3l23 209h209v-44h-157l-16 -123l65 -2q66 -2 102.5 -36.5t36.5 -94.5zM791 226q72 -29 72 -109q0 -59 -38.5 -91
t-107.5 -32q-71 0 -109.5 32t-38.5 91q0 80 72 109q-58 28 -58 98q0 55 35 84.5t99 29.5q63 0 97.5 -29.5t34.5 -84.5q0 -70 -58 -98zM716 393q-37 0 -58 -19.5t-21 -54.5t21 -54.5t58 -19.5t57.5 19.5t20.5 54.5t-20.5 54.5t-57.5 19.5zM716 39q44 0 68 22t24 61t-24 60.5
t-68 21.5t-68 -21.5t-24 -60.5t24 -61t68 -22z" />
    <glyph glyph-name="seveneighths" unicode="&#x215e;" horiz-adv-x="825" 
d="M577 730l40 -29l-468 -711l-40 29zM111 271l-51 15l176 390h-211v44h270v-36zM712 226q72 -29 72 -109q0 -59 -38.5 -91t-107.5 -32q-71 0 -109.5 32t-38.5 91q0 80 72 109q-58 28 -58 98q0 55 35 84.5t99 29.5q63 0 97.5 -29.5t34.5 -84.5q0 -70 -58 -98zM637 393
q-37 0 -58 -19.5t-21 -54.5t21 -54.5t58 -19.5t57.5 19.5t20.5 54.5t-20.5 54.5t-57.5 19.5zM637 39q44 0 68 22t24 61t-24 60.5t-68 21.5t-68 -21.5t-24 -60.5t24 -61t68 -22z" />
    <glyph glyph-name="partialdiff" unicode="&#x2202;" horiz-adv-x="638" 
d="M310 750q124 0 199 -104.5t75 -274.5q0 -171 -88.5 -276t-235.5 -105q-100 0 -161.5 49.5t-61.5 131.5q0 108 131.5 175.5t348.5 73.5q-10 125 -66.5 199t-144.5 74q-106 0 -181 -98l-45 32q92 123 230 123zM261 47q115 0 185.5 86.5t72.5 230.5q-187 -2 -302 -56
t-115 -140q0 -55 43.5 -88t115.5 -33z" />
    <glyph glyph-name="emptyset" unicode="&#x2205;" horiz-adv-x="640" 
d="M566 466l-40 -40q54 -68 54 -175q0 -123 -68 -191.5t-191 -68.5q-106 0 -173 52l-39 -40l-34 33l39 40q-54 68 -54 175q0 123 68.5 191t192.5 68q105 0 171 -51l39 40zM108 252q0 -85 41 -141l310 315q-53 41 -138 41q-100 0 -156.5 -56.5t-56.5 -158.5zM321 34
q100 0 155.5 57.5t55.5 160.5q0 86 -40 139l-310 -315q54 -42 139 -42z" />
    <glyph glyph-name="product" unicode="&#x220f;" horiz-adv-x="708" 
d="M663 770v-55h-65v-945h-61v945h-367v-945h-61v945h-65v55h619z" />
    <glyph glyph-name="summation" unicode="&#x2211;" horiz-adv-x="601" 
d="M566 -176v-54h-536v46l330 457l-322 451v46h518v-54h-441l319 -443l-328 -449h460z" />
    <glyph glyph-name="minus" unicode="&#x2212;" horiz-adv-x="520" 
d="M75 276h370v-48h-370v48z" />
    <glyph glyph-name="radical" unicode="&#x221a;" horiz-adv-x="650" 
d="M570 770h71l-301 -851q-15 -39 -47 -39q-16 0 -37 8l-125 353h-110v54h161l111 -344z" />
    <glyph glyph-name="infinity" unicode="&#x221e;" horiz-adv-x="817" 
d="M569 444q88 0 137.5 -50.5t49.5 -142.5t-49.5 -142.5t-137.5 -50.5q-119 0 -161 99q-42 -99 -160 -99q-89 0 -138 50.5t-49 142.5t49 142.5t138 50.5q118 0 160 -99q42 99 161 99zM250 109q60 0 93.5 37.5t33.5 104.5t-33.5 104.5t-93.5 37.5t-93.5 -37.5t-33.5 -104.5
t33.5 -104.5t93.5 -37.5zM567 109q60 0 93.5 37.5t33.5 104.5t-33.5 104.5t-93.5 37.5t-93.5 -37.5t-33.5 -104.5t33.5 -104.5t93.5 -37.5z" />
    <glyph glyph-name="integral" unicode="&#x222b;" horiz-adv-x="265" 
d="M188 780l28 -46q-53 -29 -53 -121v-702q0 -114 -86 -151l-29 46q54 29 54 121v702q0 114 86 151z" />
    <glyph glyph-name="approxequal" unicode="&#x2248;" horiz-adv-x="604" 
d="M96 267l-23 29q21 30 51 48t60 18q50 0 128.5 -18.5t116.5 -18.5q42 0 79 44l24 -29q-52 -66 -113 -66q-50 0 -128.5 18.5t-115.5 18.5q-42 0 -79 -44zM96 137l-23 29q21 30 51 48t60 18q50 0 128.5 -18.5t116.5 -18.5q42 0 79 44l24 -29q-52 -66 -113 -66
q-50 0 -128.5 18.5t-115.5 18.5q-42 0 -79 -44z" />
    <glyph glyph-name="notequal" unicode="&#x2260;" horiz-adv-x="520" 
d="M445 293h-150l-24 -82h174v-48h-188l-48 -163h-42l47 163h-139v48h153l24 82h-177v48h191l44 152h43l-44 -152h136v-48z" />
    <glyph glyph-name="lessequal" unicode="&#x2264;" horiz-adv-x="513" 
d="M438 498v-51l-318 -129l318 -128v-50l-370 154v48zM68 0v48h370v-48h-370z" />
    <glyph glyph-name="greaterequal" unicode="&#x2265;" horiz-adv-x="513" 
d="M75 498l370 -156v-48l-370 -154v50l318 128l-318 129v51zM75 0v48h370v-48h-370z" />
    <glyph glyph-name="lozenge" unicode="&#x25ca;" horiz-adv-x="457" 
d="M31 246l197 257l198 -257l-198 -256zM93 246l135 -184l135 184l-135 184z" />
    <glyph glyph-name="a.ss01" 
d="M305 503q104 0 190 -10v-495q-13 -8 -27 -8q-33 0 -33 48v56q-29 -48 -79 -76t-106 -28q-95 0 -145.5 66.5t-50.5 187.5q0 122 66 190.5t185 68.5zM434 204v243q-72 5 -127 5q-90 0 -140.5 -55t-50.5 -153q0 -96 39 -149t111 -53q63 0 115.5 44.5t52.5 117.5z" />
    <glyph glyph-name="aacute.ss01" 
d="M428 679l-167 -83l-20 36l151 107zM305 503q104 0 190 -10v-495q-13 -8 -27 -8q-33 0 -33 48v56q-29 -48 -79 -76t-106 -28q-95 0 -145.5 66.5t-50.5 187.5q0 122 66 190.5t185 68.5zM434 204v243q-72 5 -127 5q-90 0 -140.5 -55t-50.5 -153q0 -96 39 -149t111 -53
q63 0 115.5 44.5t52.5 117.5z" />
    <glyph glyph-name="abreve.ss01" 
d="M296 586q-66 0 -102 32t-36 91h49q0 -36 23.5 -56.5t65.5 -20.5q43 0 66.5 20.5t23.5 56.5h48q0 -59 -36 -91t-102 -32zM305 503q104 0 190 -10v-495q-13 -8 -27 -8q-33 0 -33 48v56q-29 -48 -79 -76t-106 -28q-95 0 -145.5 66.5t-50.5 187.5q0 122 66 190.5t185 68.5z
M434 204v243q-72 5 -127 5q-90 0 -140.5 -55t-50.5 -153q0 -96 39 -149t111 -53q63 0 115.5 44.5t52.5 117.5z" />
    <glyph glyph-name="acircumflex.ss01" 
d="M297 663l-131 -67l-20 36l151 105l151 -105l-20 -36zM305 503q104 0 190 -10v-495q-13 -8 -27 -8q-33 0 -33 48v56q-29 -48 -79 -76t-106 -28q-95 0 -145.5 66.5t-50.5 187.5q0 122 66 190.5t185 68.5zM434 204v243q-72 5 -127 5q-90 0 -140.5 -55t-50.5 -153
q0 -96 39 -149t111 -53q63 0 115.5 44.5t52.5 117.5z" />
    <glyph glyph-name="adieresis.ss01" 
d="M224 600q-41 0 -41 38q0 40 41 40t41 -40q0 -38 -41 -38zM369 600q-41 0 -41 38q0 40 41 40t41 -40q0 -38 -41 -38zM305 503q104 0 190 -10v-495q-13 -8 -27 -8q-33 0 -33 48v56q-29 -48 -79 -76t-106 -28q-95 0 -145.5 66.5t-50.5 187.5q0 122 66 190.5t185 68.5z
M434 204v243q-72 5 -127 5q-90 0 -140.5 -55t-50.5 -153q0 -96 39 -149t111 -53q63 0 115.5 44.5t52.5 117.5z" />
    <glyph glyph-name="agrave.ss01" 
d="M352 632l-20 -36l-167 83l36 60zM305 503q104 0 190 -10v-495q-13 -8 -27 -8q-33 0 -33 48v56q-29 -48 -79 -76t-106 -28q-95 0 -145.5 66.5t-50.5 187.5q0 122 66 190.5t185 68.5zM434 204v243q-72 5 -127 5q-90 0 -140.5 -55t-50.5 -153q0 -96 39 -149t111 -53
q63 0 115.5 44.5t52.5 117.5z" />
    <glyph glyph-name="amacron.ss01" 
d="M426 664v-48h-258v48h258zM305 503q104 0 190 -10v-495q-13 -8 -27 -8q-33 0 -33 48v56q-29 -48 -79 -76t-106 -28q-95 0 -145.5 66.5t-50.5 187.5q0 122 66 190.5t185 68.5zM434 204v243q-72 5 -127 5q-90 0 -140.5 -55t-50.5 -153q0 -96 39 -149t111 -53
q63 0 115.5 44.5t52.5 117.5z" />
    <glyph glyph-name="aogonek.ss01" 
d="M493 -182l13 -34q-44 -24 -93 -24q-77 0 -77 66q0 65 112 171q-13 13 -13 41v56q-29 -48 -79 -76t-106 -28q-95 0 -145.5 66.5t-50.5 187.5q0 122 66 190.5t185 68.5q104 0 190 -10v-495q-109 -104 -109 -165q0 -34 36 -34q38 0 71 19zM266 42q63 0 115.5 44.5
t52.5 117.5v243q-72 5 -127 5q-90 0 -140.5 -55t-50.5 -153q0 -96 39 -149t111 -53z" />
    <glyph glyph-name="aring.ss01" 
d="M296 562q-53 0 -82.5 27.5t-29.5 78.5t29.5 79t82.5 28q54 0 83.5 -28t29.5 -79t-29.5 -78.5t-83.5 -27.5zM297 736q-31 0 -48 -18t-17 -50t17 -49.5t48 -17.5t48 17.5t17 49.5t-17 50t-48 18zM305 503q104 0 190 -10v-495q-13 -8 -27 -8q-33 0 -33 48v56
q-29 -48 -79 -76t-106 -28q-95 0 -145.5 66.5t-50.5 187.5q0 122 66 190.5t185 68.5zM434 204v243q-72 5 -127 5q-90 0 -140.5 -55t-50.5 -153q0 -96 39 -149t111 -53q63 0 115.5 44.5t52.5 117.5z" />
    <glyph glyph-name="atilde.ss01" 
d="M228 644q-42 0 -78 -33l-20 27q19 26 48.5 42t61.5 16q24 0 64.5 -18t59.5 -18q41 0 78 33l20 -26q-43 -59 -111 -59q-23 0 -63 18t-60 18zM305 503q104 0 190 -10v-495q-13 -8 -27 -8q-33 0 -33 48v56q-29 -48 -79 -76t-106 -28q-95 0 -145.5 66.5t-50.5 187.5
q0 122 66 190.5t185 68.5zM434 204v243q-72 5 -127 5q-90 0 -140.5 -55t-50.5 -153q0 -96 39 -149t111 -53q63 0 115.5 44.5t52.5 117.5z" />
    <glyph glyph-name="i.loclTRK" horiz-adv-x="224" 
d="M113 600q-41 0 -41 38q0 40 41 40t41 -40q0 -38 -41 -38zM82 493h61v-493h-61v493z" />
    <glyph glyph-name="j.ss01" horiz-adv-x="232" 
d="M120 600q41 0 41 38q0 40 -41 40t-41 -40q0 -38 41 -38zM18 -240q-57 0 -96 19l10 49q28 -16 68 -16q89 0 89 120v561h61v-576q0 -75 -34.5 -116t-97.5 -41z" />
    <glyph glyph-name="y.ss01" horiz-adv-x="562" 
d="M447 503q34 0 34 -46v-520q0 -84 -51.5 -130.5t-145.5 -46.5q-114 0 -198 51l23 43q67 -43 166 -43q71 0 108 37t37 104v133q-56 -95 -183 -95q-76 0 -118.5 46.5t-42.5 130.5v328q14 8 27 8q34 0 34 -46v-275q0 -66 30 -103t84 -37q74 0 121.5 43t47.5 119v291
q14 8 27 8z" />
    <glyph glyph-name="yacute.ss01" horiz-adv-x="562" 
d="M410 679l-167 -83l-20 36l151 107zM447 503q34 0 34 -46v-520q0 -84 -51.5 -130.5t-145.5 -46.5q-114 0 -198 51l23 43q67 -43 166 -43q71 0 108 37t37 104v133q-56 -95 -183 -95q-76 0 -118.5 46.5t-42.5 130.5v328q14 8 27 8q34 0 34 -46v-275q0 -66 30 -103t84 -37
q74 0 121.5 43t47.5 119v291q14 8 27 8z" />
    <glyph glyph-name="ycircumflex.ss01" horiz-adv-x="562" 
d="M279 663l-131 -67l-20 36l151 105l151 -105l-20 -36zM447 503q34 0 34 -46v-520q0 -84 -51.5 -130.5t-145.5 -46.5q-114 0 -198 51l23 43q67 -43 166 -43q71 0 108 37t37 104v133q-56 -95 -183 -95q-76 0 -118.5 46.5t-42.5 130.5v328q14 8 27 8q34 0 34 -46v-275
q0 -66 30 -103t84 -37q74 0 121.5 43t47.5 119v291q14 8 27 8z" />
    <glyph glyph-name="ydieresis.ss01" horiz-adv-x="562" 
d="M206 600q-41 0 -41 38q0 40 41 40t41 -40q0 -38 -41 -38zM351 600q-41 0 -41 38q0 40 41 40t41 -40q0 -38 -41 -38zM447 503q34 0 34 -46v-520q0 -84 -51.5 -130.5t-145.5 -46.5q-114 0 -198 51l23 43q67 -43 166 -43q71 0 108 37t37 104v133q-56 -95 -183 -95
q-76 0 -118.5 46.5t-42.5 130.5v328q14 8 27 8q34 0 34 -46v-275q0 -66 30 -103t84 -37q74 0 121.5 43t47.5 119v291q14 8 27 8z" />
    <glyph glyph-name="ygrave.ss01" horiz-adv-x="562" 
d="M334 632l-20 -36l-167 83l36 60zM447 503q34 0 34 -46v-520q0 -84 -51.5 -130.5t-145.5 -46.5q-114 0 -198 51l23 43q67 -43 166 -43q71 0 108 37t37 104v133q-56 -95 -183 -95q-76 0 -118.5 46.5t-42.5 130.5v328q14 8 27 8q34 0 34 -46v-275q0 -66 30 -103t84 -37
q74 0 121.5 43t47.5 119v291q14 8 27 8z" />
    <glyph glyph-name="f_b" horiz-adv-x="940" 
d="M690 503q95 0 145.5 -66.5t50.5 -187.5q0 -123 -66 -191t-185 -68q-104 0 -190 10v444h-275v-444h-61v444h-82v49h82v130q0 75 39 116t108 41q61 0 106 -18l-9 -48q-36 14 -79 14q-51 0 -77.5 -31t-26.5 -89v-115h275v279q13 8 27 8q34 0 34 -45v-334q29 47 79 74.5
t105 27.5zM633 40q91 0 141 55t50 154q0 97 -38 149.5t-112 52.5q-63 0 -115.5 -45t-52.5 -117v-244q72 -5 127 -5z" />
    <glyph glyph-name="f_f_j" horiz-adv-x="884" 
d="M803 493v-582q0 -114 -86 -151l-29 46q54 29 54 121v517h-262v-444h-61v444h-249v-444h-61v444h-82v49h82v130q0 75 39 116t108 41q61 0 106 -18l-9 -48q-36 14 -79 14q-51 0 -77.5 -31t-26.5 -89v-115h249v130q0 75 39 116t108 41q63 0 108 -18l-9 -48q-36 14 -81 14
q-51 0 -77.5 -31t-26.5 -89v-115h323zM772 678q41 0 41 -40q0 -38 -41 -38t-41 38q0 40 41 40z" />
    <glyph glyph-name="f_f_j.ss01" horiz-adv-x="884" 
d="M802 493v-576q0 -75 -34.5 -116t-97.5 -41q-57 0 -96 19l10 49q28 -16 68 -16q89 0 89 120v512h-261v-444h-61v444h-249v-444h-61v444h-82v49h82v130q0 75 39 116t108 41q61 0 106 -18l-9 -48q-36 14 -79 14q-51 0 -77.5 -31t-26.5 -89v-115h249v130q0 75 39 116t108 41
q63 0 108 -18l-9 -48q-36 14 -81 14q-51 0 -77.5 -31t-26.5 -89v-115h322zM772 678q41 0 41 -40q0 -38 -41 -38t-41 38q0 40 41 40z" />
    <glyph glyph-name="f_f_t" horiz-adv-x="1002" 
d="M980 444h-178v-282q0 -120 94 -120q42 0 74 16l9 -49q-39 -19 -101 -19q-65 0 -101 41t-36 116v297h-260v-444h-61v444h-250v-444h-61v444h-82v49h82v130q0 75 39 116t108 41q61 0 106 -18l-9 -48q-36 14 -79 14q-51 0 -77.5 -31t-26.5 -89v-115h250v130q0 75 39 116
t108 41q67 0 111 -19l-9 -49q-36 16 -84 16q-51 0 -77.5 -31t-26.5 -89v-115h261v127q14 8 27 8q33 0 33 -46v-89h178v-49z" />
    <glyph glyph-name="f_h" horiz-adv-x="936" 
d="M699 503q76 0 118.5 -46.5t42.5 -130.5v-326h-61v311q0 66 -30 103t-84 37q-79 0 -129 -43.5t-50 -118.5v-289h-61v444h-275v-444h-61v444h-82v49h82v130q0 75 39 116t108 41q61 0 106 -18l-9 -48q-36 14 -79 14q-51 0 -77.5 -31t-26.5 -89v-115h275v279q13 8 27 8
q34 0 34 -45v-328q60 96 193 96z" />
    <glyph glyph-name="f_iacute" horiz-adv-x="573" 
d="M492 493v-493h-61v444h-261v-444h-61v444h-82v49h82v130q0 75 39 116t108 41q63 0 108 -18l-9 -48q-36 14 -81 14q-51 0 -77.5 -31t-26.5 -89v-115h322zM593 679l-167 -83l-20 36l151 107z" />
    <glyph glyph-name="f_j" horiz-adv-x="573" 
d="M492 493v-582q0 -114 -86 -151l-29 46q54 29 54 121v517h-261v-444h-61v444h-82v49h82v130q0 75 39 116t108 41q63 0 108 -18l-9 -48q-36 14 -81 14q-51 0 -77.5 -31t-26.5 -89v-115h322zM461 678q41 0 41 -40q0 -38 -41 -38t-41 38q0 40 41 40z" />
    <glyph glyph-name="f_j.ss01" horiz-adv-x="573" 
d="M491 493v-576q0 -75 -34.5 -116t-97.5 -41q-57 0 -96 19l10 49q28 -16 68 -16q89 0 89 120v512h-260v-444h-61v444h-82v49h82v130q0 75 39 116t108 41q63 0 108 -18l-9 -48q-36 14 -81 14q-51 0 -77.5 -31t-26.5 -89v-115h321zM461 678q41 0 41 -40q0 -38 -41 -38t-41 38
q0 40 41 40z" />
    <glyph glyph-name="f_k" horiz-adv-x="868" 
d="M472 780q34 0 34 -45v-735h-61v444h-275v-444h-61v444h-82v49h82v130q0 75 39 116t108 41q61 0 106 -18l-9 -48q-36 14 -79 14q-51 0 -77.5 -31t-26.5 -89v-115h275v279q13 8 27 8zM585 263l278 -261q-17 -12 -40 -12q-31 0 -62 31l-252 240l265 242l62 -13z" />
    <glyph glyph-name="f_t" horiz-adv-x="691" 
d="M669 444h-178v-282q0 -120 94 -120q42 0 74 16l9 -49q-39 -19 -101 -19q-65 0 -101 41t-36 116v297h-260v-444h-61v444h-82v49h82v130q0 75 39 116t108 41q67 0 111 -19l-9 -49q-36 16 -84 16q-51 0 -77.5 -31t-26.5 -89v-115h261v127q14 8 27 8q33 0 33 -46v-89h178v-49
z" />
    <glyph glyph-name="t_t" horiz-adv-x="703" 
d="M682 444h-178v-282q0 -120 94 -120q42 0 74 16l9 -49q-39 -19 -101 -19q-65 0 -101 41t-36 116v297h-275v-282q0 -120 94 -120q42 0 74 16l9 -49q-39 -19 -101 -19q-65 0 -101 41t-36 116v297h-82v49h83v127q14 8 27 8q33 0 33 -46v-89h276v127q14 8 27 8q33 0 33 -46
v-89h178v-49z" />
    <glyph glyph-name="ordfeminine.case" horiz-adv-x="453" 
d="M236 730q61 0 138 -7v-347q-11 -7 -26 -7q-27 0 -27 38v31q-45 -69 -127 -69q-66 0 -101.5 46t-35.5 131q0 87 47 135.5t132 48.5zM320 525v158q-42 3 -81 3q-60 0 -93 -37t-33 -103q0 -64 24.5 -98t72.5 -34q42 0 76 30t34 81z" />
    <glyph glyph-name="ordfeminine.lf" horiz-adv-x="453" 
d="M236 730q61 0 138 -7v-347q-11 -7 -26 -7q-27 0 -27 38v31q-45 -69 -127 -69q-66 0 -101.5 46t-35.5 131q0 87 47 135.5t132 48.5zM320 525v158q-42 3 -81 3q-60 0 -93 -37t-33 -103q0 -64 24.5 -98t72.5 -34q42 0 76 30t34 81z" />
    <glyph glyph-name="ordmasculine.case" horiz-adv-x="448" 
d="M224 369q-80 0 -124.5 47.5t-44.5 132.5t44.5 133t124.5 48q79 0 123.5 -48t44.5 -133t-44.5 -132.5t-123.5 -47.5zM224 414q54 0 83.5 35.5t29.5 99.5t-29.5 100t-83.5 36t-83.5 -36t-29.5 -100t29.5 -99.5t83.5 -35.5z" />
    <glyph glyph-name="ordmasculine.lf" horiz-adv-x="448" 
d="M224 369q-80 0 -124.5 47.5t-44.5 132.5t44.5 133t124.5 48q79 0 123.5 -48t44.5 -133t-44.5 -132.5t-123.5 -47.5zM224 414q54 0 83.5 35.5t29.5 99.5t-29.5 100t-83.5 36t-83.5 -36t-29.5 -100t29.5 -99.5t83.5 -35.5z" />
    <glyph glyph-name="uni0414.loclBGR" horiz-adv-x="676" 
d="M611 54h38v-166q-13 -8 -27 -8q-37 0 -37 51v69h-493l-2 -112q-10 -8 -25 -8q-36 0 -36 51v123h36l237 668q21 8 35 8q33 0 48 -39zM132 54h409l-204 605z" />
    <glyph glyph-name="uni041B.loclBGR" horiz-adv-x="629" 
d="M607 0h-71l-223 660l-223 -660h-68l256 722q21 8 36 8q33 0 48 -39z" />
    <glyph glyph-name="uni0424.loclBGR" horiz-adv-x="818" 
d="M761 360q0 -167 -83.5 -263t-236.5 -106v-101h-64v101q-151 10 -235 107t-84 262t84 262t235 107v103q11 8 26 8q17 0 27.5 -13t10.5 -38v-60q153 -10 236.5 -106t83.5 -263zM123 360q0 -140 66.5 -221t187.5 -91v624q-121 -10 -187.5 -91t-66.5 -221zM441 672v-624
q121 11 187.5 92t66.5 220t-66.5 220t-187.5 92z" />
    <glyph glyph-name="uni0430.ss01" 
d="M305 503q104 0 190 -10v-495q-13 -8 -27 -8q-33 0 -33 48v56q-29 -48 -79 -76t-106 -28q-95 0 -145.5 66.5t-50.5 187.5q0 122 66 190.5t185 68.5zM434 204v243q-72 5 -127 5q-90 0 -140.5 -55t-50.5 -153q0 -96 39 -149t111 -53q63 0 115.5 44.5t52.5 117.5z" />
    <glyph glyph-name="uni0431.loclSRB" horiz-adv-x="573" 
d="M138 610q0 -25 28.5 -43.5t91.5 -45.5q33 -14 51 -22t50 -25t50.5 -31t42.5 -37t37 -47t22.5 -56.5t9.5 -68.5q0 -115 -61.5 -179.5t-172.5 -64.5q-112 0 -173.5 63.5t-61.5 178.5q0 156 185 242q-42 18 -63 28.5t-48.5 28t-39.5 36.5t-12 42q0 47 38 77.5t147 52.5
l203 41q12 -12 12 -27q0 -25 -42 -34l-169 -34q-125 -25 -125 -75zM287 42q81 0 126.5 50.5t45.5 141.5q0 79 -46 128.5t-126 88.5q-173 -78 -173 -217q0 -91 45.5 -141.5t127.5 -50.5z" />
    <glyph glyph-name="uni0432.loclBGR" horiz-adv-x="558" 
d="M352 412q75 -18 115.5 -70.5t40.5 -133.5q0 -103 -61 -160.5t-172 -57.5q-94 0 -146.5 52.5t-52.5 147.5v405q0 88 47.5 136.5t134.5 48.5q109 0 168.5 -50t59.5 -142q0 -137 -134 -176zM258 730q-57 0 -89 -37t-32 -103v-157h118q81 0 125 39.5t44 110.5q0 69 -44 108
t-122 39zM275 40q81 0 125.5 45.5t44.5 127.5t-45 128t-127 46h-136v-192q0 -74 36 -114.5t102 -40.5z" />
    <glyph glyph-name="uni0433.loclBGR" horiz-adv-x="450" 
d="M218 503q82 0 128 -34.5t46 -94.5q0 -34 -13.5 -60t-42.5 -44.5t-50 -27.5t-60 -23q-24 -9 -36.5 -13.5t-31 -14t-27.5 -18t-16 -22t-7 -29.5q0 -38 33.5 -60t93.5 -22q102 0 154 38l20 -44q-57 -44 -177 -44q-90 0 -139 34.5t-49 97.5q0 31 12 54t38.5 40t47 26t57.5 22
q32 11 50 19t39 21.5t30.5 31t9.5 40.5q0 36 -27.5 56t-76.5 20q-70 0 -132 -32l-28 46q67 37 154 37z" />
    <glyph glyph-name="uni0434.loclBGR" horiz-adv-x="576" 
d="M304 503q104 0 190 -10v-536q0 -94 -51.5 -145.5t-145.5 -51.5q-114 0 -198 51l25 42q68 -42 164 -42q71 0 108 41.5t37 119.5v120q-29 -47 -79 -74.5t-105 -27.5q-95 0 -145.5 66.5t-50.5 187.5q0 122 66 190.5t185 68.5zM433 204v243q-72 5 -127 5q-90 0 -140.5 -55
t-50.5 -153q0 -96 39 -149t111 -53q63 0 115.5 44.5t52.5 117.5z" />
    <glyph glyph-name="uni0436.loclBGR" horiz-adv-x="721" 
d="M357 780q34 0 34 -45v-735h-61v772q13 8 27 8zM76 503q32 0 59 -31l192 -212l-236 -260h-76l239 261l-215 229q16 13 37 13zM467 260l239 -258q-15 -12 -38 -12q-34 0 -62 31l-212 240l223 242l63 -13z" />
    <glyph glyph-name="uni0437.loclBGR" horiz-adv-x="477" 
d="M61 380l-18 44q33 36 83.5 57.5t99.5 21.5q84 0 130 -48.5t46 -135.5q0 -60 -29.5 -103.5t-83.5 -60.5q71 -8 110 -59t39 -134q0 -95 -55.5 -148.5t-155.5 -53.5q-130 0 -212 103l26 45q71 -93 182 -93q72 0 112.5 41t40.5 115t-40 113.5t-113 39.5h-71v52h53
q64 0 99.5 36.5t35.5 101.5q0 64 -32.5 99.5t-89.5 35.5q-96 0 -157 -69z" />
    <glyph glyph-name="uni0438.loclBGR" horiz-adv-x="562" 
d="M447 503q34 0 34 -46v-459q-13 -8 -27 -8q-33 0 -33 48v48q-57 -96 -184 -96q-76 0 -118.5 46.5t-42.5 130.5v328q14 8 27 8q34 0 34 -46v-275q0 -66 30 -103t84 -37q74 0 121.5 43t47.5 119v291q14 8 27 8z" />
    <glyph glyph-name="uni0439.loclBGR" horiz-adv-x="562" 
d="M278 586q-66 0 -102 32t-36 91h49q0 -36 23.5 -56.5t65.5 -20.5q43 0 66.5 20.5t23.5 56.5h48q0 -59 -36 -91t-102 -32zM447 503q34 0 34 -46v-459q-13 -8 -27 -8q-33 0 -33 48v48q-57 -96 -184 -96q-76 0 -118.5 46.5t-42.5 130.5v328q14 8 27 8q34 0 34 -46v-275
q0 -66 30 -103t84 -37q74 0 121.5 43t47.5 119v291q14 8 27 8z" />
    <glyph glyph-name="uni045D.loclBGR" horiz-adv-x="562" 
d="M334 632l-20 -36l-167 83l36 60zM447 503q34 0 34 -46v-459q-13 -8 -27 -8q-33 0 -33 48v48q-57 -96 -184 -96q-76 0 -118.5 46.5t-42.5 130.5v328q14 8 27 8q34 0 34 -46v-275q0 -66 30 -103t84 -37q74 0 121.5 43t47.5 119v291q14 8 27 8z" />
    <glyph glyph-name="uni043A.loclBGR" horiz-adv-x="505" 
d="M109 780q34 0 34 -45v-735h-61v772q13 8 27 8zM222 263l278 -261q-16 -12 -40 -12q-31 0 -62 31l-252 240l265 242l62 -13z" />
    <glyph glyph-name="uni043B.loclBGR" horiz-adv-x="506" 
d="M484 0h-64l-168 440l-169 -440h-60l197 495q14 8 30 8q34 0 49 -38z" />
    <glyph glyph-name="uni043F.loclBGR" horiz-adv-x="573" 
d="M336 503q76 0 118.5 -46.5t42.5 -130.5v-326h-61v311q0 66 -30 103t-84 37q-79 0 -129 -43.5t-50 -118.5v-289h-61v495q14 8 27 8q33 0 33 -48v-50q60 98 194 98z" />
    <glyph glyph-name="uni0442.loclBGR" horiz-adv-x="847" 
d="M629 503q67 0 104.5 -46.5t37.5 -130.5v-326h-61v311q0 66 -25 103t-70 37q-70 0 -114 -43t-44 -119v-289h-61v311q0 66 -24.5 103t-69.5 37q-70 0 -114.5 -43.5t-44.5 -118.5v-289h-61v495q14 8 27 8q33 0 33 -48v-47q53 95 174 95q100 0 131 -100q62 100 182 100z" />
    <glyph glyph-name="uni0443.ss01" horiz-adv-x="562" 
d="M447 503q34 0 34 -46v-520q0 -84 -51.5 -130.5t-145.5 -46.5q-114 0 -198 51l23 43q67 -43 166 -43q71 0 108 37t37 104v133q-56 -95 -183 -95q-76 0 -118.5 46.5t-42.5 130.5v328q14 8 27 8q34 0 34 -46v-275q0 -66 30 -103t84 -37q74 0 121.5 43t47.5 119v291
q14 8 27 8z" />
    <glyph glyph-name="uni045E.ss01" horiz-adv-x="562" 
d="M278 586q-66 0 -102 32t-36 91h49q0 -36 23.5 -56.5t65.5 -20.5q43 0 66.5 20.5t23.5 56.5h48q0 -59 -36 -91t-102 -32zM447 503q34 0 34 -46v-520q0 -84 -51.5 -130.5t-145.5 -46.5q-114 0 -198 51l23 43q67 -43 166 -43q71 0 108 37t37 104v133q-56 -95 -183 -95
q-76 0 -118.5 46.5t-42.5 130.5v328q14 8 27 8q34 0 34 -46v-275q0 -66 30 -103t84 -37q74 0 121.5 43t47.5 119v291q14 8 27 8z" />
    <glyph glyph-name="uni0446.loclBGR" horiz-adv-x="573" 
d="M481 49h38v-161q-13 -8 -27 -8q-34 0 -34 48v62h-4q-33 0 -33 48v48q-57 -96 -184 -96q-76 0 -118.5 46.5t-42.5 130.5v328q14 8 27 8q34 0 34 -46v-275q0 -66 30 -103t84 -37q74 0 121.5 43t47.5 119v291q14 8 27 8q34 0 34 -46v-408z" />
    <glyph glyph-name="uni0448.loclBGR" horiz-adv-x="847" 
d="M731 503q34 0 34 -46v-459q-13 -8 -27 -8q-33 0 -33 48v46q-25 -44 -70 -69t-104 -25q-100 0 -131 100q-62 -100 -183 -100q-66 0 -103.5 46.5t-37.5 130.5v328q14 8 27 8q34 0 34 -46v-275q0 -66 24.5 -103t69.5 -37q70 0 114.5 43t44.5 119v291q14 8 27 8q34 0 34 -46
v-275q0 -66 24.5 -103t69.5 -37q70 0 114.5 43t44.5 119v291q14 8 27 8z" />
    <glyph glyph-name="uni0449.loclBGR" horiz-adv-x="857" 
d="M765 49h38v-161q-13 -8 -27 -8q-34 0 -34 48v62h-4q-33 0 -33 48v46q-25 -44 -70 -69t-104 -25q-100 0 -131 100q-62 -100 -183 -100q-66 0 -103.5 46.5t-37.5 130.5v328q14 8 27 8q34 0 34 -46v-275q0 -66 24.5 -103t69.5 -37q70 0 114.5 43t44.5 119v291q14 8 27 8
q34 0 34 -46v-275q0 -66 24.5 -103t69.5 -37q70 0 114.5 43t44.5 119v291q14 8 27 8q34 0 34 -46v-408z" />
    <glyph glyph-name="uni044C.loclBGR" horiz-adv-x="480" 
d="M243 309q95 0 147.5 -42t52.5 -117q0 -76 -52 -118t-146 -42q-80 0 -124 42t-44 118v345q14 8 27 8q34 0 34 -46v-152q41 4 105 4zM245 39q65 0 101 29t36 81q0 53 -36.5 82t-102.5 29q-64 0 -105 -4v-106q0 -53 28 -82t79 -29z" />
    <glyph glyph-name="uni044A.loclBGR" horiz-adv-x="523" 
d="M286 309q95 0 147.5 -42t52.5 -117q0 -76 -52 -118t-146 -42q-80 0 -124 42t-44 118v292h-92v51h153v-188q41 4 105 4zM288 39q65 0 101 29t36 81q0 53 -36.5 82t-102.5 29q-64 0 -105 -4v-106q0 -53 28 -82t79 -29z" />
    <glyph glyph-name="uni0458.ss01" horiz-adv-x="232" 
d="M120 600q41 0 41 38q0 40 -41 40t-41 -40q0 -38 41 -38zM18 -240q-57 0 -96 19l10 49q28 -16 68 -16q89 0 89 120v561h61v-576q0 -75 -34.5 -116t-97.5 -41z" />
    <glyph glyph-name="uni044E.loclBGR" horiz-adv-x="729" 
d="M466 503q99 0 154 -68t55 -189t-55 -188.5t-154 -67.5q-96 0 -150 63t-58 177h-115v-230h-61v772q13 8 27 8q34 0 34 -45v-455h116q8 106 62 164.5t145 58.5zM465 42q70 0 109 53.5t39 150.5t-39 151t-109 54q-69 0 -108 -54t-39 -151t39 -150.5t108 -53.5z" />
    <glyph glyph-name="zero.case" horiz-adv-x="625" 
d="M313 -10q-119 0 -185.5 97.5t-66.5 272.5t66.5 272.5t185.5 97.5t185 -97.5t66 -272.5t-66 -272.5t-185 -97.5zM312 47q88 0 137 82.5t49 230.5t-49 230.5t-137 82.5t-137 -82t-49 -231t49 -231t137 -82z" />
    <glyph glyph-name="one.case" horiz-adv-x="321" 
d="M224 720v-720h-64v646l-115 -61l-25 52l155 83h49z" />
    <glyph glyph-name="two.case" horiz-adv-x="519" 
d="M108 54h359v-54h-423v37q0 47 14.5 88t46.5 79t56.5 61t69.5 60q40 34 61 53.5t48.5 51t39.5 63.5t12 68q0 54 -33.5 83t-93.5 29q-102 0 -177 -72l-25 46q89 83 208 83q88 0 137.5 -44.5t49.5 -124.5q0 -42 -14 -79.5t-43 -72.5t-54 -58t-65 -58q-8 -7 -12 -10
q-35 -29 -50 -42.5t-41.5 -40.5t-38.5 -46t-22 -46t-10 -54z" />
    <glyph glyph-name="three.case" horiz-adv-x="531" 
d="M450 679l-225 -248q125 -35 191.5 -90t66.5 -143q0 -99 -64 -153.5t-179 -54.5q-121 0 -205 68l23 48q75 -59 179 -59q86 0 133.5 40t47.5 112q0 77 -68.5 122t-225.5 83l234 262h-282v54h374v-41z" />
    <glyph glyph-name="four.case" horiz-adv-x="546" 
d="M518 244v-54h-96v-190h-64v190h-330v42l274 498l58 -15l-260 -471h259v158l63 24v-182h96z" />
    <glyph glyph-name="five.case" horiz-adv-x="545" 
d="M152 436l124 -4q105 -3 163.5 -60t58.5 -157q0 -107 -65 -166t-183 -59q-127 0 -213 73l31 48q82 -64 181 -64q87 0 135 43.5t48 121.5q0 77 -43 120.5t-121 45.5l-185 5l36 337h330v-54h-269z" />
    <glyph glyph-name="six.case" horiz-adv-x="572" 
d="M292 443q107 0 166.5 -57t59.5 -160q0 -112 -59 -174t-165 -62q-110 0 -171 95t-61 265q0 179 70.5 279.5t196.5 100.5q101 0 172 -51l-20 -53q-63 47 -149 47q-87 0 -139.5 -68.5t-63.5 -195.5q72 34 163 34zM295 47q75 0 116.5 46.5t41.5 131.5q0 78 -44 121t-124 43
q-85 0 -158 -35v-4q0 -144 44 -223.5t124 -79.5z" />
    <glyph glyph-name="seven.case" horiz-adv-x="483" 
d="M462 720v-44l-313 -705l-61 18l304 677h-367v54h437z" />
    <glyph glyph-name="eight.case" horiz-adv-x="587" 
d="M397 376q63 -20 97 -67.5t34 -116.5q0 -96 -61 -149t-173 -53t-173.5 53t-61.5 149q0 69 34.5 116.5t97.5 67.5q-108 42 -108 167q0 89 55.5 138t155.5 49t155 -49t55 -138q0 -125 -107 -167zM148 538q0 -65 38 -100.5t107 -35.5t107.5 35.5t38.5 100.5t-38.5 100
t-107.5 35t-107 -35t-38 -100zM293 47q81 0 125 39t44 111t-44 111.5t-125 39.5q-80 0 -124.5 -39.5t-44.5 -111.5t44.5 -111t124.5 -39z" />
    <glyph glyph-name="nine.case" horiz-adv-x="572" 
d="M278 730q110 0 171 -100t61 -280q0 -170 -70.5 -265t-196.5 -95q-101 0 -172 51l21 53q61 -47 149 -47q93 0 145.5 71.5t57.5 203.5q-76 -35 -163 -35q-108 0 -167.5 56t-59.5 156q0 110 59 170.5t165 60.5zM119 500q0 -75 44 -117t124 -42q87 0 158 34
q-4 143 -47.5 220.5t-120.5 77.5q-75 0 -116.5 -45.5t-41.5 -127.5z" />
    <glyph glyph-name="zero.lf" horiz-adv-x="625" 
d="M313 -10q-119 0 -185.5 97.5t-66.5 272.5t66.5 272.5t185.5 97.5t185 -97.5t66 -272.5t-66 -272.5t-185 -97.5zM312 47q88 0 137 82.5t49 230.5t-49 230.5t-137 82.5t-137 -82t-49 -231t49 -231t137 -82z" />
    <glyph glyph-name="one.lf" horiz-adv-x="321" 
d="M224 720v-720h-64v646l-115 -61l-25 52l155 83h49z" />
    <glyph glyph-name="two.lf" horiz-adv-x="519" 
d="M108 54h359v-54h-423v37q0 47 14.5 88t46.5 79t56.5 61t69.5 60q40 34 61 53.5t48.5 51t39.5 63.5t12 68q0 54 -33.5 83t-93.5 29q-102 0 -177 -72l-25 46q89 83 208 83q88 0 137.5 -44.5t49.5 -124.5q0 -42 -14 -79.5t-43 -72.5t-54 -58t-65 -58q-8 -7 -12 -10
q-35 -29 -50 -42.5t-41.5 -40.5t-38.5 -46t-22 -46t-10 -54z" />
    <glyph glyph-name="three.lf" horiz-adv-x="531" 
d="M450 679l-225 -248q125 -35 191.5 -90t66.5 -143q0 -99 -64 -153.5t-179 -54.5q-121 0 -205 68l23 48q75 -59 179 -59q86 0 133.5 40t47.5 112q0 77 -68.5 122t-225.5 83l234 262h-282v54h374v-41z" />
    <glyph glyph-name="four.lf" horiz-adv-x="546" 
d="M518 244v-54h-96v-190h-64v190h-330v42l274 498l58 -15l-260 -471h259v158l63 24v-182h96z" />
    <glyph glyph-name="five.lf" horiz-adv-x="545" 
d="M152 436l124 -4q105 -3 163.5 -60t58.5 -157q0 -107 -65 -166t-183 -59q-127 0 -213 73l31 48q82 -64 181 -64q87 0 135 43.5t48 121.5q0 77 -43 120.5t-121 45.5l-185 5l36 337h330v-54h-269z" />
    <glyph glyph-name="six.lf" horiz-adv-x="572" 
d="M292 443q107 0 166.5 -57t59.5 -160q0 -112 -59 -174t-165 -62q-110 0 -171 95t-61 265q0 179 70.5 279.5t196.5 100.5q101 0 172 -51l-20 -53q-63 47 -149 47q-87 0 -139.5 -68.5t-63.5 -195.5q72 34 163 34zM295 47q75 0 116.5 46.5t41.5 131.5q0 78 -44 121t-124 43
q-85 0 -158 -35v-4q0 -144 44 -223.5t124 -79.5z" />
    <glyph glyph-name="seven.lf" horiz-adv-x="483" 
d="M462 720v-44l-313 -705l-61 18l304 677h-367v54h437z" />
    <glyph glyph-name="eight.lf" horiz-adv-x="587" 
d="M397 376q63 -20 97 -67.5t34 -116.5q0 -96 -61 -149t-173 -53t-173.5 53t-61.5 149q0 69 34.5 116.5t97.5 67.5q-108 42 -108 167q0 89 55.5 138t155.5 49t155 -49t55 -138q0 -125 -107 -167zM148 538q0 -65 38 -100.5t107 -35.5t107.5 35.5t38.5 100.5t-38.5 100
t-107.5 35t-107 -35t-38 -100zM293 47q81 0 125 39t44 111t-44 111.5t-125 39.5q-80 0 -124.5 -39.5t-44.5 -111.5t44.5 -111t124.5 -39z" />
    <glyph glyph-name="nine.lf" horiz-adv-x="572" 
d="M278 730q110 0 171 -100t61 -280q0 -170 -70.5 -265t-196.5 -95q-101 0 -172 51l21 53q61 -47 149 -47q93 0 145.5 71.5t57.5 203.5q-76 -35 -163 -35q-108 0 -167.5 56t-59.5 156q0 110 59 170.5t165 60.5zM119 500q0 -75 44 -117t124 -42q87 0 158 34
q-4 143 -47.5 220.5t-120.5 77.5q-75 0 -116.5 -45.5t-41.5 -127.5z" />
    <glyph glyph-name="zero.osf" horiz-adv-x="592" 
d="M296 -10q-112 0 -174 81.5t-62 229.5t62 230t174 82t174 -82.5t62 -229.5t-62 -229t-174 -82zM296 42q82 0 128 68t46 191t-46 191.5t-128 68.5t-128 -68.5t-46 -191.5t46 -191t128 -68z" />
    <glyph glyph-name="one.osf" horiz-adv-x="316" 
d="M224 603v-603h-61v534l-115 -62l-25 48l152 83h49z" />
    <glyph glyph-name="two.osf" horiz-adv-x="520" 
d="M109 49h360v-49h-423v34q0 30 12 58t26.5 48t44 45t48 38t55.5 38q34 23 50 34.5t42.5 33t39 38t22.5 39t10 45.5q0 52 -33.5 81t-95.5 29q-102 0 -177 -72l-25 40q87 84 208 84q88 0 136.5 -42.5t48.5 -118.5q0 -29 -12.5 -57.5t-26.5 -47t-46.5 -45.5t-48 -38
t-56.5 -39q-51 -34 -78.5 -55t-53 -54.5t-27.5 -66.5z" />
    <glyph glyph-name="three.osf" horiz-adv-x="528" 
d="M450 564l-232 -245q127 -35 195 -89.5t68 -141.5q0 -99 -63 -153.5t-177 -54.5q-121 0 -206 68l24 43q75 -59 179 -59q86 0 133.5 41t47.5 116q0 77 -69 122t-226 83l246 260h-294v49h374v-39z" />
    <glyph glyph-name="four.osf" horiz-adv-x="535" 
d="M513 49v-49h-96v-110h-61v110h-333v37l278 576l54 -15l-266 -549h268v190l60 24v-214h96z" />
    <glyph glyph-name="five.osf" horiz-adv-x="541" 
d="M147 323l126 -4q104 -4 162 -60.5t58 -155.5q0 -106 -64.5 -164.5t-181.5 -58.5q-127 0 -213 73l31 43q82 -64 181 -64q87 0 135 44.5t48 124.5q0 78 -43.5 123t-120.5 47l-185 4l36 328h330v-49h-272z" />
    <glyph glyph-name="six.osf" horiz-adv-x="561" 
d="M286 443q106 0 165 -56.5t59 -159.5q0 -112 -58.5 -174.5t-163.5 -62.5q-108 0 -168.5 95t-60.5 265q0 179 70 279.5t195 100.5q100 0 171 -51l-20 -48q-61 47 -148 47t-140 -70t-64 -199q72 34 163 34zM289 42q75 0 116.5 48.5t41.5 135.5q0 80 -44 124t-124 44
q-87 0 -158 -34v-10q0 -146 44 -227t124 -81z" />
    <glyph glyph-name="seven.osf" horiz-adv-x="499" 
d="M470 603v-39l-313 -703l-57 18l304 675h-370v49h436z" />
    <glyph glyph-name="eight.osf" horiz-adv-x="576" 
d="M390 376q130 -42 130 -185q0 -95 -60.5 -148t-171.5 -53q-110 0 -171 53t-61 148q0 69 34 117t97 68q-107 42 -107 168q0 88 54.5 137t153.5 49t153.5 -49t54.5 -137q0 -126 -106 -168zM142 539q0 -67 38.5 -103.5t107.5 -36.5t107.5 36.5t38.5 103.5q0 66 -38.5 102.5
t-107.5 36.5t-107.5 -36.5t-38.5 -102.5zM288 42q81 0 125.5 40t44.5 114t-44.5 114.5t-125.5 40.5t-125.5 -40.5t-44.5 -114.5t44.5 -114t125.5 -40z" />
    <glyph glyph-name="nine.osf" horiz-adv-x="560" 
d="M273 613q108 0 168.5 -93.5t60.5 -259.5q0 -179 -70 -279.5t-195 -100.5q-98 0 -172 51l21 48q61 -47 148 -47t140 70t64 199q-75 -34 -163 -34q-106 0 -165 56t-59 156q0 109 58.5 171.5t163.5 62.5zM281 216q87 0 159 35v9q0 142 -44.5 221.5t-123.5 79.5
q-75 0 -117 -48t-42 -133q0 -78 44 -121t124 -43z" />
    <glyph glyph-name="zero.dnom" horiz-adv-x="400" 
d="M201 -6q-75 0 -116.5 58t-41.5 164t41.5 164t116.5 58q74 0 115.5 -58t41.5 -164t-41.5 -164t-115.5 -58zM200 39q48 0 75 46.5t27 130.5t-27 130.5t-75 46.5t-75 -46.5t-27 -130.5t27 -130.5t75 -46.5z" />
    <glyph glyph-name="one.dnom" horiz-adv-x="229" 
d="M162 432v-432h-54v370l-69 -36l-21 44l101 54h43z" />
    <glyph glyph-name="two.dnom" horiz-adv-x="341" 
d="M89 44h211v-44h-265v28q0 29 9 54t28.5 48t34 36.5t41.5 35.5q44 35 68 64t24 65q0 29 -18.5 45.5t-52.5 16.5q-57 0 -102 -42l-21 37q59 50 130 50q57 0 88.5 -28.5t31.5 -79.5q0 -34 -19 -66t-38.5 -50t-56.5 -46q-31 -24 -47 -38.5t-31 -38t-15 -47.5z" />
    <glyph glyph-name="three.dnom" horiz-adv-x="344" 
d="M288 397l-125 -137q145 -39 145 -139q0 -60 -40.5 -93.5t-112.5 -33.5t-126 39l18 40q44 -34 104 -34q48 0 75 22t27 62q0 43 -40 68t-132 46l133 151h-161v44h235v-35z" />
    <glyph glyph-name="four.dnom" horiz-adv-x="357" 
d="M331 152v-44h-58v-108h-54v108h-194v36l162 294l48 -13l-152 -273h138v85l52 20v-105h58z" />
    <glyph glyph-name="five.dnom" horiz-adv-x="355" 
d="M115 265l65 -2q66 -2 102.5 -36.5t36.5 -94.5q0 -66 -41 -102t-115 -36q-79 0 -135 45l24 39q50 -39 109 -39q48 0 75 24t27 66t-24 65.5t-69 25.5l-114 3l23 209h209v-44h-157z" />
    <glyph glyph-name="six.dnom" horiz-adv-x="369" 
d="M191 269q66 0 103 -34.5t37 -97.5q0 -68 -37.5 -105.5t-104.5 -37.5q-69 0 -107.5 56.5t-38.5 159.5q0 108 44.5 168t124.5 60q61 0 108 -31l-16 -43q-38 29 -88 29q-49 0 -79.5 -37.5t-37.5 -106.5q45 20 92 20zM190 39q40 0 62.5 25.5t22.5 71.5q0 43 -24.5 67.5
t-66.5 24.5q-48 0 -87 -19q0 -80 24.5 -125t68.5 -45z" />
    <glyph glyph-name="seven.dnom" horiz-adv-x="317" 
d="M295 432v-36l-184 -413l-51 15l176 390h-211v44h270z" />
    <glyph glyph-name="eight.dnom" horiz-adv-x="377" 
d="M264 226q72 -29 72 -109q0 -59 -38.5 -91t-107.5 -32q-71 0 -109.5 32t-38.5 91q0 80 72 109q-58 28 -58 98q0 55 35 84.5t99 29.5q63 0 97.5 -29.5t34.5 -84.5q0 -70 -58 -98zM189 393q-37 0 -58 -19.5t-21 -54.5t21 -54.5t58 -19.5t57.5 19.5t20.5 54.5t-20.5 54.5
t-57.5 19.5zM189 39q44 0 68 22t24 61t-24 60.5t-68 21.5t-68 -21.5t-24 -60.5t24 -61t68 -22z" />
    <glyph glyph-name="nine.dnom" horiz-adv-x="369" 
d="M181 438q69 0 107.5 -59.5t38.5 -168.5q0 -103 -45 -159.5t-125 -56.5q-61 0 -108 31l17 43q35 -29 88 -29q52 0 82.5 39.5t34.5 110.5q-45 -20 -93 -20q-66 0 -102.5 34t-36.5 95q0 66 37.5 103t104.5 37zM95 299q0 -42 23.5 -65.5t67.5 -23.5q51 0 86 19q-3 78 -27 121
t-66 43q-40 0 -62 -24.5t-22 -69.5z" />
    <glyph glyph-name="zero.numr" horiz-adv-x="400" 
d="M201 282q-75 0 -116.5 58t-41.5 164t41.5 164t116.5 58q74 0 115.5 -58t41.5 -164t-41.5 -164t-115.5 -58zM200 327q48 0 75 46.5t27 130.5t-27 130.5t-75 46.5t-75 -46.5t-27 -130.5t27 -130.5t75 -46.5z" />
    <glyph glyph-name="one.numr" horiz-adv-x="229" 
d="M162 720v-432h-54v370l-69 -36l-21 44l101 54h43z" />
    <glyph glyph-name="two.numr" horiz-adv-x="341" 
d="M89 332h211v-44h-265v28q0 29 9 54t28.5 48t34 36.5t41.5 35.5q44 35 68 64t24 65q0 29 -18.5 45.5t-52.5 16.5q-57 0 -102 -42l-21 37q59 50 130 50q57 0 88.5 -28.5t31.5 -79.5q0 -34 -19 -66t-38.5 -50t-56.5 -46q-31 -24 -47 -38.5t-31 -38t-15 -47.5z" />
    <glyph glyph-name="three.numr" horiz-adv-x="344" 
d="M288 685l-125 -137q145 -39 145 -139q0 -60 -40.5 -93.5t-112.5 -33.5t-126 39l18 40q44 -34 104 -34q48 0 75 22t27 62q0 43 -40 68t-132 46l133 151h-161v44h235v-35z" />
    <glyph glyph-name="four.numr" horiz-adv-x="357" 
d="M331 440v-44h-58v-108h-54v108h-194v36l162 294l48 -13l-152 -273h138v85l52 20v-105h58z" />
    <glyph glyph-name="five.numr" horiz-adv-x="355" 
d="M115 553l65 -2q66 -2 102.5 -36.5t36.5 -94.5q0 -66 -41 -102t-115 -36q-79 0 -135 45l24 39q50 -39 109 -39q48 0 75 24t27 66t-24 65.5t-69 25.5l-114 3l23 209h209v-44h-157z" />
    <glyph glyph-name="six.numr" horiz-adv-x="369" 
d="M191 557q66 0 103 -34.5t37 -97.5q0 -68 -37.5 -105.5t-104.5 -37.5q-69 0 -107.5 56.5t-38.5 159.5q0 108 44.5 168t124.5 60q61 0 108 -31l-16 -43q-38 29 -88 29q-49 0 -79.5 -37.5t-37.5 -106.5q45 20 92 20zM190 327q40 0 62.5 25.5t22.5 71.5q0 43 -24.5 67.5
t-66.5 24.5q-48 0 -87 -19q0 -80 24.5 -125t68.5 -45z" />
    <glyph glyph-name="seven.numr" horiz-adv-x="317" 
d="M295 720v-36l-184 -413l-51 15l176 390h-211v44h270z" />
    <glyph glyph-name="eight.numr" horiz-adv-x="377" 
d="M264 514q72 -29 72 -109q0 -59 -38.5 -91t-107.5 -32q-71 0 -109.5 32t-38.5 91q0 80 72 109q-58 28 -58 98q0 55 35 84.5t99 29.5q63 0 97.5 -29.5t34.5 -84.5q0 -70 -58 -98zM189 681q-37 0 -58 -19.5t-21 -54.5t21 -54.5t58 -19.5t57.5 19.5t20.5 54.5t-20.5 54.5
t-57.5 19.5zM189 327q44 0 68 22t24 61t-24 60.5t-68 21.5t-68 -21.5t-24 -60.5t24 -61t68 -22z" />
    <glyph glyph-name="nine.numr" horiz-adv-x="369" 
d="M181 726q69 0 107.5 -59.5t38.5 -168.5q0 -103 -45 -159.5t-125 -56.5q-61 0 -108 31l17 43q35 -29 88 -29q52 0 82.5 39.5t34.5 110.5q-45 -20 -93 -20q-66 0 -102.5 34t-36.5 95q0 66 37.5 103t104.5 37zM95 587q0 -42 23.5 -65.5t67.5 -23.5q51 0 86 19q-3 78 -27 121
t-66 43q-40 0 -62 -24.5t-22 -69.5z" />
    <glyph glyph-name="backslash.case" horiz-adv-x="340" 
d="M89 730l211 -725l-50 -15l-211 725z" />
    <glyph glyph-name="exclamdown.case" horiz-adv-x="255" 
d="M172 687q0 43 -45 43q-21 0 -33 -11.5t-12 -31.5t12 -31.5t33 -11.5q45 0 45 43zM100 542h55l5 -542h-65z" />
    <glyph glyph-name="numbersign.case" horiz-adv-x="717" 
d="M669 489h-126l-25 -236h125l-7 -51h-124l-21 -202h-63l22 202h-221l-22 -202h-63l22 202h-123l5 51h124l26 236h-123l5 52h123l20 179h63l-19 -179h218l19 179h63l-19 -179h127zM454 253l26 237h-219l-27 -237h220z" />
    <glyph glyph-name="questiondown.case" horiz-adv-x="445" 
d="M263 730q21 0 33 -11.5t12 -31.5t-12 -31.5t-33 -11.5q-45 0 -45 43t45 43zM391 119l25 -46q-81 -83 -188 -83q-89 0 -138 46.5t-49 128.5q0 17 3 33.5t6 28.5t11.5 28t13 24.5t17 24.5t16.5 21t19 22.5t18 20.5q32 35 46 53t29.5 52t15.5 69h55q0 -46 -17 -88t-34 -63.5
t-50 -58.5q-40 -43 -61.5 -80.5t-21.5 -85.5q0 -57 33 -88t93 -31q92 0 158 72z" />
    <glyph glyph-name="slash.case" horiz-adv-x="340" 
d="M251 730l50 -15l-211 -725l-50 15z" />
    <glyph glyph-name="numbersign.lf" horiz-adv-x="717" 
d="M669 489h-126l-25 -236h125l-7 -51h-124l-21 -202h-63l22 202h-221l-22 -202h-63l22 202h-123l5 51h124l26 236h-123l5 52h123l20 179h63l-19 -179h218l19 179h63l-19 -179h127zM454 253l26 237h-219l-27 -237h220z" />
    <glyph glyph-name="braceleft.case" horiz-adv-x="292" 
d="M186 256v-149q0 -92 54 -121l-31 -46q-86 37 -86 151v158q0 39 -22.5 60.5t-61.5 21.5v57q39 0 61.5 22t22.5 61v158q0 114 86 151l31 -46q-54 -29 -54 -121v-150q0 -74 -65 -103q65 -29 65 -104z" />
    <glyph glyph-name="braceright.case" horiz-adv-x="292" 
d="M169 629v-158q0 -39 22.5 -61t61.5 -22v-57q-39 0 -61.5 -21.5t-22.5 -60.5v-158q0 -114 -86 -151l-31 46q54 29 54 121v149q0 75 65 104q-65 29 -65 103v150q0 92 -54 121l31 46q86 -37 86 -151z" />
    <glyph glyph-name="bracketleft.case" horiz-adv-x="300" 
d="M256 716h-95v-712h95v-54h-159v820h159v-54z" />
    <glyph glyph-name="bracketright.case" horiz-adv-x="300" 
d="M203 770v-820h-159v54h95v712h-95v54h159z" />
    <glyph glyph-name="parenleft.case" horiz-adv-x="279" 
d="M238 -38l-53 -22q-125 192 -125 420t125 420l53 -22q-113 -180 -113 -398t113 -398z" />
    <glyph glyph-name="parenright.case" horiz-adv-x="279" 
d="M94 -60l-53 22q113 180 113 398t-113 398l53 22q125 -192 125 -420t-125 -420z" />
    <glyph glyph-name="emdash.case" horiz-adv-x="866" 
d="M76 376h714v-51h-714v51z" />
    <glyph glyph-name="endash.case" horiz-adv-x="582" 
d="M76 376h430v-51h-430v51z" />
    <glyph glyph-name="hyphen.case" horiz-adv-x="405" 
d="M76 376h253v-51h-253v51z" />
    <glyph glyph-name="uni00AD.case" horiz-adv-x="405" 
d="M76 376h253v-51h-253v51z" />
    <glyph glyph-name="guillemotleft.case" horiz-adv-x="474" 
d="M53 350l150 216l41 -25l-109 -191l109 -191l-41 -25zM216 350l150 216l41 -25l-109 -191l109 -191l-41 -25z" />
    <glyph glyph-name="guillemotright.case" horiz-adv-x="474" 
d="M259 350l-150 -216l-41 25l109 191l-109 191l41 25zM422 350l-150 -216l-41 25l109 191l-109 191l41 25z" />
    <glyph glyph-name="guilsinglleft.case" horiz-adv-x="312" 
d="M53 350l150 216l41 -25l-109 -191l109 -191l-41 -25z" />
    <glyph glyph-name="guilsinglright.case" horiz-adv-x="312" 
d="M259 350l-150 -216l-41 25l109 191l-109 191l41 25z" />
    <glyph glyph-name="dollar.case" horiz-adv-x="527" 
d="M482 184q0 -84 -48 -133.5t-136 -58.5v-104h-48v102q-133 5 -208 63l22 54q64 -55 186 -60v294q-37 15 -56 24t-49 28t-45 37.5t-27 49t-12 67.5q0 82 49.5 129.5t139.5 52.5v101h48v-101q89 -7 169 -62l-28 -52q-58 44 -141 56v-274q28 -13 39 -18t36 -18t36 -22.5
t28 -26.5t25 -34.5t14 -41.5t6 -52zM123 554q0 -55 34 -87.5t93 -53.5v259q-61 -4 -94 -34t-33 -84zM298 325v-275q122 17 122 127q0 57 -31 89.5t-91 58.5z" />
    <glyph glyph-name="Euro.case" horiz-adv-x="656" 
d="M584 119l29 -48q-42 -38 -100 -59.5t-113 -21.5q-123 0 -198 76t-92 218h-67v48h64q-1 9 -1 28q0 28 1 43h-64v48h69q20 135 94 207t194 72q116 0 197 -56l-28 -48q-71 47 -169 47q-90 0 -147 -57t-75 -163h286l-27 -50h-265q-1 -15 -1 -43q0 -17 1 -26h227l-27 -50h-196
q15 -114 73 -175.5t151 -61.5q106 0 184 72z" />
    <glyph glyph-name="uni20BD.case" horiz-adv-x="621" 
d="M320 292h-128v-72h226v-51h-226v-169h-64v169h-73v51h73v72h-73v54h73v374q109 10 193 10q125 0 193.5 -57t68.5 -160q0 -105 -69 -163t-194 -58zM192 671v-325h129q93 0 145 44t52 123q0 77 -51 120t-145 43q-58 0 -130 -5z" />
    <glyph glyph-name="uni20B9.case" horiz-adv-x="577" 
d="M537 720v-50h-169q77 -44 87 -124h82v-50h-83q-17 -110 -142 -146q75 -17 115.5 -63t40.5 -115v-128q0 -24 11 -46q-18 -8 -38 -8q-16 0 -26.5 12.5t-10.5 35.5v130q0 72 -48 112t-135 40h-150v50h113q90 0 142.5 33t61.5 93h-317v50h317q-9 60 -59.5 92t-136.5 32h-121
v50h466z" />
    <glyph glyph-name="sterling.case" horiz-adv-x="532" 
d="M168 55h310v-55h-426v52h18q52 0 52 92v196h-67v55h67v152q0 87 46.5 135t131.5 48q97 0 172 -29l-9 -54q-63 26 -145 26q-132 0 -132 -142v-136h232v-55h-232v-214q0 -44 -18 -71z" />
    <glyph glyph-name="yen.case" horiz-adv-x="604" 
d="M578 717l-240 -402h146v-56h-150v-259h-64v259h-149v56h144l-239 402q10 13 32 13q37 0 56 -33l150 -256l42 -79l43 83l166 285z" />
    <glyph glyph-name="dollar.lf" horiz-adv-x="527" 
d="M482 184q0 -84 -48 -133.5t-136 -58.5v-104h-48v102q-133 5 -208 63l22 54q64 -55 186 -60v294q-37 15 -56 24t-49 28t-45 37.5t-27 49t-12 67.5q0 82 49.5 129.5t139.5 52.5v101h48v-101q89 -7 169 -62l-28 -52q-58 44 -141 56v-274q28 -13 39 -18t36 -18t36 -22.5
t28 -26.5t25 -34.5t14 -41.5t6 -52zM123 554q0 -55 34 -87.5t93 -53.5v259q-61 -4 -94 -34t-33 -84zM298 325v-275q122 17 122 127q0 57 -31 89.5t-91 58.5z" />
    <glyph glyph-name="Euro.lf" horiz-adv-x="656" 
d="M584 119l29 -48q-42 -38 -100 -59.5t-113 -21.5q-123 0 -198 76t-92 218h-67v48h64q-1 9 -1 28q0 28 1 43h-64v48h69q20 135 94 207t194 72q116 0 197 -56l-28 -48q-71 47 -169 47q-90 0 -147 -57t-75 -163h286l-27 -50h-265q-1 -15 -1 -43q0 -17 1 -26h227l-27 -50h-196
q15 -114 73 -175.5t151 -61.5q106 0 184 72z" />
    <glyph glyph-name="uni20BD.lf" horiz-adv-x="621" 
d="M320 292h-128v-72h226v-51h-226v-169h-64v169h-73v51h73v72h-73v54h73v374q109 10 193 10q125 0 193.5 -57t68.5 -160q0 -105 -69 -163t-194 -58zM192 671v-325h129q93 0 145 44t52 123q0 77 -51 120t-145 43q-58 0 -130 -5z" />
    <glyph glyph-name="uni20B9.lf" horiz-adv-x="577" 
d="M537 720v-50h-169q77 -44 87 -124h82v-50h-83q-17 -110 -142 -146q75 -17 115.5 -63t40.5 -115v-128q0 -24 11 -46q-18 -8 -38 -8q-16 0 -26.5 12.5t-10.5 35.5v130q0 72 -48 112t-135 40h-150v50h113q90 0 142.5 33t61.5 93h-317v50h317q-9 60 -59.5 92t-136.5 32h-121
v50h466z" />
    <glyph glyph-name="sterling.lf" horiz-adv-x="532" 
d="M168 55h310v-55h-426v52h18q52 0 52 92v196h-67v55h67v152q0 87 46.5 135t131.5 48q97 0 172 -29l-9 -54q-63 26 -145 26q-132 0 -132 -142v-136h232v-55h-232v-214q0 -44 -18 -71z" />
    <glyph glyph-name="yen.lf" horiz-adv-x="604" 
d="M578 717l-240 -402h146v-56h-150v-259h-64v259h-149v56h144l-239 402q10 13 32 13q37 0 56 -33l150 -256l42 -79l43 83l166 285z" />
    <glyph glyph-name="divide.case" horiz-adv-x="515" 
d="M257 441q-41 0 -41 39q0 40 41 40t41 -40q0 -39 -41 -39zM72 376h370v-48h-370v48zM257 184q-41 0 -41 39q0 40 41 40t41 -40q0 -39 -41 -39z" />
    <glyph glyph-name="equal.case" horiz-adv-x="520" 
d="M75 441h370v-48h-370v48zM75 311h370v-48h-370v48z" />
    <glyph glyph-name="greater.case" horiz-adv-x="487" 
d="M73 548l370 -171v-49l-370 -170v51l320 144l-320 144v51z" />
    <glyph glyph-name="greaterequal.case" horiz-adv-x="541" 
d="M91 598l370 -156v-48l-370 -154v50l318 128l-318 129v51zM91 100v48h370v-48h-370z" />
    <glyph glyph-name="less.case" horiz-adv-x="487" 
d="M414 548v-51l-320 -144l320 -144v-51l-370 170v49z" />
    <glyph glyph-name="lessequal.case" horiz-adv-x="541" 
d="M450 598v-51l-318 -129l318 -128v-50l-370 154v48zM80 100v48h370v-48h-370z" />
    <glyph glyph-name="logicalnot.case" horiz-adv-x="520" 
d="M74 439h370v-172h-61v123h-309v49z" />
    <glyph glyph-name="minus.case" horiz-adv-x="520" 
d="M75 376h370v-48h-370v48z" />
    <glyph glyph-name="multiply.case" horiz-adv-x="493" 
d="M430 491l-143 -143l143 -144l-40 -40l-143 144l-144 -144l-40 40l144 144l-144 143l40 40l144 -143l143 143z" />
    <glyph glyph-name="notequal.case" horiz-adv-x="520" 
d="M445 393h-150l-24 -82h174v-48h-188l-48 -163h-42l47 163h-139v48h153l24 82h-177v48h191l44 152h43l-44 -152h136v-48z" />
    <glyph glyph-name="percent.case" horiz-adv-x="716" 
d="M182 360q-64 0 -99.5 48.5t-35.5 136.5t35.5 136.5t99.5 48.5q63 0 98.5 -48.5t35.5 -136.5t-35.5 -136.5t-98.5 -48.5zM103 19l468 711l40 -29l-468 -711zM181 403q38 0 60 37.5t22 104.5t-22 104.5t-60 37.5t-59.5 -37.5t-21.5 -104.5t21.5 -104.5t59.5 -37.5zM536 -10
q-64 0 -99.5 48.5t-35.5 136.5t35.5 136.5t99.5 48.5q63 0 98.5 -48.5t35.5 -136.5t-35.5 -136.5t-98.5 -48.5zM535 33q38 0 60 37.5t22 104.5t-22 104.5t-60 37.5t-59.5 -37.5t-21.5 -104.5t21.5 -104.5t59.5 -37.5z" />
    <glyph glyph-name="perthousand.case" horiz-adv-x="1022" 
d="M182 360q-64 0 -99.5 48.5t-35.5 136.5t35.5 136.5t99.5 48.5q63 0 98.5 -48.5t35.5 -136.5t-35.5 -136.5t-98.5 -48.5zM103 19l468 711l40 -29l-468 -711zM181 403q38 0 60 37.5t22 104.5t-22 104.5t-60 37.5t-59.5 -37.5t-21.5 -104.5t21.5 -104.5t59.5 -37.5zM536 -10
q-64 0 -99.5 48.5t-35.5 136.5t35.5 136.5t99.5 48.5q63 0 98.5 -48.5t35.5 -136.5t-35.5 -136.5t-98.5 -48.5zM851 -10q-64 0 -99.5 48.5t-35.5 136.5t35.5 136.5t99.5 48.5q63 0 98.5 -48.5t35.5 -136.5t-35.5 -136.5t-98.5 -48.5zM535 33q38 0 60 37.5t22 104.5
t-22 104.5t-60 37.5t-59.5 -37.5t-21.5 -104.5t21.5 -104.5t59.5 -37.5zM850 33q38 0 60 37.5t22 104.5t-22 104.5t-60 37.5t-59.5 -37.5t-21.5 -104.5t21.5 -104.5t59.5 -37.5z" />
    <glyph glyph-name="plus.case" horiz-adv-x="469" 
d="M419 376v-48h-154v-161h-62v161h-154v48h154v161h61v-161h155z" />
    <glyph glyph-name="plusminus.case" horiz-adv-x="532" 
d="M296 440h155v-49h-154v-153h-62v153h-154v49h154v153h61v-153zM81 100v48h370v-48h-370z" />
    <glyph glyph-name="brevecombcy" horiz-adv-x="0" 
d="M-76 709h48q0 -59 -36 -91t-102 -32t-102 32t-36 91h49q0 -36 23.5 -56.5t65.5 -20.5q43 0 66.5 20.5t23.5 56.5z" />
    <glyph glyph-name="brevecy" horiz-adv-x="331" 
d="M255 709h48q0 -59 -36 -91t-102 -32t-102 32t-36 91h49q0 -36 23.5 -56.5t65.5 -20.5q43 0 66.5 20.5t23.5 56.5z" />
    </font>
</defs>
</svg>
